<?xml version="1.0" encoding="utf-8"?>
<!-- Generator: Adobe Illustrator 22.0.0, SVG Export Plug-In . SVG Version: 6.00 Build 0)  -->
<svg version="1.1" id="Layer_1" xmlns="http://www.w3.org/2000/svg" xmlns:xlink="http://www.w3.org/1999/xlink" x="0px" y="0px"
	 viewBox="0 0 998 96.2" style="enable-background:new 0 0 998 96.2;" xml:space="preserve">
<style type="text/css">
	.st0{display:none;}
	.st1{display:inline;}
	.st2{fill:#081434;}
	
		.st3{display:inline;opacity:0.4;fill:none;stroke:#FCB713;stroke-width:3;stroke-linejoin:round;stroke-miterlimit:10;enable-background:new    ;}
	
		.st4{display:inline;opacity:0.4;fill:none;stroke:#FCB713;stroke-width:3;stroke-linecap:round;stroke-linejoin:round;stroke-miterlimit:10;enable-background:new    ;}
	
		.st5{display:inline;opacity:0.4;fill:none;stroke:#FCB713;stroke-width:2;stroke-linecap:round;stroke-linejoin:round;stroke-miterlimit:10;enable-background:new    ;}
	.st6{display:inline;opacity:0.4;}
	.st7{fill:none;stroke:#FCB713;stroke-width:4;stroke-linecap:round;stroke-linejoin:round;stroke-miterlimit:10;}
	.st8{fill:#FCB713;}
	.st9{fill:none;stroke:#FCB713;stroke-width:2;stroke-linecap:round;stroke-linejoin:round;stroke-miterlimit:10;}
	.st10{fill:none;stroke:#FCB713;stroke-width:3;stroke-linecap:round;stroke-linejoin:round;stroke-miterlimit:10;}
	.st11{fill:#FCB713;stroke:#FCB713;stroke-linecap:round;stroke-linejoin:round;stroke-miterlimit:10;}
	.st12{fill:none;stroke:#FCB713;stroke-linecap:round;stroke-linejoin:round;stroke-miterlimit:10;}
	.st13{fill:none;stroke:#FCB713;stroke-width:2;stroke-miterlimit:10;}
	.st14{fill:#C32126;stroke:#FCB713;stroke-linecap:round;stroke-linejoin:round;stroke-miterlimit:10;}
	.st15{fill:#FCB713;stroke:#FCB713;stroke-width:2;stroke-linecap:round;stroke-linejoin:round;stroke-miterlimit:10;}
	.st16{fill:#FBED21;stroke:#FBED21;stroke-width:2;stroke-linecap:round;stroke-miterlimit:10;}
	.st17{fill:none;stroke:#FBED21;stroke-width:2;stroke-linecap:round;stroke-miterlimit:10;}
	.st18{fill:#FBED21;}
	.st19{font-family:'News701BT-BoldA';}
	.st20{font-size:41.4534px;}
	.st21{fill:none;stroke:#FCB713;stroke-width:1.5;stroke-linecap:round;stroke-linejoin:round;stroke-miterlimit:10;}
	.st22{fill:#FCB713;stroke:#FCB713;stroke-width:3;stroke-linecap:round;stroke-linejoin:round;stroke-miterlimit:10;}
	.st23{fill:none;stroke:#FCB713;stroke-linecap:square;stroke-linejoin:round;stroke-miterlimit:10;stroke-dasharray:5;}
	
		.st24{opacity:0.15;fill:none;stroke:#FCB713;stroke-width:3;stroke-linejoin:round;stroke-miterlimit:10;enable-background:new    ;}
	
		.st25{opacity:0.15;fill:none;stroke:#FCB713;stroke-width:3;stroke-linecap:round;stroke-linejoin:round;stroke-miterlimit:10;enable-background:new    ;}
	
		.st26{opacity:0.15;fill:none;stroke:#FCB713;stroke-width:2;stroke-linecap:round;stroke-linejoin:round;stroke-miterlimit:10;enable-background:new    ;}
	.st27{opacity:0.15;}
	.st28{fill:none;stroke:#FCB713;stroke-width:0.5;stroke-linecap:round;stroke-linejoin:round;stroke-miterlimit:10;}
	.st29{font-size:21.2046px;}
	.st30{font-size:10.0411px;}
	.st31{fill:#001147;}
	.st32{fill:#FFB900;}
	.st33{display:inline;fill:#FFB900;}
	.st34{display:inline;fill:none;stroke:#001147;stroke-width:2;stroke-linecap:round;stroke-miterlimit:10;}
	.st35{fill:none;stroke:#FFB900;stroke-width:12;stroke-miterlimit:10;}
	.st36{fill:none;stroke:#001147;stroke-width:12;stroke-linecap:round;stroke-miterlimit:10;}
	.st37{display:inline;fill:none;stroke:#FFB900;stroke-width:10;stroke-linecap:round;stroke-linejoin:round;stroke-miterlimit:10;}
</style>
<g id="Layer_1_1_" class="st0">
	<g class="st1">
		<rect x="-114.5" y="-131.8" class="st2" width="1000" height="360.9"/>
	</g>
	<polygon class="st3" points="327.7,29.2 367.8,1.5 378.9,17.6 409.7,-3.7 418.4,9 451.3,-13.7 444,-24.2 474.3,-18.7 469,10.2 
		459.4,-1.9 417.7,26.9 408.1,13 376.8,34.5 365.2,17.7 334,39.2 	"/>
	<polygon class="st3" points="-90.1,34.7 -65.4,17.6 -58.5,27.5 -39.5,14.4 -34.1,22.2 -13.8,8.2 -18.3,1.7 0.5,5.1 -2.8,23 
		-8.7,15.5 -34.5,33.3 -40.5,24.7 -59.8,38 -67,27.6 -86.3,40.9 	"/>
	<path class="st4" d="M224.6,24.9c-3.6,15.3-29,31.1-29,31.1s-29.5-18.2-29.5-34.5c0-1.1,0-3.4,0-3.4c0-11.4,6.8-20.7,15.1-20.7
		c7,0,12.9,6.5,14.6,15.4l0,0c1.6-9,7.6-15.7,14.7-15.7c8.3,0,15.1,9.3,15.1,20.7C225.7,20.3,225.4,22.7,224.6,24.9L224.6,24.9z"/>
	<path class="st5" d="M342.9-94.2c-1.8,7.7-14.5,15.5-14.5,15.5s-14.7-9.1-14.7-17.3c0-0.6,0-1.7,0-1.7c0-5.7,3.4-10.3,7.5-10.3
		c3.5,0,6.5,3.3,7.3,7.7l0,0c0.8-4.5,3.8-7.9,7.3-7.9c4.2,0,7.5,4.6,7.5,10.3C343.4-96.6,343.3-95.3,342.9-94.2L342.9-94.2z"/>
	<path class="st5" d="M675.2,201.9c-1.8,7.7-14.5,15.5-14.5,15.5s-14.7-9.1-14.7-17.3c0-0.6,0-1.7,0-1.7c0-5.7,3.4-10.3,7.5-10.3
		c3.5,0,6.5,3.3,7.3,7.7l0,0c0.8-4.5,3.8-7.9,7.3-7.9c4.2,0,7.5,4.6,7.5,10.3C675.7,199.6,675.5,200.8,675.2,201.9L675.2,201.9z"/>
	<path class="st5" d="M57.4,199.8c-1.8,7.7-14.5,15.5-14.5,15.5s-14.7-9.1-14.7-17.3c0-0.6,0-1.7,0-1.7c0-5.7,3.4-10.3,7.5-10.3
		c3.5,0,6.5,3.3,7.3,7.7l0,0c0.8-4.5,3.8-7.9,7.3-7.9c4.2,0,7.5,4.6,7.5,10.3C57.9,197.5,57.7,198.7,57.4,199.8L57.4,199.8z"/>
	<g class="st6">
		<circle class="st7" cx="521.8" cy="0.8" r="27.6"/>
		<g>
			<g>
				<path class="st8" d="M510.2-2.9c3.9,0,3.9-6,0-6C506.3-8.9,506.3-2.9,510.2-2.9L510.2-2.9z"/>
			</g>
		</g>
		<g>
			<g>
				<path class="st8" d="M532.3-2.9c3.9,0,3.9-6,0-6C528.4-8.9,528.4-2.9,532.3-2.9L532.3-2.9z"/>
			</g>
		</g>
		<path class="st9" d="M509.6,7.4c0,0,11,14.4,23.2,0"/>
	</g>
	<g class="st6">
		<circle class="st7" cx="205.4" cy="194" r="27.6"/>
		<g>
			<g>
				<path class="st8" d="M193.8,190.4c3.9,0,3.9-6,0-6C190,184.4,190,190.4,193.8,190.4L193.8,190.4z"/>
			</g>
		</g>
		<g>
			<g>
				<path class="st8" d="M215.9,190.4c3.9,0,3.9-6,0-6C212.1,184.4,212.1,190.4,215.9,190.4L215.9,190.4z"/>
			</g>
		</g>
		<path class="st9" d="M193.3,200.6c0,0,11,14.4,23.2,0"/>
	</g>
	<g class="st6">
		<circle class="st7" cx="765.9" cy="-26.8" r="17.1"/>
		<g>
			<g>
				<path class="st8" d="M758.8-27.9c3.9,0,3.9-6,0-6C754.9-33.9,754.9-27.9,758.8-27.9L758.8-27.9z"/>
			</g>
		</g>
		<g>
			<g>
				<path class="st8" d="M772.4-27.9c3.9,0,3.9-6,0-6C768.6-33.9,768.6-27.9,772.4-27.9L772.4-27.9z"/>
			</g>
		</g>
		<path class="st9" d="M758.4-22.7c0,0,6.8,8.9,14.3,0"/>
	</g>
	<g class="st6">
		<circle class="st7" cx="-54.7" cy="-25.8" r="17.1"/>
		<g>
			<g>
				<path class="st8" d="M-61.8-26.9c3.9,0,3.9-6,0-6S-65.7-26.9-61.8-26.9L-61.8-26.9z"/>
			</g>
		</g>
		<g>
			<g>
				<path class="st8" d="M-48.2-26.9c3.9,0,3.9-6,0-6C-52-32.9-52-26.9-48.2-26.9L-48.2-26.9z"/>
			</g>
		</g>
		<path class="st9" d="M-62.2-21.7c0,0,6.8,8.9,14.3,0"/>
	</g>
	<g class="st6">
		<path class="st10" d="M126.9-33.6H20.7c-4.7,0-8.5-3.8-8.5-8.5v-55.4c0-4.7,3.8-8.5,8.5-8.5h106.1c4.7,0,8.5,3.8,8.5,8.5v55.4
			C135.4-37.4,131.6-33.6,126.9-33.6z"/>
		<path class="st11" d="M32.6-85.5l-1.4-1.2C30.7-87.2,31-88,31.7-88l2.1,0.2c0.3,0,0.6-0.2,0.7-0.4l0.8-2c0.3-0.6,1.1-0.6,1.3,0
			l1,2.4l0,0l2.3-0.1c0.7,0,1,0.9,0.5,1.3L39-85.5c-0.3,0.2-0.4,0.5-0.2,0.9l1,2.4c0.3,0.6-0.5,1.3-1.1,0.9l-2.6-1.6
			c-0.2-0.1-0.5-0.1-0.7,0l-2.7,1.6c-0.6,0.4-1.3-0.3-1-0.9l1.1-2.4C32.9-85,32.9-85.3,32.6-85.5z"/>
		<path class="st11" d="M52.2-85.4l-2.1-1.8c-0.3-0.3-0.1-0.9,0.3-0.8l3.1,0.2c0.2,0,0.4-0.1,0.5-0.3l1.2-2.7c0.2-0.4,0.7-0.4,0.9,0
			l1.2,3l0,0l3.2-0.1c0.5,0,0.7,0.6,0.3,0.8l-2.3,1.7c-0.2,0.1-0.2,0.4-0.2,0.6l1.3,3.3c0.2,0.4-0.3,0.8-0.7,0.6L55.5-83
			c-0.1-0.1-0.3-0.1-0.5,0l-3.5,2.1c-0.4,0.2-0.9-0.2-0.7-0.6l1.5-3.3C52.4-85.1,52.4-85.3,52.2-85.4z"/>
		<path class="st11" d="M71.6-85.4l-2.1-1.8c-0.4-0.3-0.1-0.9,0.3-0.8l3.1,0.2c0.2,0,0.4-0.1,0.5-0.3l1.2-2.7c0.2-0.4,0.7-0.4,0.9,0
			l1.2,3l0,0l3.2-0.1c0.5,0,0.7,0.6,0.3,0.9l-2.3,1.7c-0.2,0.1-0.2,0.4-0.2,0.6l1.3,3.3c0.2,0.4-0.3,0.8-0.7,0.6l-3.4-2.1
			c-0.1-0.1-0.3-0.1-0.5,0l-3.5,2.1c-0.4,0.2-0.9-0.2-0.7-0.6l1.5-3.3C71.9-85.1,71.8-85.3,71.6-85.4z"/>
		<path class="st12" d="M91.1-85.4l-2-1.7c-0.4-0.3-0.1-1,0.4-0.9l2.9,0.2c0.2,0,0.4-0.1,0.5-0.3l1.1-2.6c0.2-0.4,0.8-0.4,1,0
			l1.1,2.9l0,0l3-0.1c0.5,0,0.7,0.6,0.3,0.9l-2.1,1.5c-0.2,0.1-0.3,0.4-0.2,0.6l1.2,3.1c0.2,0.5-0.3,0.9-0.8,0.6l-3.3-2
			c-0.2-0.1-0.4-0.1-0.5,0l-3.3,2c-0.4,0.3-1-0.2-0.7-0.7l1.4-3.1C91.3-85,91.2-85.3,91.1-85.4z"/>
		<path class="st12" d="M110.5-85.5l-1.9-1.6c-0.4-0.3-0.1-1,0.4-1l2.8,0.2c0.2,0,0.5-0.1,0.5-0.3l1.1-2.5c0.2-0.5,0.8-0.4,1,0
			l1.1,2.8l0,0l2.9-0.1c0.5,0,0.8,0.7,0.4,1l-2,1.5c-0.2,0.1-0.3,0.4-0.2,0.6l1.2,3c0.2,0.5-0.3,1-0.8,0.7l-3.2-1.9
			c-0.2-0.1-0.4-0.1-0.6,0l-3.2,1.9c-0.5,0.3-1-0.2-0.8-0.7l1.3-3C110.7-85,110.7-85.3,110.5-85.5z"/>
		<line class="st9" x1="29.9" y1="-68.7" x2="55.4" y2="-68.7"/>
		<line class="st9" x1="60.2" y1="-68.7" x2="121.3" y2="-68.7"/>
		<line class="st9" x1="121.3" y1="-61.2" x2="95.8" y2="-61.2"/>
		<line class="st9" x1="91.1" y1="-61.2" x2="29.9" y2="-61.2"/>
		<line class="st9" x1="29.9" y1="-45.5" x2="63" y2="-45.5"/>
		<line class="st9" x1="67.3" y1="-45.5" x2="121.3" y2="-45.5"/>
		<line class="st9" x1="29.9" y1="-53.3" x2="121.7" y2="-53.3"/>
	</g>
	<g class="st6">
		<path class="st10" d="M792.3,154.2h-59.1c-4.7,0-8.5-3.8-8.5-8.5V118c0-4.7,3.8-8.5,8.5-8.5h59.1c4.7,0,8.5,3.8,8.5,8.5v27.7
			C800.8,150.4,797,154.2,792.3,154.2z"/>
		<path class="st11" d="M737.3,122.2l-0.8-0.7c-0.3-0.3-0.1-0.8,0.3-0.8l1.3,0.1c0.2,0,0.4-0.1,0.4-0.3l0.5-1.2
			c0.2-0.4,0.7-0.4,0.8,0l0.6,1.5l0,0l1.4-0.1c0.4,0,0.6,0.5,0.3,0.8l-0.9,0.7c-0.2,0.1-0.2,0.3-0.2,0.5l0.6,1.5
			c0.2,0.4-0.3,0.8-0.7,0.6l-1.6-1c-0.1-0.1-0.3-0.1-0.5,0l-1.6,1c-0.4,0.2-0.8-0.2-0.6-0.6l0.7-1.5
			C737.5,122.5,737.5,122.3,737.3,122.2z"/>
		<path class="st11" d="M749.4,122.2l-1.3-1.1c-0.2-0.2-0.1-0.5,0.2-0.5l1.9,0.1c0.1,0,0.2-0.1,0.3-0.2l0.7-1.7
			c0.1-0.2,0.4-0.2,0.5,0l0.7,1.9l0,0l2-0.1c0.3,0,0.4,0.4,0.2,0.5l-1.4,1c-0.1,0.1-0.1,0.2-0.1,0.3l0.8,2c0.1,0.3-0.2,0.5-0.4,0.4
			l-2.1-1.3c-0.1-0.1-0.2-0.1-0.3,0l-2.2,1.3c-0.2,0.1-0.5-0.1-0.4-0.4l0.9-2.1C749.5,122.5,749.5,122.3,749.4,122.2z"/>
		<path class="st11" d="M761.4,122.2l-1.3-1.1c-0.2-0.2-0.1-0.5,0.2-0.5l1.9,0.1c0.1,0,0.2-0.1,0.3-0.2l0.7-1.7
			c0.1-0.2,0.4-0.2,0.5,0l0.7,1.9l0,0l2-0.1c0.3,0,0.4,0.4,0.2,0.5l-1.4,1c-0.1,0.1-0.1,0.2-0.1,0.3l0.8,2c0.1,0.3-0.2,0.5-0.4,0.4
			l-2-1.1c-0.1-0.1-0.2-0.1-0.3,0L761,125c-0.2,0.1-0.5-0.1-0.4-0.4l0.9-2.1C761.6,122.5,761.5,122.3,761.4,122.2z"/>
		<path class="st12" d="M773.4,122.2l-1.2-1c-0.2-0.2-0.1-0.6,0.2-0.6l1.8,0.1c0.1,0,0.3-0.1,0.3-0.2l0.7-1.6c0.1-0.3,0.5-0.3,0.6,0
			l0.7,1.8l0,0l1.8-0.1c0.3,0,0.5,0.4,0.2,0.6l-1.3,1c-0.1,0.1-0.2,0.2-0.1,0.4l0.8,1.9c0.1,0.3-0.2,0.6-0.5,0.4l-2-1.2
			c-0.1-0.1-0.2-0.1-0.3,0l-2,1.2c-0.3,0.2-0.6-0.1-0.5-0.4l0.9-1.9C773.6,122.5,773.5,122.3,773.4,122.2z"/>
		<path class="st12" d="M785.4,122.2l-1.2-1c-0.3-0.2-0.1-0.6,0.2-0.6l1.7,0.1c0.1,0,0.3-0.1,0.3-0.2l0.7-1.5c0.1-0.3,0.5-0.3,0.6,0
			l0.7,1.7l0,0l1.8-0.1c0.3,0,0.5,0.4,0.2,0.6l-1.2,0.9c-0.1,0.1-0.2,0.3-0.1,0.4l0.7,1.9c0.1,0.3-0.2,0.6-0.5,0.4l-2-1.2
			c-0.1-0.1-0.2-0.1-0.4,0l-2,1.2c-0.3,0.2-0.6-0.1-0.5-0.4l0.8-1.9C785.6,122.5,785.5,122.3,785.4,122.2z"/>
		<line class="st9" x1="735.6" y1="132.5" x2="751.4" y2="132.5"/>
		<line class="st9" x1="754.3" y1="132.5" x2="792.1" y2="132.5"/>
		<line class="st9" x1="792.1" y1="137.2" x2="776.4" y2="137.2"/>
		<line class="st9" x1="773.4" y1="137.2" x2="735.6" y2="137.2"/>
		<line class="st9" x1="735.6" y1="146.9" x2="756.1" y2="146.9"/>
		<line class="st9" x1="758.8" y1="146.9" x2="792.1" y2="146.9"/>
		<line class="st9" x1="735.6" y1="142.1" x2="792.4" y2="142.1"/>
	</g>
	<g class="st6">
		<polygon class="st7" points="171.6,-105.4 221.2,-105.4 221.2,-27.3 196.4,-52.1 171.6,-25.8 		"/>
		<polygon class="st11" points="192.3,-76.4 187.4,-80.6 194.2,-80 196.7,-85.7 198.9,-80 198.9,-80 205.4,-80.3 200.2,-76.4 
			202.9,-69.5 196.2,-73.6 189.2,-69.5 		"/>
		<circle class="st13" cx="196.4" cy="-77.6" r="16.5"/>
	</g>
	<g class="st6">
		<polygon class="st7" points="703.4,-19.1 734,-19.1 734,29.2 718.7,13.9 703.4,30.2 		"/>
		<polygon class="st11" points="716.2,-1.2 713.1,-3.7 717.4,-3.4 718.9,-6.9 720.2,-3.4 720.2,-3.4 724.3,-3.5 721,-1.1 722.7,3.1 
			718.5,0.6 714.2,3.1 		"/>
		<circle class="st13" cx="718.7" cy="-1.9" r="10.2"/>
	</g>
	<g class="st6">
		<polygon class="st7" points="498.5,161.4 529.1,161.4 529.1,209.7 513.8,194.4 498.5,210.6 		"/>
		<polygon class="st11" points="511.3,179.3 508.2,176.8 512.5,177.1 514,173.6 515.4,177.1 515.4,177.1 519.4,176.9 516.1,179.3 
			517.8,183.6 513.7,181.1 509.4,183.6 		"/>
		<circle class="st13" cx="513.8" cy="178.6" r="10.2"/>
	</g>
	<g class="st6">
		<polygon class="st7" points="-80.1,177.7 -57.8,177.7 -57.8,212.8 -69,201.7 -80.1,213.5 		"/>
		<polygon class="st14" points="-70.8,190.7 -73,188.8 -70,189.1 -68.9,186.5 -67.9,189.1 -67.9,189.1 -64.9,189 -67.3,190.7 
			-66.1,193.8 -69.1,192 -72.2,193.8 		"/>
		<circle class="st13" cx="-69" cy="190.2" r="7.4"/>
	</g>
	<g class="st6">
		<rect x="651.8" y="-47.5" class="st10" width="34" height="34"/>
		<polyline class="st9" points="658.2,-32.7 668.8,-22.1 695.9,-49.1 		"/>
	</g>
	<g class="st6">
		<rect x="135.8" y="108.3" class="st10" width="21" height="21"/>
		<polyline class="st9" points="139.8,117.5 146.3,124.1 163,107.4 		"/>
	</g>
	<g class="st6">
		<rect x="592.3" y="192.2" class="st10" width="21" height="21"/>
		<polyline class="st9" points="596.2,201.4 602.8,207.9 619.5,191.2 		"/>
	</g>
	<g class="st6">
		<rect x="316.8" y="-45.2" class="st10" width="8.1" height="28.5"/>
		<path class="st10" d="M329-45.2v28.5h5.4l4.7,4.7h22.4l14.6-14.6v-18.6h-26.8c0,0,5.6-18.6-6.8-20.3c-9.5-1.4,4.1,10.9-4.1,20.3
			C338.4-45.2,329-45.2,329-45.2z"/>
		<line class="st9" x1="376.2" y1="-37.6" x2="354.8" y2="-37.6"/>
		<line class="st9" x1="376.2" y1="-28.2" x2="354.8" y2="-28.2"/>
		<line class="st9" x1="369.6" y1="-20" x2="354.8" y2="-20"/>
	</g>
	<g class="st6">
		<rect x="814.7" y="141.6" class="st10" width="8.1" height="28.5"/>
		<path class="st10" d="M826.9,141.6v28.5h5.4l4.7,4.7h22.5l14.6-14.6v-18.7h-26.8c0,0,5.6-18.6-6.8-20.3
			c-9.5-1.4,4.1,10.9-4.1,20.3h-9.5V141.6z"/>
		<line class="st9" x1="874" y1="149.3" x2="852.7" y2="149.3"/>
		<line class="st9" x1="874" y1="158.6" x2="852.7" y2="158.6"/>
		<line class="st9" x1="867.5" y1="166.8" x2="852.7" y2="166.8"/>
	</g>
	<g class="st6">
		<rect x="165.7" y="132.4" class="st10" width="5" height="17.6"/>
		<path class="st10" d="M173.3,132.4V150h3.4l2.9,2.9h13.8l9-9v-11.5h-16.6c0,0,3.5-11.5-4.2-12.6c-5.9-0.8,2.5,6.7-2.5,12.6H173.3z
			"/>
		<line class="st9" x1="202.4" y1="137.1" x2="189.2" y2="137.1"/>
		<line class="st9" x1="202.4" y1="142.9" x2="189.2" y2="142.9"/>
		<line class="st9" x1="198.4" y1="148" x2="189.2" y2="148"/>
	</g>
	<g class="st6">
		<rect x="643.4" y="-111.8" class="st10" width="5" height="17.6"/>
		<path class="st10" d="M651-111.8v17.6h3.4l2.9,2.9h13.8l9-9v-11.5h-16.6c0,0,3.5-11.5-4.2-12.6c-5.9-0.8,2.5,6.7-2.5,12.6H651z"/>
		<line class="st9" x1="680.1" y1="-107" x2="666.9" y2="-107"/>
		<line class="st9" x1="680.1" y1="-101.3" x2="666.9" y2="-101.3"/>
		<line class="st9" x1="676.1" y1="-96.2" x2="666.9" y2="-96.2"/>
	</g>
	<g class="st6">
		<rect x="629.9" y="92" class="st10" width="10.9" height="85"/>
		<rect x="679.6" y="91.9" class="st10" width="10.9" height="85"/>
		<rect x="618.9" y="87.8" class="st15" width="85" height="14.3"/>
		<rect x="618.9" y="112.6" class="st15" width="85" height="14.3"/>
		<rect x="618.9" y="137.5" class="st15" width="85" height="14.3"/>
		<circle class="st16" cx="645.8" cy="94.6" r="3.4"/>
		<circle class="st16" cx="645.8" cy="119.8" r="3.4"/>
		<circle class="st16" cx="645.8" cy="145" r="3.4"/>
		<line class="st17" x1="654.2" y1="94.6" x2="677.8" y2="94.6"/>
		<line class="st17" x1="654.2" y1="119.8" x2="677.8" y2="119.8"/>
		<line class="st17" x1="654.2" y1="144.2" x2="677.8" y2="144.2"/>
	</g>
	<g class="st6">
		<rect x="16.5" y="4.4" class="st10" width="6.8" height="52.5"/>
		<rect x="47.2" y="4.4" class="st10" width="6.8" height="52.5"/>
		<rect x="9.9" y="1.9" class="st15" width="52.5" height="8.8"/>
		<rect x="9.9" y="17.2" class="st15" width="52.5" height="8.8"/>
		<rect x="9.9" y="32.6" class="st15" width="52.5" height="8.8"/>
		<circle class="st16" cx="26.5" cy="6" r="2.1"/>
		<circle class="st16" cx="26.5" cy="21.6" r="2.1"/>
		<circle class="st16" cx="26.5" cy="37.2" r="2.1"/>
		<line class="st17" x1="31.7" y1="6" x2="46.3" y2="6"/>
		<line class="st17" x1="31.7" y1="21.6" x2="46.3" y2="21.6"/>
		<line class="st17" x1="31.7" y1="36.7" x2="46.3" y2="36.7"/>
	</g>
	<g class="st6">
		<path class="st8" d="M642.2,29.3c4.3-4.5,6.9-10.8,6.9-17.9c0-13.5-9.7-24.4-21.8-24.4c-12,0-21.8,10.9-21.8,24.4
			c0,7.1,2.7,13.4,6.9,17.9c-17.6,4.8-30.3,17.8-30.3,33.1h90.4C672.5,47,659.9,34,642.2,29.3z"/>
		<path class="st9" d="M675.8,25.7c2.5-2.6,4.1-6.4,4.1-10.6c0-8-5.8-14.5-12.9-14.5c-7.1,0-12.9,6.5-12.9,14.5
			c0,4.2,1.6,7.9,4.1,10.6c-10.4,2.8-17.9,10.5-17.9,19.6h53.4C693.8,36.2,686.3,28.5,675.8,25.7z"/>
		<path class="st9" d="M597.1,24.2c2.7-2.8,4.4-6.8,4.4-11.3c0-8.5-6.1-15.4-13.7-15.4c-7.6,0-13.7,6.9-13.7,15.4
			c0,4.4,1.7,8.4,4.4,11.3c-11.1,3-19.1,11.2-19.1,20.8h56.8C616.2,35.4,608.2,27.2,597.1,24.2z"/>
	</g>
	<g class="st6">
		<path class="st8" d="M126.7,187.8c2.6-2.8,4.3-6.7,4.3-11c0-8.3-6-15.1-13.5-15.1c-7.4,0-13.5,6.8-13.5,15.1c0,4.4,1.7,8.3,4.3,11
			c-10.9,2.9-18.7,11-18.7,20.4h55.8C145.4,198.8,137.6,190.7,126.7,187.8z"/>
		<path class="st9" d="M147.5,185.6c1.6-1.6,2.5-4,2.5-6.5c0-4.9-3.6-8.9-8-8.9s-8,4-8,8.9c0,2.6,1,4.9,2.5,6.5
			c-6.5,1.7-11.1,6.5-11.1,12.1h33C158.5,192.1,153.9,187.3,147.5,185.6z"/>
		<path class="st9" d="M98.8,184.7c1.7-1.7,2.7-4.2,2.7-7c0-5.2-3.8-9.5-8.5-9.5s-8.5,4.3-8.5,9.5c0,2.7,1,5.2,2.7,7
			c-6.9,1.9-11.8,6.9-11.8,12.9h35.1C110.6,191.6,105.7,186.5,98.8,184.7z"/>
	</g>
	<g class="st6">
		<path class="st8" d="M-38.9-82.9c2.6-2.8,4.3-6.7,4.3-11c0-8.3-6-15.1-13.5-15.1s-13.4,6.7-13.4,15.1c0,4.4,1.7,8.3,4.3,11
			c-10.9,2.9-18.7,11-18.7,20.4h55.8C-20.2-71.9-28-80-38.9-82.9z"/>
		<path class="st9" d="M-18.2-85.1c1.6-1.6,2.5-4,2.5-6.5c0-4.9-3.6-8.9-8-8.9s-8,4-8,8.9c0,2.6,1,4.9,2.5,6.5
			c-6.5,1.7-11.1,6.5-11.1,12.1h33C-7.1-78.6-11.7-83.4-18.2-85.1z"/>
		<path class="st9" d="M-66.8-86c1.7-1.7,2.7-4.2,2.7-7c0-5.2-3.8-9.5-8.5-9.5c-4.7,0-8.5,4.3-8.5,9.5c0,2.7,1,5.2,2.7,7
			c-6.9,1.9-11.8,6.9-11.8,12.9h35.1C-55-79.1-59.9-84.2-66.8-86z"/>
	</g>
	<g class="st6">
		<path class="st15" d="M285.9-81.5h-23.7l-9.9,37.1l21.4-9.6l22.1,10.9L285.9-81.5z M273.3-57.1l-14,6.6l5.7-25h17.1l6.1,26.3
			L273.3-57.1z"/>
		<path class="st12" d="M257.5-70c-0.6-1-1.7-1.6-3-1.3l0,0c-3.1,0.8-4.8-3.6-1.8-5l0,0c2.3-1.1,1.9-4.4-0.6-5l0,0
			c-3.2-0.7-2.5-5.4,0.7-5.3l0,0c2.5,0.1,3.8-3,1.8-4.7l0,0c-2.5-2.1,0.2-6,3.1-4.3l0,0c2.2,1.3,4.7-0.9,3.8-3.3l0,0
			c-1.2-3,3-5.2,4.7-2.4l0,0c1.3,2.1,4.6,1.4,4.9-1.2l0,0c0.3-3.2,5-3.2,5.3,0.1l0,0c0.2,2.5,3.5,3.4,4.9,1.3l0,0
			c1.8-2.7,5.9-0.5,4.7,2.5l0,0c-1,2.3,1.5,4.6,3.7,3.4l0,0c2.8-1.6,5.5,2.3,3,4.4l0,0c-2,1.6-0.8,4.8,1.7,4.7l0,0
			c3.2-0.1,3.8,4.6,0.6,5.3l0,0c-2.5,0.5-2.9,3.9-0.7,5l0,0c2.9,1.4,1.2,5.8-1.9,4.9l0,0c-0.7-0.2-1.3-0.1-1.9,0.1"/>
		<circle class="st11" cx="273.1" cy="-81.5" r="15.8"/>
		<text transform="matrix(1 0 0 1 266.9949 -73.947)" class="st18 st19" style="font-size:24.3945px;">1</text>
	</g>
	<g class="st6">
		<path class="st15" d="M822.9,35.2h-43.7L761,98.3L800.5,82l40.8,18.6L822.9,35.2z M799.7,76.7l-25.8,11.2l10.5-42.5H816l11.3,44.7
			L799.7,76.7z"/>
		<path class="st12" d="M770.5,54.8c-1-1.7-3.1-2.8-5.6-2.2l0,0c-5.8,1.4-8.8-6.1-3.4-8.5l0,0c4.2-1.8,3.5-7.6-1-8.5l0,0
			c-5.8-1.2-4.7-9.2,1.3-8.9l0,0c4.7,0.2,6.9-5.2,3.4-8l0,0c-4.6-3.6,0.5-10.1,5.6-7.4l0,0c4,2.2,8.7-1.6,7-5.6l0,0
			c-2.2-5.1,5.5-8.8,8.7-4.1l0,0c2.5,3.6,8.6,2.3,9-2l0,0c0.6-5.5,9.3-5.4,9.8,0.1l0,0c0.4,4.3,6.4,5.7,9,2.1l0,0
			c3.3-4.6,10.9-0.8,8.6,4.3l0,0c-1.8,4,2.8,7.8,6.9,5.7l0,0c5.2-2.7,10.1,4,5.5,7.5l0,0c-3.6,2.7-1.5,8.1,3.2,8l0,0
			c6-0.1,6.9,7.9,1.1,8.9l0,0c-4.6,0.9-5.4,6.6-1.2,8.5l0,0c5.3,2.5,2.2,9.9-3.6,8.4l0,0c-1.3-0.3-2.5-0.2-3.5,0.2"/>
		<ellipse class="st11" cx="799.4" cy="35.2" rx="29.1" ry="26.8"/>
		<text transform="matrix(1.0844 0 0 1 787.9973 48.145)" class="st18 st19 st20">1</text>
	</g>
	<g class="st6">
		<ellipse class="st9" cx="571.5" cy="89.6" rx="26.2" ry="6.1"/>
		<path class="st9" d="M545.3,89.1c0,0-1.1,32.3,14.5,35.7c0,0,9.2,3.1,23.6,0.4c1.4-0.3,2.7-0.9,3.7-1.9c3.5-3.6,11.5-13.9,10.6-33
			"/>
		<path class="st9" d="M597.7,95.9c0,0,1.1-5.7,4.5-4.5c0,0,4.5,0,3.3,8.9c-1.1,8.9-6.7,10-6.7,10s-3.4-0.8-5.6,4.1"/>
		<path class="st12" d="M550.3,101.9c0,0,2.2,20.1,14.5,18.9"/>
		<ellipse class="st8" cx="570.9" cy="91.3" rx="22.8" ry="3.9"/>
		<path class="st21" d="M560.3,71.8c0,0-3,3,0,6.7s0,6.7,0,6.7"/>
		<path class="st21" d="M580.4,71.8c0,0-3,3,0,6.7s0,6.7,0,6.7"/>
		<path class="st21" d="M569.3,66.2c0,0-3,3,0,6.7s0,6.7,0,6.7"/>
	</g>
	<g class="st6">
		<ellipse class="st9" cx="153.7" cy="72" rx="16.2" ry="3.8"/>
		<path class="st9" d="M137.5,71.6c0,0-0.7,20,9,22c0,0,5.7,1.9,14.6,0.2c0.9-0.2,1.7-0.6,2.3-1.2c2.2-2.2,7.1-8.6,6.5-20.4"/>
		<path class="st9" d="M169.9,75.8c0,0,0.7-3.5,2.8-2.8c0,0,2.8,0,2.1,5.5s-4.1,6.2-4.1,6.2s-2.1-0.5-3.5,2.5"/>
		<path class="st12" d="M140.6,79.6c0,0,1.4,12.4,9,11.7"/>
		<ellipse class="st8" cx="153.3" cy="73" rx="14.1" ry="2.4"/>
		<path class="st21" d="M146.8,61c0,0-1.8,1.8,0,4.1c1.8,2.3,0,4.1,0,4.1"/>
		<path class="st21" d="M159.2,61c0,0-1.8,1.8,0,4.1c1.8,2.3,0,4.1,0,4.1"/>
		<path class="st21" d="M152.3,57.5c0,0-1.8,1.8,0,4.1s0,4.1,0,4.1"/>
	</g>
	<g class="st6">
		<g>
			<circle class="st9" cx="220.2" cy="88.1" r="15.3"/>
			<polygon class="st11" points="216.3,88.6 211.7,84.7 218.1,85.2 220.4,79.8 222.5,85.2 222.5,85.2 228.6,84.9 223.7,88.6 
				226.3,95.1 219.9,91.2 213.4,95.1 			"/>
		</g>
		<path class="st10" d="M213.5,123.5c0,0,6.8,13.9,13.3,0l15.7-24.8l0,0c1.7-3.6,2.6-7.8,2.3-12.1c-0.8-12.3-10.9-22.4-23.3-23.1
			c-14.2-0.8-26,10.6-26,24.6c0,4.7,1.3,9.1,3.6,12.9l-0.1,0.1L213.5,123.5L213.5,123.5z"/>
	</g>
	<g class="st6">
		<g>
			<circle class="st9" cx="724.4" cy="67.9" r="9.4"/>
			<polygon class="st11" points="722,68.3 719.2,65.9 723.1,66.2 724.6,62.9 725.9,66.2 725.9,66.2 729.7,66 726.6,68.3 728.2,72.3 
				724.3,69.9 720.2,72.3 			"/>
		</g>
		<path class="st10" d="M720.3,89.8c0,0,4.2,8.6,8.2,0l9.7-15.4l0,0c1.1-2.3,1.6-4.8,1.4-7.5c-0.5-7.6-6.7-13.8-14.4-14.3
			c-8.8-0.5-16.1,6.5-16.1,15.2c0,2.9,0.8,5.6,2.2,7.9h-0.1L720.3,89.8L720.3,89.8z"/>
	</g>
	<g class="st6">
		<rect x="261.9" y="51.9" class="st22" width="25.1" height="83.6"/>
		<path class="st22" d="M515.6,135.5h25.1l-35.8-83.6h-4.8h-20.3H475l-29.9,83.6h25.1l6.8-19.1h30.4L515.6,135.5z M482.2,102.1
			l8.7-24.3l10.4,24.3H482.2z"/>
		<polygon class="st22" points="440.4,73.4 440.4,51.9 397.3,51.9 372.3,51.9 372.3,73.4 372.3,83 372.3,104.5 372.3,114 
			372.3,135.5 397.3,135.5 440.4,135.5 440.4,114 397.3,114 397.3,103.3 423.6,103.3 423.6,85.3 397.3,85.3 397.3,73.4 		"/>
		<path class="st22" d="M320.9,51.9H297v83.6h23.9c24.4,0,44.2-18.7,44.2-41.8S345.3,51.9,320.9,51.9z M320.9,117.9h-1.2V69.6h1.2
			c14.1,0,25.6,10.8,25.6,24.2C346.4,107.1,335,117.9,320.9,117.9z"/>
		<g>
			<line class="st9" x1="263.5" y1="44.9" x2="285" y2="44.9"/>
			<line class="st9" x1="261.4" y1="40.9" x2="287.1" y2="40.9"/>
			<path class="st9" d="M289.7,19.5c0,0-9,7.7-6.3,17.4h-18.8h-0.7c2.7-9.6-6.1-18.8-6.1-18.8c-1.8-2.9-2.9-6.4-2.9-10.1
				c0-10.7,8.6-19.3,19.3-19.3c10.7,0,19.3,8.6,19.3,19.3C293.6,12.3,292.1,16.3,289.7,19.5L289.7,19.5z"/>
			<path class="st9" d="M270.5,30.5l-4.8-19.8c0,0,2.7-8,8,0c0,0,3.2-9.2,8,0l-4.8,19.8"/>
			<path class="st9" d="M273.7-4.9c0,0-12.9,0-12.9,16.1"/>
			<line class="st9" x1="273.3" y1="-38.3" x2="273.3" y2="-24.7"/>
			<line class="st9" x1="299.7" y1="-28" x2="291" y2="-17.5"/>
			<line class="st9" x1="313.9" y1="2.3" x2="300.4" y2="3.1"/>
			<line class="st9" x1="243.1" y1="-26.6" x2="252.8" y2="-17.1"/>
			<line class="st9" x1="230.3" y1="3.6" x2="243.9" y2="3.2"/>
			<line class="st9" x1="243.9" y1="13.7" x2="237.1" y2="16"/>
			<line class="st9" x1="244.6" y1="-7.1" x2="237.9" y2="-9.6"/>
			<line class="st9" x1="261.6" y1="-24.2" x2="258.8" y2="-30.8"/>
			<line class="st9" x1="284.7" y1="-24.3" x2="287.3" y2="-31"/>
			<line class="st9" x1="301.1" y1="-9" x2="307.5" y2="-12.2"/>
			<line class="st9" x1="302.4" y1="14.6" x2="309.1" y2="16.9"/>
		</g>
	</g>
	<g class="st6">
		<polygon class="st10" points="693.7,-118.1 793.6,-118.1 793.6,-56.6 693.7,-56.6 700.3,-63.8 695.7,-65.8 700.3,-72.4 693.7,-81 
			699,-84.4 693.7,-93 699,-98.9 693.7,-106.2 698.3,-110.2 		"/>
		<line class="st23" x1="708.2" y1="-114.5" x2="708.2" y2="-59.2"/>
		<line class="st9" x1="714.9" y1="-75.1" x2="783.7" y2="-75.1"/>
		<line class="st9" x1="714.9" y1="-67.8" x2="783.7" y2="-67.8"/>
		<text transform="matrix(1 0 0 1 724.7639 -86.95)" class="st8 st19" style="font-size:25.2051px;">20%</text>
	</g>
	<g class="st6">
		<polygon class="st10" points="-100.4,60.2 -0.4,60.2 -0.4,121.8 -100.4,121.8 -93.8,114.5 -98.4,112.5 -93.8,105.9 -100.4,97.3 
			-95.1,94 -100.4,85.4 -95.1,79.4 -100.4,72.1 -95.8,68.2 		"/>
		<line class="st23" x1="-85.8" y1="63.9" x2="-85.8" y2="119.1"/>
		<line class="st9" x1="-79.2" y1="103.3" x2="-10.4" y2="103.3"/>
		<line class="st9" x1="-79.2" y1="110.5" x2="-10.4" y2="110.5"/>
		<text transform="matrix(1 0 0 1 -69.2915 91.3948)" class="st8 st19" style="font-size:25.2051px;">20%</text>
	</g>
	<g class="st6">
		<polygon class="st10" points="320,180.3 381.8,180.3 381.8,218.3 320,218.3 324.1,213.8 321.2,212.6 324.1,208.5 320,203.2 
			323.2,201.1 320,195.8 323.2,192.1 320,187.6 322.8,185.2 		"/>
		<line class="st23" x1="329" y1="182.5" x2="329" y2="216.7"/>
		<line class="st9" x1="333.1" y1="206.9" x2="375.6" y2="206.9"/>
		<line class="st9" x1="333.1" y1="211.4" x2="375.6" y2="211.4"/>
		<text transform="matrix(1 0 0 1 339.2034 199.5149)" class="st8 st19" style="font-size:15.5779px;">20%</text>
	</g>
	<g class="st6">
		<path class="st10" d="M99.7,19.2l-8.2-6.9c-2-1.7-0.7-4.9,1.9-4.7l12.2,0.9c1.1,0.1,2.2-0.6,2.7-1.6L113-4c1-2.2,4.1-2.2,5,0.1
			l5,12.6l0,0l12.7-0.5c2.6-0.1,3.8,3.3,1.7,4.9l-8.6,6.4c-1,0.7-1.4,2-0.9,3.2l5.3,13.3c1,2.4-1.7,4.6-3.9,3.3l-14-8.4
			c-0.8-0.5-1.9-0.5-2.8,0l-14.2,8.4c-2.3,1.3-4.9-1-3.8-3.4l5.9-13.3C100.9,21.3,100.6,20,99.7,19.2z"/>
		<line class="st12" x1="134.5" y1="22.7" x2="146.7" y2="25.4"/>
		<line class="st12" x1="134.5" y1="22.7" x2="146.6" y2="25.7"/>
		<line class="st12" x1="127.2" y1="2" x2="134.9" y2="-7.8"/>
		<line class="st12" x1="143.8" y1="8.5" x2="151.3" y2="6.3"/>
		<line class="st12" x1="116.8" y1="-12.5" x2="117.7" y2="-20.2"/>
		<line class="st12" x1="86.3" y1="6.8" x2="79.1" y2="3.8"/>
		<line class="st12" x1="92.5" y1="42.1" x2="87.2" y2="47.8"/>
		<line class="st12" x1="136.5" y1="42.9" x2="141.9" y2="48.6"/>
		<line class="st12" x1="102.6" y1="2.1" x2="95" y2="-7.8"/>
		<line class="st12" x1="95.3" y1="22.4" x2="83.2" y2="25"/>
		<line class="st12" x1="114.9" y1="38.1" x2="114.8" y2="50.5"/>
		<line class="st12" x1="150.4" y1="27.2" x2="153.4" y2="28.1"/>
		<line class="st12" x1="137" y1="-10.8" x2="139.9" y2="-13.7"/>
		<line class="st12" x1="91.6" y1="-10.7" x2="90" y2="-12.4"/>
		<line class="st12" x1="77.8" y1="26.7" x2="73.8" y2="28.1"/>
		<line class="st12" x1="114.2" y1="55.6" x2="114.3" y2="59.1"/>
	</g>
	<g class="st6">
		<path class="st10" d="M820.5-47.6l-8.2-6.9c-2-1.7-0.7-4.9,1.9-4.7l12.3,0.9c1.1,0.1,2.2-0.6,2.7-1.6l4.7-10.9
			c1-2.2,4.1-2.2,5,0.1l5,12.6l0,0l12.7-0.5c2.6-0.1,3.8,3.3,1.7,4.9l-8.6,6.4c-1,0.7-1.4,2-0.9,3.2l5.3,13.3c1,2.4-1.7,4.6-3.9,3.3
			l-14-8.4c-0.8-0.5-1.9-0.5-2.8,0l-14.2,8.4c-2.3,1.3-4.9-1-3.8-3.4l5.9-13.3C821.7-45.6,821.5-46.9,820.5-47.6z"/>
		<line class="st12" x1="855.3" y1="-44.2" x2="867.5" y2="-41.5"/>
		<line class="st12" x1="855.3" y1="-44.2" x2="867.4" y2="-41.2"/>
		<line class="st12" x1="848.1" y1="-64.9" x2="855.7" y2="-74.7"/>
		<line class="st12" x1="864.6" y1="-58.4" x2="872.1" y2="-60.6"/>
		<line class="st12" x1="837.6" y1="-79.3" x2="838.6" y2="-87.1"/>
		<line class="st12" x1="807.1" y1="-60" x2="799.9" y2="-63.1"/>
		<line class="st12" x1="813.3" y1="-24.7" x2="808" y2="-19.1"/>
		<line class="st12" x1="857.3" y1="-23.9" x2="862.7" y2="-18.3"/>
		<line class="st12" x1="823.4" y1="-64.8" x2="815.8" y2="-74.6"/>
		<line class="st12" x1="816.1" y1="-44.5" x2="804" y2="-41.9"/>
		<line class="st12" x1="835.7" y1="-28.8" x2="835.6" y2="-16.3"/>
		<line class="st12" x1="871.2" y1="-39.7" x2="874.2" y2="-38.8"/>
		<line class="st12" x1="857.8" y1="-77.7" x2="860.7" y2="-80.6"/>
		<line class="st12" x1="812.4" y1="-77.6" x2="810.8" y2="-79.3"/>
		<line class="st12" x1="798.7" y1="-40.1" x2="794.6" y2="-38.8"/>
		<line class="st12" x1="835.1" y1="-11.3" x2="835.1" y2="-7.8"/>
	</g>
	<g class="st6">
		<path class="st10" d="M562.6,158.4l-5-4.3c-1.2-1-0.4-3.1,1.2-2.9l7.6,0.6c0.7,0.1,1.4-0.3,1.7-1l2.9-6.7c0.6-1.4,2.5-1.3,3.1,0
			l3.1,7.8l0,0l7.9-0.3c1.6-0.1,2.4,2,1.1,3l-5.3,3.9c-0.6,0.5-0.8,1.3-0.6,2l3.3,8.2c0.6,1.5-1,2.9-2.4,2l-8.7-5.2
			c-0.5-0.3-1.2-0.3-1.7,0l-8.8,5.2c-1.4,0.8-3-0.6-2.4-2.1l3.7-8.2C563.3,159.7,563.1,158.9,562.6,158.4z"/>
		<line class="st12" x1="584.1" y1="160.5" x2="591.6" y2="162.2"/>
		<line class="st12" x1="584.1" y1="160.5" x2="591.5" y2="162.4"/>
		<line class="st12" x1="579.6" y1="147.8" x2="584.3" y2="141.7"/>
		<line class="st12" x1="589.8" y1="151.8" x2="594.4" y2="150.4"/>
		<line class="st12" x1="573.1" y1="138.8" x2="573.7" y2="134"/>
		<line class="st12" x1="554.3" y1="150.7" x2="549.8" y2="148.9"/>
		<line class="st12" x1="558.1" y1="172.5" x2="554.8" y2="176"/>
		<line class="st12" x1="585.3" y1="173" x2="588.6" y2="176.5"/>
		<line class="st12" x1="564.3" y1="147.8" x2="559.6" y2="141.7"/>
		<line class="st12" x1="559.8" y1="160.3" x2="552.3" y2="162"/>
		<line class="st12" x1="571.9" y1="170" x2="571.9" y2="177.7"/>
		<line class="st12" x1="593.9" y1="163.3" x2="595.7" y2="163.9"/>
		<line class="st12" x1="585.6" y1="139.8" x2="587.4" y2="138"/>
		<line class="st12" x1="557.6" y1="139.9" x2="556.5" y2="138.8"/>
		<line class="st12" x1="549" y1="163" x2="546.5" y2="163.9"/>
		<line class="st12" x1="571.5" y1="180.8" x2="571.6" y2="183"/>
	</g>
	<g class="st6">
		<path class="st10" d="M625.9-87h-45.2c-7,0-12.7,5.7-12.7,12.7v21.5c0,0.6,0.1,1.2,0.1,1.7v5.5v14.3l9.2-9.2
			c1.1,0.3,2.2,0.5,3.3,0.5h45.2c7,0,12.7-5.7,12.7-12.7v-21.6C638.6-81.3,632.9-87,625.9-87z"/>
		<line class="st9" x1="579.8" y1="-74.6" x2="626.7" y2="-74.6"/>
		<line class="st9" x1="579.8" y1="-66.2" x2="626.7" y2="-66.2"/>
		<line class="st9" x1="579.8" y1="-57.7" x2="626.7" y2="-57.7"/>
		<line class="st9" x1="579.8" y1="-49.2" x2="626.7" y2="-49.2"/>
		<path class="st10" d="M513.5-104.6h36.8c5.7,0,10.4,4.9,10.4,10.9v18.5c0,0.5,0,1-0.1,1.5v4.7v12.3l-7.5-7.9
			c-0.9,0.2-1.8,0.4-2.7,0.4h-36.9c-5.7,0-10.4-4.9-10.4-10.9v-18.6C503.1-99.7,507.7-104.6,513.5-104.6z"/>
		<line class="st9" x1="551" y1="-94" x2="512.8" y2="-94"/>
		<line class="st9" x1="551" y1="-86.7" x2="512.8" y2="-86.7"/>
		<line class="st9" x1="551" y1="-79.4" x2="512.8" y2="-79.4"/>
		<line class="st9" x1="551" y1="-72.1" x2="512.8" y2="-72.1"/>
	</g>
	<g class="st6">
		<path class="st10" d="M464.7,163.4h-27.9c-4.3,0-7.8,3.5-7.8,7.8v13.3c0,0.4,0,0.7,0.1,1.1v3.4v8.9l5.7-5.7
			c0.7,0.2,1.3,0.3,2.1,0.3h27.9c4.3,0,7.8-3.5,7.8-7.8v-13.3C472.6,166.9,469,163.4,464.7,163.4z"/>
		<line class="st9" x1="436.3" y1="171" x2="465.2" y2="171"/>
		<line class="st9" x1="436.3" y1="176.2" x2="465.2" y2="176.2"/>
		<line class="st9" x1="436.3" y1="181.5" x2="465.2" y2="181.5"/>
		<line class="st9" x1="436.3" y1="186.7" x2="465.2" y2="186.7"/>
		<path class="st10" d="M395.2,152.5H418c3.5,0,6.4,3,6.4,6.7v11.5c0,0.3,0,0.6-0.1,0.9v2.9v7.6l-4.7-4.9c-0.5,0.2-1.1,0.2-1.7,0.2
			h-22.8c-3.5,0-6.4-3-6.4-6.7v-11.4C388.8,155.5,391.7,152.5,395.2,152.5z"/>
		<line class="st9" x1="418.4" y1="159.1" x2="394.8" y2="159.1"/>
		<line class="st9" x1="418.4" y1="163.6" x2="394.8" y2="163.6"/>
		<line class="st9" x1="418.4" y1="168.1" x2="394.8" y2="168.1"/>
		<line class="st9" x1="418.4" y1="172.6" x2="394.8" y2="172.6"/>
	</g>
	<g class="st6">
		<path class="st10" d="M783.2,182.5h-27.9c-4.3,0-7.8,3.5-7.8,7.8v13.3c0,0.4,0,0.7,0.1,1.1v3.4v8.9l5.7-5.7
			c0.7,0.2,1.3,0.3,2.1,0.3h27.9c4.3,0,7.8-3.5,7.8-7.8v-13.3C791,186,787.5,182.5,783.2,182.5z"/>
		<line class="st9" x1="754.7" y1="190.1" x2="783.7" y2="190.1"/>
		<line class="st9" x1="754.7" y1="195.4" x2="783.7" y2="195.4"/>
		<line class="st9" x1="754.7" y1="200.6" x2="783.7" y2="200.6"/>
		<line class="st9" x1="754.7" y1="205.8" x2="783.7" y2="205.8"/>
		<path class="st10" d="M713.7,171.6h22.8c3.5,0,6.4,3,6.4,6.7v11.4c0,0.3,0,0.6-0.1,0.9v2.9v7.6l-4.7-4.9c-0.5,0.2-1.1,0.2-1.7,0.2
			h-22.8c-3.5,0-6.4-3-6.4-6.7v-11.4C707.3,174.6,710.2,171.6,713.7,171.6z"/>
		<line class="st9" x1="736.9" y1="178.2" x2="713.3" y2="178.2"/>
		<line class="st9" x1="736.9" y1="182.7" x2="713.3" y2="182.7"/>
		<line class="st9" x1="736.9" y1="187.2" x2="713.3" y2="187.2"/>
		<line class="st9" x1="736.9" y1="191.7" x2="713.3" y2="191.7"/>
	</g>
	<g class="st6">
		<path class="st10" d="M21,148.5H-6.9c-4.3,0-7.8,3.5-7.8,7.8v13.3c0,0.4,0,0.7,0.1,1.1v3.4v8.9l5.7-5.7c0.7,0.2,1.3,0.3,2.1,0.3
			h27.9c4.3,0,7.8-3.5,7.8-7.8v-13.3C28.8,152,25.3,148.5,21,148.5z"/>
		<line class="st9" x1="-7.5" y1="156.1" x2="21.5" y2="156.1"/>
		<line class="st9" x1="-7.5" y1="161.4" x2="21.5" y2="161.4"/>
		<line class="st9" x1="-7.5" y1="166.6" x2="21.5" y2="166.6"/>
		<line class="st9" x1="-7.5" y1="171.8" x2="21.5" y2="171.8"/>
		<path class="st10" d="M-48.5,137.6h22.8c3.5,0,6.4,3,6.4,6.7v11.4c0,0.3,0,0.6-0.1,0.9v2.9v7.6l-4.7-4.9c-0.5,0.2-1.1,0.2-1.7,0.2
			h-22.7c-3.5,0-6.4-3-6.4-6.7v-11.4C-54.9,140.7-52,137.6-48.5,137.6z"/>
		<line class="st9" x1="-25.3" y1="144.2" x2="-48.9" y2="144.2"/>
		<line class="st9" x1="-25.3" y1="148.7" x2="-48.9" y2="148.7"/>
		<line class="st9" x1="-25.3" y1="153.2" x2="-48.9" y2="153.2"/>
		<line class="st9" x1="-25.3" y1="157.7" x2="-48.9" y2="157.7"/>
	</g>
	<g class="st6">
		<polygon class="st11" points="387.8,-77.5 384.3,-80.4 389.1,-80 390.9,-84 392.4,-80 392.4,-80 397,-80.2 393.3,-77.5 
			395.3,-72.6 390.5,-75.5 385.6,-72.6 		"/>
		<polygon class="st11" points="404.8,-77.5 401.3,-80.4 406.1,-80 407.8,-84 409.4,-80 409.4,-80 414,-80.2 410.3,-77.5 
			412.3,-72.6 407.5,-75.5 402.6,-72.6 		"/>
		<polygon class="st11" points="421.7,-77.5 418.3,-80.4 423.1,-80 424.8,-84 426.4,-80 426.4,-80 431,-80.2 427.3,-77.5 
			429.2,-72.6 424.5,-75.5 419.6,-72.6 		"/>
		<polygon class="st11" points="438.7,-77.5 435.3,-80.4 440.1,-80 441.8,-84 443.4,-80 443.4,-80 448,-80.2 444.3,-77.5 
			446.2,-72.6 441.5,-75.5 436.5,-72.6 		"/>
		<polygon class="st11" points="455.7,-77.5 452.2,-80.4 457.1,-80 458.8,-84 460.4,-80 460.4,-80 465,-80.2 461.3,-77.5 
			463.2,-72.6 458.4,-75.5 453.5,-72.6 		"/>
		<path class="st10" d="M456.3-106.9h-63.1c-9.8,0-17.7,6.9-17.7,15.5v26.2c0,0.7,0.1,1.4,0.2,2.1c0,4.1,2.3,7.8,6,9.5l5.9,2.8
			c0.7,0.3,1.3,0.6,2.1,0.7c1.2,0.2,2.3,0.3,3.6,0.3h32.2c1.5,12.5-2.4,18.6-2.4,18.6c14.9-4.2,17.5-9.5,18-19.1l15.2,0.5
			c9.8,0,17.7-6.9,17.7-15.5v-26.1C474-99.9,466.1-106.9,456.3-106.9z"/>
	</g>
	<g class="st6">
		<polygon class="st11" points="32.1,109.3 28.7,106.4 33.5,106.8 35.2,102.8 36.8,106.8 36.8,106.8 41.4,106.6 37.7,109.4 
			39.7,114.2 34.9,111.3 30,114.3 		"/>
		<polygon class="st11" points="49.1,109.3 45.7,106.4 50.5,106.8 52.2,102.8 53.8,106.8 53.8,106.8 58.4,106.6 54.7,109.4 
			56.6,114.2 51.9,111.3 46.9,114.3 		"/>
		<polygon class="st11" points="66.1,109.3 62.7,106.4 67.5,106.8 69.2,102.8 70.8,106.8 70.8,106.8 75.4,106.6 71.7,109.4 
			73.6,114.2 68.8,111.3 63.9,114.3 		"/>
		<polygon class="st11" points="83.1,109.3 79.6,106.4 84.5,106.8 86.2,102.8 87.8,106.8 87.8,106.8 92.4,106.6 88.7,109.4 
			90.6,114.2 85.8,111.3 80.9,114.3 		"/>
		<polygon class="st11" points="100.1,109.3 96.6,106.4 101.4,106.8 103.2,102.8 104.8,106.8 104.8,106.8 109.4,106.6 105.7,109.4 
			107.6,114.2 102.8,111.3 97.9,114.3 		"/>
		<path class="st10" d="M100.6,80H37.5c-9.8,0-17.7,6.9-17.7,15.5v26.2c0,0.7,0.1,1.4,0.2,2.1c0,4.1,2.3,7.8,6,9.5l5.9,2.8
			c0.7,0.3,1.3,0.6,2.1,0.7c1.2,0.2,2.3,0.3,3.6,0.3H70c1.5,12.5-2.4,18.6-2.4,18.6c14.9-4.2,17.5-9.5,18-19.1l15.2,0.5
			c9.8,0,17.7-6.9,17.7-15.5V95.4C118.4,86.9,110.4,80,100.6,80z"/>
	</g>
	<g class="st6">
		<polygon class="st11" points="257.5,166.7 255.4,164.9 258.3,165.2 259.4,162.7 260.4,165.2 260.4,165.2 263.2,165.1 260.9,166.8 
			262.1,169.8 259.2,168 256.1,169.8 		"/>
		<polygon class="st11" points="268,166.7 265.9,164.9 268.8,165.2 269.9,162.7 270.9,165.2 270.9,165.2 273.7,165.1 271.4,166.8 
			272.6,169.8 269.7,168 266.6,169.8 		"/>
		<polygon class="st11" points="278.5,166.7 276.4,164.9 279.3,165.2 280.4,162.7 281.4,165.2 281.4,165.2 284.2,165.1 281.9,166.8 
			283.1,169.8 280.2,168 277.1,169.8 		"/>
		<polygon class="st11" points="289,166.7 286.9,164.9 289.8,165.2 290.9,162.7 291.9,165.2 291.9,165.2 294.7,165.1 292.4,166.8 
			293.6,169.8 290.7,168 287.6,169.8 		"/>
		<polygon class="st11" points="299.5,166.7 297.4,164.9 300.3,165.2 301.4,162.7 302.4,165.2 302.4,165.2 305.2,165.1 302.9,166.8 
			304.1,169.8 301.2,168 298.1,169.8 		"/>
		<path class="st10" d="M299.8,148.6h-39c-6.1,0-11,4.3-11,9.6v16.2c0,0.4,0,0.9,0.1,1.3c0,2.5,1.4,4.8,3.7,5.9l3.7,1.8
			c0.4,0.2,0.8,0.4,1.3,0.4c0.7,0.1,1.4,0.2,2.2,0.2h20c0.9,7.7-1.5,11.5-1.5,11.5c9.2-2.6,10.8-5.9,11.2-11.8l9.4,0.3
			c6.1,0,11-4.3,11-9.6v-16.2C310.8,152.9,305.9,148.6,299.8,148.6z"/>
	</g>
</g>
<g>
	<rect x="-2" y="0" class="st2" width="1000" height="96.2"/>
</g>
<polygon class="st24" points="321.2,61.2 345.3,44.5 352,54.2 370.5,41.4 375.8,49 395.5,35.4 391.1,29.1 409.3,32.4 406.2,49.7 
	400.4,42.5 375.3,59.8 369.6,51.4 350.8,64.3 343.8,54.2 325,67.2 "/>
<path class="st25" d="M987.6,76.1c-1.9,7.9-14.9,16-14.9,16s-15.2-9.4-15.2-17.8c0-0.6,0-1.7,0-1.7c0-5.9,3.5-10.7,7.8-10.7
	c3.6,0,6.6,3.3,7.5,7.9l0,0c0.8-4.6,3.9-8.1,7.6-8.1c4.3,0,7.8,4.8,7.8,10.7C988.2,73.8,988,75,987.6,76.1L987.6,76.1z"/>
<path class="st26" d="M80.7,67.4c-1.8,7.7-14.5,15.5-14.5,15.5s-14.7-9.1-14.7-17.3c0-0.6,0-1.7,0-1.7c0-5.7,3.4-10.3,7.5-10.3
	c3.5,0,6.5,3.3,7.3,7.7l0,0c0.8-4.5,3.8-7.9,7.3-7.9c4.2,0,7.5,4.6,7.5,10.3C81.2,65,81.1,66.3,80.7,67.4L80.7,67.4z"/>
<g class="st27">
	<circle class="st7" cx="23.9" cy="65.6" r="17.1"/>
	<g>
		<g>
			<path class="st8" d="M16.8,64.5c3.9,0,3.9-6,0-6S12.9,64.5,16.8,64.5L16.8,64.5z"/>
		</g>
	</g>
	<g>
		<g>
			<path class="st8" d="M30.4,64.5c3.9,0,3.9-6,0-6C26.6,58.5,26.6,64.5,30.4,64.5L30.4,64.5z"/>
		</g>
	</g>
	<path class="st9" d="M16.4,69.7c0,0,6.8,8.9,14.3,0"/>
</g>
<g class="st27">
	<path class="st10" d="M99.8,43.9H50c-2.2,0-4-1.8-4-4v-26c0-2.2,1.8-4,4-4h49.7c2.2,0,4,1.8,4,4v26C103.8,42.1,102,43.9,99.8,43.9z
		"/>
	<path class="st11" d="M55.6,19.6L55,19c-0.2-0.2-0.1-0.6,0.2-0.6l1,0.1c0.1,0,0.3-0.1,0.3-0.2l0.4-0.9c0.1-0.3,0.5-0.3,0.6,0
		l0.5,1.1l0,0l1.1,0c0.3,0,0.5,0.4,0.2,0.6l-0.7,0.5c-0.1,0.1-0.2,0.2-0.1,0.4l0.5,1.1c0.1,0.3-0.2,0.6-0.5,0.4l-1.2-0.7
		c-0.1,0-0.2,0-0.3,0l-1.3,0.7c-0.3,0.2-0.6-0.1-0.5-0.4l0.5-1.1C55.7,19.8,55.7,19.7,55.6,19.6z"/>
	<path class="st11" d="M64.8,19.6l-1-0.8c-0.1-0.1,0-0.4,0.1-0.4l1.5,0.1c0.1,0,0.2,0,0.2-0.1l0.6-1.3c0.1-0.2,0.3-0.2,0.4,0
		l0.6,1.4l0,0l1.5,0c0.2,0,0.3,0.3,0.1,0.4l-1.1,0.8c-0.1,0-0.1,0.2-0.1,0.3l0.6,1.5c0.1,0.2-0.1,0.4-0.3,0.3l-1.6-1
		c0,0-0.1,0-0.2,0l-1.6,1c-0.2,0.1-0.4-0.1-0.3-0.3l0.7-1.5C64.9,19.8,64.9,19.7,64.8,19.6z"/>
	<path class="st11" d="M73.9,19.6l-1-0.8c-0.2-0.1,0-0.4,0.1-0.4l1.5,0.1c0.1,0,0.2,0,0.2-0.1l0.6-1.3c0.1-0.2,0.3-0.2,0.4,0
		l0.6,1.4l0,0l1.5,0c0.2,0,0.3,0.3,0.1,0.4l-1.1,0.8c-0.1,0-0.1,0.2-0.1,0.3l0.6,1.5c0.1,0.2-0.1,0.4-0.3,0.3l-1.6-1
		c0,0-0.1,0-0.2,0l-1.6,1c-0.2,0.1-0.4-0.1-0.3-0.3l0.7-1.5C74,19.8,74,19.7,73.9,19.6z"/>
	<path class="st12" d="M83,19.6l-0.9-0.8c-0.2-0.1,0-0.5,0.2-0.4l1.4,0.1c0.1,0,0.2,0,0.2-0.1l0.5-1.2c0.1-0.2,0.4-0.2,0.5,0
		l0.5,1.4l0,0l1.4,0c0.2,0,0.3,0.3,0.1,0.4l-1,0.7c-0.1,0-0.1,0.2-0.1,0.3l0.6,1.5c0.1,0.2-0.1,0.4-0.4,0.3l-1.5-0.9
		c-0.1,0-0.2,0-0.2,0l-1.5,0.9c-0.2,0.1-0.5-0.1-0.3-0.3l0.7-1.5C83.1,19.8,83.1,19.7,83,19.6z"/>
	<path class="st12" d="M92.1,19.6l-0.9-0.7c-0.2-0.1,0-0.5,0.2-0.5l1.3,0.1c0.1,0,0.2,0,0.2-0.1l0.5-1.2c0.1-0.2,0.4-0.2,0.5,0
		l0.5,1.3l0,0l1.4,0c0.2,0,0.4,0.3,0.2,0.5l-0.9,0.7c-0.1,0-0.1,0.2-0.1,0.3l0.6,1.4c0.1,0.2-0.1,0.5-0.4,0.3l-1.5-0.9
		c-0.1,0-0.2,0-0.3,0l-1.5,0.9c-0.2,0.1-0.5-0.1-0.4-0.3l0.6-1.4C92.2,19.8,92.2,19.7,92.1,19.6z"/>
	<line class="st9" x1="54.3" y1="27.4" x2="66.3" y2="27.4"/>
	<line class="st9" x1="68.5" y1="27.4" x2="97.2" y2="27.4"/>
	<line class="st9" x1="97.2" y1="31" x2="85.2" y2="31"/>
	<line class="st9" x1="83" y1="31" x2="54.3" y2="31"/>
	<line class="st9" x1="54.3" y1="38.3" x2="69.9" y2="38.3"/>
	<line class="st9" x1="71.9" y1="38.3" x2="97.2" y2="38.3"/>
	<line class="st9" x1="54.3" y1="34.7" x2="97.4" y2="34.7"/>
</g>
<g class="st27">
	<polygon class="st7" points="101.1,54 123.1,54 123.1,88.7 112.1,77.7 101.1,89.3 	"/>
	<polygon class="st11" points="110.3,66.9 108.1,65 111.1,65.3 112.2,62.8 113.2,65.3 113.2,65.3 116.1,65.2 113.8,66.9 115,70 
		112,68.1 108.9,70 	"/>
	<circle class="st13" cx="112.1" cy="66.4" r="7.3"/>
</g>
<g class="st27">
	<rect x="235" y="69.3" class="st10" width="18.4" height="18.4"/>
	<polyline class="st9" points="238.5,77.4 244.2,83.1 258.9,68.5 	"/>
</g>
<g class="st27">
	<rect x="171.3" y="68.1" class="st10" width="5.7" height="20"/>
	<path class="st10" d="M179.8,68.1v20h3.8l3.3,3.3h15.7l10.2-10.2v-13h-18.8c0,0,3.9-13-4.8-14.2c-6.7-1,2.9,7.6-2.9,14.2
		C186.4,68.1,179.8,68.1,179.8,68.1z"/>
	<line class="st9" x1="212.9" y1="73.5" x2="197.9" y2="73.5"/>
	<line class="st9" x1="212.9" y1="80.1" x2="197.9" y2="80.1"/>
	<line class="st9" x1="208.3" y1="85.8" x2="197.9" y2="85.8"/>
</g>
<g class="st27">
	<rect x="421.8" y="17.8" class="st10" width="5" height="17.6"/>
	<path class="st10" d="M429.4,17.8v17.6h3.4l2.9,2.9h13.8l9-9V17.8h-16.6c0,0,3.5-11.5-4.2-12.6c-5.9-0.8,2.5,6.7-2.5,12.6H429.4z"
		/>
	<line class="st9" x1="458.5" y1="22.6" x2="445.3" y2="22.6"/>
	<line class="st9" x1="458.5" y1="28.3" x2="445.3" y2="28.3"/>
	<line class="st9" x1="454.5" y1="33.4" x2="445.3" y2="33.4"/>
</g>
<g class="st27">
	<path class="st8" d="M26.5,18.2c1.2-1.3,1.9-3,1.9-4.9c0-3.7-2.7-6.8-6.1-6.8s-6,3-6,6.8c0,2,0.8,3.7,1.9,4.9
		c-4.9,1.3-8.4,4.9-8.4,9.2h25.1C34.9,23.2,31.4,19.5,26.5,18.2z"/>
	<path class="st28" d="M35.8,17.2c0.7-0.7,1.1-1.8,1.1-2.9c0-2.2-1.6-4-3.6-4s-3.6,1.8-3.6,4c0,1.2,0.4,2.2,1.1,2.9
		c-2.9,0.8-5,2.9-5,5.4h14.8C40.8,20.2,38.7,18,35.8,17.2z"/>
	<path class="st28" d="M13.9,16.8c0.8-0.8,1.2-1.9,1.2-3.1c0-2.3-1.7-4.3-3.8-4.3s-3.8,1.9-3.8,4.3c0,1.2,0.4,2.3,1.2,3.1
		c-3.1,0.9-5.3,3.1-5.3,5.8h15.8C19.2,19.9,17,17.6,13.9,16.8z"/>
</g>
<g class="st27">
	<path class="st15" d="M258.1,28.1h-20.6l-8.6,32.2l18.6-8.3l19.2,9.5L258.1,28.1z M247.2,49.3L235,55.1l5-21.7h14.9l5.3,22.9
		L247.2,49.3z"/>
	<path class="st12" d="M233.4,38.1c-0.5-0.9-1.5-1.4-2.6-1.1l0,0c-2.7,0.7-4.2-3.1-1.6-4.3l0,0c2-1,1.7-3.8-0.5-4.3l0,0
		c-2.8-0.6-2.2-4.7,0.6-4.6l0,0c2.2,0.1,3.3-2.6,1.6-4.1l0,0c-2.2-1.8,0.2-5.2,2.7-3.7l0,0c1.9,1.1,4.1-0.8,3.3-2.9l0,0
		c-1-2.6,2.6-4.5,4.1-2.1l0,0c1.1,1.8,4,1.2,4.3-1l0,0c0.3-2.8,4.3-2.8,4.6,0.1l0,0c0.2,2.2,3,3,4.3,1.1l0,0
		c1.6-2.3,5.1-0.4,4.1,2.2l0,0c-0.9,2,1.3,4,3.2,3l0,0c2.4-1.4,4.8,2,2.6,3.8l0,0c-1.7,1.4-0.7,4.2,1.5,4.1l0,0
		c2.8-0.1,3.3,4,0.5,4.6l0,0c-2.2,0.4-2.5,3.4-0.6,4.3l0,0c2.5,1.2,1,5-1.7,4.3l0,0c-0.6-0.2-1.1-0.1-1.7,0.1"/>
	<circle class="st11" cx="247" cy="28.1" r="13.7"/>
	<text transform="matrix(1 0 0 1 241.6609 34.7323)" class="st18 st19 st29">1</text>
</g>
<g class="st27">
	<ellipse class="st9" cx="805.3" cy="20.4" rx="17" ry="4"/>
	<path class="st9" d="M788.3,20.1c0,0-0.7,21,9.4,23.2c0,0,6,2,15.3,0.3c0.9-0.2,1.8-0.6,2.4-1.2c2.3-2.3,7.5-9,6.9-21.4"/>
	<path class="st9" d="M822.3,24.5c0,0,0.7-3.7,2.9-2.9c0,0,2.9,0,2.1,5.8c-0.7,5.8-4.4,6.5-4.4,6.5s-2.2-0.5-3.6,2.7"/>
	<path class="st12" d="M791.5,28.4c0,0,1.4,13.1,9.4,12.3"/>
	<ellipse class="st8" cx="804.9" cy="21.5" rx="14.8" ry="2.5"/>
	<path class="st21" d="M798,8.8c0,0-1.9,1.9,0,4.4c1.9,2.4,0,4.4,0,4.4"/>
	<path class="st21" d="M811,8.8c0,0-1.9,1.9,0,4.4s0,4.4,0,4.4"/>
	<path class="st21" d="M803.8,5.2c0,0-1.9,1.9,0,4.4c1.9,2.4,0,4.4,0,4.4"/>
</g>
<g class="st27">
	<polygon class="st10" points="328.1,9.5 367.9,9.5 367.9,34 328.1,34 330.7,31.1 328.9,30.3 330.7,27.7 328.1,24.3 330.2,22.9 
		328.1,19.5 330.2,17.2 328.1,14.2 329.9,12.7 	"/>
	<line class="st23" x1="333.9" y1="10.9" x2="333.9" y2="33"/>
	<line class="st9" x1="336.5" y1="26.6" x2="363.9" y2="26.6"/>
	<line class="st9" x1="336.5" y1="29.5" x2="363.9" y2="29.5"/>
	<text transform="matrix(1 0 0 1 340.4631 21.9253)" class="st8 st19 st30">20%</text>
</g>
<g class="st27">
	<path class="st10" d="M288.7,75.7l-3.6-3.1c-0.9-0.8-0.3-2.2,0.8-2.1l5.5,0.4c0.5,0,1-0.3,1.2-0.7l2.1-4.8c0.4-1,1.8-1,2.2,0
		l2.2,5.6l0,0l5.6-0.2c1.2,0,1.7,1.5,0.8,2.2l-3.8,2.8c-0.4,0.3-0.6,0.9-0.4,1.4l2.3,5.9c0.4,1.1-0.8,2-1.7,1.5l-6.2-3.7
		c-0.4-0.2-0.8-0.2-1.2,0l-6.3,3.7c-1,0.6-2.2-0.4-1.7-1.5l2.6-5.9C289.2,76.6,289.1,76,288.7,75.7z"/>
	<line class="st12" x1="304.1" y1="77.2" x2="309.5" y2="78.4"/>
	<line class="st12" x1="304.1" y1="77.2" x2="309.5" y2="78.6"/>
	<line class="st12" x1="300.9" y1="68.1" x2="304.3" y2="63.7"/>
	<line class="st12" x1="308.2" y1="70.9" x2="311.5" y2="70"/>
	<line class="st12" x1="296.2" y1="61.7" x2="296.7" y2="58.2"/>
	<line class="st12" x1="282.7" y1="70.2" x2="279.5" y2="68.9"/>
	<line class="st12" x1="285.5" y1="85.9" x2="283.1" y2="88.4"/>
	<line class="st12" x1="305" y1="86.2" x2="307.4" y2="88.7"/>
	<line class="st12" x1="290" y1="68.1" x2="286.6" y2="63.8"/>
	<line class="st12" x1="286.7" y1="77.1" x2="281.4" y2="78.3"/>
	<line class="st12" x1="295.4" y1="84.1" x2="295.4" y2="89.6"/>
	<line class="st12" x1="311.1" y1="79.2" x2="312.5" y2="79.6"/>
	<line class="st12" x1="305.2" y1="62.4" x2="306.5" y2="61.1"/>
	<line class="st12" x1="285.1" y1="62.4" x2="284.4" y2="61.7"/>
	<line class="st12" x1="279" y1="79.1" x2="277.2" y2="79.6"/>
	<line class="st12" x1="295.1" y1="91.8" x2="295.1" y2="93.4"/>
</g>
<g class="st27">
	<path class="st10" d="M128.3,29.1v14.2c0,4.6,3.7,8.3,8.3,8.3h29.7c0.7,0,1.4-0.1,2.2-0.3l6,6v-9.4v-3.6c0-0.3,0.1-0.7,0.1-1.1
		V29.1c0-4.6-3.7-8.3-8.3-8.3h-29.7C131.9,20.8,128.2,24.5,128.3,29.1z"/>
	<line class="st9" x1="136" y1="28.9" x2="166.8" y2="28.9"/>
	<line class="st9" x1="136" y1="34.4" x2="166.8" y2="34.4"/>
	<line class="st9" x1="136" y1="40" x2="166.8" y2="40"/>
	<line class="st9" x1="136" y1="45.6" x2="166.8" y2="45.6"/>
	<path class="st10" d="M217.1,16.4v12.2c0,3.9-3.1,7.2-6.8,7.2h-24.2c-0.6,0-1.2-0.1-1.8-0.3l-4.9,5.2v-8.1v-3.1
		c-0.1-0.3-0.1-0.7-0.1-1V16.4c0-3.9,3.1-7.2,6.8-7.2h24.1C214.1,9.2,217.1,12.4,217.1,16.4z"/>
	<line class="st9" x1="210.8" y1="16.2" x2="185.7" y2="16.2"/>
	<line class="st9" x1="210.8" y1="21" x2="185.7" y2="21"/>
	<line class="st9" x1="210.8" y1="25.7" x2="185.7" y2="25.7"/>
	<line class="st9" x1="210.8" y1="30.5" x2="185.7" y2="30.5"/>
</g>
<g class="st27">
	<path class="st10" d="M978.3,20.9h-27.9c-4.3,0-7.8,3.5-7.8,7.8V42c0,0.4,0,0.7,0.1,1.1v3.4v8.9l5.7-5.7c0.7,0.2,1.3,0.3,2.1,0.3
		h27.9c4.3,0,7.8-3.5,7.8-7.8V28.9C986.1,24.4,982.6,20.9,978.3,20.9z"/>
	<line class="st9" x1="949.8" y1="28.5" x2="978.8" y2="28.5"/>
	<line class="st9" x1="949.8" y1="33.8" x2="978.8" y2="33.8"/>
	<line class="st9" x1="949.8" y1="39" x2="978.8" y2="39"/>
	<line class="st9" x1="949.8" y1="44.2" x2="978.8" y2="44.2"/>
	<path class="st10" d="M908.8,10h22.8c3.5,0,6.4,3,6.4,6.7v11.4c0,0.3,0,0.6-0.1,0.9v2.9v7.6l-4.7-4.9c-0.5,0.2-1.1,0.2-1.7,0.2
		h-22.8c-3.5,0-6.4-3-6.4-6.7V16.7C902.4,13,905.3,10,908.8,10z"/>
	<line class="st9" x1="932" y1="16.6" x2="908.4" y2="16.6"/>
	<line class="st9" x1="932" y1="21.1" x2="908.4" y2="21.1"/>
	<line class="st9" x1="932" y1="25.6" x2="908.4" y2="25.6"/>
	<line class="st9" x1="932" y1="30.1" x2="908.4" y2="30.1"/>
</g>
<g class="st27">
	<polygon class="st11" points="279.9,29.9 278.5,28.7 280.4,28.9 281.1,27.3 281.7,28.9 281.7,28.9 283.6,28.8 282.1,29.9 
		282.9,31.9 281,30.7 279,31.9 	"/>
	<polygon class="st11" points="286.8,29.9 285.4,28.7 287.3,28.9 288,27.3 288.6,28.9 288.6,28.9 290.5,28.8 289,29.9 289.8,31.9 
		287.9,30.7 285.9,31.9 	"/>
	<polygon class="st11" points="293.6,29.9 292.3,28.7 294.2,28.9 294.9,27.3 295.5,28.9 295.5,28.9 297.4,28.8 295.9,29.9 
		296.7,31.9 294.8,30.7 292.8,31.9 	"/>
	<polygon class="st11" points="300.5,29.9 299.2,28.7 301.1,28.9 301.8,27.3 302.4,28.9 302.4,28.9 304.3,28.8 302.8,29.9 
		303.6,31.9 301.7,30.7 299.6,31.9 	"/>
	<polygon class="st11" points="307.4,29.9 306,28.7 308,28.9 308.7,27.3 309.3,28.9 309.3,28.9 311.2,28.8 309.7,29.9 310.5,31.9 
		308.5,30.7 306.5,31.9 	"/>
	<path class="st10" d="M307.7,18h-25.6c-4,0-7.2,2.8-7.2,6.3v10.6c0,0.3,0,0.6,0.1,0.9c0,1.7,0.9,3.2,2.4,3.9l2.4,1.1
		c0.3,0.1,0.5,0.2,0.9,0.3c0.5,0.1,0.9,0.1,1.5,0.1h13.1c0.6,5.1-1,7.5-1,7.5c6-1.7,7.1-3.9,7.3-7.8l6.2,0.2c4,0,7.2-2.8,7.2-6.3
		V24.3C314.9,20.8,311.7,18,307.7,18z"/>
</g>
<polygon class="st24" points="782.4,77.9 810.8,59 818.7,70 840.6,55.5 846.8,64.1 870.1,48.7 865,41.6 886.5,45.3 882.7,65 
	875.9,56.7 846.3,76.3 839.5,66.9 817.2,81.5 809,70 786.8,84.7 "/>
<path class="st26" d="M733.7,29.7c-1.8,7.7-14.5,15.5-14.5,15.5s-14.7-9.1-14.7-17.3c0-0.6,0-1.7,0-1.7c0-5.7,3.4-10.3,7.5-10.3
	c3.5,0,6.5,3.3,7.3,7.7l0,0c0.8-4.5,3.8-7.9,7.3-7.9c4.2,0,7.5,4.6,7.5,10.3C734.2,27.3,734.1,28.6,733.7,29.7L733.7,29.7z"/>
<g class="st27">
	<circle class="st7" cx="757.9" cy="70.2" r="17.1"/>
	<g>
		<g>
			<path class="st8" d="M750.8,69.1c3.9,0,3.9-6,0-6C746.9,63.1,746.9,69.1,750.8,69.1L750.8,69.1z"/>
		</g>
	</g>
	<g>
		<g>
			<path class="st8" d="M764.4,69.1c3.9,0,3.9-6,0-6C760.6,63.1,760.6,69.1,764.4,69.1L764.4,69.1z"/>
		</g>
	</g>
	<path class="st9" d="M750.4,74.3c0,0,6.8,8.9,14.3,0"/>
</g>
<g class="st27">
	<circle class="st7" cx="915.8" cy="70.2" r="17.1"/>
	<g>
		<g>
			<path class="st8" d="M908.7,69.1c3.9,0,3.9-6,0-6C904.8,63.1,904.8,69.1,908.7,69.1L908.7,69.1z"/>
		</g>
	</g>
	<g>
		<g>
			<path class="st8" d="M922.3,69.1c3.9,0,3.9-6,0-6C918.5,63.1,918.5,69.1,922.3,69.1L922.3,69.1z"/>
		</g>
	</g>
	<path class="st9" d="M908.3,74.3c0,0,6.8,8.9,14.3,0"/>
</g>
<g class="st27">
	<path class="st10" d="M722.7,88.6h-49.8c-2.2,0-4-1.8-4-4v-26c0-2.2,1.8-4,4-4h49.7c2.2,0,4,1.8,4,4v26
		C726.7,86.8,724.9,88.6,722.7,88.6z"/>
	<path class="st11" d="M678.5,64.3l-0.7-0.6c-0.2-0.2-0.1-0.6,0.2-0.6l1,0.1c0.1,0,0.3-0.1,0.3-0.2l0.4-0.9c0.1-0.3,0.5-0.3,0.6,0
		l0.5,1.1l0,0l1.1,0c0.3,0,0.5,0.4,0.2,0.6l-0.7,0.5c-0.1,0.1-0.2,0.2-0.1,0.4l0.5,1.1c0.1,0.3-0.2,0.6-0.5,0.4l-1.2-0.7
		c-0.1,0-0.2,0-0.3,0l-1.3,0.7c-0.3,0.2-0.6-0.1-0.5-0.4l0.5-1.1C678.6,64.5,678.6,64.4,678.5,64.3z"/>
	<path class="st11" d="M687.7,64.3l-1-0.8c-0.1-0.1,0-0.4,0.1-0.4l1.5,0.1c0.1,0,0.2,0,0.2-0.1l0.6-1.3c0.1-0.2,0.3-0.2,0.4,0
		l0.6,1.4l0,0l1.5,0c0.2,0,0.3,0.3,0.1,0.4l-1.1,0.8c-0.1,0-0.1,0.2-0.1,0.3l0.6,1.5c0.1,0.2-0.1,0.4-0.3,0.3l-1.6-1
		c0,0-0.1,0-0.2,0l-1.6,1c-0.2,0.1-0.4-0.1-0.3-0.3l0.7-1.5C687.8,64.4,687.8,64.4,687.7,64.3z"/>
	<path class="st11" d="M696.8,64.3l-1-0.8c-0.2-0.1,0-0.4,0.1-0.4l1.5,0.1c0.1,0,0.2,0,0.2-0.1l0.6-1.3c0.1-0.2,0.3-0.2,0.4,0
		l0.6,1.4l0,0l1.5,0c0.2,0,0.3,0.3,0.1,0.4l-1.1,0.8c-0.1,0-0.1,0.2-0.1,0.3l0.6,1.5c0.1,0.2-0.1,0.4-0.3,0.3l-1.6-1
		c0,0-0.1,0-0.2,0l-1.6,1c-0.2,0.1-0.4-0.1-0.3-0.3l0.7-1.5C696.9,64.4,696.9,64.4,696.8,64.3z"/>
	<path class="st12" d="M705.9,64.3l-0.9-0.8c-0.2-0.1,0-0.5,0.2-0.4l1.4,0.1c0.1,0,0.2,0,0.2-0.1l0.5-1.2c0.1-0.2,0.4-0.2,0.5,0
		l0.5,1.4l0,0l1.4,0c0.2,0,0.3,0.3,0.1,0.4l-1,0.7c-0.1,0-0.1,0.2-0.1,0.3l0.6,1.5c0.1,0.2-0.1,0.4-0.4,0.3l-1.5-0.9
		c-0.1,0-0.2,0-0.2,0l-1.5,0.9c-0.2,0.1-0.5-0.1-0.3-0.3l0.7-1.5C706,64.5,706,64.4,705.9,64.3z"/>
	<path class="st12" d="M715,64.3l-0.9-0.7c-0.2-0.1,0-0.5,0.2-0.5l1.3,0.1c0.1,0,0.2,0,0.2-0.1l0.5-1.2c0.1-0.2,0.4-0.2,0.5,0
		l0.5,1.3l0,0l1.4,0c0.2,0,0.4,0.3,0.2,0.5l-0.9,0.7c-0.1,0-0.1,0.2-0.1,0.3l0.6,1.4c0.1,0.2-0.1,0.5-0.4,0.3l-1.5-0.9
		c-0.1,0-0.2,0-0.3,0l-1.5,0.9c-0.2,0.1-0.5-0.1-0.4-0.3l0.6-1.4C715.1,64.5,715.1,64.4,715,64.3z"/>
	<line class="st9" x1="677.2" y1="72.1" x2="689.2" y2="72.1"/>
	<line class="st9" x1="691.4" y1="72.1" x2="720.1" y2="72.1"/>
	<line class="st9" x1="720.1" y1="75.7" x2="708.1" y2="75.7"/>
	<line class="st9" x1="705.9" y1="75.7" x2="677.2" y2="75.7"/>
	<line class="st9" x1="677.2" y1="83" x2="692.7" y2="83"/>
	<line class="st9" x1="694.8" y1="83" x2="720.1" y2="83"/>
	<line class="st9" x1="677.2" y1="79.4" x2="720.2" y2="79.4"/>
</g>
<g class="st27">
	<polygon class="st7" points="662.6,9.2 684.6,9.2 684.6,43.8 673.6,32.8 662.6,44.5 	"/>
	<polygon class="st11" points="671.8,22.1 669.6,20.2 672.6,20.5 673.7,17.9 674.7,20.5 674.7,20.5 677.6,20.3 675.3,22.1 
		676.5,25.1 673.5,23.3 670.4,25.1 	"/>
	<circle class="st13" cx="673.6" cy="21.5" r="7.3"/>
</g>
<g class="st27">
	<rect x="526.7" y="11.6" class="st10" width="18.4" height="18.4"/>
	<polyline class="st9" points="530.2,19.7 535.9,25.4 550.6,10.8 	"/>
</g>
<g class="st27">
	<rect x="568.5" y="19.3" class="st10" width="5.7" height="20"/>
	<path class="st10" d="M577,19.3v20h3.8l3.3,3.3h15.7l10.2-10.2v-13h-18.8c0,0,3.9-13-4.8-14.2c-6.7-1,2.9,7.6-2.9,14.2
		C583.6,19.3,577,19.3,577,19.3z"/>
	<line class="st9" x1="610.1" y1="24.6" x2="595.1" y2="24.6"/>
	<line class="st9" x1="610.1" y1="31.2" x2="595.1" y2="31.2"/>
	<line class="st9" x1="605.5" y1="37" x2="595.1" y2="37"/>
</g>
<g class="st27">
	<rect x="372.1" y="72.9" class="st10" width="5" height="17.6"/>
	<path class="st10" d="M379.7,72.9v17.6h3.4l2.9,2.9h13.8l9-9V72.9h-16.6c0,0,3.5-11.5-4.2-12.6c-5.9-0.8,2.5,6.7-2.5,12.6H379.7z"
		/>
	<line class="st9" x1="408.8" y1="77.7" x2="395.6" y2="77.7"/>
	<line class="st9" x1="408.8" y1="83.4" x2="395.6" y2="83.4"/>
	<line class="st9" x1="404.8" y1="88.5" x2="395.6" y2="88.5"/>
</g>
<g class="st27">
	<path class="st8" d="M764.9,27.6c1.2-1.3,1.9-3,1.9-4.9c0-3.7-2.7-6.8-6.1-6.8c-3.4,0-6,3-6,6.8c0,2,0.8,3.7,1.9,4.9
		c-4.9,1.3-8.4,4.9-8.4,9.2h25.1C773.3,32.5,769.8,28.9,764.9,27.6z"/>
	<path class="st28" d="M774.2,26.6c0.7-0.7,1.1-1.8,1.1-2.9c0-2.2-1.6-4-3.6-4s-3.6,1.8-3.6,4c0,1.2,0.4,2.2,1.1,2.9
		c-2.9,0.8-5,2.9-5,5.4h14.8C779.2,29.5,777.1,27.3,774.2,26.6z"/>
	<path class="st28" d="M752.3,26.2c0.8-0.8,1.2-1.9,1.2-3.1c0-2.3-1.7-4.3-3.8-4.3s-3.8,1.9-3.8,4.3c0,1.2,0.4,2.3,1.2,3.1
		c-3.1,0.9-5.3,3.1-5.3,5.8h15.8C757.6,29.3,755.4,27,752.3,26.2z"/>
</g>
<g class="st27">
	<path class="st15" d="M549,57.4h-20.6l-8.6,32.2l18.6-8.3l19.2,9.5L549,57.4z M538,78.6l-12.2,5.7l5-21.7h14.9l5.3,22.9L538,78.6z"
		/>
	<path class="st12" d="M524.3,67.4c-0.5-0.9-1.5-1.4-2.6-1.1l0,0c-2.7,0.7-4.2-3.1-1.6-4.3l0,0c2-1,1.7-3.8-0.5-4.3l0,0
		c-2.8-0.6-2.2-4.7,0.6-4.6l0,0c2.2,0.1,3.3-2.6,1.6-4.1l0,0c-2.2-1.8,0.2-5.2,2.7-3.7l0,0c1.9,1.1,4.1-0.8,3.3-2.9l0,0
		c-1-2.6,2.6-4.5,4.1-2.1l0,0c1.1,1.8,4,1.2,4.3-1l0,0c0.3-2.8,4.3-2.8,4.6,0.1l0,0c0.2,2.2,3,3,4.3,1.1l0,0
		c1.6-2.3,5.1-0.4,4.1,2.2l0,0c-0.9,2,1.3,4,3.2,3l0,0c2.4-1.4,4.8,2,2.6,3.8l0,0c-1.7,1.4-0.7,4.2,1.5,4.1l0,0
		c2.8-0.1,3.3,4,0.5,4.6l0,0c-2.2,0.4-2.5,3.4-0.6,4.3l0,0c2.5,1.2,1,5-1.7,4.3l0,0c-0.6-0.2-1.1-0.1-1.7,0.1"/>
	<circle class="st11" cx="537.9" cy="57.4" r="13.7"/>
	<text transform="matrix(1 0 0 1 532.5403 63.9536)" class="st18 st19 st29">1</text>
</g>
<g class="st27">
	<polygon class="st10" points="417.8,64.5 457.6,64.5 457.6,89 417.8,89 420.4,86.2 418.6,85.4 420.4,82.8 417.8,79.3 419.9,78 
		417.8,74.5 419.9,72.2 417.8,69.3 419.6,67.7 	"/>
	<line class="st23" x1="423.6" y1="66" x2="423.6" y2="88"/>
	<line class="st9" x1="426.2" y1="81.7" x2="453.6" y2="81.7"/>
	<line class="st9" x1="426.2" y1="84.6" x2="453.6" y2="84.6"/>
	<text transform="matrix(1 0 0 1 430.1431 76.9694)" class="st8 st19 st30">20%</text>
</g>
<g class="st27">
	<path class="st10" d="M497,22.8l3.6,3.1c0.9,0.8,0.3,2.2-0.8,2.1l-5.5-0.4c-0.5,0-1,0.3-1.2,0.7l-2.1,4.8c-0.4,1-1.8,1-2.2,0
		l-2.2-5.6l0,0l-5.6,0.2c-1.2,0-1.7-1.5-0.8-2.2l3.8-2.8c0.4-0.3,0.6-0.9,0.4-1.4l-2.3-5.9c-0.4-1.1,0.8-2,1.7-1.5l6.2,3.7
		c0.4,0.2,0.8,0.2,1.2,0l6.3-3.7c1-0.6,2.2,0.4,1.7,1.5l-2.6,5.9C496.5,21.9,496.6,22.5,497,22.8z"/>
	<line class="st12" x1="481.6" y1="21.3" x2="476.2" y2="20.1"/>
	<line class="st12" x1="481.6" y1="21.3" x2="476.2" y2="20"/>
	<line class="st12" x1="484.8" y1="30.5" x2="481.4" y2="34.8"/>
	<line class="st12" x1="477.5" y1="27.6" x2="474.1" y2="28.6"/>
	<line class="st12" x1="489.4" y1="36.9" x2="489" y2="40.3"/>
	<line class="st12" x1="502.9" y1="28.3" x2="506.1" y2="29.7"/>
	<line class="st12" x1="500.2" y1="12.7" x2="502.5" y2="10.2"/>
	<line class="st12" x1="480.7" y1="12.3" x2="478.3" y2="9.8"/>
	<line class="st12" x1="495.7" y1="30.4" x2="499.1" y2="34.8"/>
	<line class="st12" x1="499" y1="21.4" x2="504.3" y2="20.3"/>
	<line class="st12" x1="490.3" y1="14.5" x2="490.3" y2="8.9"/>
	<line class="st12" x1="474.5" y1="19.3" x2="473.2" y2="18.9"/>
	<line class="st12" x1="480.5" y1="36.2" x2="479.2" y2="37.4"/>
	<line class="st12" x1="500.6" y1="36.1" x2="501.3" y2="36.9"/>
	<line class="st12" x1="506.7" y1="19.5" x2="508.5" y2="18.9"/>
	<line class="st12" x1="490.5" y1="6.7" x2="490.5" y2="5.2"/>
</g>
<g class="st27">
	<path class="st10" d="M568.5,61.1v14.2c0,4.6,3.7,8.3,8.3,8.3h29.7c0.7,0,1.4-0.1,2.2-0.3l6,6V80v-3.6c0-0.3,0.1-0.7,0.1-1.1V61.1
		c0-4.6-3.7-8.3-8.3-8.3h-29.7C572.2,52.8,568.5,56.5,568.5,61.1z"/>
	<line class="st9" x1="576.3" y1="60.9" x2="607.1" y2="60.9"/>
	<line class="st9" x1="576.3" y1="66.4" x2="607.1" y2="66.4"/>
	<line class="st9" x1="576.3" y1="72" x2="607.1" y2="72"/>
	<line class="st9" x1="576.3" y1="77.6" x2="607.1" y2="77.6"/>
	<path class="st10" d="M657.4,48.4v12.2c0,3.9-3.1,7.2-6.8,7.2h-24.2c-0.6,0-1.2-0.1-1.8-0.3l-4.9,5.2v-8.1v-3.1
		c-0.1-0.3-0.1-0.7-0.1-1V48.4c0-3.9,3.1-7.2,6.8-7.2h24.1C654.4,41.2,657.4,44.5,657.4,48.4z"/>
	<line class="st9" x1="651" y1="48.2" x2="626" y2="48.2"/>
	<line class="st9" x1="651" y1="53" x2="626" y2="53"/>
	<line class="st9" x1="651" y1="57.8" x2="626" y2="57.8"/>
	<line class="st9" x1="651" y1="62.6" x2="626" y2="62.6"/>
</g>
<g class="st27">
	<polygon class="st11" points="475.8,61.8 474.4,60.6 476.3,60.8 477.1,59.1 477.7,60.8 477.7,60.8 479.5,60.7 478,61.8 478.8,63.8 
		476.9,62.6 474.9,63.8 	"/>
	<polygon class="st11" points="482.7,61.8 481.3,60.6 483.2,60.8 483.9,59.1 484.6,60.8 484.6,60.8 486.4,60.7 484.9,61.8 
		485.7,63.8 483.8,62.6 481.8,63.8 	"/>
	<polygon class="st11" points="489.6,61.8 488.2,60.6 490.1,60.8 490.8,59.1 491.5,60.8 491.5,60.8 493.3,60.7 491.8,61.8 
		492.6,63.8 490.7,62.6 488.7,63.8 	"/>
	<polygon class="st11" points="496.5,61.8 495.1,60.6 497,60.8 497.7,59.1 498.4,60.8 498.4,60.8 500.2,60.7 498.7,61.8 499.5,63.8 
		497.6,62.6 495.6,63.8 	"/>
	<polygon class="st11" points="503.4,61.8 501.9,60.6 503.9,60.8 504.6,59.1 505.3,60.8 505.3,60.8 507.1,60.7 505.6,61.8 
		506.4,63.8 504.5,62.6 502.5,63.8 	"/>
	<path class="st10" d="M503.6,49.8H478c-4,0-7.2,2.8-7.2,6.3v10.6c0,0.3,0,0.6,0.1,0.9c0,1.7,0.9,3.2,2.4,3.9l2.4,1.1
		c0.3,0.1,0.5,0.2,0.9,0.3c0.5,0.1,0.9,0.1,1.5,0.1h13.1c0.6,5.1-1,7.5-1,7.5c6-1.7,7.1-3.9,7.3-7.8l6.2,0.2c4,0,7.2-2.8,7.2-6.3
		V56.1C510.8,52.7,507.6,49.8,503.6,49.8z"/>
</g>
<g class="st0">
	<g class="st1">
		<path class="st31" d="M51.5,160.2L51.5,160.2c-70.7,0-128-57.3-128-128l0,0c0-70.7,57.3-128,128-128l0,0c70.7,0,128,57.3,128,128
			l0,0C179.4,102.9,122.1,160.2,51.5,160.2z"/>
	</g>
	<g class="st1">
		<path class="st32" d="M51.5,100.5L51.5,100.5c23.1,0,43.9-9.9,58.3-25.7c7.2-7.8,7.2-19.9,0-27.7C95.3,31.3,74.6,21.4,51.5,21.4
			l0,0c-23.1,0-43.9,9.9-58.3,25.7C-14,54.9-14,67-6.8,74.8C7.6,90.6,28.4,100.5,51.5,100.5z"/>
		<path class="st32" d="M51.5,30.9L51.5,30.9c-16.7,0-30.2-13.5-30.2-30.2l0,0c0-16.7,13.5-30.2,30.2-30.2l0,0
			c16.7,0,30.2,13.5,30.2,30.2l0,0C81.7,17.4,68.1,30.9,51.5,30.9z"/>
	</g>
</g>
<g class="st0">
	<g class="st1">
		<path class="st31" d="M327.4,173.5L327.4,173.5c-70.4,0-127.5-57.1-127.5-127.5l0,0c0-70.4,57.1-127.5,127.5-127.5l0,0
			c70.4,0,127.5,57.1,127.5,127.5l0,0C454.9,116.4,397.8,173.5,327.4,173.5z"/>
	</g>
	<path class="st33" d="M376.3-8h-97.9c-5.1,0-9.2,4.1-9.2,9.2v88.2h0.3l-0.1,10.5l11-10.5l95.8,0.1c5.1,0,9.2-4.1,9.2-9.2V1.2
		C385.5-3.9,381.4-8,376.3-8z"/>
	<g class="st1">
		<g>
			<path class="st31" d="M366.2,3.1c-0.4-0.4-1.1-0.4-1.6,0L354,13.7l0,0l-22.8,22.8l5.8,5.8l22.8-22.8l0,0l10.6-10.6
				c0.4-0.4,0.4-1.1,0-1.6L366.2,3.1z"/>
		</g>
		<g>
			<path class="st31" d="M330.5,43.6l6.3-1.2l-5.6-5.6l-1.2,6.3C329.9,43.3,330.2,43.6,330.5,43.6z"/>
		</g>
	</g>
	<line class="st34" x1="283.3" y1="53.4" x2="345.3" y2="53.4"/>
	<line class="st34" x1="350.2" y1="53.4" x2="371.5" y2="53.4"/>
	<line class="st34" x1="283.3" y1="66.2" x2="345.3" y2="66.2"/>
	<line class="st34" x1="350.2" y1="66.2" x2="371.5" y2="66.2"/>
	<line class="st34" x1="371.5" y1="59.8" x2="309.4" y2="59.8"/>
	<line class="st34" x1="304.5" y1="59.8" x2="283.3" y2="59.8"/>
	<g class="st1">
		<path class="st31" d="M305.5,79l-2.5-1.3c-0.1,0-0.2,0-0.3,0l-2.5,1.3c-0.2,0.1-0.4-0.1-0.4-0.3l0.4-2.8c0-0.1,0-0.2-0.1-0.2
			l-2-1.9c-0.2-0.2-0.1-0.4,0.1-0.5l2.8-0.4c0.1,0,0.2-0.1,0.2-0.2l1.2-2.5c0.1-0.2,0.4-0.2,0.5,0l1.3,2.5c0,0.1,0.1,0.1,0.2,0.2
			l2.8,0.4c0.2,0,0.3,0.3,0.2,0.5l-2,2c-0.1,0.1-0.1,0.2-0.1,0.2l0.5,2.8C306,78.9,305.7,79.1,305.5,79z"/>
	</g>
	<g class="st1">
		<path class="st31" d="M317.9,79.2l-2.5-1.3c-0.1,0-0.2,0-0.3,0l-2.5,1.3c-0.2,0.1-0.4-0.1-0.4-0.3l0.4-2.8c0-0.1,0-0.2-0.1-0.2
			l-2-1.9c-0.2-0.2-0.1-0.4,0.1-0.5l2.8-0.4c0.1,0,0.2-0.1,0.2-0.2l1.2-2.5c0.1-0.2,0.4-0.2,0.5,0l1.3,2.5c0,0.1,0.1,0.1,0.2,0.2
			l2.8,0.4c0.2,0,0.3,0.3,0.2,0.5l-2,2c-0.1,0.1-0.1,0.2-0.1,0.2l0.5,2.8C318.4,79.1,318.1,79.3,317.9,79.2z"/>
	</g>
	<g class="st1">
		<path class="st31" d="M330.3,79.4l-2.5-1.3c-0.1,0-0.2,0-0.3,0l-2.5,1.3c-0.2,0.1-0.4-0.1-0.4-0.3l0.4-2.8c0-0.1,0-0.2-0.1-0.2
			l-2-1.9c-0.2-0.2-0.1-0.4,0.1-0.5l2.8-0.4c0.1,0,0.2-0.1,0.2-0.2l1.2-2.5c0.1-0.2,0.4-0.2,0.5,0l1.3,2.5c0,0.1,0.1,0.1,0.2,0.2
			l2.8,0.4c0.2,0,0.3,0.3,0.2,0.5l-2,2c-0.1,0.1-0.1,0.2-0.1,0.2l0.5,2.8C330.7,79.4,330.5,79.5,330.3,79.4z"/>
	</g>
	<g class="st1">
		<path class="st31" d="M342.7,79.7l-2.5-1.3c-0.1,0-0.2,0-0.3,0l-2.4,1.3c-0.2,0.1-0.4-0.1-0.4-0.3l0.4-2.8c0-0.1,0-0.2-0.1-0.2
			l-2-1.9c-0.2-0.2-0.1-0.4,0.1-0.5l2.8-0.4c0.1,0,0.2-0.1,0.2-0.2l1.2-2.5c0.1-0.2,0.4-0.2,0.5,0l1.3,2.5c0,0.1,0.1,0.1,0.2,0.2
			l2.8,0.4c0.2,0,0.3,0.3,0.2,0.5l-2,2c-0.1,0.1-0.1,0.2-0.1,0.2l0.5,2.8C343.1,79.6,342.9,79.8,342.7,79.7z"/>
	</g>
	<g class="st1">
		<path class="st31" d="M355.1,79.9l-2.5-1.3c-0.1,0-0.2,0-0.3,0l-2.5,1.3c-0.2,0.1-0.4-0.1-0.4-0.3l0.4-2.8c0-0.1,0-0.2-0.1-0.2
			l-2-1.9c-0.2-0.2-0.1-0.4,0.1-0.5l2.8-0.4c0.1,0,0.2-0.1,0.2-0.2l1.2-2.5c0.1-0.2,0.4-0.2,0.5,0l1.3,2.5c0,0.1,0.1,0.1,0.2,0.2
			l2.8,0.4c0.2,0,0.3,0.3,0.2,0.5l-2,2c-0.1,0.1-0.1,0.2-0.1,0.2l0.5,2.8C355.5,79.8,355.3,80,355.1,79.9z"/>
	</g>
</g>
<g class="st0">
	<g class="st1">
		<path class="st31" d="M602.8,183.3L602.8,183.3c-70.4,0-127.5-57.1-127.5-127.5l0,0c0-70.4,57.1-127.5,127.5-127.5l0,0
			c70.4,0,127.5,57.1,127.5,127.5l0,0C730.3,126.2,673.2,183.3,602.8,183.3z"/>
	</g>
	<g class="st1">
		<path class="st32" d="M651.8,17.8h-97.9c-5.1,0-9.2,4.1-9.2,9.2v79.1c0,5.1,4.1,9.2,9.2,9.2h97.9c5.1,0,9.2-4.1,9.2-9.2V27
			C660.9,21.9,656.8,17.8,651.8,17.8z"/>
		<path class="st35" d="M591.3,19.4L591.3,19.4c-6.4,0-11.5-5.1-11.5-11.5l0,0c0-6.4,5.1-11.5,11.5-11.5l0,0
			c6.4,0,11.5,5.1,11.5,11.5l0,0C602.8,14.3,597.7,19.4,591.3,19.4z"/>
		<path class="st35" d="M613.8,19.4L613.8,19.4c-6.4,0-11.5-5.1-11.5-11.5l0,0c0-6.4,5.1-11.5,11.5-11.5l0,0
			c6.4,0,11.5,5.1,11.5,11.5l0,0C625.3,14.3,620.2,19.4,613.8,19.4z"/>
		<g>
			<rect x="544.6" y="84" class="st31" width="116.5" height="15"/>
		</g>
		<line class="st36" x1="602.3" y1="17.5" x2="587.7" y2="43.2"/>
		<line class="st36" x1="617.6" y1="43.1" x2="602.7" y2="17.6"/>
	</g>
</g>
<g class="st0">
	<g class="st1">
		<path class="st31" d="M880.1,123.1L880.1,123.1c-41.4,0-75-33.6-75-75l0,0c0-41.4,33.6-75,75-75l0,0c41.4,0,75,33.6,75,75l0,0
			C955.1,89.5,921.5,123.1,880.1,123.1z"/>
	</g>
	<polyline class="st37" points="848.9,64.2 871.5,41.5 886.6,56.7 911.3,32.1 	"/>
</g>
<g class="st27">
	<polygon class="st11" points="843.5,19.5 842.1,18.3 844,18.5 844.7,16.9 845.4,18.5 845.4,18.5 847.2,18.5 845.7,19.6 846.5,21.6 
		844.6,20.4 842.5,21.6 	"/>
	<polygon class="st11" points="850.4,19.5 849,18.3 850.9,18.5 851.6,16.9 852.3,18.5 852.3,18.5 854.1,18.5 852.6,19.6 853.4,21.6 
		851.5,20.4 849.4,21.6 	"/>
	<polygon class="st11" points="857.2,19.5 855.9,18.3 857.8,18.5 858.5,16.9 859.2,18.5 859.2,18.5 861,18.5 859.5,19.6 860.3,21.6 
		858.4,20.4 856.3,21.6 	"/>
	<polygon class="st11" points="864.1,19.5 862.8,18.3 864.7,18.5 865.4,16.9 866.1,18.5 866.1,18.5 867.9,18.5 866.4,19.6 
		867.2,21.6 865.3,20.4 863.2,21.6 	"/>
	<polygon class="st11" points="871,19.5 869.7,18.3 871.6,18.5 872.3,16.9 872.9,18.5 872.9,18.5 874.8,18.5 873.3,19.6 874.1,21.6 
		872.2,20.4 870.1,21.6 	"/>
	<path class="st10" d="M871.2,7.6h-25.6c-4,0-7.2,2.8-7.2,6.3v10.6c0,0.3,0,0.6,0.1,0.9c0,1.6,0.9,3.2,2.4,3.9l2.4,1.2
		c0.3,0.1,0.5,0.3,0.9,0.3c0.5,0.1,0.9,0.1,1.4,0.1h13.1c0.6,5.1-1,7.6-1,7.6c6-1.7,7.1-3.9,7.4-7.8l6.2,0.2c4,0,7.2-2.8,7.2-6.3
		V13.9C878.5,10.5,875.2,7.6,871.2,7.6z"/>
</g>
</svg>
