<?xml version="1.0" encoding="utf-8"?>
<!-- Generator: Adobe Illustrator 22.0.0, SVG Export Plug-In . SVG Version: 6.00 Build 0)  -->
<svg version="1.1" id="Layer_1" xmlns="http://www.w3.org/2000/svg" xmlns:xlink="http://www.w3.org/1999/xlink" x="0px" y="0px"
	 viewBox="0 0 1000 360.9" style="enable-background:new 0 0 1000 360.9;" xml:space="preserve">
<style type="text/css">
	.st0{fill:#081434;}
	.st1{opacity:0.4;fill:none;stroke:#FCB713;stroke-width:3;stroke-linejoin:round;stroke-miterlimit:10;}
	.st2{opacity:0.4;fill:none;stroke:#FCB713;stroke-width:3;stroke-linecap:round;stroke-linejoin:round;stroke-miterlimit:10;}
	.st3{opacity:0.4;fill:none;stroke:#FCB713;stroke-width:2;stroke-linecap:round;stroke-linejoin:round;stroke-miterlimit:10;}
	.st4{opacity:0.4;}
	.st5{fill:none;stroke:#FCB713;stroke-width:4;stroke-linecap:round;stroke-linejoin:round;stroke-miterlimit:10;}
	.st6{fill:#FCB713;}
	.st7{fill:none;stroke:#FCB713;stroke-width:2;stroke-linecap:round;stroke-linejoin:round;stroke-miterlimit:10;}
	.st8{fill:none;stroke:#FCB713;stroke-width:3;stroke-linecap:round;stroke-linejoin:round;stroke-miterlimit:10;}
	.st9{fill:#FCB713;stroke:#FCB713;stroke-linecap:round;stroke-linejoin:round;stroke-miterlimit:10;}
	.st10{fill:none;stroke:#FCB713;stroke-linecap:round;stroke-linejoin:round;stroke-miterlimit:10;}
	.st11{fill:none;stroke:#FCB713;stroke-width:2;stroke-miterlimit:10;}
	.st12{fill:#C32126;stroke:#FCB713;stroke-linecap:round;stroke-linejoin:round;stroke-miterlimit:10;}
	.st13{fill:#FCB713;stroke:#FCB713;stroke-width:2;stroke-linecap:round;stroke-linejoin:round;stroke-miterlimit:10;}
	.st14{fill:#FBED21;stroke:#FBED21;stroke-width:2;stroke-linecap:round;stroke-miterlimit:10;}
	.st15{stroke:#FBED21;stroke-width:2;stroke-linecap:round;stroke-miterlimit:10;}
	.st16{fill:#FBED21;}
	.st17{font-family:'News701BT-BoldA';}
	.st18{font-size:24.3945px;}
	.st19{font-size:41.4534px;}
	.st20{fill:none;stroke:#FCB713;stroke-width:1.5;stroke-linecap:round;stroke-linejoin:round;stroke-miterlimit:10;}
	.st21{fill:#FCB713;stroke:#FCB713;stroke-width:3;stroke-linecap:round;stroke-linejoin:round;stroke-miterlimit:10;}
	.st22{fill:none;stroke:#FCB713;stroke-linecap:square;stroke-linejoin:round;stroke-miterlimit:10;stroke-dasharray:5;}
	.st23{font-size:25.2051px;}
	.st24{font-size:15.5779px;}
</style>
<g>
	<rect y="0.5" class="st0" width="1000" height="360.9"/>
</g>
<polygon class="st1" points="442.2,161.5 482.3,133.8 493.4,149.9 524.2,128.6 532.9,141.3 565.8,118.6 558.5,108.1 588.8,113.6 
	583.5,142.5 573.9,130.4 532.2,159.2 522.6,145.3 491.3,166.8 479.7,150 448.5,171.5 "/>
<polygon class="st1" points="24.4,167 49.1,149.9 56,159.8 75,146.7 80.4,154.5 100.7,140.5 96.2,134 115,137.4 111.7,155.3 
	105.8,147.8 80,165.6 74,157 54.7,170.3 47.5,159.9 28.2,173.2 "/>
<path class="st2" d="M339.1,157.2c-3.6,15.3-29,31.1-29,31.1s-29.5-18.2-29.5-34.5c0-1.1,0-3.4,0-3.4c0-11.4,6.8-20.7,15.1-20.7
	c7,0,12.9,6.5,14.6,15.4l0,0c1.6-9,7.6-15.7,14.7-15.7c8.3,0,15.1,9.3,15.1,20.7C340.2,152.6,339.9,155,339.1,157.2L339.1,157.2z"/>
<path class="st3" d="M457.4,38.1c-1.8,7.7-14.5,15.5-14.5,15.5s-14.7-9.1-14.7-17.3c0-0.6,0-1.7,0-1.7c0-5.7,3.4-10.3,7.5-10.3
	c3.5,0,6.5,3.3,7.3,7.7l0,0c0.8-4.5,3.8-7.9,7.3-7.9c4.2,0,7.5,4.6,7.5,10.3C457.9,35.7,457.8,37,457.4,38.1L457.4,38.1z"/>
<path class="st3" d="M789.7,334.2c-1.8,7.7-14.5,15.5-14.5,15.5s-14.7-9.1-14.7-17.3c0-0.6,0-1.7,0-1.7c0-5.7,3.4-10.3,7.5-10.3
	c3.5,0,6.5,3.3,7.3,7.7l0,0c0.8-4.5,3.8-7.9,7.3-7.9c4.2,0,7.5,4.6,7.5,10.3C790.2,331.9,790,333.1,789.7,334.2L789.7,334.2z"/>
<path class="st3" d="M171.9,332.1c-1.8,7.7-14.5,15.5-14.5,15.5s-14.7-9.1-14.7-17.3c0-0.6,0-1.7,0-1.7c0-5.7,3.4-10.3,7.5-10.3
	c3.5,0,6.5,3.3,7.3,7.7l0,0c0.8-4.5,3.8-7.9,7.3-7.9c4.2,0,7.5,4.6,7.5,10.3C172.4,329.8,172.2,331,171.9,332.1L171.9,332.1z"/>
<g class="st4">
	<circle class="st5" cx="636.3" cy="133.1" r="27.6"/>
	<g>
		<g>
			<path class="st6" d="M624.7,129.4c3.9,0,3.9-6,0-6C620.8,123.4,620.8,129.4,624.7,129.4L624.7,129.4z"/>
		</g>
	</g>
	<g>
		<g>
			<path class="st6" d="M646.8,129.4c3.9,0,3.9-6,0-6C642.9,123.4,642.9,129.4,646.8,129.4L646.8,129.4z"/>
		</g>
	</g>
	<path class="st7" d="M624.1,139.7c0,0,11,14.4,23.2,0"/>
</g>
<g class="st4">
	<circle class="st5" cx="319.9" cy="326.3" r="27.6"/>
	<g>
		<g>
			<path class="st6" d="M308.3,322.7c3.9,0,3.9-6,0-6C304.5,316.7,304.5,322.7,308.3,322.7L308.3,322.7z"/>
		</g>
	</g>
	<g>
		<g>
			<path class="st6" d="M330.4,322.7c3.9,0,3.9-6,0-6C326.6,316.7,326.6,322.7,330.4,322.7L330.4,322.7z"/>
		</g>
	</g>
	<path class="st7" d="M307.8,332.9c0,0,11,14.4,23.2,0"/>
</g>
<g class="st4">
	<circle class="st5" cx="880.4" cy="105.5" r="17.1"/>
	<g>
		<g>
			<path class="st6" d="M873.3,104.4c3.9,0,3.9-6,0-6C869.4,98.4,869.4,104.4,873.3,104.4L873.3,104.4z"/>
		</g>
	</g>
	<g>
		<g>
			<path class="st6" d="M886.9,104.4c3.9,0,3.9-6,0-6C883.1,98.4,883.1,104.4,886.9,104.4L886.9,104.4z"/>
		</g>
	</g>
	<path class="st7" d="M872.9,109.6c0,0,6.8,8.9,14.3,0"/>
</g>
<g class="st4">
	<circle class="st5" cx="59.8" cy="106.5" r="17.1"/>
	<g>
		<g>
			<path class="st6" d="M52.7,105.4c3.9,0,3.9-6,0-6C48.8,99.4,48.8,105.4,52.7,105.4L52.7,105.4z"/>
		</g>
	</g>
	<g>
		<g>
			<path class="st6" d="M66.3,105.4c3.9,0,3.9-6,0-6C62.5,99.4,62.5,105.4,66.3,105.4L66.3,105.4z"/>
		</g>
	</g>
	<path class="st7" d="M52.3,110.6c0,0,6.8,8.9,14.3,0"/>
</g>
<g class="st4">
	<path class="st8" d="M241.4,98.7H135.2c-4.7,0-8.5-3.8-8.5-8.5V34.8c0-4.7,3.8-8.5,8.5-8.5h106.1c4.7,0,8.5,3.8,8.5,8.5v55.4
		C249.9,94.9,246.1,98.7,241.4,98.7z"/>
	<path class="st9" d="M147.1,46.8l-1.4-1.2c-0.5-0.5-0.2-1.3,0.5-1.3l2.1,0.2c0.3,0,0.6-0.2,0.7-0.4l0.8-2c0.3-0.6,1.1-0.6,1.3,0
		l1,2.4l0,0l2.3-0.1c0.7,0,1,0.9,0.5,1.3l-1.4,1.1c-0.3,0.2-0.4,0.5-0.2,0.9l1,2.4c0.3,0.6-0.5,1.3-1.1,0.9l-2.6-1.6
		c-0.2-0.1-0.5-0.1-0.7,0l-2.7,1.6c-0.6,0.4-1.3-0.3-1-0.9l1.1-2.4C147.4,47.3,147.4,47,147.1,46.8z"/>
	<path class="st9" d="M166.7,46.9l-2.1-1.8c-0.3-0.3-0.1-0.9,0.3-0.8l3.1,0.2c0.2,0,0.4-0.1,0.5-0.3l1.2-2.7c0.2-0.4,0.7-0.4,0.9,0
		l1.2,3l0,0l3.2-0.1c0.5,0,0.7,0.6,0.3,0.8l-2.3,1.7c-0.2,0.1-0.2,0.4-0.2,0.6l1.3,3.3c0.2,0.4-0.3,0.8-0.7,0.6l-3.4-2.1
		c-0.1-0.1-0.3-0.1-0.5,0l-3.5,2.1c-0.4,0.2-0.9-0.2-0.7-0.6l1.5-3.3C166.9,47.2,166.9,47,166.7,46.9z"/>
	<path class="st9" d="M186.1,46.9l-2.1-1.8c-0.4-0.3-0.1-0.9,0.3-0.8l3.1,0.2c0.2,0,0.4-0.1,0.5-0.3l1.2-2.7c0.2-0.4,0.7-0.4,0.9,0
		l1.2,3l0,0l3.2-0.1c0.5,0,0.7,0.6,0.3,0.9l-2.3,1.7c-0.2,0.1-0.2,0.4-0.2,0.6l1.3,3.3c0.2,0.4-0.3,0.8-0.7,0.6l-3.4-2.1
		c-0.1-0.1-0.3-0.1-0.5,0l-3.5,2.1c-0.4,0.2-0.9-0.2-0.7-0.6l1.5-3.3C186.4,47.2,186.3,47,186.1,46.9z"/>
	<path class="st10" d="M205.6,46.9l-2-1.7c-0.4-0.3-0.1-1,0.4-0.9l2.9,0.2c0.2,0,0.4-0.1,0.5-0.3l1.1-2.6c0.2-0.4,0.8-0.4,1,0
		l1.1,2.9l0,0l3-0.1c0.5,0,0.7,0.6,0.3,0.9l-2.1,1.5c-0.2,0.1-0.3,0.4-0.2,0.6l1.2,3.1c0.2,0.5-0.3,0.9-0.8,0.6l-3.3-2
		c-0.2-0.1-0.4-0.1-0.5,0l-3.3,2c-0.4,0.3-1-0.2-0.7-0.7l1.4-3.1C205.8,47.3,205.7,47,205.6,46.9z"/>
	<path class="st10" d="M225,46.8l-1.9-1.6c-0.4-0.3-0.1-1,0.4-1l2.8,0.2c0.2,0,0.5-0.1,0.5-0.3l1.1-2.5c0.2-0.5,0.8-0.4,1,0l1.1,2.8
		l0,0l2.9-0.1c0.5,0,0.8,0.7,0.4,1l-2,1.5c-0.2,0.1-0.3,0.4-0.2,0.6l1.2,3c0.2,0.5-0.3,1-0.8,0.7l-3.2-1.9c-0.2-0.1-0.4-0.1-0.6,0
		l-3.2,1.9c-0.5,0.3-1-0.2-0.8-0.7l1.3-3C225.2,47.3,225.2,47,225,46.8z"/>
	<line class="st7" x1="144.4" y1="63.6" x2="169.9" y2="63.6"/>
	<line class="st7" x1="174.7" y1="63.6" x2="235.8" y2="63.6"/>
	<line class="st7" x1="235.8" y1="71.1" x2="210.3" y2="71.1"/>
	<line class="st7" x1="205.6" y1="71.1" x2="144.4" y2="71.1"/>
	<line class="st7" x1="144.4" y1="86.8" x2="177.5" y2="86.8"/>
	<line class="st7" x1="181.8" y1="86.8" x2="235.8" y2="86.8"/>
	<line class="st7" x1="144.4" y1="79" x2="236.2" y2="79"/>
</g>
<g class="st4">
	<path class="st8" d="M906.8,286.5h-59.1c-4.7,0-8.5-3.8-8.5-8.5v-27.7c0-4.7,3.8-8.5,8.5-8.5h59.1c4.7,0,8.5,3.8,8.5,8.5V278
		C915.3,282.7,911.5,286.5,906.8,286.5z"/>
	<path class="st9" d="M851.8,254.5l-0.8-0.7c-0.3-0.3-0.1-0.8,0.3-0.8l1.3,0.1c0.2,0,0.4-0.1,0.4-0.3l0.5-1.2c0.2-0.4,0.7-0.4,0.8,0
		l0.6,1.5l0,0l1.4-0.1c0.4,0,0.6,0.5,0.3,0.8l-0.9,0.7c-0.2,0.1-0.2,0.3-0.2,0.5l0.6,1.5c0.2,0.4-0.3,0.8-0.7,0.6l-1.6-1
		c-0.1-0.1-0.3-0.1-0.5,0l-1.6,1c-0.4,0.2-0.8-0.2-0.6-0.6l0.7-1.5C852,254.8,852,254.6,851.8,254.5z"/>
	<path class="st9" d="M863.9,254.5l-1.3-1.1c-0.2-0.2-0.1-0.5,0.2-0.5l1.9,0.1c0.1,0,0.2-0.1,0.3-0.2l0.7-1.7c0.1-0.2,0.4-0.2,0.5,0
		l0.7,1.9l0,0l2-0.1c0.3,0,0.4,0.4,0.2,0.5l-1.4,1c-0.1,0.1-0.1,0.2-0.1,0.3l0.8,2c0.1,0.3-0.2,0.5-0.4,0.4l-2.1-1.3
		c-0.1-0.1-0.2-0.1-0.3,0l-2.2,1.3c-0.2,0.1-0.5-0.1-0.4-0.4l0.9-2.1C864,254.8,864,254.6,863.9,254.5z"/>
	<path class="st9" d="M875.9,254.5l-1.3-1.1c-0.2-0.2-0.1-0.5,0.2-0.5l1.9,0.1c0.1,0,0.2-0.1,0.3-0.2l0.7-1.7c0.1-0.2,0.4-0.2,0.5,0
		l0.7,1.9l0,0l2-0.1c0.3,0,0.4,0.4,0.2,0.5l-1.4,1c-0.1,0.1-0.1,0.2-0.1,0.3l0.8,2c0.1,0.3-0.2,0.5-0.4,0.4L878,256
		c-0.1-0.1-0.2-0.1-0.3,0l-2.2,1.3c-0.2,0.1-0.5-0.1-0.4-0.4l0.9-2.1C876.1,254.8,876,254.6,875.9,254.5z"/>
	<path class="st10" d="M887.9,254.5l-1.2-1c-0.2-0.2-0.1-0.6,0.2-0.6l1.8,0.1c0.1,0,0.3-0.1,0.3-0.2l0.7-1.6c0.1-0.3,0.5-0.3,0.6,0
		l0.7,1.8l0,0l1.8-0.1c0.3,0,0.5,0.4,0.2,0.6l-1.3,1c-0.1,0.1-0.2,0.2-0.1,0.4l0.8,1.9c0.1,0.3-0.2,0.6-0.5,0.4l-2-1.2
		c-0.1-0.1-0.2-0.1-0.3,0l-2,1.2c-0.3,0.2-0.6-0.1-0.5-0.4l0.9-1.9C888.1,254.8,888,254.6,887.9,254.5z"/>
	<path class="st10" d="M899.9,254.5l-1.2-1c-0.3-0.2-0.1-0.6,0.2-0.6l1.7,0.1c0.1,0,0.3-0.1,0.3-0.2l0.7-1.5c0.1-0.3,0.5-0.3,0.6,0
		l0.7,1.7l0,0l1.8-0.1c0.3,0,0.5,0.4,0.2,0.6l-1.2,0.9c-0.1,0.1-0.2,0.3-0.1,0.4l0.7,1.9c0.1,0.3-0.2,0.6-0.5,0.4l-2-1.2
		c-0.1-0.1-0.2-0.1-0.4,0l-2,1.2c-0.3,0.2-0.6-0.1-0.5-0.4l0.8-1.9C900.1,254.8,900,254.6,899.9,254.5z"/>
	<line class="st7" x1="850.1" y1="264.8" x2="865.9" y2="264.8"/>
	<line class="st7" x1="868.8" y1="264.8" x2="906.6" y2="264.8"/>
	<line class="st7" x1="906.6" y1="269.5" x2="890.9" y2="269.5"/>
	<line class="st7" x1="887.9" y1="269.5" x2="850.1" y2="269.5"/>
	<line class="st7" x1="850.1" y1="279.2" x2="870.6" y2="279.2"/>
	<line class="st7" x1="873.3" y1="279.2" x2="906.6" y2="279.2"/>
	<line class="st7" x1="850.1" y1="274.4" x2="906.9" y2="274.4"/>
</g>
<g class="st4">
	<polygon class="st5" points="286.1,26.9 335.7,26.9 335.7,105 310.9,80.2 286.1,106.5 	"/>
	<polygon class="st9" points="306.8,55.9 301.9,51.7 308.7,52.3 311.2,46.6 313.4,52.3 313.4,52.3 319.9,52 314.7,55.9 317.4,62.8 
		310.7,58.7 303.7,62.8 	"/>
	<circle class="st11" cx="310.9" cy="54.7" r="16.5"/>
</g>
<g class="st4">
	<polygon class="st5" points="817.9,113.2 848.5,113.2 848.5,161.5 833.2,146.2 817.9,162.5 	"/>
	<polygon class="st9" points="830.7,131.1 827.6,128.6 831.9,128.9 833.4,125.4 834.7,128.9 834.7,128.9 838.8,128.8 835.5,131.2 
		837.2,135.4 833,132.9 828.7,135.4 	"/>
	<circle class="st11" cx="833.2" cy="130.4" r="10.2"/>
</g>
<g class="st4">
	<polygon class="st5" points="613,293.7 643.6,293.7 643.6,342 628.3,326.7 613,342.9 	"/>
	<polygon class="st9" points="625.8,311.6 622.7,309.1 627,309.4 628.5,305.9 629.9,309.4 629.9,309.4 633.9,309.2 630.6,311.6 
		632.3,315.9 628.2,313.4 623.9,315.9 	"/>
	<circle class="st11" cx="628.3" cy="310.9" r="10.2"/>
</g>
<g class="st4">
	<polygon class="st5" points="34.4,310 56.7,310 56.7,345.1 45.5,334 34.4,345.8 	"/>
	<polygon class="st12" points="43.7,323 41.5,321.1 44.5,321.4 45.6,318.8 46.6,321.4 46.6,321.4 49.6,321.3 47.2,323 48.4,326.1 
		45.4,324.3 42.3,326.1 	"/>
	<circle class="st11" cx="45.5" cy="322.5" r="7.4"/>
</g>
<g class="st4">
	<rect x="766.3" y="84.8" class="st8" width="34" height="34"/>
	<polyline class="st7" points="772.7,99.6 783.3,110.2 810.4,83.2 	"/>
</g>
<g class="st4">
	<rect x="250.3" y="240.6" class="st8" width="21" height="21"/>
	<polyline class="st7" points="254.3,249.8 260.8,256.4 277.5,239.7 	"/>
</g>
<g class="st4">
	<rect x="706.8" y="324.5" class="st8" width="21" height="21"/>
	<polyline class="st7" points="710.7,333.7 717.3,340.2 734,323.5 	"/>
</g>
<g class="st4">
	<rect x="431.3" y="87.1" class="st8" width="8.1" height="28.5"/>
	<path class="st8" d="M443.5,87.1v28.5h5.4l4.7,4.7h22.4l14.6-14.6V87.1h-26.8c0,0,5.6-18.6-6.8-20.3c-9.5-1.4,4.1,10.9-4.1,20.3
		H443.5z"/>
	<line class="st7" x1="490.7" y1="94.7" x2="469.3" y2="94.7"/>
	<line class="st7" x1="490.7" y1="104.1" x2="469.3" y2="104.1"/>
	<line class="st7" x1="484.1" y1="112.3" x2="469.3" y2="112.3"/>
</g>
<g class="st4">
	<rect x="929.2" y="273.9" class="st8" width="8.1" height="28.5"/>
	<path class="st8" d="M941.4,273.9v28.5h5.4l4.7,4.7H974l14.6-14.6v-18.7h-26.8c0,0,5.6-18.6-6.8-20.3c-9.5-1.4,4.1,10.9-4.1,20.3
		H941.4z"/>
	<line class="st7" x1="988.5" y1="281.6" x2="967.2" y2="281.6"/>
	<line class="st7" x1="988.5" y1="290.9" x2="967.2" y2="290.9"/>
	<line class="st7" x1="982" y1="299.1" x2="967.2" y2="299.1"/>
</g>
<g class="st4">
	<rect x="280.2" y="264.7" class="st8" width="5" height="17.6"/>
	<path class="st8" d="M287.8,264.7v17.6h3.4l2.9,2.9h13.8l9-9v-11.5h-16.6c0,0,3.5-11.5-4.2-12.6c-5.9-0.8,2.5,6.7-2.5,12.6H287.8z"
		/>
	<line class="st7" x1="316.9" y1="269.4" x2="303.7" y2="269.4"/>
	<line class="st7" x1="316.9" y1="275.2" x2="303.7" y2="275.2"/>
	<line class="st7" x1="312.9" y1="280.3" x2="303.7" y2="280.3"/>
</g>
<g class="st4">
	<rect x="757.9" y="20.5" class="st8" width="5" height="17.6"/>
	<path class="st8" d="M765.5,20.5v17.6h3.4l2.9,2.9h13.8l9-9V20.5h-16.6c0,0,3.5-11.5-4.2-12.6c-5.9-0.8,2.5,6.7-2.5,12.6H765.5z"/>
	<line class="st7" x1="794.6" y1="25.3" x2="781.4" y2="25.3"/>
	<line class="st7" x1="794.6" y1="31" x2="781.4" y2="31"/>
	<line class="st7" x1="790.6" y1="36.1" x2="781.4" y2="36.1"/>
</g>
<g class="st4">
	
		<rect x="707.3" y="261.3" transform="matrix(-1.836970e-16 1 -1 -1.836970e-16 1016.6103 -482.9885)" class="st8" width="85" height="10.9"/>
	
		<rect x="756.9" y="261.3" transform="matrix(-1.836970e-16 1 -1 -1.836970e-16 1066.2438 -532.6219)" class="st8" width="85" height="10.9"/>
	<rect x="733.4" y="220.1" class="st13" width="85" height="14.3"/>
	<rect x="733.4" y="244.9" class="st13" width="85" height="14.3"/>
	<rect x="733.4" y="269.8" class="st13" width="85" height="14.3"/>
	<circle class="st14" cx="760.3" cy="226.9" r="3.4"/>
	<circle class="st14" cx="760.3" cy="252.1" r="3.4"/>
	<circle class="st14" cx="760.3" cy="277.3" r="3.4"/>
	<line class="st15" x1="768.7" y1="226.9" x2="792.3" y2="226.9"/>
	<line class="st15" x1="768.7" y1="252.1" x2="792.3" y2="252.1"/>
	<line class="st15" x1="768.7" y1="276.5" x2="792.3" y2="276.5"/>
</g>
<g class="st4">
	
		<rect x="108.2" y="159.7" transform="matrix(-1.836970e-16 1 -1 -1.836970e-16 297.5299 28.5405)" class="st8" width="52.5" height="6.8"/>
	
		<rect x="138.9" y="159.7" transform="matrix(-1.836970e-16 1 -1 -1.836970e-16 328.2058 -2.1354)" class="st8" width="52.5" height="6.8"/>
	<rect x="124.4" y="134.2" class="st13" width="52.5" height="8.8"/>
	<rect x="124.4" y="149.5" class="st13" width="52.5" height="8.8"/>
	<rect x="124.4" y="164.9" class="st13" width="52.5" height="8.8"/>
	<circle class="st14" cx="141" cy="138.3" r="2.1"/>
	<circle class="st14" cx="141" cy="153.9" r="2.1"/>
	<circle class="st14" cx="141" cy="169.5" r="2.1"/>
	<line class="st15" x1="146.2" y1="138.3" x2="160.8" y2="138.3"/>
	<line class="st15" x1="146.2" y1="153.9" x2="160.8" y2="153.9"/>
	<line class="st15" x1="146.2" y1="169" x2="160.8" y2="169"/>
</g>
<g class="st4">
	<path class="st6" d="M756.7,161.6c4.3-4.5,6.9-10.8,6.9-17.9c0-13.5-9.7-24.4-21.8-24.4c-12,0-21.8,10.9-21.8,24.4
		c0,7.1,2.7,13.4,6.9,17.9c-17.6,4.8-30.3,17.8-30.3,33.1H787C787,179.3,774.4,166.3,756.7,161.6z"/>
	<path class="st7" d="M790.3,158c2.5-2.6,4.1-6.4,4.1-10.6c0-8-5.8-14.5-12.9-14.5c-7.1,0-12.9,6.5-12.9,14.5
		c0,4.2,1.6,7.9,4.1,10.6c-10.4,2.8-17.9,10.5-17.9,19.6h53.4C808.3,168.5,800.8,160.8,790.3,158z"/>
	<path class="st7" d="M711.6,156.5c2.7-2.8,4.4-6.8,4.4-11.3c0-8.5-6.1-15.4-13.7-15.4c-7.6,0-13.7,6.9-13.7,15.4
		c0,4.4,1.7,8.4,4.4,11.3c-11.1,3-19.1,11.2-19.1,20.8h56.8C730.7,167.7,722.7,159.5,711.6,156.5z"/>
</g>
<g class="st4">
	<path class="st6" d="M241.2,320.1c2.6-2.8,4.3-6.7,4.3-11c0-8.3-6-15.1-13.5-15.1c-7.4,0-13.5,6.8-13.5,15.1c0,4.4,1.7,8.3,4.3,11
		c-10.9,2.9-18.7,11-18.7,20.4h55.8C259.9,331.1,252.1,323,241.2,320.1z"/>
	<path class="st7" d="M262,317.9c1.6-1.6,2.5-4,2.5-6.5c0-4.9-3.6-8.9-8-8.9c-4.4,0-8,4-8,8.9c0,2.6,1,4.9,2.5,6.5
		c-6.5,1.7-11.1,6.5-11.1,12.1h33C273,324.4,268.4,319.6,262,317.9z"/>
	<path class="st7" d="M213.3,317c1.7-1.7,2.7-4.2,2.7-7c0-5.2-3.8-9.5-8.5-9.5c-4.7,0-8.5,4.3-8.5,9.5c0,2.7,1,5.2,2.7,7
		c-6.9,1.9-11.8,6.9-11.8,12.9h35.1C225.1,323.9,220.2,318.8,213.3,317z"/>
</g>
<g class="st4">
	<path class="st6" d="M75.6,49.4c2.6-2.8,4.3-6.7,4.3-11c0-8.3-6-15.1-13.5-15.1S53,30,53,38.4c0,4.4,1.7,8.3,4.3,11
		c-10.9,2.9-18.7,11-18.7,20.4h55.8C94.3,60.4,86.5,52.3,75.6,49.4z"/>
	<path class="st7" d="M96.3,47.2c1.6-1.6,2.5-4,2.5-6.5c0-4.9-3.6-8.9-8-8.9s-8,4-8,8.9c0,2.6,1,4.9,2.5,6.5
		c-6.5,1.7-11.1,6.5-11.1,12.1h33C107.4,53.7,102.8,48.9,96.3,47.2z"/>
	<path class="st7" d="M47.7,46.3c1.7-1.7,2.7-4.2,2.7-7c0-5.2-3.8-9.5-8.5-9.5s-8.5,4.3-8.5,9.5c0,2.7,1,5.2,2.7,7
		c-6.9,1.9-11.8,6.9-11.8,12.9h35.1C59.5,53.2,54.6,48.1,47.7,46.3z"/>
</g>
<g class="st4">
	<path class="st13" d="M400.4,50.8h-23.7l-9.9,37.1l21.4-9.6l22.1,10.9L400.4,50.8z M387.8,75.2l-14,6.6l5.7-25h17.1l6.1,26.3
		L387.8,75.2z"/>
	<path class="st10" d="M372,62.3c-0.6-1-1.7-1.6-3-1.3l0,0c-3.1,0.8-4.8-3.6-1.8-5l0,0c2.3-1.1,1.9-4.4-0.6-5l0,0
		c-3.2-0.7-2.5-5.4,0.7-5.3l0,0c2.5,0.1,3.8-3,1.8-4.7l0,0c-2.5-2.1,0.2-6,3.1-4.3l0,0c2.2,1.3,4.7-0.9,3.8-3.3v0
		c-1.2-3,3-5.2,4.7-2.4l0,0c1.3,2.1,4.6,1.4,4.9-1.2v0c0.3-3.2,5-3.2,5.3,0.1v0c0.2,2.5,3.5,3.4,4.9,1.3v0c1.8-2.7,5.9-0.5,4.7,2.5
		l0,0c-1,2.3,1.5,4.6,3.7,3.4l0,0c2.8-1.6,5.5,2.3,3,4.4l0,0c-2,1.6-0.8,4.8,1.7,4.7h0c3.2-0.1,3.8,4.6,0.6,5.3l0,0
		c-2.5,0.5-2.9,3.9-0.7,5l0,0c2.9,1.4,1.2,5.8-1.9,4.9l0,0c-0.7-0.2-1.3-0.1-1.9,0.1"/>
	<circle class="st9" cx="387.6" cy="50.8" r="15.8"/>
	<text transform="matrix(1 0 0 1 381.4751 58.3842)" class="st16 st17 st18">1</text>
</g>
<g class="st4">
	<path class="st13" d="M937.4,167.5h-43.7l-18.2,63.1l39.5-16.3l40.8,18.6L937.4,167.5z M914.2,209l-25.8,11.2l10.5-42.5h31.6
		l11.3,44.7L914.2,209z"/>
	<path class="st10" d="M885,187.1c-1-1.7-3.1-2.8-5.6-2.2l0,0c-5.8,1.4-8.8-6.1-3.4-8.5l0,0c4.2-1.8,3.5-7.6-1-8.5l0,0
		c-5.8-1.2-4.7-9.2,1.3-8.9h0c4.7,0.2,6.9-5.2,3.4-8l0,0c-4.6-3.6,0.5-10.1,5.6-7.4l0,0c4,2.2,8.7-1.6,7-5.6l0,0
		c-2.2-5.1,5.5-8.8,8.7-4.1v0c2.5,3.6,8.6,2.3,9-2l0,0c0.6-5.5,9.3-5.4,9.8,0.1l0,0c0.4,4.3,6.4,5.7,9,2.1l0,0
		c3.3-4.6,10.9-0.8,8.6,4.3v0c-1.8,4,2.8,7.8,6.9,5.7l0,0c5.2-2.7,10.1,4,5.5,7.5l0,0c-3.6,2.7-1.5,8.1,3.2,8h0
		c6-0.1,6.9,7.9,1.1,8.9l0,0c-4.6,0.9-5.4,6.6-1.2,8.5l0,0c5.3,2.5,2.2,9.9-3.6,8.4l0,0c-1.3-0.3-2.5-0.2-3.5,0.2"/>
	<ellipse class="st9" cx="913.9" cy="167.5" rx="29.1" ry="26.8"/>
	<text transform="matrix(1.0844 0 0 1 902.4775 180.476)" class="st16 st17 st19">1</text>
</g>
<g class="st4">
	<ellipse class="st7" cx="686" cy="221.9" rx="26.2" ry="6.1"/>
	<path class="st7" d="M659.8,221.4c0,0-1.1,32.3,14.5,35.7c0,0,9.2,3.1,23.6,0.4c1.4-0.3,2.7-0.9,3.7-1.9c3.5-3.6,11.5-13.9,10.6-33
		"/>
	<path class="st7" d="M712.2,228.2c0,0,1.1-5.7,4.5-4.5c0,0,4.5,0,3.3,8.9c-1.1,8.9-6.7,10-6.7,10s-3.4-0.8-5.6,4.1"/>
	<path class="st10" d="M664.8,234.2c0,0,2.2,20.1,14.5,18.9"/>
	<ellipse class="st6" cx="685.4" cy="223.6" rx="22.8" ry="3.9"/>
	<path class="st20" d="M674.8,204.1c0,0-3,3,0,6.7c3,3.7,0,6.7,0,6.7"/>
	<path class="st20" d="M694.9,204.1c0,0-3,3,0,6.7s0,6.7,0,6.7"/>
	<path class="st20" d="M683.8,198.5c0,0-3,3,0,6.7c3,3.7,0,6.7,0,6.7"/>
</g>
<g class="st4">
	<ellipse class="st7" cx="268.2" cy="204.3" rx="16.2" ry="3.8"/>
	<path class="st7" d="M252,203.9c0,0-0.7,20,9,22c0,0,5.7,1.9,14.6,0.2c0.9-0.2,1.7-0.6,2.3-1.2c2.2-2.2,7.1-8.6,6.5-20.4"/>
	<path class="st7" d="M284.4,208.1c0,0,0.7-3.5,2.8-2.8c0,0,2.8,0,2.1,5.5s-4.1,6.2-4.1,6.2s-2.1-0.5-3.5,2.5"/>
	<path class="st10" d="M255.1,211.9c0,0,1.4,12.4,9,11.7"/>
	<ellipse class="st6" cx="267.8" cy="205.3" rx="14.1" ry="2.4"/>
	<path class="st20" d="M261.3,193.3c0,0-1.8,1.8,0,4.1c1.8,2.3,0,4.1,0,4.1"/>
	<path class="st20" d="M273.7,193.3c0,0-1.8,1.8,0,4.1c1.8,2.3,0,4.1,0,4.1"/>
	<path class="st20" d="M266.8,189.8c0,0-1.8,1.8,0,4.1c1.8,2.3,0,4.1,0,4.1"/>
</g>
<g class="st4">
	<g>
		<circle class="st7" cx="334.7" cy="220.4" r="15.3"/>
		<polygon class="st9" points="330.8,220.9 326.2,217 332.6,217.5 334.9,212.1 337,217.5 337,217.5 343.1,217.2 338.2,220.9 
			340.8,227.4 334.4,223.5 327.9,227.4 		"/>
	</g>
	<path class="st8" d="M328,255.8c0,0,6.8,13.9,13.3,0l15.7-24.8l0,0c1.7-3.6,2.6-7.8,2.3-12.1c-0.8-12.3-10.9-22.4-23.3-23.1
		c-14.2-0.8-26,10.6-26,24.6c0,4.7,1.3,9.1,3.6,12.9l-0.1,0.1L328,255.8L328,255.8z"/>
</g>
<g class="st4">
	<g>
		<circle class="st7" cx="838.9" cy="200.2" r="9.4"/>
		<polygon class="st9" points="836.5,200.6 833.7,198.2 837.6,198.5 839.1,195.2 840.4,198.5 840.4,198.5 844.2,198.3 841.1,200.6 
			842.7,204.6 838.8,202.2 834.7,204.6 		"/>
	</g>
	<path class="st8" d="M834.8,222.1c0,0,4.2,8.6,8.2,0l9.7-15.4l0,0c1.1-2.3,1.6-4.8,1.4-7.5c-0.5-7.6-6.7-13.8-14.4-14.3
		c-8.8-0.5-16.1,6.5-16.1,15.2c0,2.9,0.8,5.6,2.2,7.9l-0.1,0L834.8,222.1L834.8,222.1z"/>
</g>
<g class="st4">
	<rect x="376.4" y="184.2" class="st21" width="25.1" height="83.6"/>
	<path class="st21" d="M630.1,267.8h25.1l-35.8-83.6h-4.8h-20.3h-4.8l-29.9,83.6h25.1l6.8-19.1h30.4L630.1,267.8z M596.7,234.4
		l8.7-24.3l10.4,24.3H596.7z"/>
	<polygon class="st21" points="554.9,205.7 554.9,184.2 511.8,184.2 486.8,184.2 486.8,205.7 486.8,215.3 486.8,236.8 486.8,246.3 
		486.8,267.8 511.8,267.8 554.9,267.8 554.9,246.3 511.8,246.3 511.8,235.6 538.1,235.6 538.1,217.6 511.8,217.6 511.8,205.7 	"/>
	<path class="st21" d="M435.4,184.2h-23.9v83.6h23.9c24.4,0,44.2-18.7,44.2-41.8S459.8,184.2,435.4,184.2z M435.4,250.2l-1.2,0
		v-48.3l1.2,0c14.1,0,25.6,10.8,25.6,24.2C460.9,239.4,449.5,250.2,435.4,250.2z"/>
	<g>
		<line class="st7" x1="378" y1="177.2" x2="399.5" y2="177.2"/>
		<line class="st7" x1="375.9" y1="173.2" x2="401.6" y2="173.2"/>
		<path class="st7" d="M404.2,151.8c0,0-9,7.7-6.3,17.4h-18.8h-0.7c2.7-9.6-6.1-18.8-6.1-18.8c-1.8-2.9-2.9-6.4-2.9-10.1
			c0-10.7,8.6-19.3,19.3-19.3c10.7,0,19.3,8.6,19.3,19.3C408.1,144.6,406.6,148.6,404.2,151.8L404.2,151.8z"/>
		<path class="st7" d="M385,162.8l-4.8-19.8c0,0,2.7-8,8,0c0,0,3.2-9.2,8,0l-4.8,19.8"/>
		<path class="st7" d="M388.2,127.4c0,0-12.9,0-12.9,16.1"/>
		<line class="st7" x1="387.8" y1="94" x2="387.8" y2="107.6"/>
		<line class="st7" x1="414.2" y1="104.3" x2="405.5" y2="114.8"/>
		<line class="st7" x1="428.4" y1="134.6" x2="414.9" y2="135.4"/>
		<line class="st7" x1="357.6" y1="105.7" x2="367.3" y2="115.2"/>
		<line class="st7" x1="344.8" y1="135.9" x2="358.4" y2="135.5"/>
		<line class="st7" x1="358.4" y1="146" x2="351.6" y2="148.3"/>
		<line class="st7" x1="359.1" y1="125.2" x2="352.4" y2="122.7"/>
		<line class="st7" x1="376.1" y1="108.1" x2="373.3" y2="101.5"/>
		<line class="st7" x1="399.2" y1="108" x2="401.8" y2="101.3"/>
		<line class="st7" x1="415.6" y1="123.3" x2="422" y2="120.1"/>
		<line class="st7" x1="416.9" y1="146.9" x2="423.6" y2="149.2"/>
	</g>
</g>
<g class="st4">
	<polygon class="st8" points="808.2,14.2 908.1,14.2 908.1,75.7 808.2,75.7 814.8,68.5 810.2,66.5 814.8,59.9 808.2,51.3 
		813.5,47.9 808.2,39.3 813.5,33.4 808.2,26.1 812.8,22.1 	"/>
	<line class="st22" x1="822.7" y1="17.8" x2="822.7" y2="73.1"/>
	<line class="st7" x1="829.4" y1="57.2" x2="898.2" y2="57.2"/>
	<line class="st7" x1="829.4" y1="64.5" x2="898.2" y2="64.5"/>
	<text transform="matrix(1 0 0 1 839.2441 45.3812)" class="st6 st17 st23">20%</text>
</g>
<g class="st4">
	<polygon class="st8" points="14.1,192.5 114.1,192.5 114.1,254.1 14.1,254.1 20.7,246.8 16.1,244.8 20.7,238.2 14.1,229.6 
		19.4,226.3 14.1,217.7 19.4,211.7 14.1,204.4 18.7,200.5 	"/>
	<line class="st22" x1="28.7" y1="196.2" x2="28.7" y2="251.4"/>
	<line class="st7" x1="35.3" y1="235.6" x2="104.1" y2="235.6"/>
	<line class="st7" x1="35.3" y1="242.8" x2="104.1" y2="242.8"/>
	<text transform="matrix(1 0 0 1 45.1887 223.726)" class="st6 st17 st23">20%</text>
</g>
<g class="st4">
	<polygon class="st8" points="434.5,312.6 496.3,312.6 496.3,350.6 434.5,350.6 438.6,346.1 435.7,344.9 438.6,340.8 434.5,335.5 
		437.7,333.4 434.5,328.1 437.7,324.4 434.5,319.9 437.3,317.5 	"/>
	<line class="st22" x1="443.5" y1="314.8" x2="443.5" y2="349"/>
	<line class="st7" x1="447.6" y1="339.2" x2="490.1" y2="339.2"/>
	<line class="st7" x1="447.6" y1="343.7" x2="490.1" y2="343.7"/>
	<text transform="matrix(1 0 0 1 453.6836 331.8461)" class="st6 st17 st24">20%</text>
</g>
<g class="st4">
	<path class="st8" d="M214.2,151.5l-8.2-6.9c-2-1.7-0.7-4.9,1.9-4.7l12.2,0.9c1.1,0.1,2.2-0.6,2.7-1.6l4.7-10.9c1-2.2,4.1-2.2,5,0.1
		l5,12.6l0,0l12.7-0.5c2.6-0.1,3.8,3.3,1.7,4.9l-8.6,6.4c-1,0.7-1.4,2-0.9,3.2l5.3,13.3c1,2.4-1.7,4.6-3.9,3.3l-14-8.4
		c-0.8-0.5-1.9-0.5-2.8,0l-14.2,8.4c-2.3,1.3-4.9-1-3.8-3.4l5.9-13.3C215.4,153.6,215.1,152.3,214.2,151.5z"/>
	<line class="st10" x1="249" y1="155" x2="261.2" y2="157.7"/>
	<line class="st10" x1="249" y1="155" x2="261.1" y2="158"/>
	<line class="st10" x1="241.7" y1="134.3" x2="249.4" y2="124.5"/>
	<line class="st10" x1="258.3" y1="140.8" x2="265.8" y2="138.6"/>
	<line class="st10" x1="231.3" y1="119.8" x2="232.2" y2="112.1"/>
	<line class="st10" x1="200.8" y1="139.1" x2="193.6" y2="136.1"/>
	<line class="st10" x1="207" y1="174.4" x2="201.7" y2="180.1"/>
	<line class="st10" x1="251" y1="175.2" x2="256.4" y2="180.9"/>
	<line class="st10" x1="217.1" y1="134.4" x2="209.5" y2="124.5"/>
	<line class="st10" x1="209.8" y1="154.7" x2="197.7" y2="157.3"/>
	<line class="st10" x1="229.4" y1="170.4" x2="229.3" y2="182.8"/>
	<line class="st10" x1="264.9" y1="159.5" x2="267.9" y2="160.4"/>
	<line class="st10" x1="251.5" y1="121.5" x2="254.4" y2="118.6"/>
	<line class="st10" x1="206.1" y1="121.6" x2="204.5" y2="119.9"/>
	<line class="st10" x1="192.3" y1="159" x2="188.3" y2="160.4"/>
	<line class="st10" x1="228.7" y1="187.9" x2="228.8" y2="191.4"/>
</g>
<g class="st4">
	<path class="st8" d="M935,84.7l-8.2-6.9c-2-1.7-0.7-4.9,1.9-4.7L941,74c1.1,0.1,2.2-0.6,2.7-1.6l4.7-10.9c1-2.2,4.1-2.2,5,0.1
		l5,12.6v0l12.7-0.5c2.6-0.1,3.8,3.3,1.7,4.9l-8.6,6.4c-1,0.7-1.4,2-0.9,3.2l5.3,13.3c1,2.4-1.7,4.6-3.9,3.3l-14-8.4
		c-0.8-0.5-1.9-0.5-2.8,0l-14.2,8.4c-2.3,1.3-4.9-1-3.8-3.4l5.9-13.3C936.2,86.7,936,85.4,935,84.7z"/>
	<line class="st10" x1="969.8" y1="88.1" x2="982" y2="90.8"/>
	<line class="st10" x1="969.8" y1="88.1" x2="981.9" y2="91.1"/>
	<line class="st10" x1="962.6" y1="67.4" x2="970.2" y2="57.6"/>
	<line class="st10" x1="979.1" y1="73.9" x2="986.6" y2="71.7"/>
	<line class="st10" x1="952.1" y1="53" x2="953.1" y2="45.2"/>
	<line class="st10" x1="921.6" y1="72.3" x2="914.4" y2="69.2"/>
	<line class="st10" x1="927.8" y1="107.6" x2="922.5" y2="113.2"/>
	<line class="st10" x1="971.8" y1="108.4" x2="977.2" y2="114"/>
	<line class="st10" x1="937.9" y1="67.5" x2="930.3" y2="57.7"/>
	<line class="st10" x1="930.6" y1="87.8" x2="918.5" y2="90.4"/>
	<line class="st10" x1="950.2" y1="103.5" x2="950.1" y2="116"/>
	<line class="st10" x1="985.7" y1="92.6" x2="988.7" y2="93.5"/>
	<line class="st10" x1="972.3" y1="54.6" x2="975.2" y2="51.7"/>
	<line class="st10" x1="926.9" y1="54.7" x2="925.3" y2="53"/>
	<line class="st10" x1="913.2" y1="92.2" x2="909.1" y2="93.5"/>
	<line class="st10" x1="949.6" y1="121" x2="949.6" y2="124.5"/>
</g>
<g class="st4">
	<path class="st8" d="M677.1,290.7l-5-4.3c-1.2-1-0.4-3.1,1.2-2.9l7.6,0.6c0.7,0.1,1.4-0.3,1.7-1l2.9-6.7c0.6-1.4,2.5-1.3,3.1,0
		l3.1,7.8l0,0l7.9-0.3c1.6-0.1,2.4,2,1.1,3l-5.3,3.9c-0.6,0.5-0.8,1.3-0.6,2l3.3,8.2c0.6,1.5-1,2.9-2.4,2l-8.7-5.2
		c-0.5-0.3-1.2-0.3-1.7,0l-8.8,5.2c-1.4,0.8-3-0.6-2.4-2.1l3.7-8.2C677.8,292,677.6,291.2,677.1,290.7z"/>
	<line class="st10" x1="698.6" y1="292.8" x2="706.1" y2="294.5"/>
	<line class="st10" x1="698.6" y1="292.8" x2="706" y2="294.7"/>
	<line class="st10" x1="694.1" y1="280.1" x2="698.8" y2="274"/>
	<line class="st10" x1="704.3" y1="284.1" x2="708.9" y2="282.7"/>
	<line class="st10" x1="687.6" y1="271.1" x2="688.2" y2="266.3"/>
	<line class="st10" x1="668.8" y1="283" x2="664.3" y2="281.2"/>
	<line class="st10" x1="672.6" y1="304.8" x2="669.3" y2="308.3"/>
	<line class="st10" x1="699.8" y1="305.3" x2="703.1" y2="308.8"/>
	<line class="st10" x1="678.8" y1="280.1" x2="674.1" y2="274"/>
	<line class="st10" x1="674.3" y1="292.6" x2="666.8" y2="294.3"/>
	<line class="st10" x1="686.4" y1="302.3" x2="686.4" y2="310"/>
	<line class="st10" x1="708.4" y1="295.6" x2="710.2" y2="296.2"/>
	<line class="st10" x1="700.1" y1="272.1" x2="701.9" y2="270.3"/>
	<line class="st10" x1="672.1" y1="272.2" x2="671" y2="271.1"/>
	<line class="st10" x1="663.5" y1="295.3" x2="661" y2="296.2"/>
	<line class="st10" x1="686" y1="313.1" x2="686.1" y2="315.3"/>
</g>
<g class="st4">
	<path class="st8" d="M740.4,45.3h-45.2c-7,0-12.7,5.7-12.7,12.7v21.5c0,0.6,0.1,1.2,0.1,1.7v5.5V101l9.2-9.2
		c1.1,0.3,2.2,0.5,3.3,0.5h45.2c7,0,12.7-5.7,12.7-12.7V58C753.1,51,747.4,45.3,740.4,45.3z"/>
	<line class="st7" x1="694.3" y1="57.7" x2="741.2" y2="57.7"/>
	<line class="st7" x1="694.3" y1="66.1" x2="741.2" y2="66.1"/>
	<line class="st7" x1="694.3" y1="74.6" x2="741.2" y2="74.6"/>
	<line class="st7" x1="694.3" y1="83.1" x2="741.2" y2="83.1"/>
	<path class="st8" d="M628,27.7h36.8c5.7,0,10.4,4.9,10.4,10.9v18.5c0,0.5,0,1-0.1,1.5v4.7v12.3l-7.5-7.9c-0.9,0.2-1.8,0.4-2.7,0.4
		H628c-5.7,0-10.4-4.9-10.4-10.9V38.6C617.6,32.6,622.2,27.7,628,27.7z"/>
	<line class="st7" x1="665.5" y1="38.3" x2="627.3" y2="38.3"/>
	<line class="st7" x1="665.5" y1="45.6" x2="627.3" y2="45.6"/>
	<line class="st7" x1="665.5" y1="52.9" x2="627.3" y2="52.9"/>
	<line class="st7" x1="665.5" y1="60.2" x2="627.3" y2="60.2"/>
</g>
<g class="st4">
	<path class="st8" d="M579.2,295.7h-27.9c-4.3,0-7.8,3.5-7.8,7.8v13.3c0,0.4,0,0.7,0.1,1.1v3.4v8.9l5.7-5.7c0.7,0.2,1.3,0.3,2.1,0.3
		h27.9c4.3,0,7.8-3.5,7.8-7.8v-13.3C587.1,299.2,583.5,295.7,579.2,295.7z"/>
	<line class="st7" x1="550.8" y1="303.3" x2="579.7" y2="303.3"/>
	<line class="st7" x1="550.8" y1="308.5" x2="579.7" y2="308.5"/>
	<line class="st7" x1="550.8" y1="313.8" x2="579.7" y2="313.8"/>
	<line class="st7" x1="550.8" y1="319" x2="579.7" y2="319"/>
	<path class="st8" d="M509.7,284.8h22.8c3.5,0,6.4,3,6.4,6.7V303c0,0.3,0,0.6-0.1,0.9v2.9v7.6l-4.7-4.9c-0.5,0.2-1.1,0.2-1.7,0.2
		h-22.8c-3.5,0-6.4-3-6.4-6.7v-11.4C503.3,287.8,506.2,284.8,509.7,284.8z"/>
	<line class="st7" x1="532.9" y1="291.4" x2="509.3" y2="291.4"/>
	<line class="st7" x1="532.9" y1="295.9" x2="509.3" y2="295.9"/>
	<line class="st7" x1="532.9" y1="300.4" x2="509.3" y2="300.4"/>
	<line class="st7" x1="532.9" y1="304.9" x2="509.3" y2="304.9"/>
</g>
<g class="st4">
	<path class="st8" d="M897.7,314.8h-27.9c-4.3,0-7.8,3.5-7.8,7.8v13.3c0,0.4,0,0.7,0.1,1.1v3.4v8.9l5.7-5.7c0.7,0.2,1.3,0.3,2.1,0.3
		h27.9c4.3,0,7.8-3.5,7.8-7.8v-13.3C905.5,318.3,902,314.8,897.7,314.8z"/>
	<line class="st7" x1="869.2" y1="322.4" x2="898.2" y2="322.4"/>
	<line class="st7" x1="869.2" y1="327.7" x2="898.2" y2="327.7"/>
	<line class="st7" x1="869.2" y1="332.9" x2="898.2" y2="332.9"/>
	<line class="st7" x1="869.2" y1="338.1" x2="898.2" y2="338.1"/>
	<path class="st8" d="M828.2,303.9H851c3.5,0,6.4,3,6.4,6.7v11.4c0,0.3,0,0.6-0.1,0.9v2.9v7.6l-4.7-4.9c-0.5,0.2-1.1,0.2-1.7,0.2
		h-22.8c-3.5,0-6.4-3-6.4-6.7v-11.4C821.8,306.9,824.7,303.9,828.2,303.9z"/>
	<line class="st7" x1="851.4" y1="310.5" x2="827.8" y2="310.5"/>
	<line class="st7" x1="851.4" y1="315" x2="827.8" y2="315"/>
	<line class="st7" x1="851.4" y1="319.5" x2="827.8" y2="319.5"/>
	<line class="st7" x1="851.4" y1="324" x2="827.8" y2="324"/>
</g>
<g class="st4">
	<path class="st8" d="M135.5,280.8h-27.9c-4.3,0-7.8,3.5-7.8,7.8v13.3c0,0.4,0,0.7,0.1,1.1v3.4v8.9l5.7-5.7c0.7,0.2,1.3,0.3,2.1,0.3
		h27.9c4.3,0,7.8-3.5,7.8-7.8v-13.3C143.3,284.3,139.8,280.8,135.5,280.8z"/>
	<line class="st7" x1="107" y1="288.4" x2="136" y2="288.4"/>
	<line class="st7" x1="107" y1="293.7" x2="136" y2="293.7"/>
	<line class="st7" x1="107" y1="298.9" x2="136" y2="298.9"/>
	<line class="st7" x1="107" y1="304.1" x2="136" y2="304.1"/>
	<path class="st8" d="M66,269.9h22.8c3.5,0,6.4,3,6.4,6.7v11.4c0,0.3,0,0.6-0.1,0.9v2.9v7.6l-4.7-4.9c-0.5,0.2-1.1,0.2-1.7,0.2H66
		c-3.5,0-6.4-3-6.4-6.7v-11.4C59.6,273,62.5,269.9,66,269.9z"/>
	<line class="st7" x1="89.2" y1="276.5" x2="65.6" y2="276.5"/>
	<line class="st7" x1="89.2" y1="281" x2="65.6" y2="281"/>
	<line class="st7" x1="89.2" y1="285.5" x2="65.6" y2="285.5"/>
	<line class="st7" x1="89.2" y1="290" x2="65.6" y2="290"/>
</g>
<g class="st4">
	<polygon class="st9" points="502.3,54.8 498.8,51.9 503.6,52.3 505.4,48.3 506.9,52.3 506.9,52.3 511.5,52.1 507.8,54.8 
		509.8,59.7 505,56.8 500.1,59.7 	"/>
	<polygon class="st9" points="519.3,54.8 515.8,51.9 520.6,52.3 522.3,48.3 523.9,52.3 523.9,52.3 528.5,52.1 524.8,54.8 
		526.8,59.7 522,56.8 517.1,59.7 	"/>
	<polygon class="st9" points="536.2,54.8 532.8,51.9 537.6,52.3 539.3,48.3 540.9,52.3 540.9,52.3 545.5,52.1 541.8,54.8 
		543.7,59.7 539,56.8 534.1,59.7 	"/>
	<polygon class="st9" points="553.2,54.8 549.8,51.9 554.6,52.3 556.3,48.3 557.9,52.3 557.9,52.3 562.5,52.1 558.8,54.8 
		560.7,59.7 556,56.8 551,59.7 	"/>
	<polygon class="st9" points="570.2,54.8 566.7,51.9 571.6,52.3 573.3,48.3 574.9,52.3 574.9,52.3 579.5,52.1 575.8,54.8 
		577.7,59.7 572.9,56.8 568,59.7 	"/>
	<path class="st8" d="M570.8,25.4h-63.1c-9.8,0-17.7,6.9-17.7,15.5v26.2c0,0.7,0.1,1.4,0.2,2.1c0,4.1,2.3,7.8,6,9.5l5.9,2.8
		c0.7,0.3,1.3,0.6,2.1,0.7c1.2,0.2,2.3,0.3,3.6,0.3H540c1.5,12.5-2.4,18.6-2.4,18.6c14.9-4.2,17.5-9.5,18-19.1l15.2,0.5
		c9.8,0,17.7-6.9,17.7-15.5V40.9C588.5,32.4,580.6,25.4,570.8,25.4z"/>
</g>
<g class="st4">
	<polygon class="st9" points="146.6,241.6 143.2,238.7 148,239.1 149.7,235.1 151.3,239.1 151.3,239.1 155.9,238.9 152.2,241.7 
		154.2,246.5 149.4,243.6 144.5,246.6 	"/>
	<polygon class="st9" points="163.6,241.6 160.2,238.7 165,239.1 166.7,235.1 168.3,239.1 168.3,239.1 172.9,238.9 169.2,241.7 
		171.1,246.5 166.4,243.6 161.4,246.6 	"/>
	<polygon class="st9" points="180.6,241.6 177.2,238.7 182,239.1 183.7,235.1 185.3,239.1 185.3,239.1 189.9,238.9 186.2,241.7 
		188.1,246.5 183.3,243.6 178.4,246.6 	"/>
	<polygon class="st9" points="197.6,241.6 194.1,238.7 199,239.1 200.7,235.1 202.3,239.1 202.3,239.1 206.9,238.9 203.2,241.7 
		205.1,246.5 200.3,243.6 195.4,246.6 	"/>
	<polygon class="st9" points="214.6,241.6 211.1,238.7 215.9,239.1 217.7,235.1 219.3,239.1 219.3,239.1 223.9,238.9 220.2,241.7 
		222.1,246.5 217.3,243.6 212.4,246.6 	"/>
	<path class="st8" d="M215.1,212.3H152c-9.8,0-17.7,6.9-17.7,15.5V254c0,0.7,0.1,1.4,0.2,2.1c0,4.1,2.3,7.8,6,9.5l5.9,2.8
		c0.7,0.3,1.3,0.6,2.1,0.7c1.2,0.2,2.3,0.3,3.6,0.3h32.4c1.5,12.5-2.4,18.6-2.4,18.6c14.9-4.2,17.5-9.5,18-19.1l15.2,0.5
		c9.8,0,17.7-6.9,17.7-15.5v-26.2C232.9,219.2,224.9,212.3,215.1,212.3z"/>
</g>
<g class="st4">
	<polygon class="st9" points="372,299 369.9,297.2 372.8,297.5 373.9,295 374.9,297.5 374.9,297.5 377.7,297.4 375.4,299.1 
		376.6,302.1 373.7,300.3 370.6,302.1 	"/>
	<polygon class="st9" points="382.5,299 380.4,297.2 383.3,297.5 384.4,295 385.4,297.5 385.4,297.5 388.2,297.4 385.9,299.1 
		387.1,302.1 384.2,300.3 381.1,302.1 	"/>
	<polygon class="st9" points="393,299 390.9,297.2 393.8,297.5 394.9,295 395.9,297.5 395.9,297.5 398.7,297.4 396.4,299.1 
		397.6,302.1 394.7,300.3 391.6,302.1 	"/>
	<polygon class="st9" points="403.5,299 401.4,297.2 404.3,297.5 405.4,295 406.4,297.5 406.4,297.5 409.2,297.4 406.9,299.1 
		408.1,302.1 405.2,300.3 402.1,302.1 	"/>
	<polygon class="st9" points="414,299 411.9,297.2 414.8,297.5 415.9,295 416.9,297.5 416.9,297.5 419.7,297.4 417.4,299.1 
		418.6,302.1 415.7,300.3 412.6,302.1 	"/>
	<path class="st8" d="M414.3,280.9h-39c-6.1,0-11,4.3-11,9.6v16.2c0,0.4,0,0.9,0.1,1.3c0,2.5,1.4,4.8,3.7,5.9l3.7,1.8
		c0.4,0.2,0.8,0.4,1.3,0.4c0.7,0.1,1.4,0.2,2.2,0.2h20c0.9,7.7-1.5,11.5-1.5,11.5c9.2-2.6,10.8-5.9,11.2-11.8l9.4,0.3
		c6.1,0,11-4.3,11-9.6v-16.2C425.3,285.2,420.4,280.9,414.3,280.9z"/>
</g>
</svg>
