<?xml version="1.0" encoding="utf-8"?>
<!-- Generator: Adobe Illustrator 22.0.0, SVG Export Plug-In . SVG Version: 6.00 Build 0)  -->
<svg version="1.1" id="Layer_1" xmlns="http://www.w3.org/2000/svg" xmlns:xlink="http://www.w3.org/1999/xlink" x="0px" y="0px"
	 viewBox="0 0 942 340" style="enable-background:new 0 0 942 340;" xml:space="preserve">
<style type="text/css">
	.st0{fill:#081434;}
	.st1{fill:#081434;stroke:#FCB713;stroke-width:4;stroke-linecap:round;stroke-linejoin:round;stroke-miterlimit:10;}
	.st2{fill:none;stroke:#FCB713;stroke-width:4;stroke-linecap:round;stroke-linejoin:round;stroke-miterlimit:10;}
	.st3{fill:none;stroke:#FCB713;stroke-width:2;stroke-linecap:round;stroke-linejoin:round;stroke-miterlimit:10;}
	.st4{opacity:0.51;}
	.st5{fill:none;stroke:#FCB713;stroke-width:3;stroke-linejoin:round;stroke-miterlimit:10;}
	.st6{fill:none;stroke:#FCB713;stroke-width:3;stroke-linecap:round;stroke-linejoin:round;stroke-miterlimit:10;}
	.st7{fill:#FCB713;}
	.st8{fill:#FCB713;stroke:#FCB713;stroke-linecap:round;stroke-linejoin:round;stroke-miterlimit:10;}
	.st9{fill:none;stroke:#FCB713;stroke-linecap:round;stroke-linejoin:round;stroke-miterlimit:10;}
	.st10{fill:none;stroke:#FCB713;stroke-width:2;stroke-miterlimit:10;}
	.st11{fill:none;stroke:#FCB713;stroke-width:5;stroke-linecap:round;stroke-linejoin:round;stroke-miterlimit:10;}
	.st12{fill:none;stroke:#FCB713;stroke-miterlimit:10;}
	.st13{fill:#FCB713;stroke:#FCB713;stroke-width:2;stroke-linecap:round;stroke-linejoin:round;stroke-miterlimit:10;}
	.st14{fill:#FBED21;}
	.st15{font-family:'News701BT-BoldA';}
	.st16{font-size:18.497px;}
	.st17{fill:none;stroke:#FCB713;stroke-width:1.5;stroke-linecap:round;stroke-linejoin:round;stroke-miterlimit:10;}
	.st18{fill:none;stroke:#FCB713;stroke-linecap:square;stroke-linejoin:round;stroke-miterlimit:10;stroke-dasharray:5;}
	.st19{font-size:21.287px;}
	.st20{fill:#C32126;}
	
		.st21{fill:none;stroke:#FCB713;stroke-width:2;stroke-linecap:round;stroke-linejoin:round;stroke-miterlimit:10;stroke-dasharray:5;}
	.st22{fill:#081434;stroke:#FCB713;stroke-width:3;stroke-linecap:round;stroke-linejoin:round;stroke-miterlimit:10;}
</style>
<g>
	<rect x="0" y="0" class="st0" width="942" height="340"/>
</g>
<path class="st1" d="M570,253H386.8c-23.2,0-42-18.8-42-42v-65.4c0-27.4,22.2-49.6,49.6-49.6h9.4c29,0,43,21,43,36v0.1
	c0,10.4,8.5,18.8,18.9,18.7l105.1-1.2c12.7,0,23,10.2,23,22.9v56.5C593.9,242.3,583.2,253,570,253z"/>
<rect x="386.2" y="171.2" class="st2" width="17" height="56.8"/>
<path class="st2" d="M558.5,228h17l-24.3-56.8h-3.2h-13.8h-3.2L510.6,228h17l4.6-13h20.6L558.5,228z M535.8,205.3l5.9-16.5l7.1,16.5
	H535.8z"/>
<polygon class="st2" points="507.4,185.8 507.4,171.2 478.2,171.2 461.1,171.2 461.1,185.8 461.1,192.3 461.1,206.9 461.1,213.4 
	461.1,228 478.2,228 507.4,228 507.4,213.4 478.2,213.4 478.2,206.1 496,206.1 496,194 478.2,194 478.2,185.8 "/>
<path class="st2" d="M426.3,171.2H410V228h16.2c16.6,0,30-12.7,30-28.4S442.8,171.2,426.3,171.2z M426.3,216.1l-0.8,0v-32.8l0.8,0
	c9.6,0,17.4,7.3,17.4,16.4C443.6,208.7,435.8,216.1,426.3,216.1z"/>
<g>
	<line class="st3" x1="388.5" y1="167" x2="402.7" y2="167"/>
	<line class="st3" x1="387.1" y1="164.4" x2="404.1" y2="164.4"/>
	<path class="st3" d="M405.8,150.2c0,0-6,5.1-4.2,11.5h-12.4h-0.4c1.8-6.4-4.1-12.4-4.1-12.4c-1.2-1.9-1.9-4.2-1.9-6.7
		c0-7,5.7-12.8,12.8-12.8s12.8,5.7,12.8,12.8C408.3,145.4,407.4,148.1,405.8,150.2L405.8,150.2z"/>
	<path class="st3" d="M393.1,157.5l-3.2-13.1c0,0,1.8-5.3,5.3,0c0,0,2.1-6.1,5.3,0l-3.2,13.1"/>
	<path class="st3" d="M395.2,134.1c0,0-8.5,0-8.5,10.6"/>
	<line class="st3" x1="394.9" y1="112" x2="394.9" y2="121"/>
	<line class="st3" x1="412.4" y1="118.8" x2="406.7" y2="125.7"/>
	<line class="st3" x1="421.8" y1="138.8" x2="412.9" y2="139.3"/>
	<line class="st3" x1="375" y1="119.7" x2="381.4" y2="126"/>
	<line class="st3" x1="366.5" y1="139.7" x2="375.5" y2="139.4"/>
	<line class="st3" x1="375.5" y1="146.4" x2="371" y2="147.9"/>
	<line class="st3" x1="376" y1="132.6" x2="371.6" y2="130.9"/>
	<line class="st3" x1="387.2" y1="121.3" x2="385.4" y2="116.9"/>
	<line class="st3" x1="402.5" y1="121.2" x2="404.2" y2="116.8"/>
	<line class="st3" x1="413.3" y1="131.4" x2="417.6" y2="129.3"/>
	<line class="st3" x1="414.2" y1="147" x2="418.6" y2="148.5"/>
</g>
<g class="st4">
	<polygon class="st5" points="469.7,76.2 497.7,56.9 505.4,68.1 526.9,53.2 533,62.1 556,46.2 550.9,38.9 572.1,42.8 568.4,62.9 
		561.7,54.5 532.5,74.6 525.8,64.9 504,79.9 495.9,68.1 474,83.2 	"/>
	<path class="st6" d="M848.2,182.2c-2.3,9.8-18.5,19.8-18.5,19.8s-18.8-11.6-18.8-22.1c0-0.7,0-2.2,0-2.2c0-7.3,4.3-13.2,9.6-13.2
		c4.5,0,8.3,4.2,9.3,9.8l0,0c1-5.8,4.8-10,9.4-10c5.3,0,9.6,5.9,9.6,13.2C848.9,179.3,848.7,180.8,848.2,182.2L848.2,182.2z"/>
	<g>
		<circle class="st6" cx="306.1" cy="53.8" r="21"/>
		<g>
			<g>
				<path class="st7" d="M297.3,51.7c3.9,0,3.9-6,0-6C293.4,45.7,293.4,51.7,297.3,51.7L297.3,51.7z"/>
			</g>
		</g>
		<g>
			<g>
				<path class="st7" d="M314.1,51.7c3.9,0,3.9-6,0-6C310.2,45.7,310.2,51.7,314.1,51.7L314.1,51.7z"/>
			</g>
		</g>
		<path class="st3" d="M296.9,58.8c0,0,8.4,10.9,17.6,0"/>
	</g>
	<g>
		<path class="st6" d="M123.8,157H54c-4.7,0-8.5-3.8-8.5-8.5v-34c0-4.7,3.8-8.5,8.5-8.5h69.8c4.7,0,8.5,3.8,8.5,8.5v34
			C132.3,153.2,128.4,157,123.8,157z"/>
		<path class="st8" d="M59.8,120.4l-1-0.8c-0.4-0.3-0.1-0.9,0.4-0.9l1.5,0.1c0.2,0,0.4-0.1,0.5-0.3l0.6-1.4c0.2-0.4,0.8-0.4,1,0
			l0.7,1.7l0,0l1.6-0.1c0.5,0,0.7,0.6,0.3,0.9l-1,0.7c-0.2,0.1-0.3,0.4-0.2,0.6l0.7,1.7c0.2,0.5-0.3,0.9-0.7,0.6l-1.9-1.1
			c-0.2-0.1-0.4-0.1-0.5,0l-1.9,1.1c-0.4,0.3-0.9-0.2-0.7-0.7L60,121C60.1,120.8,60,120.6,59.8,120.4z"/>
		<path class="st8" d="M73.6,120.5l-1.5-1.3c-0.2-0.2-0.1-0.6,0.2-0.6l2.2,0.2c0.1,0,0.3-0.1,0.3-0.2l0.8-1.9c0.1-0.3,0.5-0.3,0.6,0
			l0.8,2.1l0,0l2.2-0.1c0.3,0,0.5,0.4,0.2,0.6l-1.6,1.2c-0.1,0.1-0.2,0.2-0.1,0.4l0.9,2.3c0.1,0.3-0.2,0.6-0.5,0.4l-2.4-1.5
			c-0.1-0.1-0.2-0.1-0.3,0l-2.5,1.5c-0.3,0.2-0.6-0.1-0.5-0.4l1-2.3C73.8,120.8,73.8,120.6,73.6,120.5z"/>
		<path class="st8" d="M87.3,120.5l-1.5-1.3c-0.2-0.2-0.1-0.6,0.2-0.6l2.2,0.2c0.1,0,0.3-0.1,0.3-0.2l0.8-1.9c0.1-0.3,0.5-0.3,0.6,0
			l0.8,2.1l0,0l2.2-0.1c0.3,0,0.5,0.4,0.2,0.6l-1.6,1.2c-0.1,0.1-0.2,0.3-0.1,0.4l0.9,2.3c0.1,0.3-0.2,0.6-0.5,0.4l-2.4-1.5
			c-0.1-0.1-0.2-0.1-0.3,0l-2.5,1.5c-0.3,0.2-0.6-0.1-0.5-0.4l1-2.3C87.5,120.8,87.5,120.6,87.3,120.5z"/>
		<path class="st9" d="M101,120.5l-1.4-1.2c-0.3-0.2-0.1-0.7,0.3-0.7l2.1,0.2c0.2,0,0.3-0.1,0.4-0.2l0.8-1.8c0.1-0.3,0.6-0.3,0.7,0
			l0.8,2l0,0l2.1-0.1c0.4,0,0.5,0.4,0.2,0.7l-1.5,1.1c-0.1,0.1-0.2,0.3-0.1,0.4l0.9,2.2c0.1,0.3-0.2,0.6-0.5,0.5l-2.3-1.4
			c-0.1-0.1-0.3-0.1-0.4,0l-2.3,1.4c-0.3,0.2-0.7-0.1-0.5-0.5l1-2.2C101.2,120.8,101.2,120.6,101,120.5z"/>
		<path class="st9" d="M114.7,120.5l-1.3-1.1c-0.3-0.2-0.1-0.7,0.3-0.7l2,0.1c0.2,0,0.3-0.1,0.4-0.2l0.8-1.7c0.1-0.3,0.6-0.3,0.7,0
			l0.8,2l0,0l2-0.1c0.4,0,0.6,0.5,0.2,0.7l-1.4,1c-0.1,0.1-0.2,0.3-0.1,0.5l0.9,2.1c0.1,0.3-0.2,0.7-0.6,0.5l-2.2-1.3
			c-0.1-0.1-0.3-0.1-0.4,0l-2.3,1.3c-0.3,0.2-0.7-0.1-0.6-0.5l1-2.1C114.9,120.8,114.8,120.6,114.7,120.5z"/>
		<line class="st3" x1="57.9" y1="132.3" x2="75.9" y2="132.3"/>
		<line class="st3" x1="79.3" y1="132.3" x2="122.4" y2="132.3"/>
		<line class="st3" x1="122.4" y1="137.6" x2="104.4" y2="137.6"/>
		<line class="st3" x1="101" y1="137.6" x2="57.9" y2="137.6"/>
		<line class="st3" x1="57.9" y1="148.6" x2="81.3" y2="148.6"/>
		<line class="st3" x1="84.3" y1="148.6" x2="122.4" y2="148.6"/>
		<line class="st3" x1="57.9" y1="143.2" x2="122.6" y2="143.2"/>
	</g>
	<g>
		<polygon class="st6" points="47.7,256.7 76.7,256.7 76.7,302.4 62.2,287.9 47.7,303.3 		"/>
		<polygon class="st8" points="59.8,273.7 57,271.3 61,271.6 62.4,268.2 63.7,271.6 63.7,271.6 67.5,271.4 64.4,273.7 66,277.7 
			62.1,275.3 58,277.7 		"/>
		<circle class="st10" cx="62.2" cy="273" r="9.7"/>
	</g>
	<g>
		<rect x="604.2" y="277.4" class="st11" width="26.2" height="26.2"/>
		<polyline class="st2" points="609.1,288.9 617.3,297.1 638.2,276.2 		"/>
	</g>
	<g>
		<rect x="268.6" y="266.4" class="st6" width="6.6" height="23.2"/>
		<path class="st6" d="M278.5,266.4v23.2h4.4l3.9,3.9H305l11.9-11.9v-15.2h-21.8c0,0,4.6-15.1-5.5-16.5c-7.7-1.1,3.3,8.8-3.3,16.5
			H278.5z"/>
		<line class="st3" x1="316.9" y1="272.6" x2="299.5" y2="272.6"/>
		<line class="st3" x1="316.9" y1="280.2" x2="299.5" y2="280.2"/>
		<line class="st3" x1="311.6" y1="286.9" x2="299.5" y2="286.9"/>
	</g>
	<g>
		<path class="st7" d="M186.8,47.8c3.1-3.2,5-7.8,5-12.8c0-9.7-7-17.5-15.6-17.5s-15.6,7.9-15.6,17.5c0,5.1,1.9,9.6,5,12.8
			c-12.1,3.3-20.9,11.9-21.7,22.2c-0.1,0.8,0.6,1.6,1.4,1.6h61.9c0.8,0,1.5-0.7,1.4-1.6C207.7,59.7,198.9,51.1,186.8,47.8z"/>
		<path class="st12" d="M211,45.3c1.8-1.9,3-4.6,3-7.6c0-5.7-4.1-10.4-9.3-10.4c-5.1,0-9.3,4.7-9.3,10.4c0,3,1.1,5.7,3,7.6
			c-7.5,2-12.9,7.6-12.9,14.1h36.1c1.3,0,2.3-1.2,2-2.5C222.4,51.4,217.5,47,211,45.3z"/>
		<path class="st12" d="M154.4,44.2c1.9-2,3.1-4.9,3.1-8.1c0-6.1-4.4-11-9.8-11c-5.4,0-9.8,4.9-9.8,11c0,3.2,1.2,6.1,3.1,8.1
			c-6.8,1.8-12,6.4-13.3,12c-0.4,1.5,0.8,3,2.4,3h38.1C168.1,52.2,162.4,46.3,154.4,44.2z"/>
	</g>
	<g>
		<path class="st7" d="M743.8,64.9c2.2-2.3,3.6-5.7,3.6-9.4c0-7.1-5.1-12.8-11.4-12.8s-11.4,5.7-11.4,12.8c0,3.7,1.4,7,3.6,9.4
			c-9.3,2.5-15.9,9.3-15.9,17.4h47.4C759.7,74.3,753.1,67.4,743.8,64.9z"/>
		<path class="st3" d="M761.4,63.1c1.3-1.4,2.2-3.4,2.2-5.6c0-4.2-3-7.6-6.8-7.6s-6.8,3.4-6.8,7.6c0,2.2,0.8,4.2,2.2,5.6
			c-5.5,1.5-9.4,5.5-9.4,10.3h28.1C770.9,68.6,766.9,64.5,761.4,63.1z"/>
		<path class="st3" d="M720.1,62.3c1.4-1.5,2.3-3.6,2.3-5.9c0-4.5-3.2-8.1-7.2-8.1c-4,0-7.2,3.6-7.2,8.1c0,2.3,0.9,4.4,2.3,5.9
			c-5.8,1.6-10,5.9-10,10.9h29.8C730.1,68.1,725.9,63.8,720.1,62.3z"/>
	</g>
	<g>
		<path class="st13" d="M884.3,265.3h-18l-7.5,28.1l16.2-7.3l16.8,8.3L884.3,265.3z M874.8,283.8l-10.6,5l4.3-18.9h13l4.6,20
			L874.8,283.8z"/>
		<path class="st9" d="M862.8,274.1c-0.4-0.7-1.3-1.2-2.3-1v0c-2.4,0.6-3.6-2.7-1.4-3.8v0c1.7-0.8,1.5-3.4-0.4-3.8l0,0
			c-2.4-0.5-1.9-4.1,0.5-4h0c1.9,0.1,2.9-2.3,1.4-3.6l0,0c-1.9-1.6,0.2-4.5,2.3-3.3v0c1.7,1,3.6-0.7,2.9-2.5v0
			c-0.9-2.3,2.3-3.9,3.6-1.8v0c1,1.6,3.5,1,3.7-0.9v0c0.2-2.4,3.8-2.4,4,0v0c0.2,1.9,2.6,2.6,3.7,1v0c1.4-2.1,4.5-0.4,3.5,1.9v0
			c-0.8,1.8,1.1,3.5,2.8,2.6v0c2.2-1.2,4.2,1.8,2.2,3.3l0,0c-1.5,1.2-0.6,3.6,1.3,3.6h0c2.5-0.1,2.9,3.5,0.4,4l0,0
			c-1.9,0.4-2.2,2.9-0.5,3.8v0c2.2,1.1,0.9,4.4-1.5,3.7h0c-0.5-0.2-1-0.1-1.4,0.1"/>
		<circle class="st8" cx="874.6" cy="265.3" r="12"/>
		<text transform="matrix(1 0 0 1 869.9647 271.0932)" class="st14 st15 st16">1</text>
	</g>
	<g>
		<ellipse class="st3" cx="741.7" cy="146" rx="16" ry="3.7"/>
		<path class="st3" d="M725.7,145.6c0,0-0.7,19.7,8.8,21.8c0,0,5.6,1.9,14.4,0.2c0.9-0.2,1.6-0.6,2.2-1.2c2.2-2.2,7-8.5,6.5-20.2"/>
		<path class="st3" d="M757.7,149.7c0,0,0.7-3.5,2.7-2.8c0,0,2.7,0,2,5.4c-0.7,5.4-4.1,6.1-4.1,6.1s-2.1-0.5-3.4,2.5"/>
		<path class="st9" d="M728.8,153.4c0,0,1.4,12.2,8.8,11.6"/>
		<ellipse class="st7" cx="741.4" cy="147" rx="13.9" ry="2.4"/>
		<path class="st17" d="M734.9,135.1c0,0-1.8,1.8,0,4.1c1.8,2.3,0,4.1,0,4.1"/>
		<path class="st17" d="M747.2,135.1c0,0-1.8,1.8,0,4.1c1.8,2.3,0,4.1,0,4.1"/>
		<path class="st17" d="M740.4,131.7c0,0-1.8,1.8,0,4.1s0,4.1,0,4.1"/>
	</g>
	<g>
		<circle class="st3" cx="652.8" cy="116.8" r="10.5"/>
		<polygon class="st8" points="650.1,117.1 647,114.5 651.4,114.8 653,111.1 654.4,114.8 654.4,114.8 658.6,114.6 655.2,117.2 
			657,121.6 652.6,119 648.1,121.6 		"/>
		<path class="st6" d="M648.2,141.2c0,0,4.7,9.6,9.1,0l10.8-17.1l0,0c1.2-2.5,1.8-5.3,1.6-8.3c-0.5-8.5-7.5-15.4-16-15.9
			c-9.8-0.5-17.9,7.3-17.9,16.9c0,3.2,0.9,6.3,2.5,8.8l-0.1,0L648.2,141.2L648.2,141.2z"/>
	</g>
	<polygon class="st6" points="129.6,201 214.1,201 214.1,253 129.6,253 135.2,246.9 131.3,245.2 135.2,239.6 129.6,232.3 
		134.1,229.5 129.6,222.3 134.1,217.2 129.6,211.1 133.6,207.7 	"/>
	<line class="st18" x1="142" y1="204.1" x2="142" y2="250.8"/>
	<line class="st3" x1="147.5" y1="237.4" x2="205.7" y2="237.4"/>
	<line class="st3" x1="147.5" y1="243.5" x2="205.7" y2="243.5"/>
	<text transform="matrix(1 0 0 1 155.899 227.3718)" class="st7 st15 st19">20%</text>
	<g>
		<path class="st6" d="M270.8,156.5l-5.6-4.8c-1.4-1.2-0.5-3.4,1.3-3.3l8.5,0.6c0.8,0.1,1.5-0.4,1.8-1.1l3.2-7.5
			c0.7-1.5,2.8-1.5,3.4,0.1l3.4,8.7l0,0l8.8-0.3c1.8-0.1,2.7,2.3,1.2,3.4l-5.9,4.4c-0.7,0.5-0.9,1.4-0.6,2.2l3.7,9.2
			c0.7,1.7-1.2,3.2-2.7,2.3l-9.7-5.8c-0.6-0.4-1.3-0.4-1.9,0l-9.8,5.8c-1.6,0.9-3.4-0.7-2.6-2.4l4.1-9.2
			C271.6,157.9,271.4,157,270.8,156.5z"/>
		<line class="st9" x1="294.8" y1="158.9" x2="303.2" y2="160.7"/>
		<line class="st9" x1="294.8" y1="158.9" x2="303.2" y2="160.9"/>
		<line class="st9" x1="289.8" y1="144.6" x2="295.1" y2="137.8"/>
		<line class="st9" x1="301.2" y1="149.1" x2="306.4" y2="147.5"/>
		<line class="st9" x1="282.6" y1="134.6" x2="283.2" y2="129.2"/>
		<line class="st9" x1="261.5" y1="147.9" x2="256.5" y2="145.8"/>
		<line class="st9" x1="265.8" y1="172.3" x2="262.1" y2="176.2"/>
		<line class="st9" x1="296.2" y1="172.8" x2="299.9" y2="176.7"/>
		<line class="st9" x1="272.8" y1="144.6" x2="267.5" y2="137.8"/>
		<line class="st9" x1="267.7" y1="158.6" x2="259.3" y2="160.5"/>
		<line class="st9" x1="281.2" y1="169.5" x2="281.2" y2="178.1"/>
		<line class="st9" x1="305.8" y1="162" x2="307.9" y2="162.6"/>
		<line class="st9" x1="296.5" y1="135.7" x2="298.5" y2="133.7"/>
		<line class="st9" x1="265.2" y1="135.8" x2="264.1" y2="134.6"/>
		<line class="st9" x1="255.7" y1="161.7" x2="252.9" y2="162.6"/>
		<line class="st9" x1="280.8" y1="181.6" x2="280.8" y2="184"/>
	</g>
	<g>
		<polygon class="st8" points="695.1,264.4 692.3,262 696.2,262.3 697.6,259 698.9,262.3 698.9,262.3 702.7,262.2 699.7,264.4 
			701.3,268.4 697.3,266.1 693.3,268.5 		"/>
		<polygon class="st8" points="709,264.4 706.2,262 710.2,262.3 711.6,259 712.9,262.3 712.9,262.3 716.6,262.2 713.6,264.4 
			715.2,268.4 711.3,266.1 707.2,268.5 		"/>
		<polygon class="st8" points="723,264.4 720.1,262 724.1,262.3 725.5,259 726.8,262.3 726.8,262.3 730.6,262.2 727.5,264.4 
			729.1,268.4 725.2,266.1 721.2,268.5 		"/>
		<polygon class="st8" points="736.9,264.4 734.1,262 738,262.3 739.4,259 740.7,262.3 740.7,262.3 744.5,262.2 741.5,264.4 
			743.1,268.4 739.1,266.1 735.1,268.5 		"/>
		<polygon class="st8" points="750.8,264.4 748,262 751.9,262.3 753.4,259 754.7,262.3 754.7,262.3 758.4,262.2 755.4,264.4 
			757,268.4 753.1,266.1 749,268.5 		"/>
		<path class="st6" d="M748.4,243.8h-46c-7.1,0-12.9,5.1-12.9,11.3v19.1c0,0.5,0.1,1,0.1,1.5c0,3,1.7,5.7,4.4,6.9l4.3,2.1
			c0.5,0.2,1,0.4,1.5,0.5c0.8,0.2,1.7,0.2,2.6,0.2H726c1.1,9.1-1.8,13.5-1.8,13.5c10.8-3.1,12.8-6.9,13.1-13.9l11,0.4
			c7.1,0,12.9-5.1,12.9-11.3v-19.1C761.3,248.9,755.5,243.8,748.4,243.8z"/>
	</g>
	<path class="st20" d="M460.6,159.7"/>
	<path class="st21" d="M312.9,313.1h-41c-11.6,0-21-9.4-21-21v-41c0-11.6,9.4-21,21-21h41c11.6,0,21,9.4,21,21v41
		C333.9,303.7,324.5,313.1,312.9,313.1z"/>
	<path class="st21" d="M326.6,95.3h-41c-11.6,0-21-9.4-21-21v-41c0-11.6,9.4-21,21-21h41c11.6,0,21,9.4,21,21v41
		C347.6,85.9,338.2,95.3,326.6,95.3z"/>
	<path class="st21" d="M576.9,99h-112c-11.6,0-21-9.4-21-21V44c0-11.6,9.4-21,21-21h112c11.6,0,21,9.4,21,21v34
		C597.9,89.6,588.5,99,576.9,99z"/>
	<path class="st21" d="M662.8,160.6h-20c-11.6,0-21-9.4-21-21v-34c0-11.6,9.4-21,21-21h20c11.6,0,21,9.4,21,21v34
		C683.8,151.2,674.4,160.6,662.8,160.6z"/>
	<path class="st21" d="M760.9,101h-54c-11.6,0-21-9.4-21-21V46c0-11.6,9.4-21,21-21h54c11.6,0,21,9.4,21,21v34
		C781.9,91.6,772.5,101,760.9,101z"/>
	<path class="st21" d="M842.9,217h-26c-11.6,0-21-9.4-21-21v-26c0-11.6,9.4-21,21-21h26c11.6,0,21,9.4,21,21v26
		C863.9,207.6,854.5,217,842.9,217z"/>
	<path class="st21" d="M891.9,311.6h-34c-11.6,0-21-9.4-21-21v-39c0-11.6,9.4-21,21-21h34c11.6,0,21,9.4,21,21v39
		C912.9,302.2,903.5,311.6,891.9,311.6z"/>
	<path class="st21" d="M761.9,309.9h-73c-11.6,0-21-9.4-21-21V250c0-11.6,9.4-21,21-21h73c11.6,0,21,9.4,21,21v38.9
		C782.9,300.5,773.5,309.9,761.9,309.9z"/>
	<path class="st21" d="M627.2,321h-15c-11.6,0-21-9.4-21-21v-20.3c0-11.6,9.4-21,21-21h15c11.6,0,21,9.4,21,21V300
		C648.2,311.6,638.8,321,627.2,321z"/>
	<path class="st21" d="M75.2,321.5h-26c-11.6,0-21-9.4-21-21v-41c0-11.6,9.4-21,21-21h26c11.6,0,21,9.4,21,21v41
		C96.2,312.1,86.8,321.5,75.2,321.5z"/>
	<path class="st21" d="M213.9,268h-87c-11.6,0-21-9.4-21-21v-41c0-11.6,9.4-21,21-21h87c11.6,0,21,9.4,21,21v41
		C234.9,258.6,225.5,268,213.9,268z"/>
	<path class="st21" d="M131.9,174h-87c-11.6,0-21-9.4-21-21v-41c0-11.6,9.4-21,21-21h87c11.6,0,21,9.4,21,21v41
		C152.9,164.6,143.5,174,131.9,174z"/>
	<path class="st21" d="M302.9,199h-46c-11.6,0-21-9.4-21-21v-46c0-11.6,9.4-21,21-21h46c11.6,0,21,9.4,21,21v46
		C323.9,189.6,314.5,199,302.9,199z"/>
	<path class="st21" d="M757.2,184h-26c-11.6,0-21-9.4-21-21v-26c0-11.6,9.4-21,21-21h26c11.6,0,21,9.4,21,21v26
		C778.2,174.6,768.7,184,757.2,184z"/>
	<polyline class="st21" points="323.9,161.7 333.9,161.7 333.9,116 354.7,116 	"/>
	<polyline class="st21" points="347.6,58.8 389.9,58.8 389.9,96 	"/>
	<polyline class="st21" points="333.9,278 375.9,278 402.9,264.4 402.9,253 	"/>
	<polyline class="st21" points="234.9,221.7 295.9,221.7 310.7,206.9 344.9,206.9 	"/>
	<polyline class="st21" points="455.9,253 455.9,289.9 412.4,324 132.5,324 96.9,293 	"/>
	<polyline class="st21" points="591.2,293.4 553.9,293.4 512.2,251.8 	"/>
	<polyline class="st21" points="488.2,253 488.2,297 518,326.9 826.9,326.9 846.6,307.1 	"/>
	<polyline class="st21" points="374.9,99 374.9,86.3 363.2,86.3 344.9,104.6 330.9,104.6 229.9,104.6 211.2,123.3 175.9,123.3 
		154.4,144.8 	"/>
	<polyline class="st21" points="667.9,264 644.9,241 590.7,241 	"/>
	<polyline class="st21" points="621.8,121.6 606.1,137.3 606.1,161 595,172.2 	"/>
	<polyline class="st21" points="685.9,57 641.9,57 601.3,97.5 601.3,123 574.6,149.7 	"/>
	<polyline class="st21" points="533.2,99 512,120.2 483.9,120.2 456.1,148 	"/>
	<polyline class="st21" points="710.2,150 679,181.1 614.4,181.1 593.7,201.9 	"/>
	<polyline class="st21" points="594.2,222 608.9,207.4 771.3,207.4 795.9,182.8 	"/>
	<path class="st21" d="M211.9,81h-70c-11.6,0-21-9.4-21-21V33c0-11.6,9.4-21,21-21h70c11.6,0,21,9.4,21,21v27
		C232.9,71.6,223.5,81,211.9,81z"/>
	<polyline class="st21" points="232.9,44.5 253.9,44.5 260.6,37.8 	"/>
	<polyline class="st21" points="354.9,38 402.9,38 423.9,59 423.9,99 	"/>
	<g>
		<g>
			<path class="st6" d="M865,44.5h30.9c4.8,0,8.7,4.1,8.7,9.2v15.5c0,0.4,0,0.8-0.1,1.2v3.9v10.3l-6.3-6.7c-0.7,0.2-1.5,0.3-2.3,0.3
				H865c-4.8,0-8.7-4.1-8.7-9.2V53.7C856.3,48.6,860.2,44.5,865,44.5z"/>
			<line class="st6" x1="896.4" y1="53.5" x2="864.4" y2="53.5"/>
			<line class="st6" x1="896.4" y1="59.6" x2="864.4" y2="59.6"/>
			<line class="st6" x1="896.4" y1="65.7" x2="864.4" y2="65.7"/>
			<line class="st6" x1="896.4" y1="71.8" x2="864.4" y2="71.8"/>
		</g>
		<g>
			<path class="st22" d="M868.2,61.3h-37.9c-5.9,0-10.6,4.8-10.6,10.6v18c0,0.5,0,1,0.1,1.4V96v12l7.8-7.8c0.9,0.2,1.8,0.4,2.8,0.4
				h37.9c5.9,0,10.6-4.8,10.6-10.6v-18C878.9,66.1,874.1,61.3,868.2,61.3z"/>
			<line class="st22" x1="829.6" y1="71.7" x2="868.9" y2="71.7"/>
			<line class="st22" x1="829.6" y1="78.8" x2="868.9" y2="78.8"/>
			<line class="st22" x1="829.6" y1="85.9" x2="868.9" y2="85.9"/>
			<line class="st22" x1="829.6" y1="93" x2="868.9" y2="93"/>
		</g>
	</g>
	<path class="st21" d="M897.9,119h-70c-11.6,0-21-9.4-21-21V51c0-11.6,9.4-21,21-21h70c11.6,0,21,9.4,21,21v47
		C918.9,109.6,909.5,119,897.9,119z"/>
	<polyline class="st21" points="886.1,120.1 885.9,135 795.9,135 788.9,135 788.9,175 757.4,201.5 	"/>
	<polyline class="st21" points="741.9,217 713.9,217 693.9,197 650.9,197 	"/>
	<polyline class="st21" points="640.9,217 628.4,229.5 593.9,229.5 	"/>
</g>
</svg>
