<?xml version="1.0" encoding="utf-8"?>
<!-- Generator: Adobe Illustrator 22.0.0, SVG Export Plug-In . SVG Version: 6.00 Build 0)  -->
<svg version="1.1" id="Layer_1" xmlns="http://www.w3.org/2000/svg" xmlns:xlink="http://www.w3.org/1999/xlink" x="0px" y="0px"
	 viewBox="0 0 338 312.9" style="enable-background:new 0 0 338 312.9;" xml:space="preserve">
<style type="text/css">
	.st0{display:none;}
	.st1{display:inline;}
	.st2{fill:#081434;}
	
		.st3{display:inline;opacity:0.4;fill:none;stroke:#FCB713;stroke-width:3;stroke-linejoin:round;stroke-miterlimit:10;enable-background:new    ;}
	
		.st4{display:inline;opacity:0.4;fill:none;stroke:#FCB713;stroke-width:3;stroke-linecap:round;stroke-linejoin:round;stroke-miterlimit:10;enable-background:new    ;}
	
		.st5{display:inline;opacity:0.4;fill:none;stroke:#FCB713;stroke-width:2;stroke-linecap:round;stroke-linejoin:round;stroke-miterlimit:10;enable-background:new    ;}
	.st6{display:inline;opacity:0.4;}
	.st7{fill:none;stroke:#FCB713;stroke-width:4;stroke-linecap:round;stroke-linejoin:round;stroke-miterlimit:10;}
	.st8{fill:#FCB713;}
	.st9{fill:none;stroke:#FCB713;stroke-width:2;stroke-linecap:round;stroke-linejoin:round;stroke-miterlimit:10;}
	.st10{fill:none;stroke:#FCB713;stroke-width:3;stroke-linecap:round;stroke-linejoin:round;stroke-miterlimit:10;}
	.st11{fill:#FCB713;stroke:#FCB713;stroke-linecap:round;stroke-linejoin:round;stroke-miterlimit:10;}
	.st12{fill:none;stroke:#FCB713;stroke-linecap:round;stroke-linejoin:round;stroke-miterlimit:10;}
	.st13{fill:none;stroke:#FCB713;stroke-width:2;stroke-miterlimit:10;}
	.st14{fill:#C32126;stroke:#FCB713;stroke-linecap:round;stroke-linejoin:round;stroke-miterlimit:10;}
	.st15{fill:#FCB713;stroke:#FCB713;stroke-width:2;stroke-linecap:round;stroke-linejoin:round;stroke-miterlimit:10;}
	.st16{fill:#FBED21;stroke:#FBED21;stroke-width:2;stroke-linecap:round;stroke-miterlimit:10;}
	.st17{fill:none;stroke:#FBED21;stroke-width:2;stroke-linecap:round;stroke-miterlimit:10;}
	.st18{fill:none;stroke:#FCB713;stroke-width:1.5;stroke-linecap:round;stroke-linejoin:round;stroke-miterlimit:10;}
	.st19{fill:#FCB713;stroke:#FCB713;stroke-width:3;stroke-linecap:round;stroke-linejoin:round;stroke-miterlimit:10;}
	.st20{fill:none;stroke:#FCB713;stroke-linecap:square;stroke-linejoin:round;stroke-miterlimit:10;stroke-dasharray:5;}
	.st21{font-family:'News701BT-BoldA';}
	.st22{font-size:25.2051px;}
	.st23{fill:#001147;}
	.st24{fill:#FFB900;}
	.st25{display:inline;fill:#FFB900;}
	.st26{display:inline;fill:none;stroke:#001147;stroke-width:2;stroke-linecap:round;stroke-miterlimit:10;}
	.st27{fill:none;stroke:#FFB900;stroke-width:6;stroke-miterlimit:10;}
	.st28{fill:none;stroke:#001147;stroke-width:6;stroke-linecap:round;stroke-miterlimit:10;}
	.st29{display:inline;fill:none;stroke:#FFB900;stroke-width:20;stroke-linecap:round;stroke-linejoin:round;stroke-miterlimit:10;}
</style>
<g id="Layer_1_1_" class="st0">
	<g class="st1">
		<rect x="-546" y="-23.5" class="st2" width="1000" height="360.9"/>
	</g>
	<polygon class="st3" points="-103.8,137.5 -63.7,109.8 -52.6,125.9 -21.8,104.6 -13.1,117.3 19.8,94.6 12.5,84.1 42.8,89.6 
		37.5,118.5 27.9,106.4 -13.8,135.2 -23.4,121.3 -54.7,142.8 -66.3,126 -97.5,147.5 	"/>
	<polygon class="st3" points="-521.6,143 -496.9,125.9 -490,135.8 -471,122.7 -465.6,130.5 -445.3,116.5 -449.8,110 -431,113.4 
		-434.3,131.3 -440.2,123.8 -466,141.6 -472,133 -491.3,146.3 -498.5,135.9 -517.8,149.2 	"/>
	<path class="st4" d="M-206.9,133.2c-3.6,15.3-29,31.1-29,31.1s-29.5-18.2-29.5-34.5c0-1.1,0-3.4,0-3.4c0-11.4,6.8-20.7,15.1-20.7
		c7,0,12.9,6.5,14.6,15.4l0,0c1.6-9,7.6-15.7,14.7-15.7c8.3,0,15.1,9.3,15.1,20.7C-205.8,128.6-206.1,131-206.9,133.2L-206.9,133.2z
		"/>
	<path class="st5" d="M-88.6,14.1c-1.8,7.7-14.5,15.5-14.5,15.5s-14.7-9.1-14.7-17.3c0-0.6,0-1.7,0-1.7c0-5.7,3.4-10.3,7.5-10.3
		c3.5,0,6.5,3.3,7.3,7.7l0,0c0.8-4.5,3.8-7.9,7.3-7.9c4.2,0,7.5,4.6,7.5,10.3C-88.1,11.7-88.2,13-88.6,14.1L-88.6,14.1z"/>
	<path class="st5" d="M243.7,310.2c-1.8,7.7-14.5,15.5-14.5,15.5s-14.7-9.1-14.7-17.3c0-0.6,0-1.7,0-1.7c0-5.7,3.4-10.3,7.5-10.3
		c3.5,0,6.5,3.3,7.3,7.7l0,0c0.8-4.5,3.8-7.9,7.3-7.9c4.2,0,7.5,4.6,7.5,10.3C244.2,307.9,244,309.1,243.7,310.2L243.7,310.2z"/>
	<path class="st5" d="M-374.1,308.1c-1.8,7.7-14.5,15.5-14.5,15.5s-14.7-9.1-14.7-17.3c0-0.6,0-1.7,0-1.7c0-5.7,3.4-10.3,7.5-10.3
		c3.5,0,6.5,3.3,7.3,7.7l0,0c0.8-4.5,3.8-7.9,7.3-7.9c4.2,0,7.5,4.6,7.5,10.3C-373.6,305.8-373.8,307-374.1,308.1L-374.1,308.1z"/>
	<g class="st6">
		<circle class="st7" cx="90.3" cy="109.1" r="27.6"/>
		<g>
			<g>
				<path class="st8" d="M78.7,105.4c3.9,0,3.9-6,0-6C74.8,99.4,74.8,105.4,78.7,105.4L78.7,105.4z"/>
			</g>
		</g>
		<g>
			<g>
				<path class="st8" d="M100.8,105.4c3.9,0,3.9-6,0-6C96.9,99.4,96.9,105.4,100.8,105.4L100.8,105.4z"/>
			</g>
		</g>
		<path class="st9" d="M78.1,115.7c0,0,11,14.4,23.2,0"/>
	</g>
	<g class="st6">
		<circle class="st7" cx="-226.1" cy="302.3" r="27.6"/>
		<g>
			<g>
				<path class="st8" d="M-237.7,298.7c3.9,0,3.9-6,0-6C-241.5,292.7-241.5,298.7-237.7,298.7L-237.7,298.7z"/>
			</g>
		</g>
		<g>
			<g>
				<path class="st8" d="M-215.6,298.7c3.9,0,3.9-6,0-6C-219.4,292.7-219.4,298.7-215.6,298.7L-215.6,298.7z"/>
			</g>
		</g>
		<path class="st9" d="M-238.2,308.9c0,0,11,14.4,23.2,0"/>
	</g>
	<g class="st6">
		<circle class="st7" cx="334.4" cy="81.5" r="17.1"/>
		<g>
			<g>
				<path class="st8" d="M327.3,80.4c3.9,0,3.9-6,0-6C323.4,74.4,323.4,80.4,327.3,80.4L327.3,80.4z"/>
			</g>
		</g>
		<g>
			<g>
				<path class="st8" d="M340.9,80.4c3.9,0,3.9-6,0-6C337.1,74.4,337.1,80.4,340.9,80.4L340.9,80.4z"/>
			</g>
		</g>
		<path class="st9" d="M326.9,85.6c0,0,6.8,8.9,14.3,0"/>
	</g>
	<g class="st6">
		<circle class="st7" cx="-486.2" cy="82.5" r="17.1"/>
		<g>
			<g>
				<path class="st8" d="M-493.3,81.4c3.9,0,3.9-6,0-6C-497.2,75.4-497.2,81.4-493.3,81.4L-493.3,81.4z"/>
			</g>
		</g>
		<g>
			<g>
				<path class="st8" d="M-479.7,81.4c3.9,0,3.9-6,0-6C-483.5,75.4-483.5,81.4-479.7,81.4L-479.7,81.4z"/>
			</g>
		</g>
		<path class="st9" d="M-493.7,86.6c0,0,6.8,8.9,14.3,0"/>
	</g>
	<g class="st6">
		<path class="st10" d="M-304.6,74.7h-106.2c-4.7,0-8.5-3.8-8.5-8.5V10.8c0-4.7,3.8-8.5,8.5-8.5h106.1c4.7,0,8.5,3.8,8.5,8.5v55.4
			C-296.1,70.9-299.9,74.7-304.6,74.7z"/>
		<path class="st11" d="M-398.9,22.8l-1.4-1.2c-0.5-0.5-0.2-1.3,0.5-1.3l2.1,0.2c0.3,0,0.6-0.2,0.7-0.4l0.8-2c0.3-0.6,1.1-0.6,1.3,0
			l1,2.4l0,0l2.3-0.1c0.7,0,1,0.9,0.5,1.3l-1.4,1.1c-0.3,0.2-0.4,0.5-0.2,0.9l1,2.4c0.3,0.6-0.5,1.3-1.1,0.9l-2.6-1.6
			c-0.2-0.1-0.5-0.1-0.7,0l-2.7,1.6c-0.6,0.4-1.3-0.3-1-0.9l1.1-2.4C-398.6,23.3-398.6,23-398.9,22.8z"/>
		<path class="st11" d="M-379.3,22.9l-2.1-1.8c-0.3-0.3-0.1-0.9,0.3-0.8l3.1,0.2c0.2,0,0.4-0.1,0.5-0.3l1.2-2.7
			c0.2-0.4,0.7-0.4,0.9,0l1.2,3l0,0l3.2-0.1c0.5,0,0.7,0.6,0.3,0.8l-2.3,1.7c-0.2,0.1-0.2,0.4-0.2,0.6l1.3,3.3
			c0.2,0.4-0.3,0.8-0.7,0.6l-3.4-2.1c-0.1-0.1-0.3-0.1-0.5,0l-3.5,2.1c-0.4,0.2-0.9-0.2-0.7-0.6l1.5-3.3
			C-379.1,23.2-379.1,23-379.3,22.9z"/>
		<path class="st11" d="M-359.9,22.9l-2.1-1.8c-0.4-0.3-0.1-0.9,0.3-0.8l3.1,0.2c0.2,0,0.4-0.1,0.5-0.3l1.2-2.7
			c0.2-0.4,0.7-0.4,0.9,0l1.2,3l0,0l3.2-0.1c0.5,0,0.7,0.6,0.3,0.9l-2.3,1.7c-0.2,0.1-0.2,0.4-0.2,0.6l1.3,3.3
			c0.2,0.4-0.3,0.8-0.7,0.6l-3.4-2.1c-0.1-0.1-0.3-0.1-0.5,0l-3.5,2.1c-0.4,0.2-0.9-0.2-0.7-0.6l1.5-3.3
			C-359.6,23.2-359.7,23-359.9,22.9z"/>
		<path class="st12" d="M-340.4,22.9l-2-1.7c-0.4-0.3-0.1-1,0.4-0.9l2.9,0.2c0.2,0,0.4-0.1,0.5-0.3l1.1-2.6c0.2-0.4,0.8-0.4,1,0
			l1.1,2.9l0,0l3-0.1c0.5,0,0.7,0.6,0.3,0.9l-2.1,1.5c-0.2,0.1-0.3,0.4-0.2,0.6l1.2,3.1c0.2,0.5-0.3,0.9-0.8,0.6l-3.3-2
			c-0.2-0.1-0.4-0.1-0.5,0l-3.3,2c-0.4,0.3-1-0.2-0.7-0.7l1.4-3.1C-340.2,23.3-340.3,23-340.4,22.9z"/>
		<path class="st12" d="M-321,22.8l-1.9-1.6c-0.4-0.3-0.1-1,0.4-1l2.8,0.2c0.2,0,0.5-0.1,0.5-0.3l1.1-2.5c0.2-0.5,0.8-0.4,1,0
			l1.1,2.8l0,0l2.9-0.1c0.5,0,0.8,0.7,0.4,1l-2,1.5c-0.2,0.1-0.3,0.4-0.2,0.6l1.2,3c0.2,0.5-0.3,1-0.8,0.7l-3.2-1.9
			c-0.2-0.1-0.4-0.1-0.6,0l-3.2,1.9c-0.5,0.3-1-0.2-0.8-0.7l1.3-3C-320.8,23.3-320.8,23-321,22.8z"/>
		<line class="st9" x1="-401.6" y1="39.6" x2="-376.1" y2="39.6"/>
		<line class="st9" x1="-371.3" y1="39.6" x2="-310.2" y2="39.6"/>
		<line class="st9" x1="-310.2" y1="47.1" x2="-335.7" y2="47.1"/>
		<line class="st9" x1="-340.4" y1="47.1" x2="-401.6" y2="47.1"/>
		<line class="st9" x1="-401.6" y1="62.8" x2="-368.5" y2="62.8"/>
		<line class="st9" x1="-364.2" y1="62.8" x2="-310.2" y2="62.8"/>
		<line class="st9" x1="-401.6" y1="55" x2="-309.8" y2="55"/>
	</g>
	<g class="st6">
		<path class="st10" d="M360.8,262.5h-59.1c-4.7,0-8.5-3.8-8.5-8.5v-27.7c0-4.7,3.8-8.5,8.5-8.5h59.1c4.7,0,8.5,3.8,8.5,8.5V254
			C369.3,258.7,365.5,262.5,360.8,262.5z"/>
		<path class="st11" d="M305.8,230.5l-0.8-0.7c-0.3-0.3-0.1-0.8,0.3-0.8l1.3,0.1c0.2,0,0.4-0.1,0.4-0.3l0.5-1.2
			c0.2-0.4,0.7-0.4,0.8,0l0.6,1.5l0,0l1.4-0.1c0.4,0,0.6,0.5,0.3,0.8l-0.9,0.7c-0.2,0.1-0.2,0.3-0.2,0.5l0.6,1.5
			c0.2,0.4-0.3,0.8-0.7,0.6l-1.6-1c-0.1-0.1-0.3-0.1-0.5,0l-1.6,1c-0.4,0.2-0.8-0.2-0.6-0.6l0.7-1.5
			C306,230.8,306,230.6,305.8,230.5z"/>
		<path class="st11" d="M317.9,230.5l-1.3-1.1c-0.2-0.2-0.1-0.5,0.2-0.5l1.9,0.1c0.1,0,0.2-0.1,0.3-0.2l0.7-1.7
			c0.1-0.2,0.4-0.2,0.5,0l0.7,1.9l0,0l2-0.1c0.3,0,0.4,0.4,0.2,0.5l-1.4,1c-0.1,0.1-0.1,0.2-0.1,0.3l0.8,2c0.1,0.3-0.2,0.5-0.4,0.4
			l-2.1-1.3c-0.1-0.1-0.2-0.1-0.3,0l-2.2,1.3c-0.2,0.1-0.5-0.1-0.4-0.4l0.9-2.1C318,230.8,318,230.6,317.9,230.5z"/>
		<path class="st11" d="M329.9,230.5l-1.3-1.1c-0.2-0.2-0.1-0.5,0.2-0.5l1.9,0.1c0.1,0,0.2-0.1,0.3-0.2l0.7-1.7
			c0.1-0.2,0.4-0.2,0.5,0l0.7,1.9l0,0l2-0.1c0.3,0,0.4,0.4,0.2,0.5l-1.4,1c-0.1,0.1-0.1,0.2-0.1,0.3l0.8,2c0.1,0.3-0.2,0.5-0.4,0.4
			l-2-1.1c-0.1-0.1-0.2-0.1-0.3,0l-2.2,1.3c-0.2,0.1-0.5-0.1-0.4-0.4l0.9-2.1C330.1,230.8,330,230.6,329.9,230.5z"/>
		<path class="st12" d="M341.9,230.5l-1.2-1c-0.2-0.2-0.1-0.6,0.2-0.6l1.8,0.1c0.1,0,0.3-0.1,0.3-0.2l0.7-1.6c0.1-0.3,0.5-0.3,0.6,0
			l0.7,1.8l0,0l1.8-0.1c0.3,0,0.5,0.4,0.2,0.6l-1.3,1c-0.1,0.1-0.2,0.2-0.1,0.4l0.8,1.9c0.1,0.3-0.2,0.6-0.5,0.4l-2-1.2
			c-0.1-0.1-0.2-0.1-0.3,0l-2,1.2c-0.3,0.2-0.6-0.1-0.5-0.4l0.9-1.9C342.1,230.8,342,230.6,341.9,230.5z"/>
		<path class="st12" d="M353.9,230.5l-1.2-1c-0.3-0.2-0.1-0.6,0.2-0.6l1.7,0.1c0.1,0,0.3-0.1,0.3-0.2l0.7-1.5c0.1-0.3,0.5-0.3,0.6,0
			l0.7,1.7l0,0l1.8-0.1c0.3,0,0.5,0.4,0.2,0.6l-1.2,0.9c-0.1,0.1-0.2,0.3-0.1,0.4l0.7,1.9c0.1,0.3-0.2,0.6-0.5,0.4l-2-1.2
			c-0.1-0.1-0.2-0.1-0.4,0l-2,1.2c-0.3,0.2-0.6-0.1-0.5-0.4l0.8-1.9C354.1,230.8,354,230.6,353.9,230.5z"/>
		<line class="st9" x1="304.1" y1="240.8" x2="319.9" y2="240.8"/>
		<line class="st9" x1="322.8" y1="240.8" x2="360.6" y2="240.8"/>
		<line class="st9" x1="360.6" y1="245.5" x2="344.9" y2="245.5"/>
		<line class="st9" x1="341.9" y1="245.5" x2="304.1" y2="245.5"/>
		<line class="st9" x1="304.1" y1="255.2" x2="324.6" y2="255.2"/>
		<line class="st9" x1="327.3" y1="255.2" x2="360.6" y2="255.2"/>
		<line class="st9" x1="304.1" y1="250.4" x2="360.9" y2="250.4"/>
	</g>
	<g class="st6">
		<polygon class="st7" points="-259.9,2.9 -210.3,2.9 -210.3,81 -235.1,56.2 -259.9,82.5 		"/>
		<polygon class="st11" points="-239.2,31.9 -244.1,27.7 -237.3,28.3 -234.8,22.6 -232.6,28.3 -232.6,28.3 -226.1,28 -231.3,31.9 
			-228.6,38.8 -235.3,34.7 -242.3,38.8 		"/>
		<circle class="st13" cx="-235.1" cy="30.7" r="16.5"/>
	</g>
	<g class="st6">
		<polygon class="st7" points="271.9,89.2 302.5,89.2 302.5,137.5 287.2,122.2 271.9,138.5 		"/>
		<polygon class="st11" points="284.7,107.1 281.6,104.6 285.9,104.9 287.4,101.4 288.7,104.9 288.7,104.9 292.8,104.8 289.5,107.2 
			291.2,111.4 287,108.9 282.7,111.4 		"/>
		<circle class="st13" cx="287.2" cy="106.4" r="10.2"/>
	</g>
	<g class="st6">
		<polygon class="st7" points="67,269.7 97.6,269.7 97.6,318 82.3,302.7 67,318.9 		"/>
		<polygon class="st11" points="79.8,287.6 76.7,285.1 81,285.4 82.5,281.9 83.9,285.4 83.9,285.4 87.9,285.2 84.6,287.6 
			86.3,291.9 82.2,289.4 77.9,291.9 		"/>
		<circle class="st13" cx="82.3" cy="286.9" r="10.2"/>
	</g>
	<g class="st6">
		<polygon class="st7" points="-511.6,286 -489.3,286 -489.3,321.1 -500.5,310 -511.6,321.8 		"/>
		<polygon class="st14" points="-502.3,299 -504.5,297.1 -501.5,297.4 -500.4,294.8 -499.4,297.4 -499.4,297.4 -496.4,297.3 
			-498.8,299 -497.6,302.1 -500.6,300.3 -503.7,302.1 		"/>
		<circle class="st13" cx="-500.5" cy="298.5" r="7.4"/>
	</g>
	<g class="st6">
		<rect x="220.3" y="60.8" class="st10" width="34" height="34"/>
		<polyline class="st9" points="226.7,75.6 237.3,86.2 264.4,59.2 		"/>
	</g>
	<g class="st6">
		<rect x="-295.7" y="216.6" class="st10" width="21" height="21"/>
		<polyline class="st9" points="-291.7,225.8 -285.2,232.4 -268.5,215.7 		"/>
	</g>
	<g class="st6">
		<rect x="160.8" y="300.5" class="st10" width="21" height="21"/>
		<polyline class="st9" points="164.7,309.7 171.3,316.2 188,299.5 		"/>
	</g>
	<g class="st6">
		<rect x="-114.7" y="63.1" class="st10" width="8.1" height="28.5"/>
		<path class="st10" d="M-102.5,63.1v28.5h5.4l4.7,4.7H-70l14.6-14.6V63.1h-26.8c0,0,5.6-18.6-6.8-20.3c-9.5-1.4,4.1,10.9-4.1,20.3
			C-93.1,63.1-102.5,63.1-102.5,63.1z"/>
		<line class="st9" x1="-55.3" y1="70.7" x2="-76.7" y2="70.7"/>
		<line class="st9" x1="-55.3" y1="80.1" x2="-76.7" y2="80.1"/>
		<line class="st9" x1="-61.9" y1="88.3" x2="-76.7" y2="88.3"/>
	</g>
	<g class="st6">
		<rect x="383.2" y="249.9" class="st10" width="8.1" height="28.5"/>
		<path class="st10" d="M395.4,249.9v28.5h5.4l4.7,4.7H428l14.6-14.6v-18.7h-26.8c0,0,5.6-18.6-6.8-20.3c-9.5-1.4,4.1,10.9-4.1,20.3
			h-9.5V249.9z"/>
		<line class="st9" x1="442.5" y1="257.6" x2="421.2" y2="257.6"/>
		<line class="st9" x1="442.5" y1="266.9" x2="421.2" y2="266.9"/>
		<line class="st9" x1="436" y1="275.1" x2="421.2" y2="275.1"/>
	</g>
	<g class="st6">
		<rect x="-265.8" y="240.7" class="st10" width="5" height="17.6"/>
		<path class="st10" d="M-258.2,240.7v17.6h3.4l2.9,2.9h13.8l9-9v-11.5h-16.6c0,0,3.5-11.5-4.2-12.6c-5.9-0.8,2.5,6.7-2.5,12.6
			H-258.2z"/>
		<line class="st9" x1="-229.1" y1="245.4" x2="-242.3" y2="245.4"/>
		<line class="st9" x1="-229.1" y1="251.2" x2="-242.3" y2="251.2"/>
		<line class="st9" x1="-233.1" y1="256.3" x2="-242.3" y2="256.3"/>
	</g>
	<g class="st6">
		<rect x="211.9" y="-3.5" class="st10" width="5" height="17.6"/>
		<path class="st10" d="M219.5-3.5v17.6h3.4l2.9,2.9h13.8l9-9V-3.5H232c0,0,3.5-11.5-4.2-12.6c-5.9-0.8,2.5,6.7-2.5,12.6H219.5z"/>
		<line class="st9" x1="248.6" y1="1.3" x2="235.4" y2="1.3"/>
		<line class="st9" x1="248.6" y1="7" x2="235.4" y2="7"/>
		<line class="st9" x1="244.6" y1="12.1" x2="235.4" y2="12.1"/>
	</g>
	<g class="st6">
		<rect x="198.4" y="200.3" class="st10" width="10.9" height="85"/>
		<rect x="248" y="200.3" class="st10" width="10.9" height="85"/>
		<rect x="187.4" y="196.1" class="st15" width="85" height="14.3"/>
		<rect x="187.4" y="220.9" class="st15" width="85" height="14.3"/>
		<rect x="187.4" y="245.8" class="st15" width="85" height="14.3"/>
		<circle class="st16" cx="214.3" cy="202.9" r="3.4"/>
		<circle class="st16" cx="214.3" cy="228.1" r="3.4"/>
		<circle class="st16" cx="214.3" cy="253.3" r="3.4"/>
		<line class="st17" x1="222.7" y1="202.9" x2="246.3" y2="202.9"/>
		<line class="st17" x1="222.7" y1="228.1" x2="246.3" y2="228.1"/>
		<line class="st17" x1="222.7" y1="252.5" x2="246.3" y2="252.5"/>
	</g>
	<g class="st6">
		<rect x="-415" y="112.7" class="st10" width="6.8" height="52.5"/>
		<rect x="-384.3" y="112.8" class="st10" width="6.8" height="52.5"/>
		<rect x="-421.6" y="110.2" class="st15" width="52.5" height="8.8"/>
		<rect x="-421.6" y="125.5" class="st15" width="52.5" height="8.8"/>
		<rect x="-421.6" y="140.9" class="st15" width="52.5" height="8.8"/>
		<circle class="st16" cx="-405" cy="114.3" r="2.1"/>
		<circle class="st16" cx="-405" cy="129.9" r="2.1"/>
		<circle class="st16" cx="-405" cy="145.5" r="2.1"/>
		<line class="st17" x1="-399.8" y1="114.3" x2="-385.2" y2="114.3"/>
		<line class="st17" x1="-399.8" y1="129.9" x2="-385.2" y2="129.9"/>
		<line class="st17" x1="-399.8" y1="145" x2="-385.2" y2="145"/>
	</g>
	<g class="st6">
		<path class="st8" d="M210.7,137.6c4.3-4.5,6.9-10.8,6.9-17.9c0-13.5-9.7-24.4-21.8-24.4c-12,0-21.8,10.9-21.8,24.4
			c0,7.1,2.7,13.4,6.9,17.9c-17.6,4.8-30.3,17.8-30.3,33.1H241C241,155.3,228.4,142.3,210.7,137.6z"/>
		<path class="st9" d="M244.3,134c2.5-2.6,4.1-6.4,4.1-10.6c0-8-5.8-14.5-12.9-14.5c-7.1,0-12.9,6.5-12.9,14.5
			c0,4.2,1.6,7.9,4.1,10.6c-10.4,2.8-17.9,10.5-17.9,19.6h53.4C262.3,144.5,254.8,136.8,244.3,134z"/>
		<path class="st9" d="M165.6,132.5c2.7-2.8,4.4-6.8,4.4-11.3c0-8.5-6.1-15.4-13.7-15.4c-7.6,0-13.7,6.9-13.7,15.4
			c0,4.4,1.7,8.4,4.4,11.3c-11.1,3-19.1,11.2-19.1,20.8h56.8C184.7,143.7,176.7,135.5,165.6,132.5z"/>
	</g>
	<g class="st6">
		<path class="st8" d="M-304.8,296.1c2.6-2.8,4.3-6.7,4.3-11c0-8.3-6-15.1-13.5-15.1c-7.4,0-13.5,6.8-13.5,15.1
			c0,4.4,1.7,8.3,4.3,11c-10.9,2.9-18.7,11-18.7,20.4h55.8C-286.1,307.1-293.9,299-304.8,296.1z"/>
		<path class="st9" d="M-284,293.9c1.6-1.6,2.5-4,2.5-6.5c0-4.9-3.6-8.9-8-8.9s-8,4-8,8.9c0,2.6,1,4.9,2.5,6.5
			c-6.5,1.7-11.1,6.5-11.1,12.1h33C-273,300.4-277.6,295.6-284,293.9z"/>
		<path class="st9" d="M-332.7,293c1.7-1.7,2.7-4.2,2.7-7c0-5.2-3.8-9.5-8.5-9.5s-8.5,4.3-8.5,9.5c0,2.7,1,5.2,2.7,7
			c-6.9,1.9-11.8,6.9-11.8,12.9h35.1C-320.9,299.9-325.8,294.8-332.7,293z"/>
	</g>
	<g class="st6">
		<path class="st8" d="M-470.4,25.4c2.6-2.8,4.3-6.7,4.3-11c0-8.3-6-15.1-13.5-15.1S-493,6-493,14.4c0,4.4,1.7,8.3,4.3,11
			c-10.9,2.9-18.7,11-18.7,20.4h55.8C-451.7,36.4-459.5,28.3-470.4,25.4z"/>
		<path class="st9" d="M-449.7,23.2c1.6-1.6,2.5-4,2.5-6.5c0-4.9-3.6-8.9-8-8.9c-4.4,0-8,4-8,8.9c0,2.6,1,4.9,2.5,6.5
			c-6.5,1.7-11.1,6.5-11.1,12.1h33C-438.6,29.7-443.2,24.9-449.7,23.2z"/>
		<path class="st9" d="M-498.3,22.3c1.7-1.7,2.7-4.2,2.7-7c0-5.2-3.8-9.5-8.5-9.5c-4.7,0-8.5,4.3-8.5,9.5c0,2.7,1,5.2,2.7,7
			c-6.9,1.9-11.8,6.9-11.8,12.9h35.1C-486.5,29.2-491.4,24.1-498.3,22.3z"/>
	</g>
	<g class="st6">
		<path class="st15" d="M-145.6,26.8h-23.7l-9.9,37.1l21.4-9.6l22.1,10.9L-145.6,26.8z M-158.2,51.2l-14,6.6l5.7-25h17.1l6.1,26.3
			L-158.2,51.2z"/>
		<path class="st12" d="M-174,38.3c-0.6-1-1.7-1.6-3-1.3l0,0c-3.1,0.8-4.8-3.6-1.8-5l0,0c2.3-1.1,1.9-4.4-0.6-5l0,0
			c-3.2-0.7-2.5-5.4,0.7-5.3l0,0c2.5,0.1,3.8-3,1.8-4.7l0,0c-2.5-2.1,0.2-6,3.1-4.3l0,0c2.2,1.3,4.7-0.9,3.8-3.3l0,0
			c-1.2-3,3-5.2,4.7-2.4l0,0c1.3,2.1,4.6,1.4,4.9-1.2l0,0c0.3-3.2,5-3.2,5.3,0.1l0,0c0.2,2.5,3.5,3.4,4.9,1.3l0,0
			c1.8-2.7,5.9-0.5,4.7,2.5l0,0c-1,2.3,1.5,4.6,3.7,3.4l0,0c2.8-1.6,5.5,2.3,3,4.4l0,0c-2,1.6-0.8,4.8,1.7,4.7l0,0
			c3.2-0.1,3.8,4.6,0.6,5.3l0,0c-2.5,0.5-2.9,3.9-0.7,5l0,0c2.9,1.4,1.2,5.8-1.9,4.9l0,0c-0.7-0.2-1.3-0.1-1.9,0.1"/>
		<circle class="st11" cx="-158.4" cy="26.8" r="15.8"/>
		<text transform="matrix(1 0 0 1 -164.5249 34.3842)" class="st21" style="fill:#FBED21; font-size:24.3945px;">1</text>
	</g>
	<g class="st6">
		<path class="st15" d="M391.4,143.5h-43.7l-18.2,63.1l39.5-16.3l40.8,18.6L391.4,143.5z M368.2,185l-25.8,11.2l10.5-42.5h31.6
			l11.3,44.7L368.2,185z"/>
		<path class="st12" d="M339,163.1c-1-1.7-3.1-2.8-5.6-2.2l0,0c-5.8,1.4-8.8-6.1-3.4-8.5l0,0c4.2-1.8,3.5-7.6-1-8.5l0,0
			c-5.8-1.2-4.7-9.2,1.3-8.9l0,0c4.7,0.2,6.9-5.2,3.4-8l0,0c-4.6-3.6,0.5-10.1,5.6-7.4l0,0c4,2.2,8.7-1.6,7-5.6l0,0
			c-2.2-5.1,5.5-8.8,8.7-4.1l0,0c2.5,3.6,8.6,2.3,9-2l0,0c0.6-5.5,9.3-5.4,9.8,0.1l0,0c0.4,4.3,6.4,5.7,9,2.1l0,0
			c3.3-4.6,10.9-0.8,8.6,4.3l0,0c-1.8,4,2.8,7.8,6.9,5.7l0,0c5.2-2.7,10.1,4,5.5,7.5l0,0c-3.6,2.7-1.5,8.1,3.2,8l0,0
			c6-0.1,6.9,7.9,1.1,8.9l0,0c-4.6,0.9-5.4,6.6-1.2,8.5l0,0c5.3,2.5,2.2,9.9-3.6,8.4l0,0c-1.3-0.3-2.5-0.2-3.5,0.2"/>
		<ellipse class="st11" cx="367.9" cy="143.5" rx="29.1" ry="26.8"/>
		<text transform="matrix(1.0844 0 0 1 356.4775 156.4762)" class="st21" style="fill:#FBED21; font-size:41.4534px;">1</text>
	</g>
	<g class="st6">
		<ellipse class="st9" cx="140" cy="197.9" rx="26.2" ry="6.1"/>
		<path class="st9" d="M113.8,197.4c0,0-1.1,32.3,14.5,35.7c0,0,9.2,3.1,23.6,0.4c1.4-0.3,2.7-0.9,3.7-1.9
			c3.5-3.6,11.5-13.9,10.6-33"/>
		<path class="st9" d="M166.2,204.2c0,0,1.1-5.7,4.5-4.5c0,0,4.5,0,3.3,8.9c-1.1,8.9-6.7,10-6.7,10s-3.4-0.8-5.6,4.1"/>
		<path class="st12" d="M118.8,210.2c0,0,2.2,20.1,14.5,18.9"/>
		<ellipse class="st8" cx="139.4" cy="199.6" rx="22.8" ry="3.9"/>
		<path class="st18" d="M128.8,180.1c0,0-3,3,0,6.7s0,6.7,0,6.7"/>
		<path class="st18" d="M148.9,180.1c0,0-3,3,0,6.7s0,6.7,0,6.7"/>
		<path class="st18" d="M137.8,174.5c0,0-3,3,0,6.7s0,6.7,0,6.7"/>
	</g>
	<g class="st6">
		<ellipse class="st9" cx="-277.8" cy="180.3" rx="16.2" ry="3.8"/>
		<path class="st9" d="M-294,179.9c0,0-0.7,20,9,22c0,0,5.7,1.9,14.6,0.2c0.9-0.2,1.7-0.6,2.3-1.2c2.2-2.2,7.1-8.6,6.5-20.4"/>
		<path class="st9" d="M-261.6,184.1c0,0,0.7-3.5,2.8-2.8c0,0,2.8,0,2.1,5.5s-4.1,6.2-4.1,6.2s-2.1-0.5-3.5,2.5"/>
		<path class="st12" d="M-290.9,187.9c0,0,1.4,12.4,9,11.7"/>
		<ellipse class="st8" cx="-278.2" cy="181.3" rx="14.1" ry="2.4"/>
		<path class="st18" d="M-284.7,169.3c0,0-1.8,1.8,0,4.1s0,4.1,0,4.1"/>
		<path class="st18" d="M-272.3,169.3c0,0-1.8,1.8,0,4.1s0,4.1,0,4.1"/>
		<path class="st18" d="M-279.2,165.8c0,0-1.8,1.8,0,4.1s0,4.1,0,4.1"/>
	</g>
	<g class="st6">
		<g>
			<circle class="st9" cx="-211.3" cy="196.4" r="15.3"/>
			<polygon class="st11" points="-215.2,196.9 -219.8,193 -213.4,193.5 -211.1,188.1 -209,193.5 -209,193.5 -202.9,193.2 
				-207.8,196.9 -205.2,203.4 -211.6,199.5 -218.1,203.4 			"/>
		</g>
		<path class="st10" d="M-218,231.8c0,0,6.8,13.9,13.3,0L-189,207l0,0c1.7-3.6,2.6-7.8,2.3-12.1c-0.8-12.3-10.9-22.4-23.3-23.1
			c-14.2-0.8-26,10.6-26,24.6c0,4.7,1.3,9.1,3.6,12.9l-0.1,0.1L-218,231.8L-218,231.8z"/>
	</g>
	<g class="st6">
		<g>
			<circle class="st9" cx="292.9" cy="176.2" r="9.4"/>
			<polygon class="st11" points="290.5,176.6 287.7,174.2 291.6,174.5 293.1,171.2 294.4,174.5 294.4,174.5 298.2,174.3 
				295.1,176.6 296.7,180.6 292.8,178.2 288.7,180.6 			"/>
		</g>
		<path class="st10" d="M288.8,198.1c0,0,4.2,8.6,8.2,0l9.7-15.4l0,0c1.1-2.3,1.6-4.8,1.4-7.5c-0.5-7.6-6.7-13.8-14.4-14.3
			c-8.8-0.5-16.1,6.5-16.1,15.2c0,2.9,0.8,5.6,2.2,7.9h-0.1L288.8,198.1L288.8,198.1z"/>
	</g>
	<g class="st6">
		<rect x="-169.6" y="160.2" class="st19" width="25.1" height="83.6"/>
		<path class="st19" d="M84.1,243.8h25.1l-35.8-83.6h-4.8H48.3h-4.8l-29.9,83.6h25.1l6.8-19.1h30.4L84.1,243.8z M50.7,210.4
			l8.7-24.3l10.4,24.3H50.7z"/>
		<polygon class="st19" points="8.9,181.7 8.9,160.2 -34.2,160.2 -59.2,160.2 -59.2,181.7 -59.2,191.3 -59.2,212.8 -59.2,222.3 
			-59.2,243.8 -34.2,243.8 8.9,243.8 8.9,222.3 -34.2,222.3 -34.2,211.6 -7.9,211.6 -7.9,193.6 -34.2,193.6 -34.2,181.7 		"/>
		<path class="st19" d="M-110.6,160.2h-23.9v83.6h23.9c24.4,0,44.2-18.7,44.2-41.8S-86.2,160.2-110.6,160.2z M-110.6,226.2h-1.2
			v-48.3h1.2c14.1,0,25.6,10.8,25.6,24.2C-85.1,215.4-96.5,226.2-110.6,226.2z"/>
		<g>
			<line class="st9" x1="-168" y1="153.2" x2="-146.5" y2="153.2"/>
			<line class="st9" x1="-170.1" y1="149.2" x2="-144.4" y2="149.2"/>
			<path class="st9" d="M-141.8,127.8c0,0-9,7.7-6.3,17.4h-18.8h-0.7c2.7-9.6-6.1-18.8-6.1-18.8c-1.8-2.9-2.9-6.4-2.9-10.1
				c0-10.7,8.6-19.3,19.3-19.3c10.7,0,19.3,8.6,19.3,19.3C-137.9,120.6-139.4,124.6-141.8,127.8L-141.8,127.8z"/>
			<path class="st9" d="M-161,138.8l-4.8-19.8c0,0,2.7-8,8,0c0,0,3.2-9.2,8,0l-4.8,19.8"/>
			<path class="st9" d="M-157.8,103.4c0,0-12.9,0-12.9,16.1"/>
			<line class="st9" x1="-158.2" y1="70" x2="-158.2" y2="83.6"/>
			<line class="st9" x1="-131.8" y1="80.3" x2="-140.5" y2="90.8"/>
			<line class="st9" x1="-117.6" y1="110.6" x2="-131.1" y2="111.4"/>
			<line class="st9" x1="-188.4" y1="81.7" x2="-178.7" y2="91.2"/>
			<line class="st9" x1="-201.2" y1="111.9" x2="-187.6" y2="111.5"/>
			<line class="st9" x1="-187.6" y1="122" x2="-194.4" y2="124.3"/>
			<line class="st9" x1="-186.9" y1="101.2" x2="-193.6" y2="98.7"/>
			<line class="st9" x1="-169.9" y1="84.1" x2="-172.7" y2="77.5"/>
			<line class="st9" x1="-146.8" y1="84" x2="-144.2" y2="77.3"/>
			<line class="st9" x1="-130.4" y1="99.3" x2="-124" y2="96.1"/>
			<line class="st9" x1="-129.1" y1="122.9" x2="-122.4" y2="125.2"/>
		</g>
	</g>
	<g class="st6">
		<polygon class="st10" points="262.2,-9.8 362.1,-9.8 362.1,51.7 262.2,51.7 268.8,44.5 264.2,42.5 268.8,35.9 262.2,27.3 
			267.5,23.9 262.2,15.3 267.5,9.4 262.2,2.1 266.8,-1.9 		"/>
		<line class="st20" x1="276.7" y1="-6.2" x2="276.7" y2="49.1"/>
		<line class="st9" x1="283.4" y1="33.2" x2="352.2" y2="33.2"/>
		<line class="st9" x1="283.4" y1="40.5" x2="352.2" y2="40.5"/>
		<text transform="matrix(1 0 0 1 293.2441 21.3812)" class="st8 st21 st22">20%</text>
	</g>
	<g class="st6">
		<polygon class="st10" points="-531.9,168.5 -431.9,168.5 -431.9,230.1 -531.9,230.1 -525.3,222.8 -529.9,220.8 -525.3,214.2 
			-531.9,205.6 -526.6,202.3 -531.9,193.7 -526.6,187.7 -531.9,180.4 -527.3,176.5 		"/>
		<line class="st20" x1="-517.3" y1="172.2" x2="-517.3" y2="227.4"/>
		<line class="st9" x1="-510.7" y1="211.6" x2="-441.9" y2="211.6"/>
		<line class="st9" x1="-510.7" y1="218.8" x2="-441.9" y2="218.8"/>
		<text transform="matrix(1 0 0 1 -500.8113 199.726)" class="st8 st21 st22">20%</text>
	</g>
	<g class="st6">
		<polygon class="st10" points="-111.5,288.6 -49.7,288.6 -49.7,326.6 -111.5,326.6 -107.4,322.1 -110.3,320.9 -107.4,316.8 
			-111.5,311.5 -108.3,309.4 -111.5,304.1 -108.3,300.4 -111.5,295.9 -108.7,293.5 		"/>
		<line class="st20" x1="-102.5" y1="290.8" x2="-102.5" y2="325"/>
		<line class="st9" x1="-98.4" y1="315.2" x2="-55.9" y2="315.2"/>
		<line class="st9" x1="-98.4" y1="319.7" x2="-55.9" y2="319.7"/>
		<text transform="matrix(1 0 0 1 -92.3164 307.8461)" class="st8 st21" style="font-size:15.5779px;">20%</text>
	</g>
	<g class="st6">
		<path class="st10" d="M-331.8,127.5l-8.2-6.9c-2-1.7-0.7-4.9,1.9-4.7l12.2,0.9c1.1,0.1,2.2-0.6,2.7-1.6l4.7-10.9
			c1-2.2,4.1-2.2,5,0.1l5,12.6l0,0l12.7-0.5c2.6-0.1,3.8,3.3,1.7,4.9l-8.6,6.4c-1,0.7-1.4,2-0.9,3.2l5.3,13.3c1,2.4-1.7,4.6-3.9,3.3
			l-14-8.4c-0.8-0.5-1.9-0.5-2.8,0l-14.2,8.4c-2.3,1.3-4.9-1-3.8-3.4l5.9-13.3C-330.6,129.6-330.9,128.3-331.8,127.5z"/>
		<line class="st12" x1="-297" y1="131" x2="-284.8" y2="133.7"/>
		<line class="st12" x1="-297" y1="131" x2="-284.9" y2="134"/>
		<line class="st12" x1="-304.3" y1="110.3" x2="-296.6" y2="100.5"/>
		<line class="st12" x1="-287.7" y1="116.8" x2="-280.2" y2="114.6"/>
		<line class="st12" x1="-314.7" y1="95.8" x2="-313.8" y2="88.1"/>
		<line class="st12" x1="-345.2" y1="115.1" x2="-352.4" y2="112.1"/>
		<line class="st12" x1="-339" y1="150.4" x2="-344.3" y2="156.1"/>
		<line class="st12" x1="-295" y1="151.2" x2="-289.6" y2="156.9"/>
		<line class="st12" x1="-328.9" y1="110.4" x2="-336.5" y2="100.5"/>
		<line class="st12" x1="-336.2" y1="130.7" x2="-348.3" y2="133.3"/>
		<line class="st12" x1="-316.6" y1="146.4" x2="-316.7" y2="158.8"/>
		<line class="st12" x1="-281.1" y1="135.5" x2="-278.1" y2="136.4"/>
		<line class="st12" x1="-294.5" y1="97.5" x2="-291.6" y2="94.6"/>
		<line class="st12" x1="-339.9" y1="97.6" x2="-341.5" y2="95.9"/>
		<line class="st12" x1="-353.7" y1="135" x2="-357.7" y2="136.4"/>
		<line class="st12" x1="-317.3" y1="163.9" x2="-317.2" y2="167.4"/>
	</g>
	<g class="st6">
		<path class="st10" d="M389,60.7l-8.2-6.9c-2-1.7-0.7-4.9,1.9-4.7L395,50c1.1,0.1,2.2-0.6,2.7-1.6l4.7-10.9c1-2.2,4.1-2.2,5,0.1
			l5,12.6l0,0l12.7-0.5c2.6-0.1,3.8,3.3,1.7,4.9l-8.6,6.4c-1,0.7-1.4,2-0.9,3.2l5.3,13.3c1,2.4-1.7,4.6-3.9,3.3l-14-8.4
			c-0.8-0.5-1.9-0.5-2.8,0l-14.2,8.4c-2.3,1.3-4.9-1-3.8-3.4l5.9-13.3C390.2,62.7,390,61.4,389,60.7z"/>
		<line class="st12" x1="423.8" y1="64.1" x2="436" y2="66.8"/>
		<line class="st12" x1="423.8" y1="64.1" x2="435.9" y2="67.1"/>
		<line class="st12" x1="416.6" y1="43.4" x2="424.2" y2="33.6"/>
		<line class="st12" x1="433.1" y1="49.9" x2="440.6" y2="47.7"/>
		<line class="st12" x1="406.1" y1="29" x2="407.1" y2="21.2"/>
		<line class="st12" x1="375.6" y1="48.3" x2="368.4" y2="45.2"/>
		<line class="st12" x1="381.8" y1="83.6" x2="376.5" y2="89.2"/>
		<line class="st12" x1="425.8" y1="84.4" x2="431.2" y2="90"/>
		<line class="st12" x1="391.9" y1="43.5" x2="384.3" y2="33.7"/>
		<line class="st12" x1="384.6" y1="63.8" x2="372.5" y2="66.4"/>
		<line class="st12" x1="404.2" y1="79.5" x2="404.1" y2="92"/>
		<line class="st12" x1="439.7" y1="68.6" x2="442.7" y2="69.5"/>
		<line class="st12" x1="426.3" y1="30.6" x2="429.2" y2="27.7"/>
		<line class="st12" x1="380.9" y1="30.7" x2="379.3" y2="29"/>
		<line class="st12" x1="367.2" y1="68.2" x2="363.1" y2="69.5"/>
		<line class="st12" x1="403.6" y1="97" x2="403.6" y2="100.5"/>
	</g>
	<g class="st6">
		<path class="st10" d="M131.1,266.7l-5-4.3c-1.2-1-0.4-3.1,1.2-2.9l7.6,0.6c0.7,0.1,1.4-0.3,1.7-1l2.9-6.7c0.6-1.4,2.5-1.3,3.1,0
			l3.1,7.8l0,0l7.9-0.3c1.6-0.1,2.4,2,1.1,3l-5.3,3.9c-0.6,0.5-0.8,1.3-0.6,2l3.3,8.2c0.6,1.5-1,2.9-2.4,2l-8.7-5.2
			c-0.5-0.3-1.2-0.3-1.7,0l-8.8,5.2c-1.4,0.8-3-0.6-2.4-2.1l3.7-8.2C131.8,268,131.6,267.2,131.1,266.7z"/>
		<line class="st12" x1="152.6" y1="268.8" x2="160.1" y2="270.5"/>
		<line class="st12" x1="152.6" y1="268.8" x2="160" y2="270.7"/>
		<line class="st12" x1="148.1" y1="256.1" x2="152.8" y2="250"/>
		<line class="st12" x1="158.3" y1="260.1" x2="162.9" y2="258.7"/>
		<line class="st12" x1="141.6" y1="247.1" x2="142.2" y2="242.3"/>
		<line class="st12" x1="122.8" y1="259" x2="118.3" y2="257.2"/>
		<line class="st12" x1="126.6" y1="280.8" x2="123.3" y2="284.3"/>
		<line class="st12" x1="153.8" y1="281.3" x2="157.1" y2="284.8"/>
		<line class="st12" x1="132.8" y1="256.1" x2="128.1" y2="250"/>
		<line class="st12" x1="128.3" y1="268.6" x2="120.8" y2="270.3"/>
		<line class="st12" x1="140.4" y1="278.3" x2="140.4" y2="286"/>
		<line class="st12" x1="162.4" y1="271.6" x2="164.2" y2="272.2"/>
		<line class="st12" x1="154.1" y1="248.1" x2="155.9" y2="246.3"/>
		<line class="st12" x1="126.1" y1="248.2" x2="125" y2="247.1"/>
		<line class="st12" x1="117.5" y1="271.3" x2="115" y2="272.2"/>
		<line class="st12" x1="140" y1="289.1" x2="140.1" y2="291.3"/>
	</g>
	<g class="st6">
		<path class="st10" d="M194.4,21.3h-45.2c-7,0-12.7,5.7-12.7,12.7v21.5c0,0.6,0.1,1.2,0.1,1.7v5.5V77l9.2-9.2
			c1.1,0.3,2.2,0.5,3.3,0.5h45.2c7,0,12.7-5.7,12.7-12.7V34C207.1,27,201.4,21.3,194.4,21.3z"/>
		<line class="st9" x1="148.3" y1="33.7" x2="195.2" y2="33.7"/>
		<line class="st9" x1="148.3" y1="42.1" x2="195.2" y2="42.1"/>
		<line class="st9" x1="148.3" y1="50.6" x2="195.2" y2="50.6"/>
		<line class="st9" x1="148.3" y1="59.1" x2="195.2" y2="59.1"/>
		<path class="st10" d="M82,3.7h36.8c5.7,0,10.4,4.9,10.4,10.9v18.5c0,0.5,0,1-0.1,1.5v4.7v12.3l-7.5-7.9c-0.9,0.2-1.8,0.4-2.7,0.4
			H82c-5.7,0-10.4-4.9-10.4-10.9V14.6C71.6,8.6,76.2,3.7,82,3.7z"/>
		<line class="st9" x1="119.5" y1="14.3" x2="81.3" y2="14.3"/>
		<line class="st9" x1="119.5" y1="21.6" x2="81.3" y2="21.6"/>
		<line class="st9" x1="119.5" y1="28.9" x2="81.3" y2="28.9"/>
		<line class="st9" x1="119.5" y1="36.2" x2="81.3" y2="36.2"/>
	</g>
	<g class="st6">
		<path class="st10" d="M33.2,271.7H5.3c-4.3,0-7.8,3.5-7.8,7.8v13.3c0,0.4,0,0.7,0.1,1.1v3.4v8.9l5.7-5.7c0.7,0.2,1.3,0.3,2.1,0.3
			h27.9c4.3,0,7.8-3.5,7.8-7.8v-13.3C41.1,275.2,37.5,271.7,33.2,271.7z"/>
		<line class="st9" x1="4.8" y1="279.3" x2="33.7" y2="279.3"/>
		<line class="st9" x1="4.8" y1="284.5" x2="33.7" y2="284.5"/>
		<line class="st9" x1="4.8" y1="289.8" x2="33.7" y2="289.8"/>
		<line class="st9" x1="4.8" y1="295" x2="33.7" y2="295"/>
		<path class="st10" d="M-36.3,260.8h22.8c3.5,0,6.4,3,6.4,6.7V279c0,0.3,0,0.6-0.1,0.9v2.9v7.6l-4.7-4.9c-0.5,0.2-1.1,0.2-1.7,0.2
			h-22.8c-3.5,0-6.4-3-6.4-6.7v-11.4C-42.7,263.8-39.8,260.8-36.3,260.8z"/>
		<line class="st9" x1="-13.1" y1="267.4" x2="-36.7" y2="267.4"/>
		<line class="st9" x1="-13.1" y1="271.9" x2="-36.7" y2="271.9"/>
		<line class="st9" x1="-13.1" y1="276.4" x2="-36.7" y2="276.4"/>
		<line class="st9" x1="-13.1" y1="280.9" x2="-36.7" y2="280.9"/>
	</g>
	<g class="st6">
		<path class="st10" d="M351.7,290.8h-27.9c-4.3,0-7.8,3.5-7.8,7.8v13.3c0,0.4,0,0.7,0.1,1.1v3.4v8.9l5.7-5.7
			c0.7,0.2,1.3,0.3,2.1,0.3h27.9c4.3,0,7.8-3.5,7.8-7.8v-13.3C359.5,294.3,356,290.8,351.7,290.8z"/>
		<line class="st9" x1="323.2" y1="298.4" x2="352.2" y2="298.4"/>
		<line class="st9" x1="323.2" y1="303.7" x2="352.2" y2="303.7"/>
		<line class="st9" x1="323.2" y1="308.9" x2="352.2" y2="308.9"/>
		<line class="st9" x1="323.2" y1="314.1" x2="352.2" y2="314.1"/>
		<path class="st10" d="M282.2,279.9H305c3.5,0,6.4,3,6.4,6.7V298c0,0.3,0,0.6-0.1,0.9v2.9v7.6l-4.7-4.9c-0.5,0.2-1.1,0.2-1.7,0.2
			h-22.8c-3.5,0-6.4-3-6.4-6.7v-11.4C275.8,282.9,278.7,279.9,282.2,279.9z"/>
		<line class="st9" x1="305.4" y1="286.5" x2="281.8" y2="286.5"/>
		<line class="st9" x1="305.4" y1="291" x2="281.8" y2="291"/>
		<line class="st9" x1="305.4" y1="295.5" x2="281.8" y2="295.5"/>
		<line class="st9" x1="305.4" y1="300" x2="281.8" y2="300"/>
	</g>
	<g class="st6">
		<path class="st10" d="M-410.5,256.8h-27.9c-4.3,0-7.8,3.5-7.8,7.8v13.3c0,0.4,0,0.7,0.1,1.1v3.4v8.9l5.7-5.7
			c0.7,0.2,1.3,0.3,2.1,0.3h27.9c4.3,0,7.8-3.5,7.8-7.8v-13.3C-402.7,260.3-406.2,256.8-410.5,256.8z"/>
		<line class="st9" x1="-439" y1="264.4" x2="-410" y2="264.4"/>
		<line class="st9" x1="-439" y1="269.7" x2="-410" y2="269.7"/>
		<line class="st9" x1="-439" y1="274.9" x2="-410" y2="274.9"/>
		<line class="st9" x1="-439" y1="280.1" x2="-410" y2="280.1"/>
		<path class="st10" d="M-480,245.9h22.8c3.5,0,6.4,3,6.4,6.7V264c0,0.3,0,0.6-0.1,0.9v2.9v7.6l-4.7-4.9c-0.5,0.2-1.1,0.2-1.7,0.2
			H-480c-3.5,0-6.4-3-6.4-6.7v-11.4C-486.4,249-483.5,245.9-480,245.9z"/>
		<line class="st9" x1="-456.8" y1="252.5" x2="-480.4" y2="252.5"/>
		<line class="st9" x1="-456.8" y1="257" x2="-480.4" y2="257"/>
		<line class="st9" x1="-456.8" y1="261.5" x2="-480.4" y2="261.5"/>
		<line class="st9" x1="-456.8" y1="266" x2="-480.4" y2="266"/>
	</g>
	<g class="st6">
		<polygon class="st11" points="-43.7,30.8 -47.2,27.9 -42.4,28.3 -40.6,24.3 -39.1,28.3 -39.1,28.3 -34.5,28.1 -38.2,30.8 
			-36.2,35.7 -41,32.8 -45.9,35.7 		"/>
		<polygon class="st11" points="-26.7,30.8 -30.2,27.9 -25.4,28.3 -23.7,24.3 -22.1,28.3 -22.1,28.3 -17.5,28.1 -21.2,30.8 
			-19.2,35.7 -24,32.8 -28.9,35.7 		"/>
		<polygon class="st11" points="-9.8,30.8 -13.2,27.9 -8.4,28.3 -6.7,24.3 -5.1,28.3 -5.1,28.3 -0.5,28.1 -4.2,30.8 -2.3,35.7 
			-7,32.8 -11.9,35.7 		"/>
		<polygon class="st11" points="7.2,30.8 3.8,27.9 8.6,28.3 10.3,24.3 11.9,28.3 11.9,28.3 16.5,28.1 12.8,30.8 14.7,35.7 10,32.8 
			5,35.7 		"/>
		<polygon class="st11" points="24.2,30.8 20.7,27.9 25.6,28.3 27.3,24.3 28.9,28.3 28.9,28.3 33.5,28.1 29.8,30.8 31.7,35.7 
			26.9,32.8 22,35.7 		"/>
		<path class="st10" d="M24.8,1.4h-63.1C-48.1,1.4-56,8.3-56,16.9v26.2c0,0.7,0.1,1.4,0.2,2.1c0,4.1,2.3,7.8,6,9.5l5.9,2.8
			c0.7,0.3,1.3,0.6,2.1,0.7c1.2,0.2,2.3,0.3,3.6,0.3H-6C-4.5,71-8.4,77.1-8.4,77.1C6.5,72.9,9.1,67.6,9.6,58l15.2,0.5
			c9.8,0,17.7-6.9,17.7-15.5V16.9C42.5,8.4,34.6,1.4,24.8,1.4z"/>
	</g>
	<g class="st6">
		<polygon class="st11" points="-399.4,217.6 -402.8,214.7 -398,215.1 -396.3,211.1 -394.7,215.1 -394.7,215.1 -390.1,214.9 
			-393.8,217.7 -391.8,222.5 -396.6,219.6 -401.5,222.6 		"/>
		<polygon class="st11" points="-382.4,217.6 -385.8,214.7 -381,215.1 -379.3,211.1 -377.7,215.1 -377.7,215.1 -373.1,214.9 
			-376.8,217.7 -374.9,222.5 -379.6,219.6 -384.6,222.6 		"/>
		<polygon class="st11" points="-365.4,217.6 -368.8,214.7 -364,215.1 -362.3,211.1 -360.7,215.1 -360.7,215.1 -356.1,214.9 
			-359.8,217.7 -357.9,222.5 -362.7,219.6 -367.6,222.6 		"/>
		<polygon class="st11" points="-348.4,217.6 -351.9,214.7 -347,215.1 -345.3,211.1 -343.7,215.1 -343.7,215.1 -339.1,214.9 
			-342.8,217.7 -340.9,222.5 -345.7,219.6 -350.6,222.6 		"/>
		<polygon class="st11" points="-331.4,217.6 -334.9,214.7 -330.1,215.1 -328.3,211.1 -326.7,215.1 -326.7,215.1 -322.1,214.9 
			-325.8,217.7 -323.9,222.5 -328.7,219.6 -333.6,222.6 		"/>
		<path class="st10" d="M-330.9,188.3H-394c-9.8,0-17.7,6.9-17.7,15.5V230c0,0.7,0.1,1.4,0.2,2.1c0,4.1,2.3,7.8,6,9.5l5.9,2.8
			c0.7,0.3,1.3,0.6,2.1,0.7c1.2,0.2,2.3,0.3,3.6,0.3h32.4c1.5,12.5-2.4,18.6-2.4,18.6c14.9-4.2,17.5-9.5,18-19.1l15.2,0.5
			c9.8,0,17.7-6.9,17.7-15.5v-26.2C-313.1,195.2-321.1,188.3-330.9,188.3z"/>
	</g>
	<g class="st6">
		<polygon class="st11" points="-174,275 -176.1,273.2 -173.2,273.5 -172.1,271 -171.1,273.5 -171.1,273.5 -168.3,273.4 
			-170.6,275.1 -169.4,278.1 -172.3,276.3 -175.4,278.1 		"/>
		<polygon class="st11" points="-163.5,275 -165.6,273.2 -162.7,273.5 -161.6,271 -160.6,273.5 -160.6,273.5 -157.8,273.4 
			-160.1,275.1 -158.9,278.1 -161.8,276.3 -164.9,278.1 		"/>
		<polygon class="st11" points="-153,275 -155.1,273.2 -152.2,273.5 -151.1,271 -150.1,273.5 -150.1,273.5 -147.3,273.4 
			-149.6,275.1 -148.4,278.1 -151.3,276.3 -154.4,278.1 		"/>
		<polygon class="st11" points="-142.5,275 -144.6,273.2 -141.7,273.5 -140.6,271 -139.6,273.5 -139.6,273.5 -136.8,273.4 
			-139.1,275.1 -137.9,278.1 -140.8,276.3 -143.9,278.1 		"/>
		<polygon class="st11" points="-132,275 -134.1,273.2 -131.2,273.5 -130.1,271 -129.1,273.5 -129.1,273.5 -126.3,273.4 
			-128.6,275.1 -127.4,278.1 -130.3,276.3 -133.4,278.1 		"/>
		<path class="st10" d="M-131.7,256.9h-39c-6.1,0-11,4.3-11,9.6v16.2c0,0.4,0,0.9,0.1,1.3c0,2.5,1.4,4.8,3.7,5.9l3.7,1.8
			c0.4,0.2,0.8,0.4,1.3,0.4c0.7,0.1,1.4,0.2,2.2,0.2h20c0.9,7.7-1.5,11.5-1.5,11.5c9.2-2.6,10.8-5.9,11.2-11.8l9.4,0.3
			c6.1,0,11-4.3,11-9.6v-16.2C-120.7,261.2-125.6,256.9-131.7,256.9z"/>
	</g>
</g>
<g class="st0">
	<g class="st1">
		<path class="st23" d="M-380,268.5L-380,268.5c-70.7,0-128-57.3-128-128l0,0c0-70.7,57.3-128,128-128l0,0c70.7,0,128,57.3,128,128
			l0,0C-252.1,211.2-309.4,268.5-380,268.5z"/>
	</g>
	<g class="st1">
		<path class="st24" d="M-380,208.8L-380,208.8c23.1,0,43.9-9.9,58.3-25.7c7.2-7.8,7.2-19.9,0-27.7c-14.5-15.8-35.2-25.7-58.3-25.7
			l0,0c-23.1,0-43.9,9.9-58.3,25.7c-7.2,7.8-7.2,19.9,0,27.7C-423.9,198.9-403.1,208.8-380,208.8z"/>
		<path class="st24" d="M-380,139.2L-380,139.2c-16.7,0-30.2-13.5-30.2-30.2l0,0c0-16.7,13.5-30.2,30.2-30.2l0,0
			c16.7,0,30.2,13.5,30.2,30.2l0,0C-349.8,125.7-363.4,139.2-380,139.2z"/>
	</g>
</g>
<g class="st0">
	<g class="st1">
		<path class="st23" d="M-104.1,281.8L-104.1,281.8c-70.4,0-127.5-57.1-127.5-127.5l0,0c0-70.4,57.1-127.5,127.5-127.5l0,0
			c70.4,0,127.5,57.1,127.5,127.5l0,0C23.4,224.7-33.7,281.8-104.1,281.8z"/>
	</g>
	<path class="st25" d="M-55.2,100.3h-97.9c-5.1,0-9.2,4.1-9.2,9.2v88.2h0.3l-0.1,10.5l11-10.5l95.8,0.1c5.1,0,9.2-4.1,9.2-9.2v-79.1
		C-46,104.4-50.1,100.3-55.2,100.3z"/>
	<g class="st1">
		<g>
			<path class="st23" d="M-65.3,111.4c-0.4-0.4-1.1-0.4-1.6,0L-77.5,122l0,0l-22.8,22.8l5.8,5.8l22.8-22.8l0,0l10.6-10.6
				c0.4-0.4,0.4-1.1,0-1.6L-65.3,111.4z"/>
		</g>
		<g>
			<path class="st23" d="M-101,151.9l6.3-1.2l-5.6-5.6l-1.2,6.3C-101.6,151.6-101.3,151.9-101,151.9z"/>
		</g>
	</g>
	<line class="st26" x1="-148.2" y1="161.7" x2="-86.2" y2="161.7"/>
	<line class="st26" x1="-81.3" y1="161.7" x2="-60" y2="161.7"/>
	<line class="st26" x1="-148.2" y1="174.5" x2="-86.2" y2="174.5"/>
	<line class="st26" x1="-81.3" y1="174.5" x2="-60" y2="174.5"/>
	<line class="st26" x1="-60" y1="168.1" x2="-122.1" y2="168.1"/>
	<line class="st26" x1="-127" y1="168.1" x2="-148.2" y2="168.1"/>
	<g class="st1">
		<path class="st23" d="M-126,187.3l-2.5-1.3c-0.1,0-0.2,0-0.3,0l-2.5,1.3c-0.2,0.1-0.4-0.1-0.4-0.3l0.4-2.8c0-0.1,0-0.2-0.1-0.2
			l-2-1.9c-0.2-0.2-0.1-0.4,0.1-0.5l2.8-0.4c0.1,0,0.2-0.1,0.2-0.2l1.2-2.5c0.1-0.2,0.4-0.2,0.5,0l1.3,2.5c0,0.1,0.1,0.1,0.2,0.2
			l2.8,0.4c0.2,0,0.3,0.3,0.2,0.5l-2,2c-0.1,0.1-0.1,0.2-0.1,0.2l0.5,2.8C-125.5,187.2-125.8,187.4-126,187.3z"/>
	</g>
	<g class="st1">
		<path class="st23" d="M-113.6,187.5l-2.5-1.3c-0.1,0-0.2,0-0.3,0l-2.5,1.3c-0.2,0.1-0.4-0.1-0.4-0.3l0.4-2.8c0-0.1,0-0.2-0.1-0.2
			l-2-1.9c-0.2-0.2-0.1-0.4,0.1-0.5l2.8-0.4c0.1,0,0.2-0.1,0.2-0.2l1.2-2.5c0.1-0.2,0.4-0.2,0.5,0l1.3,2.5c0,0.1,0.1,0.1,0.2,0.2
			l2.8,0.4c0.2,0,0.3,0.3,0.2,0.5l-2,2c-0.1,0.1-0.1,0.2-0.1,0.2l0.5,2.8C-113.1,187.4-113.4,187.6-113.6,187.5z"/>
	</g>
	<g class="st1">
		<path class="st23" d="M-101.2,187.7l-2.5-1.3c-0.1,0-0.2,0-0.3,0l-2.5,1.3c-0.2,0.1-0.4-0.1-0.4-0.3l0.4-2.8c0-0.1,0-0.2-0.1-0.2
			l-2-1.9c-0.2-0.2-0.1-0.4,0.1-0.5l2.8-0.4c0.1,0,0.2-0.1,0.2-0.2l1.2-2.5c0.1-0.2,0.4-0.2,0.5,0l1.3,2.5c0,0.1,0.1,0.1,0.2,0.2
			l2.8,0.4c0.2,0,0.3,0.3,0.2,0.5l-2,2c-0.1,0.1-0.1,0.2-0.1,0.2l0.5,2.8C-100.8,187.7-101,187.8-101.2,187.7z"/>
	</g>
	<g class="st1">
		<path class="st23" d="M-88.8,188l-2.5-1.3c-0.1,0-0.2,0-0.3,0L-94,188c-0.2,0.1-0.4-0.1-0.4-0.3l0.4-2.8c0-0.1,0-0.2-0.1-0.2
			l-2-1.9c-0.2-0.2-0.1-0.4,0.1-0.5l2.8-0.4c0.1,0,0.2-0.1,0.2-0.2l1.2-2.5c0.1-0.2,0.4-0.2,0.5,0l1.3,2.5c0,0.1,0.1,0.1,0.2,0.2
			l2.8,0.4c0.2,0,0.3,0.3,0.2,0.5l-2,2c-0.1,0.1-0.1,0.2-0.1,0.2l0.5,2.8C-88.4,187.9-88.6,188.1-88.8,188z"/>
	</g>
	<g class="st1">
		<path class="st23" d="M-76.4,188.2l-2.5-1.3c-0.1,0-0.2,0-0.3,0l-2.5,1.3c-0.2,0.1-0.4-0.1-0.4-0.3l0.4-2.8c0-0.1,0-0.2-0.1-0.2
			l-2-1.9c-0.2-0.2-0.1-0.4,0.1-0.5l2.8-0.4c0.1,0,0.2-0.1,0.2-0.2l1.2-2.5c0.1-0.2,0.4-0.2,0.5,0l1.3,2.5c0,0.1,0.1,0.1,0.2,0.2
			l2.8,0.4c0.2,0,0.3,0.3,0.2,0.5l-2,2c-0.1,0.1-0.1,0.2-0.1,0.2l0.5,2.8C-76,188.1-76.2,188.3-76.4,188.2z"/>
	</g>
</g>
<g>
	<path class="st23" d="M169,231.4L169,231.4c-41.4,0-75-33.6-75-75l0,0c0-41.4,33.6-75,75-75l0,0c41.4,0,75,33.6,75,75l0,0
		C244,197.9,210.4,231.4,169,231.4z"/>
</g>
<path class="st24" d="M198,134.1h-57.6c-3,0-5.4,2.4-5.4,5.4V186c0,3,2.4,5.4,5.4,5.4H198c3,0,5.4-2.4,5.4-5.4v-46.5
	C203.3,136.5,200.9,134.1,198,134.1z"/>
<g>
	<path class="st27" d="M162.1,135L162.1,135c-3.8,0-6.8-3-6.8-6.8l0,0c0-3.8,3-6.8,6.8-6.8l0,0c3.8,0,6.8,3,6.8,6.8l0,0
		C168.8,132,165.8,135,162.1,135z"/>
	<path class="st27" d="M176.3,135L176.3,135c-3.8,0-6.8-3-6.8-6.8l0,0c0-3.8,3-6.8,6.8-6.8l0,0c3.8,0,6.8,3,6.8,6.8l0,0
		C183.1,132,180.1,135,176.3,135z"/>
</g>
<g>
	<rect x="134.8" y="173" class="st23" width="68.5" height="8.8"/>
</g>
<line class="st28" x1="168.7" y1="136.9" x2="160.1" y2="152"/>
<line class="st28" x1="177.7" y1="152" x2="168.9" y2="137"/>
<g class="st0">
	<g class="st1">
		<path class="st23" d="M436.1,291.6L436.1,291.6c-70.4,0-127.5-57.1-127.5-127.5l0,0c0-70.4,57.1-127.5,127.5-127.5l0,0
			c70.4,0,127.5,57.1,127.5,127.5l0,0C563.6,234.5,506.5,291.6,436.1,291.6z"/>
	</g>
	<polyline class="st29" points="383.1,191.4 421.6,152.9 447.3,178.7 489.2,136.8 	"/>
</g>
</svg>
