<?xml version="1.0" encoding="utf-8"?>
<!-- Generator: Adobe Illustrator 22.0.0, SVG Export Plug-In . SVG Version: 6.00 Build 0)  -->
<svg version="1.1" id="Layer_1" xmlns="http://www.w3.org/2000/svg" xmlns:xlink="http://www.w3.org/1999/xlink" x="0px" y="0px"
	 viewBox="0 0 313.1 318.9" style="enable-background:new 0 0 313.1 318.9;" xml:space="preserve">
<style type="text/css">
	.st0{display:none;}
	.st1{display:inline;}
	.st2{fill:#081434;}
	
		.st3{display:inline;opacity:0.4;fill:none;stroke:#FCB713;stroke-width:3;stroke-linejoin:round;stroke-miterlimit:10;enable-background:new    ;}
	
		.st4{display:inline;opacity:0.4;fill:none;stroke:#FCB713;stroke-width:3;stroke-linecap:round;stroke-linejoin:round;stroke-miterlimit:10;enable-background:new    ;}
	
		.st5{display:inline;opacity:0.4;fill:none;stroke:#FCB713;stroke-width:2;stroke-linecap:round;stroke-linejoin:round;stroke-miterlimit:10;enable-background:new    ;}
	.st6{display:inline;opacity:0.4;}
	.st7{fill:none;stroke:#FCB713;stroke-width:4;stroke-linecap:round;stroke-linejoin:round;stroke-miterlimit:10;}
	.st8{fill:#FCB713;}
	.st9{fill:none;stroke:#FCB713;stroke-width:2;stroke-linecap:round;stroke-linejoin:round;stroke-miterlimit:10;}
	.st10{fill:none;stroke:#FCB713;stroke-width:3;stroke-linecap:round;stroke-linejoin:round;stroke-miterlimit:10;}
	.st11{fill:#FCB713;stroke:#FCB713;stroke-linecap:round;stroke-linejoin:round;stroke-miterlimit:10;}
	.st12{fill:none;stroke:#FCB713;stroke-linecap:round;stroke-linejoin:round;stroke-miterlimit:10;}
	.st13{fill:none;stroke:#FCB713;stroke-width:2;stroke-miterlimit:10;}
	.st14{fill:#C32126;stroke:#FCB713;stroke-linecap:round;stroke-linejoin:round;stroke-miterlimit:10;}
	.st15{fill:#FCB713;stroke:#FCB713;stroke-width:2;stroke-linecap:round;stroke-linejoin:round;stroke-miterlimit:10;}
	.st16{fill:#FBED21;stroke:#FBED21;stroke-width:2;stroke-linecap:round;stroke-miterlimit:10;}
	.st17{fill:none;stroke:#FBED21;stroke-width:2;stroke-linecap:round;stroke-miterlimit:10;}
	.st18{fill:#FBED21;}
	.st19{font-family:'News701BT-BoldA';}
	.st20{font-size:24.3945px;}
	.st21{fill:none;stroke:#FCB713;stroke-width:1.5;stroke-linecap:round;stroke-linejoin:round;stroke-miterlimit:10;}
	.st22{fill:#FCB713;stroke:#FCB713;stroke-width:3;stroke-linecap:round;stroke-linejoin:round;stroke-miterlimit:10;}
	.st23{fill:none;stroke:#FCB713;stroke-linecap:square;stroke-linejoin:round;stroke-miterlimit:10;stroke-dasharray:5;}
	.st24{font-size:15.5779px;}
	.st25{fill:#001147;}
	.st26{fill:#FFB900;}
	.st27{fill:none;stroke:#001147;stroke-width:3;stroke-linecap:round;stroke-miterlimit:10;}
	.st28{fill:none;stroke:#FFB900;stroke-width:12;stroke-miterlimit:10;}
	.st29{fill:none;stroke:#001147;stroke-width:12;stroke-linecap:round;stroke-miterlimit:10;}
	.st30{display:inline;fill:none;stroke:#FFB900;stroke-width:20;stroke-linecap:round;stroke-linejoin:round;stroke-miterlimit:10;}
</style>
<g id="Layer_1_1_" class="st0">
	<g class="st1">
		<rect x="-279" y="-20.5" class="st2" width="1000" height="360.9"/>
	</g>
	<polygon class="st3" points="163.2,140.5 203.3,112.8 214.4,128.9 245.2,107.6 253.9,120.3 286.8,97.6 279.5,87.1 309.8,92.6 
		304.5,121.5 294.9,109.4 253.2,138.2 243.6,124.3 212.3,145.8 200.7,129 169.5,150.5 	"/>
	<polygon class="st3" points="-254.6,146 -229.9,128.9 -223,138.8 -204,125.7 -198.6,133.5 -178.3,119.5 -182.8,113 -164,116.4 
		-167.3,134.3 -173.2,126.8 -199,144.6 -205,136 -224.3,149.3 -231.5,138.9 -250.8,152.2 	"/>
	<path class="st4" d="M60.1,136.2c-3.6,15.3-29,31.1-29,31.1S1.6,149.1,1.6,132.8c0-1.1,0-3.4,0-3.4c0-11.4,6.8-20.7,15.1-20.7
		c7,0,12.9,6.5,14.6,15.4l0,0c1.6-9,7.6-15.7,14.7-15.7c8.3,0,15.1,9.3,15.1,20.7C61.2,131.6,60.9,134,60.1,136.2L60.1,136.2z"/>
	<path class="st5" d="M178.4,17.1c-1.8,7.7-14.5,15.5-14.5,15.5s-14.7-9.1-14.7-17.3c0-0.6,0-1.7,0-1.7c0-5.7,3.4-10.3,7.5-10.3
		c3.5,0,6.5,3.3,7.3,7.7l0,0c0.8-4.5,3.8-7.9,7.3-7.9c4.2,0,7.5,4.6,7.5,10.3C178.9,14.7,178.8,16,178.4,17.1L178.4,17.1z"/>
	<path class="st5" d="M510.7,313.2c-1.8,7.7-14.5,15.5-14.5,15.5s-14.7-9.1-14.7-17.3c0-0.6,0-1.7,0-1.7c0-5.7,3.4-10.3,7.5-10.3
		c3.5,0,6.5,3.3,7.3,7.7l0,0c0.8-4.5,3.8-7.9,7.3-7.9c4.2,0,7.5,4.6,7.5,10.3C511.2,310.9,511,312.1,510.7,313.2L510.7,313.2z"/>
	<path class="st5" d="M-107.1,311.1c-1.8,7.7-14.5,15.5-14.5,15.5s-14.7-9.1-14.7-17.3c0-0.6,0-1.7,0-1.7c0-5.7,3.4-10.3,7.5-10.3
		c3.5,0,6.5,3.3,7.3,7.7l0,0c0.8-4.5,3.8-7.9,7.3-7.9c4.2,0,7.5,4.6,7.5,10.3C-106.6,308.8-106.8,310-107.1,311.1L-107.1,311.1z"/>
	<g class="st6">
		<circle class="st7" cx="357.3" cy="112.1" r="27.6"/>
		<g>
			<g>
				<path class="st8" d="M345.7,108.4c3.9,0,3.9-6,0-6C341.8,102.4,341.8,108.4,345.7,108.4L345.7,108.4z"/>
			</g>
		</g>
		<g>
			<g>
				<path class="st8" d="M367.8,108.4c3.9,0,3.9-6,0-6C363.9,102.4,363.9,108.4,367.8,108.4L367.8,108.4z"/>
			</g>
		</g>
		<path class="st9" d="M345.1,118.7c0,0,11,14.4,23.2,0"/>
	</g>
	<g class="st6">
		<circle class="st7" cx="40.9" cy="305.3" r="27.6"/>
		<g>
			<g>
				<path class="st8" d="M29.3,301.7c3.9,0,3.9-6,0-6C25.5,295.7,25.5,301.7,29.3,301.7L29.3,301.7z"/>
			</g>
		</g>
		<g>
			<g>
				<path class="st8" d="M51.4,301.7c3.9,0,3.9-6,0-6C47.6,295.7,47.6,301.7,51.4,301.7L51.4,301.7z"/>
			</g>
		</g>
		<path class="st9" d="M28.8,311.9c0,0,11,14.4,23.2,0"/>
	</g>
	<g class="st6">
		<circle class="st7" cx="601.4" cy="84.5" r="17.1"/>
		<g>
			<g>
				<path class="st8" d="M594.3,83.4c3.9,0,3.9-6,0-6C590.4,77.4,590.4,83.4,594.3,83.4L594.3,83.4z"/>
			</g>
		</g>
		<g>
			<g>
				<path class="st8" d="M607.9,83.4c3.9,0,3.9-6,0-6C604.1,77.4,604.1,83.4,607.9,83.4L607.9,83.4z"/>
			</g>
		</g>
		<path class="st9" d="M593.9,88.6c0,0,6.8,8.9,14.3,0"/>
	</g>
	<g class="st6">
		<circle class="st7" cx="-219.2" cy="85.5" r="17.1"/>
		<g>
			<g>
				<path class="st8" d="M-226.3,84.4c3.9,0,3.9-6,0-6C-230.2,78.4-230.2,84.4-226.3,84.4L-226.3,84.4z"/>
			</g>
		</g>
		<g>
			<g>
				<path class="st8" d="M-212.7,84.4c3.9,0,3.9-6,0-6C-216.5,78.4-216.5,84.4-212.7,84.4L-212.7,84.4z"/>
			</g>
		</g>
		<path class="st9" d="M-226.7,89.6c0,0,6.8,8.9,14.3,0"/>
	</g>
	<g class="st6">
		<path class="st10" d="M-37.6,77.7h-106.2c-4.7,0-8.5-3.8-8.5-8.5V13.8c0-4.7,3.8-8.5,8.5-8.5h106.1c4.7,0,8.5,3.8,8.5,8.5v55.4
			C-29.1,73.9-32.9,77.7-37.6,77.7z"/>
		<path class="st11" d="M-131.9,25.8l-1.4-1.2c-0.5-0.5-0.2-1.3,0.5-1.3l2.1,0.2c0.3,0,0.6-0.2,0.7-0.4l0.8-2c0.3-0.6,1.1-0.6,1.3,0
			l1,2.4l0,0l2.3-0.1c0.7,0,1,0.9,0.5,1.3l-1.4,1.1c-0.3,0.2-0.4,0.5-0.2,0.9l1,2.4c0.3,0.6-0.5,1.3-1.1,0.9l-2.6-1.6
			c-0.2-0.1-0.5-0.1-0.7,0l-2.7,1.6c-0.6,0.4-1.3-0.3-1-0.9l1.1-2.4C-131.6,26.3-131.6,26-131.9,25.8z"/>
		<path class="st11" d="M-112.3,25.9l-2.1-1.8c-0.3-0.3-0.1-0.9,0.3-0.8l3.1,0.2c0.2,0,0.4-0.1,0.5-0.3l1.2-2.7
			c0.2-0.4,0.7-0.4,0.9,0l1.2,3l0,0l3.2-0.1c0.5,0,0.7,0.6,0.3,0.8l-2.3,1.7c-0.2,0.1-0.2,0.4-0.2,0.6l1.3,3.3
			c0.2,0.4-0.3,0.8-0.7,0.6l-3.4-2.1c-0.1-0.1-0.3-0.1-0.5,0l-3.5,2.1c-0.4,0.2-0.9-0.2-0.7-0.6l1.5-3.3
			C-112.1,26.2-112.1,26-112.3,25.9z"/>
		<path class="st11" d="M-92.9,25.9l-2.1-1.8c-0.4-0.3-0.1-0.9,0.3-0.8l3.1,0.2c0.2,0,0.4-0.1,0.5-0.3l1.2-2.7
			c0.2-0.4,0.7-0.4,0.9,0l1.2,3l0,0l3.2-0.1c0.5,0,0.7,0.6,0.3,0.9l-2.3,1.7c-0.2,0.1-0.2,0.4-0.2,0.6l1.3,3.3
			c0.2,0.4-0.3,0.8-0.7,0.6l-3.4-2.1c-0.1-0.1-0.3-0.1-0.5,0l-3.5,2.1c-0.4,0.2-0.9-0.2-0.7-0.6l1.5-3.3
			C-92.6,26.2-92.7,26-92.9,25.9z"/>
		<path class="st12" d="M-73.4,25.9l-2-1.7c-0.4-0.3-0.1-1,0.4-0.9l2.9,0.2c0.2,0,0.4-0.1,0.5-0.3l1.1-2.6c0.2-0.4,0.8-0.4,1,0
			l1.1,2.9l0,0l3-0.1c0.5,0,0.7,0.6,0.3,0.9l-2.1,1.5c-0.2,0.1-0.3,0.4-0.2,0.6l1.2,3.1c0.2,0.5-0.3,0.9-0.8,0.6l-3.3-2
			c-0.2-0.1-0.4-0.1-0.5,0l-3.3,2c-0.4,0.3-1-0.2-0.7-0.7l1.4-3.1C-73.2,26.3-73.3,26-73.4,25.9z"/>
		<path class="st12" d="M-54,25.8l-1.9-1.6c-0.4-0.3-0.1-1,0.4-1l2.8,0.2c0.2,0,0.5-0.1,0.5-0.3l1.1-2.5c0.2-0.5,0.8-0.4,1,0
			l1.1,2.8l0,0l2.9-0.1c0.5,0,0.8,0.7,0.4,1l-2,1.5c-0.2,0.1-0.3,0.4-0.2,0.6l1.2,3c0.2,0.5-0.3,1-0.8,0.7l-3.2-1.9
			c-0.2-0.1-0.4-0.1-0.6,0l-3.2,1.9c-0.5,0.3-1-0.2-0.8-0.7l1.3-3C-53.8,26.3-53.8,26-54,25.8z"/>
		<line class="st9" x1="-134.6" y1="42.6" x2="-109.1" y2="42.6"/>
		<line class="st9" x1="-104.3" y1="42.6" x2="-43.2" y2="42.6"/>
		<line class="st9" x1="-43.2" y1="50.1" x2="-68.7" y2="50.1"/>
		<line class="st9" x1="-73.4" y1="50.1" x2="-134.6" y2="50.1"/>
		<line class="st9" x1="-134.6" y1="65.8" x2="-101.5" y2="65.8"/>
		<line class="st9" x1="-97.2" y1="65.8" x2="-43.2" y2="65.8"/>
		<line class="st9" x1="-134.6" y1="58" x2="-42.8" y2="58"/>
	</g>
	<g class="st6">
		<path class="st10" d="M627.8,265.5h-59.1c-4.7,0-8.5-3.8-8.5-8.5v-27.7c0-4.7,3.8-8.5,8.5-8.5h59.1c4.7,0,8.5,3.8,8.5,8.5V257
			C636.3,261.7,632.5,265.5,627.8,265.5z"/>
		<path class="st11" d="M572.8,233.5l-0.8-0.7c-0.3-0.3-0.1-0.8,0.3-0.8l1.3,0.1c0.2,0,0.4-0.1,0.4-0.3l0.5-1.2
			c0.2-0.4,0.7-0.4,0.8,0l0.6,1.5l0,0l1.4-0.1c0.4,0,0.6,0.5,0.3,0.8l-0.9,0.7c-0.2,0.1-0.2,0.3-0.2,0.5l0.6,1.5
			c0.2,0.4-0.3,0.8-0.7,0.6l-1.6-1c-0.1-0.1-0.3-0.1-0.5,0l-1.6,1c-0.4,0.2-0.8-0.2-0.6-0.6l0.7-1.5
			C573,233.8,573,233.6,572.8,233.5z"/>
		<path class="st11" d="M584.9,233.5l-1.3-1.1c-0.2-0.2-0.1-0.5,0.2-0.5l1.9,0.1c0.1,0,0.2-0.1,0.3-0.2l0.7-1.7
			c0.1-0.2,0.4-0.2,0.5,0l0.7,1.9l0,0l2-0.1c0.3,0,0.4,0.4,0.2,0.5l-1.4,1c-0.1,0.1-0.1,0.2-0.1,0.3l0.8,2c0.1,0.3-0.2,0.5-0.4,0.4
			l-2.1-1.3c-0.1-0.1-0.2-0.1-0.3,0l-2.2,1.3c-0.2,0.1-0.5-0.1-0.4-0.4l0.9-2.1C585,233.8,585,233.6,584.9,233.5z"/>
		<path class="st11" d="M596.9,233.5l-1.3-1.1c-0.2-0.2-0.1-0.5,0.2-0.5l1.9,0.1c0.1,0,0.2-0.1,0.3-0.2l0.7-1.7
			c0.1-0.2,0.4-0.2,0.5,0l0.7,1.9l0,0l2-0.1c0.3,0,0.4,0.4,0.2,0.5l-1.4,1c-0.1,0.1-0.1,0.2-0.1,0.3l0.8,2c0.1,0.3-0.2,0.5-0.4,0.4
			l-2-1.1c-0.1-0.1-0.2-0.1-0.3,0l-2.2,1.3c-0.2,0.1-0.5-0.1-0.4-0.4l0.9-2.1C597.1,233.8,597,233.6,596.9,233.5z"/>
		<path class="st12" d="M608.9,233.5l-1.2-1c-0.2-0.2-0.1-0.6,0.2-0.6l1.8,0.1c0.1,0,0.3-0.1,0.3-0.2l0.7-1.6c0.1-0.3,0.5-0.3,0.6,0
			l0.7,1.8l0,0l1.8-0.1c0.3,0,0.5,0.4,0.2,0.6l-1.3,1c-0.1,0.1-0.2,0.2-0.1,0.4l0.8,1.9c0.1,0.3-0.2,0.6-0.5,0.4l-2-1.2
			c-0.1-0.1-0.2-0.1-0.3,0l-2,1.2c-0.3,0.2-0.6-0.1-0.5-0.4l0.9-1.9C609.1,233.8,609,233.6,608.9,233.5z"/>
		<path class="st12" d="M620.9,233.5l-1.2-1c-0.3-0.2-0.1-0.6,0.2-0.6l1.7,0.1c0.1,0,0.3-0.1,0.3-0.2l0.7-1.5c0.1-0.3,0.5-0.3,0.6,0
			l0.7,1.7l0,0l1.8-0.1c0.3,0,0.5,0.4,0.2,0.6l-1.2,0.9c-0.1,0.1-0.2,0.3-0.1,0.4l0.7,1.9c0.1,0.3-0.2,0.6-0.5,0.4l-2-1.2
			c-0.1-0.1-0.2-0.1-0.4,0l-2,1.2c-0.3,0.2-0.6-0.1-0.5-0.4l0.8-1.9C621.1,233.8,621,233.6,620.9,233.5z"/>
		<line class="st9" x1="571.1" y1="243.8" x2="586.9" y2="243.8"/>
		<line class="st9" x1="589.8" y1="243.8" x2="627.6" y2="243.8"/>
		<line class="st9" x1="627.6" y1="248.5" x2="611.9" y2="248.5"/>
		<line class="st9" x1="608.9" y1="248.5" x2="571.1" y2="248.5"/>
		<line class="st9" x1="571.1" y1="258.2" x2="591.6" y2="258.2"/>
		<line class="st9" x1="594.3" y1="258.2" x2="627.6" y2="258.2"/>
		<line class="st9" x1="571.1" y1="253.4" x2="627.9" y2="253.4"/>
	</g>
	<g class="st6">
		<polygon class="st7" points="7.1,5.9 56.7,5.9 56.7,84 31.9,59.2 7.1,85.5 		"/>
		<polygon class="st11" points="27.8,34.9 22.9,30.7 29.7,31.3 32.2,25.6 34.4,31.3 34.4,31.3 40.9,31 35.7,34.9 38.4,41.8 
			31.7,37.7 24.7,41.8 		"/>
		<circle class="st13" cx="31.9" cy="33.7" r="16.5"/>
	</g>
	<g class="st6">
		<polygon class="st7" points="538.9,92.2 569.5,92.2 569.5,140.5 554.2,125.2 538.9,141.5 		"/>
		<polygon class="st11" points="551.7,110.1 548.6,107.6 552.9,107.9 554.4,104.4 555.7,107.9 555.7,107.9 559.8,107.8 556.5,110.2 
			558.2,114.4 554,111.9 549.7,114.4 		"/>
		<circle class="st13" cx="554.2" cy="109.4" r="10.2"/>
	</g>
	<g class="st6">
		<polygon class="st7" points="334,272.7 364.6,272.7 364.6,321 349.3,305.7 334,321.9 		"/>
		<polygon class="st11" points="346.8,290.6 343.7,288.1 348,288.4 349.5,284.9 350.9,288.4 350.9,288.4 354.9,288.2 351.6,290.6 
			353.3,294.9 349.2,292.4 344.9,294.9 		"/>
		<circle class="st13" cx="349.3" cy="289.9" r="10.2"/>
	</g>
	<g class="st6">
		<polygon class="st7" points="-244.6,289 -222.3,289 -222.3,324.1 -233.5,313 -244.6,324.8 		"/>
		<polygon class="st14" points="-235.3,302 -237.5,300.1 -234.5,300.4 -233.4,297.8 -232.4,300.4 -232.4,300.4 -229.4,300.3 
			-231.8,302 -230.6,305.1 -233.6,303.3 -236.7,305.1 		"/>
		<circle class="st13" cx="-233.5" cy="301.5" r="7.4"/>
	</g>
	<g class="st6">
		<rect x="487.3" y="63.8" class="st10" width="34" height="34"/>
		<polyline class="st9" points="493.7,78.6 504.3,89.2 531.4,62.2 		"/>
	</g>
	<g class="st6">
		<rect x="-28.7" y="219.6" class="st10" width="21" height="21"/>
		<polyline class="st9" points="-24.7,228.8 -18.2,235.4 -1.5,218.7 		"/>
	</g>
	<g class="st6">
		<rect x="427.8" y="303.5" class="st10" width="21" height="21"/>
		<polyline class="st9" points="431.7,312.7 438.3,319.2 455,302.5 		"/>
	</g>
	<g class="st6">
		<rect x="152.3" y="66.1" class="st10" width="8.1" height="28.5"/>
		<path class="st10" d="M164.5,66.1v28.5h5.4l4.7,4.7H197l14.6-14.6V66.1h-26.8c0,0,5.6-18.6-6.8-20.3c-9.5-1.4,4.1,10.9-4.1,20.3
			C173.9,66.1,164.5,66.1,164.5,66.1z"/>
		<line class="st9" x1="211.7" y1="73.7" x2="190.3" y2="73.7"/>
		<line class="st9" x1="211.7" y1="83.1" x2="190.3" y2="83.1"/>
		<line class="st9" x1="205.1" y1="91.3" x2="190.3" y2="91.3"/>
	</g>
	<g class="st6">
		<rect x="650.2" y="252.9" class="st10" width="8.1" height="28.5"/>
		<path class="st10" d="M662.4,252.9v28.5h5.4l4.7,4.7H695l14.6-14.6v-18.7h-26.8c0,0,5.6-18.6-6.8-20.3c-9.5-1.4,4.1,10.9-4.1,20.3
			h-9.5V252.9z"/>
		<line class="st9" x1="709.5" y1="260.6" x2="688.2" y2="260.6"/>
		<line class="st9" x1="709.5" y1="269.9" x2="688.2" y2="269.9"/>
		<line class="st9" x1="703" y1="278.1" x2="688.2" y2="278.1"/>
	</g>
	<g class="st6">
		<rect x="1.2" y="243.7" class="st10" width="5" height="17.6"/>
		<path class="st10" d="M8.8,243.7v17.6h3.4l2.9,2.9h13.8l9-9v-11.5H21.3c0,0,3.5-11.5-4.2-12.6c-5.9-0.8,2.5,6.7-2.5,12.6H8.8z"/>
		<line class="st9" x1="37.9" y1="248.4" x2="24.7" y2="248.4"/>
		<line class="st9" x1="37.9" y1="254.2" x2="24.7" y2="254.2"/>
		<line class="st9" x1="33.9" y1="259.3" x2="24.7" y2="259.3"/>
	</g>
	<g class="st6">
		<rect x="478.9" y="-0.5" class="st10" width="5" height="17.6"/>
		<path class="st10" d="M486.5-0.5v17.6h3.4l2.9,2.9h13.8l9-9V-0.5H499c0,0,3.5-11.5-4.2-12.6c-5.9-0.8,2.5,6.7-2.5,12.6H486.5z"/>
		<line class="st9" x1="515.6" y1="4.3" x2="502.4" y2="4.3"/>
		<line class="st9" x1="515.6" y1="10" x2="502.4" y2="10"/>
		<line class="st9" x1="511.6" y1="15.1" x2="502.4" y2="15.1"/>
	</g>
	<g class="st6">
		<rect x="465.4" y="203.3" class="st10" width="10.9" height="85"/>
		<rect x="515" y="203.3" class="st10" width="10.9" height="85"/>
		<rect x="454.4" y="199.1" class="st15" width="85" height="14.3"/>
		<rect x="454.4" y="223.9" class="st15" width="85" height="14.3"/>
		<rect x="454.4" y="248.8" class="st15" width="85" height="14.3"/>
		<circle class="st16" cx="481.3" cy="205.9" r="3.4"/>
		<circle class="st16" cx="481.3" cy="231.1" r="3.4"/>
		<circle class="st16" cx="481.3" cy="256.3" r="3.4"/>
		<line class="st17" x1="489.7" y1="205.9" x2="513.3" y2="205.9"/>
		<line class="st17" x1="489.7" y1="231.1" x2="513.3" y2="231.1"/>
		<line class="st17" x1="489.7" y1="255.5" x2="513.3" y2="255.5"/>
	</g>
	<g class="st6">
		<rect x="-148" y="115.7" class="st10" width="6.8" height="52.5"/>
		<rect x="-117.3" y="115.8" class="st10" width="6.8" height="52.5"/>
		<rect x="-154.6" y="113.2" class="st15" width="52.5" height="8.8"/>
		<rect x="-154.6" y="128.5" class="st15" width="52.5" height="8.8"/>
		<rect x="-154.6" y="143.9" class="st15" width="52.5" height="8.8"/>
		<circle class="st16" cx="-138" cy="117.3" r="2.1"/>
		<circle class="st16" cx="-138" cy="132.9" r="2.1"/>
		<circle class="st16" cx="-138" cy="148.5" r="2.1"/>
		<line class="st17" x1="-132.8" y1="117.3" x2="-118.2" y2="117.3"/>
		<line class="st17" x1="-132.8" y1="132.9" x2="-118.2" y2="132.9"/>
		<line class="st17" x1="-132.8" y1="148" x2="-118.2" y2="148"/>
	</g>
	<g class="st6">
		<path class="st8" d="M477.7,140.6c4.3-4.5,6.9-10.8,6.9-17.9c0-13.5-9.7-24.4-21.8-24.4c-12,0-21.8,10.9-21.8,24.4
			c0,7.1,2.7,13.4,6.9,17.9c-17.6,4.8-30.3,17.8-30.3,33.1H508C508,158.3,495.4,145.3,477.7,140.6z"/>
		<path class="st9" d="M511.3,137c2.5-2.6,4.1-6.4,4.1-10.6c0-8-5.8-14.5-12.9-14.5c-7.1,0-12.9,6.5-12.9,14.5
			c0,4.2,1.6,7.9,4.1,10.6c-10.4,2.8-17.9,10.5-17.9,19.6h53.4C529.3,147.5,521.8,139.8,511.3,137z"/>
		<path class="st9" d="M432.6,135.5c2.7-2.8,4.4-6.8,4.4-11.3c0-8.5-6.1-15.4-13.7-15.4c-7.6,0-13.7,6.9-13.7,15.4
			c0,4.4,1.7,8.4,4.4,11.3c-11.1,3-19.1,11.2-19.1,20.8h56.8C451.7,146.7,443.7,138.5,432.6,135.5z"/>
	</g>
	<g class="st6">
		<path class="st8" d="M-37.8,299.1c2.6-2.8,4.3-6.7,4.3-11c0-8.3-6-15.1-13.5-15.1c-7.4,0-13.5,6.8-13.5,15.1c0,4.4,1.7,8.3,4.3,11
			c-10.9,2.9-18.7,11-18.7,20.4h55.8C-19.1,310.1-26.9,302-37.8,299.1z"/>
		<path class="st9" d="M-17,296.9c1.6-1.6,2.5-4,2.5-6.5c0-4.9-3.6-8.9-8-8.9s-8,4-8,8.9c0,2.6,1,4.9,2.5,6.5
			c-6.5,1.7-11.1,6.5-11.1,12.1h33C-6,303.4-10.6,298.6-17,296.9z"/>
		<path class="st9" d="M-65.7,296c1.7-1.7,2.7-4.2,2.7-7c0-5.2-3.8-9.5-8.5-9.5s-8.5,4.3-8.5,9.5c0,2.7,1,5.2,2.7,7
			c-6.9,1.9-11.8,6.9-11.8,12.9H-54C-53.9,302.9-58.8,297.8-65.7,296z"/>
	</g>
	<g class="st6">
		<path class="st8" d="M-203.4,28.4c2.6-2.8,4.3-6.7,4.3-11c0-8.3-6-15.1-13.5-15.1S-226,9-226,17.4c0,4.4,1.7,8.3,4.3,11
			c-10.9,2.9-18.7,11-18.7,20.4h55.8C-184.7,39.4-192.5,31.3-203.4,28.4z"/>
		<path class="st9" d="M-182.7,26.2c1.6-1.6,2.5-4,2.5-6.5c0-4.9-3.6-8.9-8-8.9c-4.4,0-8,4-8,8.9c0,2.6,1,4.9,2.5,6.5
			c-6.5,1.7-11.1,6.5-11.1,12.1h33C-171.6,32.7-176.2,27.9-182.7,26.2z"/>
		<path class="st9" d="M-231.3,25.3c1.7-1.7,2.7-4.2,2.7-7c0-5.2-3.8-9.5-8.5-9.5s-8.5,4.3-8.5,9.5c0,2.7,1,5.2,2.7,7
			c-6.9,1.9-11.8,6.9-11.8,12.9h35.1C-219.5,32.2-224.4,27.1-231.3,25.3z"/>
	</g>
	<g class="st6">
		<path class="st15" d="M121.4,29.8H97.7l-9.9,37.1l21.4-9.6l22.1,10.9L121.4,29.8z M108.8,54.2l-14,6.6l5.7-25h17.1l6.1,26.3
			L108.8,54.2z"/>
		<path class="st12" d="M93,41.3c-0.6-1-1.7-1.6-3-1.3l0,0c-3.1,0.8-4.8-3.6-1.8-5l0,0c2.3-1.1,1.9-4.4-0.6-5l0,0
			c-3.2-0.7-2.5-5.4,0.7-5.3l0,0c2.5,0.1,3.8-3,1.8-4.7l0,0c-2.5-2.1,0.2-6,3.1-4.3l0,0c2.2,1.3,4.7-0.9,3.8-3.3l0,0
			c-1.2-3,3-5.2,4.7-2.4l0,0c1.3,2.1,4.6,1.4,4.9-1.2l0,0c0.3-3.2,5-3.2,5.3,0.1l0,0c0.2,2.5,3.5,3.4,4.9,1.3l0,0
			c1.8-2.7,5.9-0.5,4.7,2.5l0,0c-1,2.3,1.5,4.6,3.7,3.4l0,0c2.8-1.6,5.5,2.3,3,4.4l0,0c-2,1.6-0.8,4.8,1.7,4.7l0,0
			c3.2-0.1,3.8,4.6,0.6,5.3l0,0c-2.5,0.5-2.9,3.9-0.7,5l0,0c2.9,1.4,1.2,5.8-1.9,4.9l0,0c-0.7-0.2-1.3-0.1-1.9,0.1"/>
		<circle class="st11" cx="108.6" cy="29.8" r="15.8"/>
		<text transform="matrix(1 0 0 1 102.4472 37.3842)" class="st18 st19 st20">1</text>
	</g>
	<g class="st6">
		<path class="st15" d="M658.4,146.5h-43.7l-18.2,63.1l39.5-16.3l40.8,18.6L658.4,146.5z M635.2,188l-25.8,11.2l10.5-42.5h31.6
			l11.3,44.7L635.2,188z"/>
		<path class="st12" d="M606,166.1c-1-1.7-3.1-2.8-5.6-2.2l0,0c-5.8,1.4-8.8-6.1-3.4-8.5l0,0c4.2-1.8,3.5-7.6-1-8.5l0,0
			c-5.8-1.2-4.7-9.2,1.3-8.9l0,0c4.7,0.2,6.9-5.2,3.4-8l0,0c-4.6-3.6,0.5-10.1,5.6-7.4l0,0c4,2.2,8.7-1.6,7-5.6l0,0
			c-2.2-5.1,5.5-8.8,8.7-4.1l0,0c2.5,3.6,8.6,2.3,9-2l0,0c0.6-5.5,9.3-5.4,9.8,0.1l0,0c0.4,4.3,6.4,5.7,9,2.1l0,0
			c3.3-4.6,10.9-0.8,8.6,4.3l0,0c-1.8,4,2.8,7.8,6.9,5.7l0,0c5.2-2.7,10.1,4,5.5,7.5l0,0c-3.6,2.7-1.5,8.1,3.2,8l0,0
			c6-0.1,6.9,7.9,1.1,8.9l0,0c-4.6,0.9-5.4,6.6-1.2,8.5l0,0c5.3,2.5,2.2,9.9-3.6,8.4l0,0c-1.3-0.3-2.5-0.2-3.5,0.2"/>
		<ellipse class="st11" cx="634.9" cy="146.5" rx="29.1" ry="26.8"/>
		<text transform="matrix(1.0844 0 0 1 623.4496 159.4762)" class="st18 st19" style="font-size:41.4534px;">1</text>
	</g>
	<g class="st6">
		<ellipse class="st9" cx="407" cy="200.9" rx="26.2" ry="6.1"/>
		<path class="st9" d="M380.8,200.4c0,0-1.1,32.3,14.5,35.7c0,0,9.2,3.1,23.6,0.4c1.4-0.3,2.7-0.9,3.7-1.9
			c3.5-3.6,11.5-13.9,10.6-33"/>
		<path class="st9" d="M433.2,207.2c0,0,1.1-5.7,4.5-4.5c0,0,4.5,0,3.3,8.9c-1.1,8.9-6.7,10-6.7,10s-3.4-0.8-5.6,4.1"/>
		<path class="st12" d="M385.8,213.2c0,0,2.2,20.1,14.5,18.9"/>
		<ellipse class="st8" cx="406.4" cy="202.6" rx="22.8" ry="3.9"/>
		<path class="st21" d="M395.8,183.1c0,0-3,3,0,6.7s0,6.7,0,6.7"/>
		<path class="st21" d="M415.9,183.1c0,0-3,3,0,6.7s0,6.7,0,6.7"/>
		<path class="st21" d="M404.8,177.5c0,0-3,3,0,6.7s0,6.7,0,6.7"/>
	</g>
	<g class="st6">
		<ellipse class="st9" cx="-10.8" cy="183.3" rx="16.2" ry="3.8"/>
		<path class="st9" d="M-27,182.9c0,0-0.7,20,9,22c0,0,5.7,1.9,14.6,0.2c0.9-0.2,1.7-0.6,2.3-1.2c2.2-2.2,7.1-8.6,6.5-20.4"/>
		<path class="st9" d="M5.4,187.1c0,0,0.7-3.5,2.8-2.8c0,0,2.8,0,2.1,5.5S6.2,196,6.2,196s-2.1-0.5-3.5,2.5"/>
		<path class="st12" d="M-23.9,190.9c0,0,1.4,12.4,9,11.7"/>
		<ellipse class="st8" cx="-11.2" cy="184.3" rx="14.1" ry="2.4"/>
		<path class="st21" d="M-17.7,172.3c0,0-1.8,1.8,0,4.1s0,4.1,0,4.1"/>
		<path class="st21" d="M-5.3,172.3c0,0-1.8,1.8,0,4.1s0,4.1,0,4.1"/>
		<path class="st21" d="M-12.2,168.8c0,0-1.8,1.8,0,4.1s0,4.1,0,4.1"/>
	</g>
	<g class="st6">
		<g>
			<circle class="st9" cx="55.7" cy="199.4" r="15.3"/>
			<polygon class="st11" points="51.8,199.9 47.2,196 53.6,196.5 55.9,191.1 58,196.5 58,196.5 64.1,196.2 59.2,199.9 61.8,206.4 
				55.4,202.5 48.9,206.4 			"/>
		</g>
		<path class="st10" d="M49,234.8c0,0,6.8,13.9,13.3,0L78,210l0,0c1.7-3.6,2.6-7.8,2.3-12.1c-0.8-12.3-10.9-22.4-23.3-23.1
			c-14.2-0.8-26,10.6-26,24.6c0,4.7,1.3,9.1,3.6,12.9l-0.1,0.1L49,234.8L49,234.8z"/>
	</g>
	<g class="st6">
		<g>
			<circle class="st9" cx="559.9" cy="179.2" r="9.4"/>
			<polygon class="st11" points="557.5,179.6 554.7,177.2 558.6,177.5 560.1,174.2 561.4,177.5 561.4,177.5 565.2,177.3 
				562.1,179.6 563.7,183.6 559.8,181.2 555.7,183.6 			"/>
		</g>
		<path class="st10" d="M555.8,201.1c0,0,4.2,8.6,8.2,0l9.7-15.4l0,0c1.1-2.3,1.6-4.8,1.4-7.5c-0.5-7.6-6.7-13.8-14.4-14.3
			c-8.8-0.5-16.1,6.5-16.1,15.2c0,2.9,0.8,5.6,2.2,7.9h-0.1L555.8,201.1L555.8,201.1z"/>
	</g>
	<g class="st6">
		<rect x="97.4" y="163.2" class="st22" width="25.1" height="83.6"/>
		<path class="st22" d="M351.1,246.8h25.1l-35.8-83.6h-4.8h-20.3h-4.8l-29.9,83.6h25.1l6.8-19.1h30.4L351.1,246.8z M317.7,213.4
			l8.7-24.3l10.4,24.3H317.7z"/>
		<polygon class="st22" points="275.9,184.7 275.9,163.2 232.8,163.2 207.8,163.2 207.8,184.7 207.8,194.3 207.8,215.8 207.8,225.3 
			207.8,246.8 232.8,246.8 275.9,246.8 275.9,225.3 232.8,225.3 232.8,214.6 259.1,214.6 259.1,196.6 232.8,196.6 232.8,184.7 		"/>
		<path class="st22" d="M156.4,163.2h-23.9v83.6h23.9c24.4,0,44.2-18.7,44.2-41.8S180.8,163.2,156.4,163.2z M156.4,229.2h-1.2v-48.3
			h1.2c14.1,0,25.6,10.8,25.6,24.2C181.9,218.4,170.5,229.2,156.4,229.2z"/>
		<g>
			<line class="st9" x1="99" y1="156.2" x2="120.5" y2="156.2"/>
			<line class="st9" x1="96.9" y1="152.2" x2="122.6" y2="152.2"/>
			<path class="st9" d="M125.2,130.8c0,0-9,7.7-6.3,17.4h-18.8h-0.7c2.7-9.6-6.1-18.8-6.1-18.8c-1.8-2.9-2.9-6.4-2.9-10.1
				c0-10.7,8.6-19.3,19.3-19.3c10.7,0,19.3,8.6,19.3,19.3C129.1,123.6,127.6,127.6,125.2,130.8L125.2,130.8z"/>
			<path class="st9" d="M106,141.8l-4.8-19.8c0,0,2.7-8,8,0c0,0,3.2-9.2,8,0l-4.8,19.8"/>
			<path class="st9" d="M109.2,106.4c0,0-12.9,0-12.9,16.1"/>
			<line class="st9" x1="108.8" y1="73" x2="108.8" y2="86.6"/>
			<line class="st9" x1="135.2" y1="83.3" x2="126.5" y2="93.8"/>
			<line class="st9" x1="149.4" y1="113.6" x2="135.9" y2="114.4"/>
			<line class="st9" x1="78.6" y1="84.7" x2="88.3" y2="94.2"/>
			<line class="st9" x1="65.8" y1="114.9" x2="79.4" y2="114.5"/>
			<line class="st9" x1="79.4" y1="125" x2="72.6" y2="127.3"/>
			<line class="st9" x1="80.1" y1="104.2" x2="73.4" y2="101.7"/>
			<line class="st9" x1="97.1" y1="87.1" x2="94.3" y2="80.5"/>
			<line class="st9" x1="120.2" y1="87" x2="122.8" y2="80.3"/>
			<line class="st9" x1="136.6" y1="102.3" x2="143" y2="99.1"/>
			<line class="st9" x1="137.9" y1="125.9" x2="144.6" y2="128.2"/>
		</g>
	</g>
	<g class="st6">
		<polygon class="st10" points="529.2,-6.8 629.1,-6.8 629.1,54.7 529.2,54.7 535.8,47.5 531.2,45.5 535.8,38.9 529.2,30.3 
			534.5,26.9 529.2,18.3 534.5,12.4 529.2,5.1 533.8,1.1 		"/>
		<line class="st23" x1="543.7" y1="-3.2" x2="543.7" y2="52.1"/>
		<line class="st9" x1="550.4" y1="36.2" x2="619.2" y2="36.2"/>
		<line class="st9" x1="550.4" y1="43.5" x2="619.2" y2="43.5"/>
		<text transform="matrix(1 0 0 1 560.2162 24.3812)" class="st8 st19" style="font-size:25.2051px;">20%</text>
	</g>
	<g class="st6">
		<polygon class="st10" points="-264.9,171.5 -164.9,171.5 -164.9,233.1 -264.9,233.1 -258.3,225.8 -262.9,223.8 -258.3,217.2 
			-264.9,208.6 -259.6,205.3 -264.9,196.7 -259.6,190.7 -264.9,183.4 -260.3,179.5 		"/>
		<line class="st23" x1="-250.3" y1="175.2" x2="-250.3" y2="230.4"/>
		<line class="st9" x1="-243.7" y1="214.6" x2="-174.9" y2="214.6"/>
		<line class="st9" x1="-243.7" y1="221.8" x2="-174.9" y2="221.8"/>
		<text transform="matrix(1 0 0 1 -233.8392 202.726)" class="st8 st19" style="font-size:25.2051px;">20%</text>
	</g>
	<g class="st6">
		<polygon class="st10" points="155.5,291.6 217.3,291.6 217.3,329.6 155.5,329.6 159.6,325.1 156.7,323.9 159.6,319.8 155.5,314.5 
			158.7,312.4 155.5,307.1 158.7,303.4 155.5,298.9 158.3,296.5 		"/>
		<line class="st23" x1="164.5" y1="293.8" x2="164.5" y2="328"/>
		<line class="st9" x1="168.6" y1="318.2" x2="211.1" y2="318.2"/>
		<line class="st9" x1="168.6" y1="322.7" x2="211.1" y2="322.7"/>
		<text transform="matrix(1 0 0 1 174.6557 310.8461)" class="st8 st19 st24">20%</text>
	</g>
	<g class="st6">
		<path class="st10" d="M-64.8,130.5l-8.2-6.9c-2-1.7-0.7-4.9,1.9-4.7l12.2,0.9c1.1,0.1,2.2-0.6,2.7-1.6l4.7-10.9
			c1-2.2,4.1-2.2,5,0.1l5,12.6l0,0l12.7-0.5c2.6-0.1,3.8,3.3,1.7,4.9l-8.6,6.4c-1,0.7-1.4,2-0.9,3.2l5.3,13.3c1,2.4-1.7,4.6-3.9,3.3
			l-14-8.4c-0.8-0.5-1.9-0.5-2.8,0l-14.2,8.4c-2.3,1.3-4.9-1-3.8-3.4l5.9-13.3C-63.6,132.6-63.9,131.3-64.8,130.5z"/>
		<line class="st12" x1="-30" y1="134" x2="-17.8" y2="136.7"/>
		<line class="st12" x1="-30" y1="134" x2="-17.9" y2="137"/>
		<line class="st12" x1="-37.3" y1="113.3" x2="-29.6" y2="103.5"/>
		<line class="st12" x1="-20.7" y1="119.8" x2="-13.2" y2="117.6"/>
		<line class="st12" x1="-47.7" y1="98.8" x2="-46.8" y2="91.1"/>
		<line class="st12" x1="-78.2" y1="118.1" x2="-85.4" y2="115.1"/>
		<line class="st12" x1="-72" y1="153.4" x2="-77.3" y2="159.1"/>
		<line class="st12" x1="-28" y1="154.2" x2="-22.6" y2="159.9"/>
		<line class="st12" x1="-61.9" y1="113.4" x2="-69.5" y2="103.5"/>
		<line class="st12" x1="-69.2" y1="133.7" x2="-81.3" y2="136.3"/>
		<line class="st12" x1="-49.6" y1="149.4" x2="-49.7" y2="161.8"/>
		<line class="st12" x1="-14.1" y1="138.5" x2="-11.1" y2="139.4"/>
		<line class="st12" x1="-27.5" y1="100.5" x2="-24.6" y2="97.6"/>
		<line class="st12" x1="-72.9" y1="100.6" x2="-74.5" y2="98.9"/>
		<line class="st12" x1="-86.7" y1="138" x2="-90.7" y2="139.4"/>
		<line class="st12" x1="-50.3" y1="166.9" x2="-50.2" y2="170.4"/>
	</g>
	<g class="st6">
		<path class="st10" d="M656,63.7l-8.2-6.9c-2-1.7-0.7-4.9,1.9-4.7L662,53c1.1,0.1,2.2-0.6,2.7-1.6l4.7-10.9c1-2.2,4.1-2.2,5,0.1
			l5,12.6l0,0l12.7-0.5c2.6-0.1,3.8,3.3,1.7,4.9l-8.6,6.4c-1,0.7-1.4,2-0.9,3.2l5.3,13.3c1,2.4-1.7,4.6-3.9,3.3l-14-8.4
			c-0.8-0.5-1.9-0.5-2.8,0l-14.2,8.4c-2.3,1.3-4.9-1-3.8-3.4l5.9-13.3C657.2,65.7,657,64.4,656,63.7z"/>
		<line class="st12" x1="690.8" y1="67.1" x2="703" y2="69.8"/>
		<line class="st12" x1="690.8" y1="67.1" x2="702.9" y2="70.1"/>
		<line class="st12" x1="683.6" y1="46.4" x2="691.2" y2="36.6"/>
		<line class="st12" x1="700.1" y1="52.9" x2="707.6" y2="50.7"/>
		<line class="st12" x1="673.1" y1="32" x2="674.1" y2="24.2"/>
		<line class="st12" x1="642.6" y1="51.3" x2="635.4" y2="48.2"/>
		<line class="st12" x1="648.8" y1="86.6" x2="643.5" y2="92.2"/>
		<line class="st12" x1="692.8" y1="87.4" x2="698.2" y2="93"/>
		<line class="st12" x1="658.9" y1="46.5" x2="651.3" y2="36.7"/>
		<line class="st12" x1="651.6" y1="66.8" x2="639.5" y2="69.4"/>
		<line class="st12" x1="671.2" y1="82.5" x2="671.1" y2="95"/>
		<line class="st12" x1="706.7" y1="71.6" x2="709.7" y2="72.5"/>
		<line class="st12" x1="693.3" y1="33.6" x2="696.2" y2="30.7"/>
		<line class="st12" x1="647.9" y1="33.7" x2="646.3" y2="32"/>
		<line class="st12" x1="634.2" y1="71.2" x2="630.1" y2="72.5"/>
		<line class="st12" x1="670.6" y1="100" x2="670.6" y2="103.5"/>
	</g>
	<g class="st6">
		<path class="st10" d="M398.1,269.7l-5-4.3c-1.2-1-0.4-3.1,1.2-2.9l7.6,0.6c0.7,0.1,1.4-0.3,1.7-1l2.9-6.7c0.6-1.4,2.5-1.3,3.1,0
			l3.1,7.8l0,0l7.9-0.3c1.6-0.1,2.4,2,1.1,3l-5.3,3.9c-0.6,0.5-0.8,1.3-0.6,2l3.3,8.2c0.6,1.5-1,2.9-2.4,2l-8.7-5.2
			c-0.5-0.3-1.2-0.3-1.7,0l-8.8,5.2c-1.4,0.8-3-0.6-2.4-2.1l3.7-8.2C398.8,271,398.6,270.2,398.1,269.7z"/>
		<line class="st12" x1="419.6" y1="271.8" x2="427.1" y2="273.5"/>
		<line class="st12" x1="419.6" y1="271.8" x2="427" y2="273.7"/>
		<line class="st12" x1="415.1" y1="259.1" x2="419.8" y2="253"/>
		<line class="st12" x1="425.3" y1="263.1" x2="429.9" y2="261.7"/>
		<line class="st12" x1="408.6" y1="250.1" x2="409.2" y2="245.3"/>
		<line class="st12" x1="389.8" y1="262" x2="385.3" y2="260.2"/>
		<line class="st12" x1="393.6" y1="283.8" x2="390.3" y2="287.3"/>
		<line class="st12" x1="420.8" y1="284.3" x2="424.1" y2="287.8"/>
		<line class="st12" x1="399.8" y1="259.1" x2="395.1" y2="253"/>
		<line class="st12" x1="395.3" y1="271.6" x2="387.8" y2="273.3"/>
		<line class="st12" x1="407.4" y1="281.3" x2="407.4" y2="289"/>
		<line class="st12" x1="429.4" y1="274.6" x2="431.2" y2="275.2"/>
		<line class="st12" x1="421.1" y1="251.1" x2="422.9" y2="249.3"/>
		<line class="st12" x1="393.1" y1="251.2" x2="392" y2="250.1"/>
		<line class="st12" x1="384.5" y1="274.3" x2="382" y2="275.2"/>
		<line class="st12" x1="407" y1="292.1" x2="407.1" y2="294.3"/>
	</g>
	<g class="st6">
		<path class="st10" d="M461.4,24.3h-45.2c-7,0-12.7,5.7-12.7,12.7v21.5c0,0.6,0.1,1.2,0.1,1.7v5.5V80l9.2-9.2
			c1.1,0.3,2.2,0.5,3.3,0.5h45.2c7,0,12.7-5.7,12.7-12.7V37C474.1,30,468.4,24.3,461.4,24.3z"/>
		<line class="st9" x1="415.3" y1="36.7" x2="462.2" y2="36.7"/>
		<line class="st9" x1="415.3" y1="45.1" x2="462.2" y2="45.1"/>
		<line class="st9" x1="415.3" y1="53.6" x2="462.2" y2="53.6"/>
		<line class="st9" x1="415.3" y1="62.1" x2="462.2" y2="62.1"/>
		<path class="st10" d="M349,6.7h36.8c5.7,0,10.4,4.9,10.4,10.9v18.5c0,0.5,0,1-0.1,1.5v4.7v12.3l-7.5-7.9c-0.9,0.2-1.8,0.4-2.7,0.4
			H349c-5.7,0-10.4-4.9-10.4-10.9V17.6C338.6,11.6,343.2,6.7,349,6.7z"/>
		<line class="st9" x1="386.5" y1="17.3" x2="348.3" y2="17.3"/>
		<line class="st9" x1="386.5" y1="24.6" x2="348.3" y2="24.6"/>
		<line class="st9" x1="386.5" y1="31.9" x2="348.3" y2="31.9"/>
		<line class="st9" x1="386.5" y1="39.2" x2="348.3" y2="39.2"/>
	</g>
	<g class="st6">
		<path class="st10" d="M300.2,274.7h-27.9c-4.3,0-7.8,3.5-7.8,7.8v13.3c0,0.4,0,0.7,0.1,1.1v3.4v8.9l5.7-5.7
			c0.7,0.2,1.3,0.3,2.1,0.3h27.9c4.3,0,7.8-3.5,7.8-7.8v-13.3C308.1,278.2,304.5,274.7,300.2,274.7z"/>
		<line class="st9" x1="271.8" y1="282.3" x2="300.7" y2="282.3"/>
		<line class="st9" x1="271.8" y1="287.5" x2="300.7" y2="287.5"/>
		<line class="st9" x1="271.8" y1="292.8" x2="300.7" y2="292.8"/>
		<line class="st9" x1="271.8" y1="298" x2="300.7" y2="298"/>
		<path class="st10" d="M230.7,263.8h22.8c3.5,0,6.4,3,6.4,6.7V282c0,0.3,0,0.6-0.1,0.9v2.9v7.6l-4.7-4.9c-0.5,0.2-1.1,0.2-1.7,0.2
			h-22.8c-3.5,0-6.4-3-6.4-6.7v-11.4C224.3,266.8,227.2,263.8,230.7,263.8z"/>
		<line class="st9" x1="253.9" y1="270.4" x2="230.3" y2="270.4"/>
		<line class="st9" x1="253.9" y1="274.9" x2="230.3" y2="274.9"/>
		<line class="st9" x1="253.9" y1="279.4" x2="230.3" y2="279.4"/>
		<line class="st9" x1="253.9" y1="283.9" x2="230.3" y2="283.9"/>
	</g>
	<g class="st6">
		<path class="st10" d="M618.7,293.8h-27.9c-4.3,0-7.8,3.5-7.8,7.8v13.3c0,0.4,0,0.7,0.1,1.1v3.4v8.9l5.7-5.7
			c0.7,0.2,1.3,0.3,2.1,0.3h27.9c4.3,0,7.8-3.5,7.8-7.8v-13.3C626.5,297.3,623,293.8,618.7,293.8z"/>
		<line class="st9" x1="590.2" y1="301.4" x2="619.2" y2="301.4"/>
		<line class="st9" x1="590.2" y1="306.7" x2="619.2" y2="306.7"/>
		<line class="st9" x1="590.2" y1="311.9" x2="619.2" y2="311.9"/>
		<line class="st9" x1="590.2" y1="317.1" x2="619.2" y2="317.1"/>
		<path class="st10" d="M549.2,282.9H572c3.5,0,6.4,3,6.4,6.7V301c0,0.3,0,0.6-0.1,0.9v2.9v7.6l-4.7-4.9c-0.5,0.2-1.1,0.2-1.7,0.2
			h-22.8c-3.5,0-6.4-3-6.4-6.7v-11.4C542.8,285.9,545.7,282.9,549.2,282.9z"/>
		<line class="st9" x1="572.4" y1="289.5" x2="548.8" y2="289.5"/>
		<line class="st9" x1="572.4" y1="294" x2="548.8" y2="294"/>
		<line class="st9" x1="572.4" y1="298.5" x2="548.8" y2="298.5"/>
		<line class="st9" x1="572.4" y1="303" x2="548.8" y2="303"/>
	</g>
	<g class="st6">
		<path class="st10" d="M-143.5,259.8h-27.9c-4.3,0-7.8,3.5-7.8,7.8v13.3c0,0.4,0,0.7,0.1,1.1v3.4v8.9l5.7-5.7
			c0.7,0.2,1.3,0.3,2.1,0.3h27.9c4.3,0,7.8-3.5,7.8-7.8v-13.3C-135.7,263.3-139.2,259.8-143.5,259.8z"/>
		<line class="st9" x1="-172" y1="267.4" x2="-143" y2="267.4"/>
		<line class="st9" x1="-172" y1="272.7" x2="-143" y2="272.7"/>
		<line class="st9" x1="-172" y1="277.9" x2="-143" y2="277.9"/>
		<line class="st9" x1="-172" y1="283.1" x2="-143" y2="283.1"/>
		<path class="st10" d="M-213,248.9h22.8c3.5,0,6.4,3,6.4,6.7V267c0,0.3,0,0.6-0.1,0.9v2.9v7.6l-4.7-4.9c-0.5,0.2-1.1,0.2-1.7,0.2
			H-213c-3.5,0-6.4-3-6.4-6.7v-11.4C-219.4,252-216.5,248.9-213,248.9z"/>
		<line class="st9" x1="-189.8" y1="255.5" x2="-213.4" y2="255.5"/>
		<line class="st9" x1="-189.8" y1="260" x2="-213.4" y2="260"/>
		<line class="st9" x1="-189.8" y1="264.5" x2="-213.4" y2="264.5"/>
		<line class="st9" x1="-189.8" y1="269" x2="-213.4" y2="269"/>
	</g>
	<g class="st6">
		<polygon class="st11" points="223.3,33.8 219.8,30.9 224.6,31.3 226.4,27.3 227.9,31.3 227.9,31.3 232.5,31.1 228.8,33.8 
			230.8,38.7 226,35.8 221.1,38.7 		"/>
		<polygon class="st11" points="240.3,33.8 236.8,30.9 241.6,31.3 243.3,27.3 244.9,31.3 244.9,31.3 249.5,31.1 245.8,33.8 
			247.8,38.7 243,35.8 238.1,38.7 		"/>
		<polygon class="st11" points="257.2,33.8 253.8,30.9 258.6,31.3 260.3,27.3 261.9,31.3 261.9,31.3 266.5,31.1 262.8,33.8 
			264.7,38.7 260,35.8 255.1,38.7 		"/>
		<polygon class="st11" points="274.2,33.8 270.8,30.9 275.6,31.3 277.3,27.3 278.9,31.3 278.9,31.3 283.5,31.1 279.8,33.8 
			281.7,38.7 277,35.8 272,38.7 		"/>
		<polygon class="st11" points="291.2,33.8 287.7,30.9 292.6,31.3 294.3,27.3 295.9,31.3 295.9,31.3 300.5,31.1 296.8,33.8 
			298.7,38.7 293.9,35.8 289,38.7 		"/>
		<path class="st10" d="M291.8,4.4h-63.1c-9.8,0-17.7,6.9-17.7,15.5v26.2c0,0.7,0.1,1.4,0.2,2.1c0,4.1,2.3,7.8,6,9.5l5.9,2.8
			c0.7,0.3,1.3,0.6,2.1,0.7c1.2,0.2,2.3,0.3,3.6,0.3H261c1.5,12.5-2.4,18.6-2.4,18.6c14.9-4.2,17.5-9.5,18-19.1l15.2,0.5
			c9.8,0,17.7-6.9,17.7-15.5V19.9C309.5,11.4,301.6,4.4,291.8,4.4z"/>
	</g>
	<g class="st6">
		<polygon class="st11" points="-132.4,220.6 -135.8,217.7 -131,218.1 -129.3,214.1 -127.7,218.1 -127.7,218.1 -123.1,217.9 
			-126.8,220.7 -124.8,225.5 -129.6,222.6 -134.5,225.6 		"/>
		<polygon class="st11" points="-115.4,220.6 -118.8,217.7 -114,218.1 -112.3,214.1 -110.7,218.1 -110.7,218.1 -106.1,217.9 
			-109.8,220.7 -107.9,225.5 -112.6,222.6 -117.6,225.6 		"/>
		<polygon class="st11" points="-98.4,220.6 -101.8,217.7 -97,218.1 -95.3,214.1 -93.7,218.1 -93.7,218.1 -89.1,217.9 -92.8,220.7 
			-90.9,225.5 -95.7,222.6 -100.6,225.6 		"/>
		<polygon class="st11" points="-81.4,220.6 -84.9,217.7 -80,218.1 -78.3,214.1 -76.7,218.1 -76.7,218.1 -72.1,217.9 -75.8,220.7 
			-73.9,225.5 -78.7,222.6 -83.6,225.6 		"/>
		<polygon class="st11" points="-64.4,220.6 -67.9,217.7 -63.1,218.1 -61.3,214.1 -59.7,218.1 -59.7,218.1 -55.1,217.9 -58.8,220.7 
			-56.9,225.5 -61.7,222.6 -66.6,225.6 		"/>
		<path class="st10" d="M-63.9,191.3H-127c-9.8,0-17.7,6.9-17.7,15.5V233c0,0.7,0.1,1.4,0.2,2.1c0,4.1,2.3,7.8,6,9.5l5.9,2.8
			c0.7,0.3,1.3,0.6,2.1,0.7c1.2,0.2,2.3,0.3,3.6,0.3h32.4c1.5,12.5-2.4,18.6-2.4,18.6c14.9-4.2,17.5-9.5,18-19.1l15.2,0.5
			c9.8,0,17.7-6.9,17.7-15.5v-26.2C-46.1,198.2-54.1,191.3-63.9,191.3z"/>
	</g>
	<g class="st6">
		<polygon class="st11" points="93,278 90.9,276.2 93.8,276.5 94.9,274 95.9,276.5 95.9,276.5 98.7,276.4 96.4,278.1 97.6,281.1 
			94.7,279.3 91.6,281.1 		"/>
		<polygon class="st11" points="103.5,278 101.4,276.2 104.3,276.5 105.4,274 106.4,276.5 106.4,276.5 109.2,276.4 106.9,278.1 
			108.1,281.1 105.2,279.3 102.1,281.1 		"/>
		<polygon class="st11" points="114,278 111.9,276.2 114.8,276.5 115.9,274 116.9,276.5 116.9,276.5 119.7,276.4 117.4,278.1 
			118.6,281.1 115.7,279.3 112.6,281.1 		"/>
		<polygon class="st11" points="124.5,278 122.4,276.2 125.3,276.5 126.4,274 127.4,276.5 127.4,276.5 130.2,276.4 127.9,278.1 
			129.1,281.1 126.2,279.3 123.1,281.1 		"/>
		<polygon class="st11" points="135,278 132.9,276.2 135.8,276.5 136.9,274 137.9,276.5 137.9,276.5 140.7,276.4 138.4,278.1 
			139.6,281.1 136.7,279.3 133.6,281.1 		"/>
		<path class="st10" d="M135.3,259.9h-39c-6.1,0-11,4.3-11,9.6v16.2c0,0.4,0,0.9,0.1,1.3c0,2.5,1.4,4.8,3.7,5.9l3.7,1.8
			c0.4,0.2,0.8,0.4,1.3,0.4c0.7,0.1,1.4,0.2,2.2,0.2h20c0.9,7.7-1.5,11.5-1.5,11.5c9.2-2.6,10.8-5.9,11.2-11.8l9.4,0.3
			c6.1,0,11-4.3,11-9.6v-16.2C146.3,264.2,141.4,259.9,135.3,259.9z"/>
	</g>
</g>
<g class="st0">
	<g class="st1">
		<path class="st25" d="M-113,271.5L-113,271.5c-70.7,0-128-57.3-128-128l0,0c0-70.7,57.3-128,128-128l0,0c70.7,0,128,57.3,128,128
			l0,0C14.9,214.2-42.4,271.5-113,271.5z"/>
	</g>
	<g class="st1">
		<path class="st26" d="M-113,211.8L-113,211.8c23.1,0,43.9-9.9,58.3-25.7c7.2-7.8,7.2-19.9,0-27.7c-14.5-15.8-35.2-25.7-58.3-25.7
			l0,0c-23.1,0-43.9,9.9-58.3,25.7c-7.2,7.8-7.2,19.9,0,27.7C-156.9,201.9-136.1,211.8-113,211.8z"/>
		<path class="st26" d="M-113,142.2L-113,142.2c-16.7,0-30.2-13.5-30.2-30.2l0,0c0-16.7,13.5-30.2,30.2-30.2l0,0
			c16.7,0,30.2,13.5,30.2,30.2l0,0C-82.8,128.7-96.4,142.2-113,142.2z"/>
	</g>
</g>
<g>
	<g>
		<path class="st25" d="M156.5,234.4L156.5,234.4c-41.4,0-75-33.6-75-75l0,0c0-41.4,33.6-75,75-75l0,0c41.4,0,75,33.6,75,75l0,0
			C231.5,200.9,198,234.4,156.5,234.4z"/>
	</g>
	<path class="st26" d="M185.3,127.7h-57.6c-3,0-5.4,2.4-5.4,5.4V185h0.2l-0.1,6.2l6.5-6.2l56.4,0.1c3,0,5.4-2.4,5.4-5.4v-46.5
		C190.7,130.1,188.3,127.7,185.3,127.7z"/>
	<g>
		<g>
			<path class="st25" d="M180.2,134.2c-0.2-0.2-0.4-0.2-0.6,0l-4.1,4.1l0,0l-8.9,8.9l2.3,2.3l8.9-8.9l0,0l4.1-4.1
				c0.2-0.2,0.2-0.4,0-0.6L180.2,134.2z"/>
		</g>
		<g>
			<path class="st25" d="M166.3,150l2.5-0.5l-2.2-2.2l-0.5,2.5C166,149.9,166.1,150,166.3,150z"/>
		</g>
	</g>
	<line class="st27" x1="130.6" y1="155.8" x2="167.1" y2="155.8"/>
	<line class="st27" x1="170" y1="155.8" x2="182.5" y2="155.8"/>
	<line class="st27" x1="130.6" y1="168.3" x2="167.1" y2="168.3"/>
	<line class="st27" x1="170" y1="168.3" x2="182.5" y2="168.3"/>
	<line class="st27" x1="182.6" y1="162.1" x2="146" y2="162.1"/>
	<line class="st27" x1="143.1" y1="162.1" x2="130.7" y2="162.1"/>
	<g>
		<path class="st25" d="M139.8,179.6l-1.9-1c-0.1,0-0.2,0-0.2,0l-1.9,1c-0.2,0.1-0.3-0.1-0.3-0.2l0.3-2.2c0-0.1,0-0.2-0.1-0.2
			l-1.5-1.5c-0.2-0.2-0.1-0.3,0.1-0.4l2.1-0.3c0.1,0,0.2-0.1,0.2-0.2l0.9-1.9c0.1-0.2,0.3-0.2,0.4,0l1,1.9c0,0.1,0.1,0.1,0.2,0.2
			l2.1,0.3c0.2,0,0.2,0.2,0.2,0.4l-1.5,1.5c-0.1,0.1-0.1,0.2-0.1,0.2l0.4,2.2C140.2,179.5,140,179.7,139.8,179.6z"/>
	</g>
	<g>
		<path class="st25" d="M149.2,179.7l-1.9-1c-0.1,0-0.2,0-0.2,0l-1.9,1c-0.2,0.1-0.3-0.1-0.3-0.2l0.3-2.2c0-0.1,0-0.2-0.1-0.2
			l-1.5-1.5c-0.2-0.2-0.1-0.3,0.1-0.4l2.1-0.3c0.1,0,0.2-0.1,0.2-0.2l0.9-1.9c0.1-0.2,0.3-0.2,0.4,0l1,1.9c0,0.1,0.1,0.1,0.2,0.2
			l2.1,0.3c0.2,0,0.2,0.2,0.2,0.4l-1.5,1.5c-0.1,0.1-0.1,0.2-0.1,0.2l0.4,2.2C149.6,179.7,149.4,179.8,149.2,179.7z"/>
	</g>
	<g>
		<path class="st25" d="M158.6,179.9l-1.9-1c-0.1,0-0.2,0-0.2,0l-1.9,1c-0.2,0.1-0.3-0.1-0.3-0.2l0.3-2.2c0-0.1,0-0.2-0.1-0.2
			l-1.5-1.5c-0.2-0.2-0.1-0.3,0.1-0.4l2.1-0.3c0.1,0,0.2-0.1,0.2-0.2l0.9-1.9c0.1-0.2,0.3-0.2,0.4,0l1,1.9c0,0.1,0.1,0.1,0.2,0.2
			l2.1,0.3c0.2,0,0.2,0.2,0.2,0.4l-1.5,1.5c-0.1,0.1-0.1,0.2-0.1,0.2l0.4,2.2C158.9,179.9,158.7,180,158.6,179.9z"/>
	</g>
	<g>
		<path class="st25" d="M168,180.1l-1.9-1c-0.1,0-0.2,0-0.2,0l-1.8,1c-0.2,0.1-0.3-0.1-0.3-0.2l0.3-2.2c0-0.1,0-0.2-0.1-0.2
			l-1.5-1.5c-0.2-0.2-0.1-0.3,0.1-0.4l2.1-0.3c0.1,0,0.2-0.1,0.2-0.2l0.9-1.9c0.1-0.2,0.3-0.2,0.4,0l1,1.9c0,0.1,0.1,0.1,0.2,0.2
			l2.1,0.3c0.2,0,0.2,0.2,0.2,0.4l-1.5,1.5c-0.1,0.1-0.1,0.2-0.1,0.2l0.4,2.2C168.3,180,168.1,180.2,168,180.1z"/>
	</g>
	<g>
		<path class="st25" d="M177.4,180.3l-1.9-1c-0.1,0-0.2,0-0.2,0l-1.9,1c-0.2,0.1-0.3-0.1-0.3-0.2l0.3-2.2c0-0.1,0-0.2-0.1-0.2
			l-1.5-1.5c-0.2-0.2-0.1-0.3,0.1-0.4l2.1-0.3c0.1,0,0.2-0.1,0.2-0.2l0.9-1.9c0.1-0.2,0.3-0.2,0.4,0l1,1.9c0,0.1,0.1,0.1,0.2,0.2
			l2.1,0.3c0.2,0,0.2,0.2,0.2,0.4l-1.5,1.5c-0.1,0.1-0.1,0.2-0.1,0.2l0.4,2.2C177.7,180.2,177.5,180.4,177.4,180.3z"/>
	</g>
</g>
<g class="st0">
	<g class="st1">
		<path class="st25" d="M438.3,294.6L438.3,294.6c-70.4,0-127.5-57.1-127.5-127.5l0,0c0-70.4,57.1-127.5,127.5-127.5l0,0
			c70.4,0,127.5,57.1,127.5,127.5l0,0C565.8,237.5,508.7,294.6,438.3,294.6z"/>
	</g>
	<g class="st1">
		<path class="st26" d="M487.3,129.1h-97.9c-5.1,0-9.2,4.1-9.2,9.2v79.1c0,5.1,4.1,9.2,9.2,9.2h97.9c5.1,0,9.2-4.1,9.2-9.2v-79.1
			C496.4,133.2,492.3,129.1,487.3,129.1z"/>
		<path class="st28" d="M426.8,130.7L426.8,130.7c-6.4,0-11.5-5.1-11.5-11.5l0,0c0-6.4,5.1-11.5,11.5-11.5l0,0
			c6.4,0,11.5,5.1,11.5,11.5l0,0C438.3,125.6,433.2,130.7,426.8,130.7z"/>
		<path class="st28" d="M449.3,130.7L449.3,130.7c-6.4,0-11.5-5.1-11.5-11.5l0,0c0-6.4,5.1-11.5,11.5-11.5l0,0
			c6.4,0,11.5,5.1,11.5,11.5l0,0C460.8,125.6,455.7,130.7,449.3,130.7z"/>
		<g>
			<rect x="380.1" y="195.3" class="st25" width="116.5" height="15"/>
		</g>
		<line class="st29" x1="437.8" y1="128.8" x2="423.2" y2="154.5"/>
		<line class="st29" x1="453.1" y1="154.4" x2="438.2" y2="128.9"/>
	</g>
</g>
<g class="st0">
	<g class="st1">
		<path class="st25" d="M703.1,294.6L703.1,294.6c-70.4,0-127.5-57.1-127.5-127.5l0,0c0-70.4,57.1-127.5,127.5-127.5l0,0
			c70.4,0,127.5,57.1,127.5,127.5l0,0C830.6,237.5,773.5,294.6,703.1,294.6z"/>
	</g>
	<polyline class="st30" points="650.1,194.4 688.6,155.9 714.3,181.7 756.2,139.8 	"/>
</g>
</svg>
