<?xml version="1.0" encoding="utf-8"?>
<!-- Generator: Adobe Illustrator 22.0.0, SVG Export Plug-In . SVG Version: 6.00 Build 0)  -->
<svg version="1.1" id="Layer_1" xmlns="http://www.w3.org/2000/svg" xmlns:xlink="http://www.w3.org/1999/xlink" x="0px" y="0px"
	 viewBox="0 0 362.9 360.9" style="enable-background:new 0 0 362.9 360.9;" xml:space="preserve">
<style type="text/css">
	.st0{display:none;}
	.st1{display:inline;}
	.st2{fill:#081434;}
	
		.st3{display:inline;opacity:0.4;fill:none;stroke:#FCB713;stroke-width:3;stroke-linejoin:round;stroke-miterlimit:10;enable-background:new    ;}
	
		.st4{display:inline;opacity:0.4;fill:none;stroke:#FCB713;stroke-width:3;stroke-linecap:round;stroke-linejoin:round;stroke-miterlimit:10;enable-background:new    ;}
	
		.st5{display:inline;opacity:0.4;fill:none;stroke:#FCB713;stroke-width:2;stroke-linecap:round;stroke-linejoin:round;stroke-miterlimit:10;enable-background:new    ;}
	.st6{display:inline;opacity:0.4;}
	.st7{fill:none;stroke:#FCB713;stroke-width:4;stroke-linecap:round;stroke-linejoin:round;stroke-miterlimit:10;}
	.st8{fill:#FCB713;}
	.st9{fill:none;stroke:#FCB713;stroke-width:2;stroke-linecap:round;stroke-linejoin:round;stroke-miterlimit:10;}
	.st10{fill:none;stroke:#FCB713;stroke-width:3;stroke-linecap:round;stroke-linejoin:round;stroke-miterlimit:10;}
	.st11{fill:#FCB713;stroke:#FCB713;stroke-linecap:round;stroke-linejoin:round;stroke-miterlimit:10;}
	.st12{fill:none;stroke:#FCB713;stroke-linecap:round;stroke-linejoin:round;stroke-miterlimit:10;}
	.st13{fill:none;stroke:#FCB713;stroke-width:2;stroke-miterlimit:10;}
	.st14{fill:#C32126;stroke:#FCB713;stroke-linecap:round;stroke-linejoin:round;stroke-miterlimit:10;}
	.st15{fill:#FCB713;stroke:#FCB713;stroke-width:2;stroke-linecap:round;stroke-linejoin:round;stroke-miterlimit:10;}
	.st16{fill:#FBED21;stroke:#FBED21;stroke-width:2;stroke-linecap:round;stroke-miterlimit:10;}
	.st17{fill:none;stroke:#FBED21;stroke-width:2;stroke-linecap:round;stroke-miterlimit:10;}
	.st18{fill:#FBED21;}
	.st19{font-family:'News701BT-BoldA';}
	.st20{font-size:41.4534px;}
	.st21{fill:none;stroke:#FCB713;stroke-width:1.5;stroke-linecap:round;stroke-linejoin:round;stroke-miterlimit:10;}
	.st22{fill:#FCB713;stroke:#FCB713;stroke-width:3;stroke-linecap:round;stroke-linejoin:round;stroke-miterlimit:10;}
	.st23{fill:none;stroke:#FCB713;stroke-linecap:square;stroke-linejoin:round;stroke-miterlimit:10;stroke-dasharray:5;}
	.st24{font-size:25.2051px;}
	.st25{fill:#001147;}
	.st26{fill:#FFB900;}
	.st27{display:inline;fill:#FFB900;}
	.st28{display:inline;fill:none;stroke:#001147;stroke-width:2;stroke-linecap:round;stroke-miterlimit:10;}
	.st29{fill:none;stroke:#FFB900;stroke-width:12;stroke-miterlimit:10;}
	.st30{fill:none;stroke:#001147;stroke-width:12;stroke-linecap:round;stroke-miterlimit:10;}
	.st31{fill:none;stroke:#FFB900;stroke-width:10;stroke-linecap:round;stroke-linejoin:round;stroke-miterlimit:10;}
</style>
<g id="Layer_1_1_" class="st0">
	<g class="st1">
		<rect x="-813.1" y="0.5" class="st2" width="1000" height="360.9"/>
	</g>
	<polygon class="st3" points="-370.9,161.5 -330.8,133.8 -319.7,149.9 -288.9,128.6 -280.2,141.3 -247.3,118.6 -254.6,108.1 
		-224.3,113.6 -229.6,142.5 -239.2,130.4 -280.9,159.2 -290.5,145.3 -321.8,166.8 -333.4,150 -364.6,171.5 	"/>
	<polygon class="st3" points="-788.7,167 -764,149.9 -757.1,159.8 -738.1,146.7 -732.7,154.5 -712.4,140.5 -716.9,134 -698.1,137.4 
		-701.4,155.3 -707.3,147.8 -733.1,165.6 -739.1,157 -758.4,170.3 -765.6,159.9 -784.9,173.2 	"/>
	<path class="st4" d="M-474,157.2c-3.6,15.3-29,31.1-29,31.1s-29.5-18.2-29.5-34.5c0-1.1,0-3.4,0-3.4c0-11.4,6.8-20.7,15.1-20.7
		c7,0,12.9,6.5,14.6,15.4l0,0c1.6-9,7.6-15.7,14.7-15.7c8.3,0,15.1,9.3,15.1,20.7C-472.9,152.6-473.2,155-474,157.2L-474,157.2z"/>
	<path class="st5" d="M-355.7,38.1c-1.8,7.7-14.5,15.5-14.5,15.5s-14.7-9.1-14.7-17.3c0-0.6,0-1.7,0-1.7c0-5.7,3.4-10.3,7.5-10.3
		c3.5,0,6.5,3.3,7.3,7.7l0,0c0.8-4.5,3.8-7.9,7.3-7.9c4.2,0,7.5,4.6,7.5,10.3C-355.2,35.7-355.3,37-355.7,38.1L-355.7,38.1z"/>
	<path class="st5" d="M-23.4,334.2c-1.8,7.7-14.5,15.5-14.5,15.5s-14.7-9.1-14.7-17.3c0-0.6,0-1.7,0-1.7c0-5.7,3.4-10.3,7.5-10.3
		c3.5,0,6.5,3.3,7.3,7.7l0,0c0.8-4.5,3.8-7.9,7.3-7.9c4.2,0,7.5,4.6,7.5,10.3C-22.9,331.9-23.1,333.1-23.4,334.2L-23.4,334.2z"/>
	<path class="st5" d="M-641.2,332.1c-1.8,7.7-14.5,15.5-14.5,15.5s-14.7-9.1-14.7-17.3c0-0.6,0-1.7,0-1.7c0-5.7,3.4-10.3,7.5-10.3
		c3.5,0,6.5,3.3,7.3,7.7l0,0c0.8-4.5,3.8-7.9,7.3-7.9c4.2,0,7.5,4.6,7.5,10.3C-640.7,329.8-640.9,331-641.2,332.1L-641.2,332.1z"/>
	<g class="st6">
		<circle class="st7" cx="-176.8" cy="133.1" r="27.6"/>
		<g>
			<g>
				<path class="st8" d="M-188.4,129.4c3.9,0,3.9-6,0-6C-192.3,123.4-192.3,129.4-188.4,129.4L-188.4,129.4z"/>
			</g>
		</g>
		<g>
			<g>
				<path class="st8" d="M-166.3,129.4c3.9,0,3.9-6,0-6C-170.2,123.4-170.2,129.4-166.3,129.4L-166.3,129.4z"/>
			</g>
		</g>
		<path class="st9" d="M-189,139.7c0,0,11,14.4,23.2,0"/>
	</g>
	<g class="st6">
		<circle class="st7" cx="-493.2" cy="326.3" r="27.6"/>
		<g>
			<g>
				<path class="st8" d="M-504.8,322.7c3.9,0,3.9-6,0-6C-508.6,316.7-508.6,322.7-504.8,322.7L-504.8,322.7z"/>
			</g>
		</g>
		<g>
			<g>
				<path class="st8" d="M-482.7,322.7c3.9,0,3.9-6,0-6C-486.5,316.7-486.5,322.7-482.7,322.7L-482.7,322.7z"/>
			</g>
		</g>
		<path class="st9" d="M-505.3,332.9c0,0,11,14.4,23.2,0"/>
	</g>
	<g class="st6">
		<circle class="st7" cx="67.3" cy="105.5" r="17.1"/>
		<g>
			<g>
				<path class="st8" d="M60.2,104.4c3.9,0,3.9-6,0-6C56.3,98.4,56.3,104.4,60.2,104.4L60.2,104.4z"/>
			</g>
		</g>
		<g>
			<g>
				<path class="st8" d="M73.8,104.4c3.9,0,3.9-6,0-6C70,98.4,70,104.4,73.8,104.4L73.8,104.4z"/>
			</g>
		</g>
		<path class="st9" d="M59.8,109.6c0,0,6.8,8.9,14.3,0"/>
	</g>
	<g class="st6">
		<circle class="st7" cx="-753.3" cy="106.5" r="17.1"/>
		<g>
			<g>
				<path class="st8" d="M-760.4,105.4c3.9,0,3.9-6,0-6C-764.3,99.4-764.3,105.4-760.4,105.4L-760.4,105.4z"/>
			</g>
		</g>
		<g>
			<g>
				<path class="st8" d="M-746.8,105.4c3.9,0,3.9-6,0-6C-750.6,99.4-750.6,105.4-746.8,105.4L-746.8,105.4z"/>
			</g>
		</g>
		<path class="st9" d="M-760.8,110.6c0,0,6.8,8.9,14.3,0"/>
	</g>
	<g class="st6">
		<path class="st10" d="M-571.7,98.7h-106.2c-4.7,0-8.5-3.8-8.5-8.5V34.8c0-4.7,3.8-8.5,8.5-8.5h106.1c4.7,0,8.5,3.8,8.5,8.5v55.4
			C-563.2,94.9-567,98.7-571.7,98.7z"/>
		<path class="st11" d="M-666,46.8l-1.4-1.2c-0.5-0.5-0.2-1.3,0.5-1.3l2.1,0.2c0.3,0,0.6-0.2,0.7-0.4l0.8-2c0.3-0.6,1.1-0.6,1.3,0
			l1,2.4l0,0l2.3-0.1c0.7,0,1,0.9,0.5,1.3l-1.4,1.1c-0.3,0.2-0.4,0.5-0.2,0.9l1,2.4c0.3,0.6-0.5,1.3-1.1,0.9l-2.6-1.6
			c-0.2-0.1-0.5-0.1-0.7,0l-2.7,1.6c-0.6,0.4-1.3-0.3-1-0.9l1.1-2.4C-665.7,47.3-665.7,47-666,46.8z"/>
		<path class="st11" d="M-646.4,46.9l-2.1-1.8c-0.3-0.3-0.1-0.9,0.3-0.8l3.1,0.2c0.2,0,0.4-0.1,0.5-0.3l1.2-2.7
			c0.2-0.4,0.7-0.4,0.9,0l1.2,3l0,0l3.2-0.1c0.5,0,0.7,0.6,0.3,0.8l-2.3,1.7c-0.2,0.1-0.2,0.4-0.2,0.6l1.3,3.3
			c0.2,0.4-0.3,0.8-0.7,0.6l-3.4-2.1c-0.1-0.1-0.3-0.1-0.5,0l-3.5,2.1c-0.4,0.2-0.9-0.2-0.7-0.6l1.5-3.3
			C-646.2,47.2-646.2,47-646.4,46.9z"/>
		<path class="st11" d="M-627,46.9l-2.1-1.8c-0.4-0.3-0.1-0.9,0.3-0.8l3.1,0.2c0.2,0,0.4-0.1,0.5-0.3l1.2-2.7c0.2-0.4,0.7-0.4,0.9,0
			l1.2,3l0,0l3.2-0.1c0.5,0,0.7,0.6,0.3,0.9l-2.3,1.7c-0.2,0.1-0.2,0.4-0.2,0.6l1.3,3.3c0.2,0.4-0.3,0.8-0.7,0.6l-3.4-2.1
			c-0.1-0.1-0.3-0.1-0.5,0l-3.5,2.1c-0.4,0.2-0.9-0.2-0.7-0.6l1.5-3.3C-626.7,47.2-626.8,47-627,46.9z"/>
		<path class="st12" d="M-607.5,46.9l-2-1.7c-0.4-0.3-0.1-1,0.4-0.9l2.9,0.2c0.2,0,0.4-0.1,0.5-0.3l1.1-2.6c0.2-0.4,0.8-0.4,1,0
			l1.1,2.9l0,0l3-0.1c0.5,0,0.7,0.6,0.3,0.9l-2.1,1.5c-0.2,0.1-0.3,0.4-0.2,0.6l1.2,3.1c0.2,0.5-0.3,0.9-0.8,0.6l-3.3-2
			c-0.2-0.1-0.4-0.1-0.5,0l-3.3,2c-0.4,0.3-1-0.2-0.7-0.7l1.4-3.1C-607.3,47.3-607.4,47-607.5,46.9z"/>
		<path class="st12" d="M-588.1,46.8l-1.9-1.6c-0.4-0.3-0.1-1,0.4-1l2.8,0.2c0.2,0,0.5-0.1,0.5-0.3l1.1-2.5c0.2-0.5,0.8-0.4,1,0
			l1.1,2.8l0,0l2.9-0.1c0.5,0,0.8,0.7,0.4,1l-2,1.5c-0.2,0.1-0.3,0.4-0.2,0.6l1.2,3c0.2,0.5-0.3,1-0.8,0.7l-3.2-1.9
			c-0.2-0.1-0.4-0.1-0.6,0l-3.2,1.9c-0.5,0.3-1-0.2-0.8-0.7l1.3-3C-587.9,47.3-587.9,47-588.1,46.8z"/>
		<line class="st9" x1="-668.7" y1="63.6" x2="-643.2" y2="63.6"/>
		<line class="st9" x1="-638.4" y1="63.6" x2="-577.3" y2="63.6"/>
		<line class="st9" x1="-577.3" y1="71.1" x2="-602.8" y2="71.1"/>
		<line class="st9" x1="-607.5" y1="71.1" x2="-668.7" y2="71.1"/>
		<line class="st9" x1="-668.7" y1="86.8" x2="-635.6" y2="86.8"/>
		<line class="st9" x1="-631.3" y1="86.8" x2="-577.3" y2="86.8"/>
		<line class="st9" x1="-668.7" y1="79" x2="-576.9" y2="79"/>
	</g>
	<g class="st6">
		<path class="st10" d="M93.7,286.5H34.6c-4.7,0-8.5-3.8-8.5-8.5v-27.7c0-4.7,3.8-8.5,8.5-8.5h59.1c4.7,0,8.5,3.8,8.5,8.5V278
			C102.2,282.7,98.4,286.5,93.7,286.5z"/>
		<path class="st11" d="M38.7,254.5l-0.8-0.7c-0.3-0.3-0.1-0.8,0.3-0.8l1.3,0.1c0.2,0,0.4-0.1,0.4-0.3l0.5-1.2
			c0.2-0.4,0.7-0.4,0.8,0l0.6,1.5l0,0l1.4-0.1c0.4,0,0.6,0.5,0.3,0.8l-0.9,0.7c-0.2,0.1-0.2,0.3-0.2,0.5l0.6,1.5
			c0.2,0.4-0.3,0.8-0.7,0.6l-1.6-1c-0.1-0.1-0.3-0.1-0.5,0l-1.6,1c-0.4,0.2-0.8-0.2-0.6-0.6l0.7-1.5
			C38.9,254.8,38.9,254.6,38.7,254.5z"/>
		<path class="st11" d="M50.8,254.5l-1.3-1.1c-0.2-0.2-0.1-0.5,0.2-0.5l1.9,0.1c0.1,0,0.2-0.1,0.3-0.2l0.7-1.7
			c0.1-0.2,0.4-0.2,0.5,0l0.7,1.9l0,0l2-0.1c0.3,0,0.4,0.4,0.2,0.5l-1.4,1c-0.1,0.1-0.1,0.2-0.1,0.3l0.8,2c0.1,0.3-0.2,0.5-0.4,0.4
			l-2.1-1.3c-0.1-0.1-0.2-0.1-0.3,0l-2.2,1.3c-0.2,0.1-0.5-0.1-0.4-0.4l0.9-2.1C50.9,254.8,50.9,254.6,50.8,254.5z"/>
		<path class="st11" d="M62.8,254.5l-1.3-1.1c-0.2-0.2-0.1-0.5,0.2-0.5l1.9,0.1c0.1,0,0.2-0.1,0.3-0.2l0.7-1.7
			c0.1-0.2,0.4-0.2,0.5,0l0.7,1.9l0,0l2-0.1c0.3,0,0.4,0.4,0.2,0.5l-1.4,1c-0.1,0.1-0.1,0.2-0.1,0.3l0.8,2c0.1,0.3-0.2,0.5-0.4,0.4
			l-2-1.1c-0.1-0.1-0.2-0.1-0.3,0l-2.2,1.3c-0.2,0.1-0.5-0.1-0.4-0.4l0.9-2.1C63,254.8,62.9,254.6,62.8,254.5z"/>
		<path class="st12" d="M74.8,254.5l-1.2-1c-0.2-0.2-0.1-0.6,0.2-0.6l1.8,0.1c0.1,0,0.3-0.1,0.3-0.2l0.7-1.6c0.1-0.3,0.5-0.3,0.6,0
			l0.7,1.8l0,0l1.8-0.1c0.3,0,0.5,0.4,0.2,0.6l-1.3,1c-0.1,0.1-0.2,0.2-0.1,0.4l0.8,1.9c0.1,0.3-0.2,0.6-0.5,0.4l-2-1.2
			c-0.1-0.1-0.2-0.1-0.3,0l-2,1.2c-0.3,0.2-0.6-0.1-0.5-0.4l0.9-1.9C75,254.8,74.9,254.6,74.8,254.5z"/>
		<path class="st12" d="M86.8,254.5l-1.2-1c-0.3-0.2-0.1-0.6,0.2-0.6l1.7,0.1c0.1,0,0.3-0.1,0.3-0.2l0.7-1.5c0.1-0.3,0.5-0.3,0.6,0
			l0.7,1.7l0,0l1.8-0.1c0.3,0,0.5,0.4,0.2,0.6l-1.2,0.9c-0.1,0.1-0.2,0.3-0.1,0.4l0.7,1.9c0.1,0.3-0.2,0.6-0.5,0.4l-2-1.2
			c-0.1-0.1-0.2-0.1-0.4,0l-2,1.2c-0.3,0.2-0.6-0.1-0.5-0.4l0.8-1.9C87,254.8,86.9,254.6,86.8,254.5z"/>
		<line class="st9" x1="37" y1="264.8" x2="52.8" y2="264.8"/>
		<line class="st9" x1="55.7" y1="264.8" x2="93.5" y2="264.8"/>
		<line class="st9" x1="93.5" y1="269.5" x2="77.8" y2="269.5"/>
		<line class="st9" x1="74.8" y1="269.5" x2="37" y2="269.5"/>
		<line class="st9" x1="37" y1="279.2" x2="57.5" y2="279.2"/>
		<line class="st9" x1="60.2" y1="279.2" x2="93.5" y2="279.2"/>
		<line class="st9" x1="37" y1="274.4" x2="93.8" y2="274.4"/>
	</g>
	<g class="st6">
		<polygon class="st7" points="-527,26.9 -477.4,26.9 -477.4,105 -502.2,80.2 -527,106.5 		"/>
		<polygon class="st11" points="-506.3,55.9 -511.2,51.7 -504.4,52.3 -501.9,46.6 -499.7,52.3 -499.7,52.3 -493.2,52 -498.4,55.9 
			-495.7,62.8 -502.4,58.7 -509.4,62.8 		"/>
		<circle class="st13" cx="-502.2" cy="54.7" r="16.5"/>
	</g>
	<g class="st6">
		<polygon class="st7" points="4.8,113.2 35.4,113.2 35.4,161.5 20.1,146.2 4.8,162.5 		"/>
		<polygon class="st11" points="17.6,131.1 14.5,128.6 18.8,128.9 20.3,125.4 21.6,128.9 21.6,128.9 25.7,128.8 22.4,131.2 
			24.1,135.4 19.9,132.9 15.6,135.4 		"/>
		<circle class="st13" cx="20.1" cy="130.4" r="10.2"/>
	</g>
	<g class="st6">
		<polygon class="st7" points="-200.1,293.7 -169.5,293.7 -169.5,342 -184.8,326.7 -200.1,342.9 		"/>
		<polygon class="st11" points="-187.3,311.6 -190.4,309.1 -186.1,309.4 -184.6,305.9 -183.2,309.4 -183.2,309.4 -179.2,309.2 
			-182.5,311.6 -180.8,315.9 -184.9,313.4 -189.2,315.9 		"/>
		<circle class="st13" cx="-184.8" cy="310.9" r="10.2"/>
	</g>
	<g class="st6">
		<polygon class="st7" points="-778.7,310 -756.4,310 -756.4,345.1 -767.6,334 -778.7,345.8 		"/>
		<polygon class="st14" points="-769.4,323 -771.6,321.1 -768.6,321.4 -767.5,318.8 -766.5,321.4 -766.5,321.4 -763.5,321.3 
			-765.9,323 -764.7,326.1 -767.7,324.3 -770.8,326.1 		"/>
		<circle class="st13" cx="-767.6" cy="322.5" r="7.4"/>
	</g>
	<g class="st6">
		<rect x="-46.8" y="84.8" class="st10" width="34" height="34"/>
		<polyline class="st9" points="-40.4,99.6 -29.8,110.2 -2.7,83.2 		"/>
	</g>
	<g class="st6">
		<rect x="-562.8" y="240.6" class="st10" width="21" height="21"/>
		<polyline class="st9" points="-558.8,249.8 -552.3,256.4 -535.6,239.7 		"/>
	</g>
	<g class="st6">
		<rect x="-106.3" y="324.5" class="st10" width="21" height="21"/>
		<polyline class="st9" points="-102.4,333.7 -95.8,340.2 -79.1,323.5 		"/>
	</g>
	<g class="st6">
		<rect x="-381.8" y="87.1" class="st10" width="8.1" height="28.5"/>
		<path class="st10" d="M-369.6,87.1v28.5h5.4l4.7,4.7h22.4l14.6-14.6V87.1h-26.8c0,0,5.6-18.6-6.8-20.3c-9.5-1.4,4.1,10.9-4.1,20.3
			C-360.2,87.1-369.6,87.1-369.6,87.1z"/>
		<line class="st9" x1="-322.4" y1="94.7" x2="-343.8" y2="94.7"/>
		<line class="st9" x1="-322.4" y1="104.1" x2="-343.8" y2="104.1"/>
		<line class="st9" x1="-329" y1="112.3" x2="-343.8" y2="112.3"/>
	</g>
	<g class="st6">
		<rect x="116.1" y="273.9" class="st10" width="8.1" height="28.5"/>
		<path class="st10" d="M128.3,273.9v28.5h5.4l4.7,4.7h22.5l14.6-14.6v-18.7h-26.8c0,0,5.6-18.6-6.8-20.3
			c-9.5-1.4,4.1,10.9-4.1,20.3h-9.5V273.9z"/>
		<line class="st9" x1="175.4" y1="281.6" x2="154.1" y2="281.6"/>
		<line class="st9" x1="175.4" y1="290.9" x2="154.1" y2="290.9"/>
		<line class="st9" x1="168.9" y1="299.1" x2="154.1" y2="299.1"/>
	</g>
	<g class="st6">
		<rect x="-532.9" y="264.7" class="st10" width="5" height="17.6"/>
		<path class="st10" d="M-525.3,264.7v17.6h3.4l2.9,2.9h13.8l9-9v-11.5h-16.6c0,0,3.5-11.5-4.2-12.6c-5.9-0.8,2.5,6.7-2.5,12.6
			H-525.3z"/>
		<line class="st9" x1="-496.2" y1="269.4" x2="-509.4" y2="269.4"/>
		<line class="st9" x1="-496.2" y1="275.2" x2="-509.4" y2="275.2"/>
		<line class="st9" x1="-500.2" y1="280.3" x2="-509.4" y2="280.3"/>
	</g>
	<g class="st6">
		<rect x="-55.2" y="20.5" class="st10" width="5" height="17.6"/>
		<path class="st10" d="M-47.6,20.5v17.6h3.4l2.9,2.9h13.8l9-9V20.5h-16.6c0,0,3.5-11.5-4.2-12.6c-5.9-0.8,2.5,6.7-2.5,12.6H-47.6z"
			/>
		<line class="st9" x1="-18.5" y1="25.3" x2="-31.7" y2="25.3"/>
		<line class="st9" x1="-18.5" y1="31" x2="-31.7" y2="31"/>
		<line class="st9" x1="-22.5" y1="36.1" x2="-31.7" y2="36.1"/>
	</g>
	<g class="st6">
		<rect x="-68.7" y="224.3" class="st10" width="10.9" height="85"/>
		<rect x="-19" y="224.3" class="st10" width="10.9" height="85"/>
		<rect x="-79.7" y="220.1" class="st15" width="85" height="14.3"/>
		<rect x="-79.7" y="244.9" class="st15" width="85" height="14.3"/>
		<rect x="-79.7" y="269.8" class="st15" width="85" height="14.3"/>
		<circle class="st16" cx="-52.8" cy="226.9" r="3.4"/>
		<circle class="st16" cx="-52.8" cy="252.1" r="3.4"/>
		<circle class="st16" cx="-52.8" cy="277.3" r="3.4"/>
		<line class="st17" x1="-44.4" y1="226.9" x2="-20.8" y2="226.9"/>
		<line class="st17" x1="-44.4" y1="252.1" x2="-20.8" y2="252.1"/>
		<line class="st17" x1="-44.4" y1="276.5" x2="-20.8" y2="276.5"/>
	</g>
	<g class="st6">
		<rect x="-682.1" y="136.7" class="st10" width="6.8" height="52.5"/>
		<rect x="-651.4" y="136.8" class="st10" width="6.8" height="52.5"/>
		<rect x="-688.7" y="134.2" class="st15" width="52.5" height="8.8"/>
		<rect x="-688.7" y="149.5" class="st15" width="52.5" height="8.8"/>
		<rect x="-688.7" y="164.9" class="st15" width="52.5" height="8.8"/>
		<circle class="st16" cx="-672.1" cy="138.3" r="2.1"/>
		<circle class="st16" cx="-672.1" cy="153.9" r="2.1"/>
		<circle class="st16" cx="-672.1" cy="169.5" r="2.1"/>
		<line class="st17" x1="-666.9" y1="138.3" x2="-652.3" y2="138.3"/>
		<line class="st17" x1="-666.9" y1="153.9" x2="-652.3" y2="153.9"/>
		<line class="st17" x1="-666.9" y1="169" x2="-652.3" y2="169"/>
	</g>
	<g class="st6">
		<path class="st8" d="M-56.4,161.6c4.3-4.5,6.9-10.8,6.9-17.9c0-13.5-9.7-24.4-21.8-24.4c-12,0-21.8,10.9-21.8,24.4
			c0,7.1,2.7,13.4,6.9,17.9c-17.6,4.8-30.3,17.8-30.3,33.1h90.4C-26.1,179.3-38.7,166.3-56.4,161.6z"/>
		<path class="st9" d="M-22.8,158c2.5-2.6,4.1-6.4,4.1-10.6c0-8-5.8-14.5-12.9-14.5c-7.1,0-12.9,6.5-12.9,14.5
			c0,4.2,1.6,7.9,4.1,10.6c-10.4,2.8-17.9,10.5-17.9,19.6h53.4C-4.8,168.5-12.3,160.8-22.8,158z"/>
		<path class="st9" d="M-101.5,156.5c2.7-2.8,4.4-6.8,4.4-11.3c0-8.5-6.1-15.4-13.7-15.4c-7.6,0-13.7,6.9-13.7,15.4
			c0,4.4,1.7,8.4,4.4,11.3c-11.1,3-19.1,11.2-19.1,20.8h56.8C-82.4,167.7-90.4,159.5-101.5,156.5z"/>
	</g>
	<g class="st6">
		<path class="st8" d="M-571.9,320.1c2.6-2.8,4.3-6.7,4.3-11c0-8.3-6-15.1-13.5-15.1c-7.4,0-13.5,6.8-13.5,15.1
			c0,4.4,1.7,8.3,4.3,11c-10.9,2.9-18.7,11-18.7,20.4h55.8C-553.2,331.1-561,323-571.9,320.1z"/>
		<path class="st9" d="M-551.1,317.9c1.6-1.6,2.5-4,2.5-6.5c0-4.9-3.6-8.9-8-8.9c-4.4,0-8,4-8,8.9c0,2.6,1,4.9,2.5,6.5
			c-6.5,1.7-11.1,6.5-11.1,12.1h33C-540.1,324.4-544.7,319.6-551.1,317.9z"/>
		<path class="st9" d="M-599.8,317c1.7-1.7,2.7-4.2,2.7-7c0-5.2-3.8-9.5-8.5-9.5s-8.5,4.3-8.5,9.5c0,2.7,1,5.2,2.7,7
			c-6.9,1.9-11.8,6.9-11.8,12.9h35.1C-588,323.9-592.9,318.8-599.8,317z"/>
	</g>
	<g class="st6">
		<path class="st8" d="M-737.5,49.4c2.6-2.8,4.3-6.7,4.3-11c0-8.3-6-15.1-13.5-15.1s-13.4,6.7-13.4,15.1c0,4.4,1.7,8.3,4.3,11
			c-10.9,2.9-18.7,11-18.7,20.4h55.8C-718.8,60.4-726.6,52.3-737.5,49.4z"/>
		<path class="st9" d="M-716.8,47.2c1.6-1.6,2.5-4,2.5-6.5c0-4.9-3.6-8.9-8-8.9s-8,4-8,8.9c0,2.6,1,4.9,2.5,6.5
			c-6.5,1.7-11.1,6.5-11.1,12.1h33C-705.7,53.7-710.3,48.9-716.8,47.2z"/>
		<path class="st9" d="M-765.4,46.3c1.7-1.7,2.7-4.2,2.7-7c0-5.2-3.8-9.5-8.5-9.5c-4.7,0-8.5,4.3-8.5,9.5c0,2.7,1,5.2,2.7,7
			c-6.9,1.9-11.8,6.9-11.8,12.9h35.1C-753.6,53.2-758.5,48.1-765.4,46.3z"/>
	</g>
	<g class="st6">
		<path class="st15" d="M-412.7,50.8h-23.7l-9.9,37.1l21.4-9.6l22.1,10.9L-412.7,50.8z M-425.3,75.2l-14,6.6l5.7-25h17.1l6.1,26.3
			L-425.3,75.2z"/>
		<path class="st12" d="M-441.1,62.3c-0.6-1-1.7-1.6-3-1.3l0,0c-3.1,0.8-4.8-3.6-1.8-5l0,0c2.3-1.1,1.9-4.4-0.6-5l0,0
			c-3.2-0.7-2.5-5.4,0.7-5.3l0,0c2.5,0.1,3.8-3,1.8-4.7l0,0c-2.5-2.1,0.2-6,3.1-4.3l0,0c2.2,1.3,4.7-0.9,3.8-3.3l0,0
			c-1.2-3,3-5.2,4.7-2.4l0,0c1.3,2.1,4.6,1.4,4.9-1.2l0,0c0.3-3.2,5-3.2,5.3,0.1l0,0c0.2,2.5,3.5,3.4,4.9,1.3l0,0
			c1.8-2.7,5.9-0.5,4.7,2.5l0,0c-1,2.3,1.5,4.6,3.7,3.4l0,0c2.8-1.6,5.5,2.3,3,4.4l0,0c-2,1.6-0.8,4.8,1.7,4.7l0,0
			c3.2-0.1,3.8,4.6,0.6,5.3l0,0c-2.5,0.5-2.9,3.9-0.7,5l0,0c2.9,1.4,1.2,5.8-1.9,4.9l0,0c-0.7-0.2-1.3-0.1-1.9,0.1"/>
		<circle class="st11" cx="-425.5" cy="50.8" r="15.8"/>
		<text transform="matrix(1 0 0 1 -431.6062 58.3842)" class="st18 st19" style="font-size:24.3945px;">1</text>
	</g>
	<g class="st6">
		<path class="st15" d="M124.3,167.5H80.6l-18.2,63.1l39.5-16.3l40.8,18.6L124.3,167.5z M101.1,209l-25.8,11.2l10.5-42.5h31.6
			l11.3,44.7L101.1,209z"/>
		<path class="st12" d="M71.9,187.1c-1-1.7-3.1-2.8-5.6-2.2l0,0c-5.8,1.4-8.8-6.1-3.4-8.5l0,0c4.2-1.8,3.5-7.6-1-8.5l0,0
			c-5.8-1.2-4.7-9.2,1.3-8.9l0,0c4.7,0.2,6.9-5.2,3.4-8l0,0c-4.6-3.6,0.5-10.1,5.6-7.4l0,0c4,2.2,8.7-1.6,7-5.6l0,0
			c-2.2-5.1,5.5-8.8,8.7-4.1l0,0c2.5,3.6,8.6,2.3,9-2l0,0c0.6-5.5,9.3-5.4,9.8,0.1l0,0c0.4,4.3,6.4,5.7,9,2.1l0,0
			c3.3-4.6,10.9-0.8,8.6,4.3l0,0c-1.8,4,2.8,7.8,6.9,5.7l0,0c5.2-2.7,10.1,4,5.5,7.5l0,0c-3.6,2.7-1.5,8.1,3.2,8l0,0
			c6-0.1,6.9,7.9,1.1,8.9l0,0c-4.6,0.9-5.4,6.6-1.2,8.5l0,0c5.3,2.5,2.2,9.9-3.6,8.4l0,0c-1.3-0.3-2.5-0.2-3.5,0.2"/>
		<ellipse class="st11" cx="100.8" cy="167.5" rx="29.1" ry="26.8"/>
		<text transform="matrix(1.0844 0 0 1 89.3962 180.4762)" class="st18 st19 st20">1</text>
	</g>
	<g class="st6">
		<ellipse class="st9" cx="-127.1" cy="221.9" rx="26.2" ry="6.1"/>
		<path class="st9" d="M-153.3,221.4c0,0-1.1,32.3,14.5,35.7c0,0,9.2,3.1,23.6,0.4c1.4-0.3,2.7-0.9,3.7-1.9
			c3.5-3.6,11.5-13.9,10.6-33"/>
		<path class="st9" d="M-100.9,228.2c0,0,1.1-5.7,4.5-4.5c0,0,4.5,0,3.3,8.9c-1.1,8.9-6.7,10-6.7,10s-3.4-0.8-5.6,4.1"/>
		<path class="st12" d="M-148.3,234.2c0,0,2.2,20.1,14.5,18.9"/>
		<ellipse class="st8" cx="-127.7" cy="223.6" rx="22.8" ry="3.9"/>
		<path class="st21" d="M-138.3,204.1c0,0-3,3,0,6.7s0,6.7,0,6.7"/>
		<path class="st21" d="M-118.2,204.1c0,0-3,3,0,6.7s0,6.7,0,6.7"/>
		<path class="st21" d="M-129.3,198.5c0,0-3,3,0,6.7c3,3.7,0,6.7,0,6.7"/>
	</g>
	<g class="st6">
		<ellipse class="st9" cx="-544.9" cy="204.3" rx="16.2" ry="3.8"/>
		<path class="st9" d="M-561.1,203.9c0,0-0.7,20,9,22c0,0,5.7,1.9,14.6,0.2c0.9-0.2,1.7-0.6,2.3-1.2c2.2-2.2,7.1-8.6,6.5-20.4"/>
		<path class="st9" d="M-528.7,208.1c0,0,0.7-3.5,2.8-2.8c0,0,2.8,0,2.1,5.5c-0.7,5.5-4.1,6.2-4.1,6.2s-2.1-0.5-3.5,2.5"/>
		<path class="st12" d="M-558,211.9c0,0,1.4,12.4,9,11.7"/>
		<ellipse class="st8" cx="-545.3" cy="205.3" rx="14.1" ry="2.4"/>
		<path class="st21" d="M-551.8,193.3c0,0-1.8,1.8,0,4.1s0,4.1,0,4.1"/>
		<path class="st21" d="M-539.4,193.3c0,0-1.8,1.8,0,4.1s0,4.1,0,4.1"/>
		<path class="st21" d="M-546.3,189.8c0,0-1.8,1.8,0,4.1s0,4.1,0,4.1"/>
	</g>
	<g class="st6">
		<g>
			<circle class="st9" cx="-478.4" cy="220.4" r="15.3"/>
			<polygon class="st11" points="-482.3,220.9 -486.9,217 -480.5,217.5 -478.2,212.1 -476.1,217.5 -476.1,217.5 -470,217.2 
				-474.9,220.9 -472.3,227.4 -478.7,223.5 -485.2,227.4 			"/>
		</g>
		<path class="st10" d="M-485.1,255.8c0,0,6.8,13.9,13.3,0l15.7-24.8l0,0c1.7-3.6,2.6-7.8,2.3-12.1c-0.8-12.3-10.9-22.4-23.3-23.1
			c-14.2-0.8-26,10.6-26,24.6c0,4.7,1.3,9.1,3.6,12.9l-0.1,0.1L-485.1,255.8L-485.1,255.8z"/>
	</g>
	<g class="st6">
		<g>
			<circle class="st9" cx="25.8" cy="200.2" r="9.4"/>
			<polygon class="st11" points="23.4,200.6 20.6,198.2 24.5,198.5 26,195.2 27.3,198.5 27.3,198.5 31.1,198.3 28,200.6 29.6,204.6 
				25.7,202.2 21.6,204.6 			"/>
		</g>
		<path class="st10" d="M21.7,222.1c0,0,4.2,8.6,8.2,0l9.7-15.4l0,0c1.1-2.3,1.6-4.8,1.4-7.5c-0.5-7.6-6.7-13.8-14.4-14.3
			c-8.8-0.5-16.1,6.5-16.1,15.2c0,2.9,0.8,5.6,2.2,7.9h-0.1L21.7,222.1L21.7,222.1z"/>
	</g>
	<g class="st6">
		<rect x="-436.7" y="184.2" class="st22" width="25.1" height="83.6"/>
		<path class="st22" d="M-183,267.8h25.1l-35.8-83.6h-4.8h-20.3h-4.8l-29.9,83.6h25.1l6.8-19.1h30.4L-183,267.8z M-216.4,234.4
			l8.7-24.3l10.4,24.3H-216.4z"/>
		<polygon class="st22" points="-258.2,205.7 -258.2,184.2 -301.3,184.2 -326.3,184.2 -326.3,205.7 -326.3,215.3 -326.3,236.8 
			-326.3,246.3 -326.3,267.8 -301.3,267.8 -258.2,267.8 -258.2,246.3 -301.3,246.3 -301.3,235.6 -275,235.6 -275,217.6 
			-301.3,217.6 -301.3,205.7 		"/>
		<path class="st22" d="M-377.7,184.2h-23.9v83.6h23.9c24.4,0,44.2-18.7,44.2-41.8S-353.3,184.2-377.7,184.2z M-377.7,250.2h-1.2
			v-48.3h1.2c14.1,0,25.6,10.8,25.6,24.2C-352.2,239.4-363.6,250.2-377.7,250.2z"/>
		<g>
			<line class="st9" x1="-435.1" y1="177.2" x2="-413.6" y2="177.2"/>
			<line class="st9" x1="-437.2" y1="173.2" x2="-411.5" y2="173.2"/>
			<path class="st9" d="M-408.9,151.8c0,0-9,7.7-6.3,17.4H-434h-0.7c2.7-9.6-6.1-18.8-6.1-18.8c-1.8-2.9-2.9-6.4-2.9-10.1
				c0-10.7,8.6-19.3,19.3-19.3c10.7,0,19.3,8.6,19.3,19.3C-405,144.6-406.5,148.6-408.9,151.8L-408.9,151.8z"/>
			<path class="st9" d="M-428.1,162.8l-4.8-19.8c0,0,2.7-8,8,0c0,0,3.2-9.2,8,0l-4.8,19.8"/>
			<path class="st9" d="M-424.9,127.4c0,0-12.9,0-12.9,16.1"/>
			<line class="st9" x1="-425.3" y1="94" x2="-425.3" y2="107.6"/>
			<line class="st9" x1="-398.9" y1="104.3" x2="-407.6" y2="114.8"/>
			<line class="st9" x1="-384.7" y1="134.6" x2="-398.2" y2="135.4"/>
			<line class="st9" x1="-455.5" y1="105.7" x2="-445.8" y2="115.2"/>
			<line class="st9" x1="-468.3" y1="135.9" x2="-454.7" y2="135.5"/>
			<line class="st9" x1="-454.7" y1="146" x2="-461.5" y2="148.3"/>
			<line class="st9" x1="-454" y1="125.2" x2="-460.7" y2="122.7"/>
			<line class="st9" x1="-437" y1="108.1" x2="-439.8" y2="101.5"/>
			<line class="st9" x1="-413.9" y1="108" x2="-411.3" y2="101.3"/>
			<line class="st9" x1="-397.5" y1="123.3" x2="-391.1" y2="120.1"/>
			<line class="st9" x1="-396.2" y1="146.9" x2="-389.5" y2="149.2"/>
		</g>
	</g>
	<g class="st6">
		<polygon class="st10" points="-4.9,14.2 95,14.2 95,75.7 -4.9,75.7 1.7,68.5 -2.9,66.5 1.7,59.9 -4.9,51.3 0.4,47.9 -4.9,39.3 
			0.4,33.4 -4.9,26.1 -0.3,22.1 		"/>
		<line class="st23" x1="9.6" y1="17.8" x2="9.6" y2="73.1"/>
		<line class="st9" x1="16.3" y1="57.2" x2="85.1" y2="57.2"/>
		<line class="st9" x1="16.3" y1="64.5" x2="85.1" y2="64.5"/>
		<text transform="matrix(1 0 0 1 26.1628 45.3812)" class="st8 st19 st24">20%</text>
	</g>
	<g class="st6">
		<polygon class="st10" points="-799,192.5 -699,192.5 -699,254.1 -799,254.1 -792.4,246.8 -797,244.8 -792.4,238.2 -799,229.6 
			-793.7,226.3 -799,217.7 -793.7,211.7 -799,204.4 -794.4,200.5 		"/>
		<line class="st23" x1="-784.4" y1="196.2" x2="-784.4" y2="251.4"/>
		<line class="st9" x1="-777.8" y1="235.6" x2="-709" y2="235.6"/>
		<line class="st9" x1="-777.8" y1="242.8" x2="-709" y2="242.8"/>
		<text transform="matrix(1 0 0 1 -767.8926 223.726)" class="st8 st19 st24">20%</text>
	</g>
	<g class="st6">
		<polygon class="st10" points="-378.6,312.6 -316.8,312.6 -316.8,350.6 -378.6,350.6 -374.5,346.1 -377.4,344.9 -374.5,340.8 
			-378.6,335.5 -375.4,333.4 -378.6,328.1 -375.4,324.4 -378.6,319.9 -375.8,317.5 		"/>
		<line class="st23" x1="-369.6" y1="314.8" x2="-369.6" y2="349"/>
		<line class="st9" x1="-365.5" y1="339.2" x2="-323" y2="339.2"/>
		<line class="st9" x1="-365.5" y1="343.7" x2="-323" y2="343.7"/>
		<text transform="matrix(1 0 0 1 -359.3977 331.8461)" class="st8 st19" style="font-size:15.5779px;">20%</text>
	</g>
	<g class="st6">
		<path class="st10" d="M-598.9,151.5l-8.2-6.9c-2-1.7-0.7-4.9,1.9-4.7l12.2,0.9c1.1,0.1,2.2-0.6,2.7-1.6l4.7-10.9
			c1-2.2,4.1-2.2,5,0.1l5,12.6l0,0l12.7-0.5c2.6-0.1,3.8,3.3,1.7,4.9l-8.6,6.4c-1,0.7-1.4,2-0.9,3.2l5.3,13.3c1,2.4-1.7,4.6-3.9,3.3
			l-14-8.4c-0.8-0.5-1.9-0.5-2.8,0l-14.2,8.4c-2.3,1.3-4.9-1-3.8-3.4l5.9-13.3C-597.7,153.6-598,152.3-598.9,151.5z"/>
		<line class="st12" x1="-564.1" y1="155" x2="-551.9" y2="157.7"/>
		<line class="st12" x1="-564.1" y1="155" x2="-552" y2="158"/>
		<line class="st12" x1="-571.4" y1="134.3" x2="-563.7" y2="124.5"/>
		<line class="st12" x1="-554.8" y1="140.8" x2="-547.3" y2="138.6"/>
		<line class="st12" x1="-581.8" y1="119.8" x2="-580.9" y2="112.1"/>
		<line class="st12" x1="-612.3" y1="139.1" x2="-619.5" y2="136.1"/>
		<line class="st12" x1="-606.1" y1="174.4" x2="-611.4" y2="180.1"/>
		<line class="st12" x1="-562.1" y1="175.2" x2="-556.7" y2="180.9"/>
		<line class="st12" x1="-596" y1="134.4" x2="-603.6" y2="124.5"/>
		<line class="st12" x1="-603.3" y1="154.7" x2="-615.4" y2="157.3"/>
		<line class="st12" x1="-583.7" y1="170.4" x2="-583.8" y2="182.8"/>
		<line class="st12" x1="-548.2" y1="159.5" x2="-545.2" y2="160.4"/>
		<line class="st12" x1="-561.6" y1="121.5" x2="-558.7" y2="118.6"/>
		<line class="st12" x1="-607" y1="121.6" x2="-608.6" y2="119.9"/>
		<line class="st12" x1="-620.8" y1="159" x2="-624.8" y2="160.4"/>
		<line class="st12" x1="-584.4" y1="187.9" x2="-584.3" y2="191.4"/>
	</g>
	<g class="st6">
		<path class="st10" d="M121.9,84.7l-8.2-6.9c-2-1.7-0.7-4.9,1.9-4.7l12.3,0.9c1.1,0.1,2.2-0.6,2.7-1.6l4.7-10.9
			c1-2.2,4.1-2.2,5,0.1l5,12.6l0,0l12.7-0.5c2.6-0.1,3.8,3.3,1.7,4.9l-8.6,6.4c-1,0.7-1.4,2-0.9,3.2l5.3,13.3c1,2.4-1.7,4.6-3.9,3.3
			l-14-8.4c-0.8-0.5-1.9-0.5-2.8,0l-14.2,8.4c-2.3,1.3-4.9-1-3.8-3.4l5.9-13.3C123.1,86.7,122.9,85.4,121.9,84.7z"/>
		<line class="st12" x1="156.7" y1="88.1" x2="168.9" y2="90.8"/>
		<line class="st12" x1="156.7" y1="88.1" x2="168.8" y2="91.1"/>
		<line class="st12" x1="149.5" y1="67.4" x2="157.1" y2="57.6"/>
		<line class="st12" x1="166" y1="73.9" x2="173.5" y2="71.7"/>
		<line class="st12" x1="139" y1="53" x2="140" y2="45.2"/>
		<line class="st12" x1="108.5" y1="72.3" x2="101.3" y2="69.2"/>
		<line class="st12" x1="114.7" y1="107.6" x2="109.4" y2="113.2"/>
		<line class="st12" x1="158.7" y1="108.4" x2="164.1" y2="114"/>
		<line class="st12" x1="124.8" y1="67.5" x2="117.2" y2="57.7"/>
		<line class="st12" x1="117.5" y1="87.8" x2="105.4" y2="90.4"/>
		<line class="st12" x1="137.1" y1="103.5" x2="137" y2="116"/>
		<line class="st12" x1="172.6" y1="92.6" x2="175.6" y2="93.5"/>
		<line class="st12" x1="159.2" y1="54.6" x2="162.1" y2="51.7"/>
		<line class="st12" x1="113.8" y1="54.7" x2="112.2" y2="53"/>
		<line class="st12" x1="100.1" y1="92.2" x2="96" y2="93.5"/>
		<line class="st12" x1="136.5" y1="121" x2="136.5" y2="124.5"/>
	</g>
	<g class="st6">
		<path class="st10" d="M-136,290.7l-5-4.3c-1.2-1-0.4-3.1,1.2-2.9l7.6,0.6c0.7,0.1,1.4-0.3,1.7-1l2.9-6.7c0.6-1.4,2.5-1.3,3.1,0
			l3.1,7.8l0,0l7.9-0.3c1.6-0.1,2.4,2,1.1,3l-5.3,3.9c-0.6,0.5-0.8,1.3-0.6,2l3.3,8.2c0.6,1.5-1,2.9-2.4,2l-8.7-5.2
			c-0.5-0.3-1.2-0.3-1.7,0l-8.8,5.2c-1.4,0.8-3-0.6-2.4-2.1l3.7-8.2C-135.3,292-135.5,291.2-136,290.7z"/>
		<line class="st12" x1="-114.5" y1="292.8" x2="-107" y2="294.5"/>
		<line class="st12" x1="-114.5" y1="292.8" x2="-107.1" y2="294.7"/>
		<line class="st12" x1="-119" y1="280.1" x2="-114.3" y2="274"/>
		<line class="st12" x1="-108.8" y1="284.1" x2="-104.2" y2="282.7"/>
		<line class="st12" x1="-125.5" y1="271.1" x2="-124.9" y2="266.3"/>
		<line class="st12" x1="-144.3" y1="283" x2="-148.8" y2="281.2"/>
		<line class="st12" x1="-140.5" y1="304.8" x2="-143.8" y2="308.3"/>
		<line class="st12" x1="-113.3" y1="305.3" x2="-110" y2="308.8"/>
		<line class="st12" x1="-134.3" y1="280.1" x2="-139" y2="274"/>
		<line class="st12" x1="-138.8" y1="292.6" x2="-146.3" y2="294.3"/>
		<line class="st12" x1="-126.7" y1="302.3" x2="-126.7" y2="310"/>
		<line class="st12" x1="-104.7" y1="295.6" x2="-102.9" y2="296.2"/>
		<line class="st12" x1="-113" y1="272.1" x2="-111.2" y2="270.3"/>
		<line class="st12" x1="-141" y1="272.2" x2="-142.1" y2="271.1"/>
		<line class="st12" x1="-149.6" y1="295.3" x2="-152.1" y2="296.2"/>
		<line class="st12" x1="-127.1" y1="313.1" x2="-127" y2="315.3"/>
	</g>
	<g class="st6">
		<path class="st10" d="M-72.7,45.3h-45.2c-7,0-12.7,5.7-12.7,12.7v21.5c0,0.6,0.1,1.2,0.1,1.7v5.5V101l9.2-9.2
			c1.1,0.3,2.2,0.5,3.3,0.5h45.2c7,0,12.7-5.7,12.7-12.7V58C-60,51-65.7,45.3-72.7,45.3z"/>
		<line class="st9" x1="-118.8" y1="57.7" x2="-71.9" y2="57.7"/>
		<line class="st9" x1="-118.8" y1="66.1" x2="-71.9" y2="66.1"/>
		<line class="st9" x1="-118.8" y1="74.6" x2="-71.9" y2="74.6"/>
		<line class="st9" x1="-118.8" y1="83.1" x2="-71.9" y2="83.1"/>
		<path class="st10" d="M-185.1,27.7h36.8c5.7,0,10.4,4.9,10.4,10.9v18.5c0,0.5,0,1-0.1,1.5v4.7v12.3l-7.5-7.9
			c-0.9,0.2-1.8,0.4-2.7,0.4h-36.9c-5.7,0-10.4-4.9-10.4-10.9V38.6C-195.5,32.6-190.9,27.7-185.1,27.7z"/>
		<line class="st9" x1="-147.6" y1="38.3" x2="-185.8" y2="38.3"/>
		<line class="st9" x1="-147.6" y1="45.6" x2="-185.8" y2="45.6"/>
		<line class="st9" x1="-147.6" y1="52.9" x2="-185.8" y2="52.9"/>
		<line class="st9" x1="-147.6" y1="60.2" x2="-185.8" y2="60.2"/>
	</g>
	<g class="st6">
		<path class="st10" d="M-233.9,295.7h-27.9c-4.3,0-7.8,3.5-7.8,7.8v13.3c0,0.4,0,0.7,0.1,1.1v3.4v8.9l5.7-5.7
			c0.7,0.2,1.3,0.3,2.1,0.3h27.9c4.3,0,7.8-3.5,7.8-7.8v-13.3C-226,299.2-229.6,295.7-233.9,295.7z"/>
		<line class="st9" x1="-262.3" y1="303.3" x2="-233.4" y2="303.3"/>
		<line class="st9" x1="-262.3" y1="308.5" x2="-233.4" y2="308.5"/>
		<line class="st9" x1="-262.3" y1="313.8" x2="-233.4" y2="313.8"/>
		<line class="st9" x1="-262.3" y1="319" x2="-233.4" y2="319"/>
		<path class="st10" d="M-303.4,284.8h22.8c3.5,0,6.4,3,6.4,6.7V303c0,0.3,0,0.6-0.1,0.9v2.9v7.6l-4.7-4.9c-0.5,0.2-1.1,0.2-1.7,0.2
			h-22.8c-3.5,0-6.4-3-6.4-6.7v-11.4C-309.8,287.8-306.9,284.8-303.4,284.8z"/>
		<line class="st9" x1="-280.2" y1="291.4" x2="-303.8" y2="291.4"/>
		<line class="st9" x1="-280.2" y1="295.9" x2="-303.8" y2="295.9"/>
		<line class="st9" x1="-280.2" y1="300.4" x2="-303.8" y2="300.4"/>
		<line class="st9" x1="-280.2" y1="304.9" x2="-303.8" y2="304.9"/>
	</g>
	<g class="st6">
		<path class="st10" d="M84.6,314.8H56.7c-4.3,0-7.8,3.5-7.8,7.8v13.3c0,0.4,0,0.7,0.1,1.1v3.4v8.9l5.7-5.7c0.7,0.2,1.3,0.3,2.1,0.3
			h27.9c4.3,0,7.8-3.5,7.8-7.8v-13.3C92.4,318.3,88.9,314.8,84.6,314.8z"/>
		<line class="st9" x1="56.1" y1="322.4" x2="85.1" y2="322.4"/>
		<line class="st9" x1="56.1" y1="327.7" x2="85.1" y2="327.7"/>
		<line class="st9" x1="56.1" y1="332.9" x2="85.1" y2="332.9"/>
		<line class="st9" x1="56.1" y1="338.1" x2="85.1" y2="338.1"/>
		<path class="st10" d="M15.1,303.9h22.8c3.5,0,6.4,3,6.4,6.7V322c0,0.3,0,0.6-0.1,0.9v2.9v7.6l-4.7-4.9c-0.5,0.2-1.1,0.2-1.7,0.2
			H15c-3.5,0-6.4-3-6.4-6.7v-11.4C8.7,306.9,11.6,303.9,15.1,303.9z"/>
		<line class="st9" x1="38.3" y1="310.5" x2="14.7" y2="310.5"/>
		<line class="st9" x1="38.3" y1="315" x2="14.7" y2="315"/>
		<line class="st9" x1="38.3" y1="319.5" x2="14.7" y2="319.5"/>
		<line class="st9" x1="38.3" y1="324" x2="14.7" y2="324"/>
	</g>
	<g class="st6">
		<path class="st10" d="M-677.6,280.8h-27.9c-4.3,0-7.8,3.5-7.8,7.8v13.3c0,0.4,0,0.7,0.1,1.1v3.4v8.9l5.7-5.7
			c0.7,0.2,1.3,0.3,2.1,0.3h27.9c4.3,0,7.8-3.5,7.8-7.8v-13.3C-669.8,284.3-673.3,280.8-677.6,280.8z"/>
		<line class="st9" x1="-706.1" y1="288.4" x2="-677.1" y2="288.4"/>
		<line class="st9" x1="-706.1" y1="293.7" x2="-677.1" y2="293.7"/>
		<line class="st9" x1="-706.1" y1="298.9" x2="-677.1" y2="298.9"/>
		<line class="st9" x1="-706.1" y1="304.1" x2="-677.1" y2="304.1"/>
		<path class="st10" d="M-747.1,269.9h22.8c3.5,0,6.4,3,6.4,6.7V288c0,0.3,0,0.6-0.1,0.9v2.9v7.6l-4.7-4.9c-0.5,0.2-1.1,0.2-1.7,0.2
			h-22.7c-3.5,0-6.4-3-6.4-6.7v-11.4C-753.5,273-750.6,269.9-747.1,269.9z"/>
		<line class="st9" x1="-723.9" y1="276.5" x2="-747.5" y2="276.5"/>
		<line class="st9" x1="-723.9" y1="281" x2="-747.5" y2="281"/>
		<line class="st9" x1="-723.9" y1="285.5" x2="-747.5" y2="285.5"/>
		<line class="st9" x1="-723.9" y1="290" x2="-747.5" y2="290"/>
	</g>
	<g class="st6">
		<polygon class="st11" points="-310.8,54.8 -314.3,51.9 -309.5,52.3 -307.7,48.3 -306.2,52.3 -306.2,52.3 -301.6,52.1 -305.3,54.8 
			-303.3,59.7 -308.1,56.8 -313,59.7 		"/>
		<polygon class="st11" points="-293.8,54.8 -297.3,51.9 -292.5,52.3 -290.8,48.3 -289.2,52.3 -289.2,52.3 -284.6,52.1 -288.3,54.8 
			-286.3,59.7 -291.1,56.8 -296,59.7 		"/>
		<polygon class="st11" points="-276.9,54.8 -280.3,51.9 -275.5,52.3 -273.8,48.3 -272.2,52.3 -272.2,52.3 -267.6,52.1 -271.3,54.8 
			-269.4,59.7 -274.1,56.8 -279,59.7 		"/>
		<polygon class="st11" points="-259.9,54.8 -263.3,51.9 -258.5,52.3 -256.8,48.3 -255.2,52.3 -255.2,52.3 -250.6,52.1 -254.3,54.8 
			-252.4,59.7 -257.1,56.8 -262.1,59.7 		"/>
		<polygon class="st11" points="-242.9,54.8 -246.4,51.9 -241.5,52.3 -239.8,48.3 -238.2,52.3 -238.2,52.3 -233.6,52.1 -237.3,54.8 
			-235.4,59.7 -240.2,56.8 -245.1,59.7 		"/>
		<path class="st10" d="M-242.3,25.4h-63.1c-9.8,0-17.7,6.9-17.7,15.5v26.2c0,0.7,0.1,1.4,0.2,2.1c0,4.1,2.3,7.8,6,9.5l5.9,2.8
			c0.7,0.3,1.3,0.6,2.1,0.7c1.2,0.2,2.3,0.3,3.6,0.3h32.2c1.5,12.5-2.4,18.6-2.4,18.6c14.9-4.2,17.5-9.5,18-19.1l15.2,0.5
			c9.8,0,17.7-6.9,17.7-15.5V40.9C-224.6,32.4-232.5,25.4-242.3,25.4z"/>
	</g>
	<g class="st6">
		<polygon class="st11" points="-666.5,241.6 -669.9,238.7 -665.1,239.1 -663.4,235.1 -661.8,239.1 -661.8,239.1 -657.2,238.9 
			-660.9,241.7 -658.9,246.5 -663.7,243.6 -668.6,246.6 		"/>
		<polygon class="st11" points="-649.5,241.6 -652.9,238.7 -648.1,239.1 -646.4,235.1 -644.8,239.1 -644.8,239.1 -640.2,238.9 
			-643.9,241.7 -642,246.5 -646.7,243.6 -651.7,246.6 		"/>
		<polygon class="st11" points="-632.5,241.6 -635.9,238.7 -631.1,239.1 -629.4,235.1 -627.8,239.1 -627.8,239.1 -623.2,238.9 
			-626.9,241.7 -625,246.5 -629.8,243.6 -634.7,246.6 		"/>
		<polygon class="st11" points="-615.5,241.6 -619,238.7 -614.1,239.1 -612.4,235.1 -610.8,239.1 -610.8,239.1 -606.2,238.9 
			-609.9,241.7 -608,246.5 -612.8,243.6 -617.7,246.6 		"/>
		<polygon class="st11" points="-598.5,241.6 -602,238.7 -597.2,239.1 -595.4,235.1 -593.8,239.1 -593.8,239.1 -589.2,238.9 
			-592.9,241.7 -591,246.5 -595.8,243.6 -600.7,246.6 		"/>
		<path class="st10" d="M-598,212.3h-63.1c-9.8,0-17.7,6.9-17.7,15.5V254c0,0.7,0.1,1.4,0.2,2.1c0,4.1,2.3,7.8,6,9.5l5.9,2.8
			c0.7,0.3,1.3,0.6,2.1,0.7c1.2,0.2,2.3,0.3,3.6,0.3h32.4c1.5,12.5-2.4,18.6-2.4,18.6c14.9-4.2,17.5-9.5,18-19.1l15.2,0.5
			c9.8,0,17.7-6.9,17.7-15.5v-26.2C-580.2,219.2-588.2,212.3-598,212.3z"/>
	</g>
	<g class="st6">
		<polygon class="st11" points="-441.1,299 -443.2,297.2 -440.3,297.5 -439.2,295 -438.2,297.5 -438.2,297.5 -435.4,297.4 
			-437.7,299.1 -436.5,302.1 -439.4,300.3 -442.5,302.1 		"/>
		<polygon class="st11" points="-430.6,299 -432.7,297.2 -429.8,297.5 -428.7,295 -427.7,297.5 -427.7,297.5 -424.9,297.4 
			-427.2,299.1 -426,302.1 -428.9,300.3 -432,302.1 		"/>
		<polygon class="st11" points="-420.1,299 -422.2,297.2 -419.3,297.5 -418.2,295 -417.2,297.5 -417.2,297.5 -414.4,297.4 
			-416.7,299.1 -415.5,302.1 -418.4,300.3 -421.5,302.1 		"/>
		<polygon class="st11" points="-409.6,299 -411.7,297.2 -408.8,297.5 -407.7,295 -406.7,297.5 -406.7,297.5 -403.9,297.4 
			-406.2,299.1 -405,302.1 -407.9,300.3 -411,302.1 		"/>
		<polygon class="st11" points="-399.1,299 -401.2,297.2 -398.3,297.5 -397.2,295 -396.2,297.5 -396.2,297.5 -393.4,297.4 
			-395.7,299.1 -394.5,302.1 -397.4,300.3 -400.5,302.1 		"/>
		<path class="st10" d="M-398.8,280.9h-39c-6.1,0-11,4.3-11,9.6v16.2c0,0.4,0,0.9,0.1,1.3c0,2.5,1.4,4.8,3.7,5.9l3.7,1.8
			c0.4,0.2,0.8,0.4,1.3,0.4c0.7,0.1,1.4,0.2,2.2,0.2h20c0.9,7.7-1.5,11.5-1.5,11.5c9.2-2.6,10.8-5.9,11.2-11.8l9.4,0.3
			c6.1,0,11-4.3,11-9.6v-16.2C-387.8,285.2-392.7,280.9-398.8,280.9z"/>
	</g>
</g>
<g class="st0">
	<g class="st1">
		<path class="st25" d="M-647.1,292.5L-647.1,292.5c-70.7,0-128-57.3-128-128l0,0c0-70.7,57.3-128,128-128l0,0
			c70.7,0,128,57.3,128,128l0,0C-519.2,235.2-576.5,292.5-647.1,292.5z"/>
	</g>
	<g class="st1">
		<path class="st26" d="M-647.1,232.8L-647.1,232.8c23.1,0,43.9-9.9,58.3-25.7c7.2-7.8,7.2-19.9,0-27.7
			c-14.5-15.8-35.2-25.7-58.3-25.7l0,0c-23.1,0-43.9,9.9-58.3,25.7c-7.2,7.8-7.2,19.9,0,27.7C-691,222.9-670.2,232.8-647.1,232.8z"
			/>
		<path class="st26" d="M-647.1,163.2L-647.1,163.2c-16.7,0-30.2-13.5-30.2-30.2l0,0c0-16.7,13.5-30.2,30.2-30.2l0,0
			c16.7,0,30.2,13.5,30.2,30.2l0,0C-616.9,149.7-630.5,163.2-647.1,163.2z"/>
	</g>
</g>
<g class="st0">
	<g class="st1">
		<path class="st25" d="M-371.2,305.8L-371.2,305.8c-70.4,0-127.5-57.1-127.5-127.5l0,0c0-70.4,57.1-127.5,127.5-127.5l0,0
			c70.4,0,127.5,57.1,127.5,127.5l0,0C-243.7,248.7-300.8,305.8-371.2,305.8z"/>
	</g>
	<path class="st27" d="M-322.3,124.3h-97.9c-5.1,0-9.2,4.1-9.2,9.2v88.2h0.3l-0.1,10.5l11-10.5l95.8,0.1c5.1,0,9.2-4.1,9.2-9.2
		v-79.1C-313.1,128.4-317.2,124.3-322.3,124.3z"/>
	<g class="st1">
		<g>
			<path class="st25" d="M-332.4,135.4c-0.4-0.4-1.1-0.4-1.6,0l-10.6,10.6l0,0l-22.8,22.8l5.8,5.8l22.8-22.8l0,0l10.6-10.6
				c0.4-0.4,0.4-1.1,0-1.6L-332.4,135.4z"/>
		</g>
		<g>
			<path class="st25" d="M-368.1,175.9l6.3-1.2l-5.6-5.6l-1.2,6.3C-368.7,175.6-368.4,175.9-368.1,175.9z"/>
		</g>
	</g>
	<line class="st28" x1="-415.3" y1="185.7" x2="-353.3" y2="185.7"/>
	<line class="st28" x1="-348.4" y1="185.7" x2="-327.1" y2="185.7"/>
	<line class="st28" x1="-415.3" y1="198.5" x2="-353.3" y2="198.5"/>
	<line class="st28" x1="-348.4" y1="198.5" x2="-327.1" y2="198.5"/>
	<line class="st28" x1="-327.1" y1="192.1" x2="-389.2" y2="192.1"/>
	<line class="st28" x1="-394.1" y1="192.1" x2="-415.3" y2="192.1"/>
	<g class="st1">
		<path class="st25" d="M-393.1,211.3l-2.5-1.3c-0.1,0-0.2,0-0.3,0l-2.5,1.3c-0.2,0.1-0.4-0.1-0.4-0.3l0.4-2.8c0-0.1,0-0.2-0.1-0.2
			l-2-1.9c-0.2-0.2-0.1-0.4,0.1-0.5l2.8-0.4c0.1,0,0.2-0.1,0.2-0.2l1.2-2.5c0.1-0.2,0.4-0.2,0.5,0l1.3,2.5c0,0.1,0.1,0.1,0.2,0.2
			l2.8,0.4c0.2,0,0.3,0.3,0.2,0.5l-2,2c-0.1,0.1-0.1,0.2-0.1,0.2l0.5,2.8C-392.6,211.2-392.9,211.4-393.1,211.3z"/>
	</g>
	<g class="st1">
		<path class="st25" d="M-380.7,211.5l-2.5-1.3c-0.1,0-0.2,0-0.3,0l-2.5,1.3c-0.2,0.1-0.4-0.1-0.4-0.3l0.4-2.8c0-0.1,0-0.2-0.1-0.2
			l-2-1.9c-0.2-0.2-0.1-0.4,0.1-0.5l2.8-0.4c0.1,0,0.2-0.1,0.2-0.2l1.2-2.5c0.1-0.2,0.4-0.2,0.5,0l1.3,2.5c0,0.1,0.1,0.1,0.2,0.2
			l2.8,0.4c0.2,0,0.3,0.3,0.2,0.5l-2,2c-0.1,0.1-0.1,0.2-0.1,0.2l0.5,2.8C-380.2,211.4-380.5,211.6-380.7,211.5z"/>
	</g>
	<g class="st1">
		<path class="st25" d="M-368.3,211.7l-2.5-1.3c-0.1,0-0.2,0-0.3,0l-2.5,1.3c-0.2,0.1-0.4-0.1-0.4-0.3l0.4-2.8c0-0.1,0-0.2-0.1-0.2
			l-2-1.9c-0.2-0.2-0.1-0.4,0.1-0.5l2.8-0.4c0.1,0,0.2-0.1,0.2-0.2l1.2-2.5c0.1-0.2,0.4-0.2,0.5,0l1.3,2.5c0,0.1,0.1,0.1,0.2,0.2
			l2.8,0.4c0.2,0,0.3,0.3,0.2,0.5l-2,2c-0.1,0.1-0.1,0.2-0.1,0.2l0.5,2.8C-367.9,211.7-368.1,211.8-368.3,211.7z"/>
	</g>
	<g class="st1">
		<path class="st25" d="M-355.9,212l-2.5-1.3c-0.1,0-0.2,0-0.3,0l-2.4,1.3c-0.2,0.1-0.4-0.1-0.4-0.3l0.4-2.8c0-0.1,0-0.2-0.1-0.2
			l-2-1.9c-0.2-0.2-0.1-0.4,0.1-0.5l2.8-0.4c0.1,0,0.2-0.1,0.2-0.2l1.2-2.5c0.1-0.2,0.4-0.2,0.5,0l1.3,2.5c0,0.1,0.1,0.1,0.2,0.2
			l2.8,0.4c0.2,0,0.3,0.3,0.2,0.5l-2,2c-0.1,0.1-0.1,0.2-0.1,0.2l0.5,2.8C-355.5,211.9-355.7,212.1-355.9,212z"/>
	</g>
	<g class="st1">
		<path class="st25" d="M-343.5,212.2l-2.5-1.3c-0.1,0-0.2,0-0.3,0l-2.5,1.3c-0.2,0.1-0.4-0.1-0.4-0.3l0.4-2.8c0-0.1,0-0.2-0.1-0.2
			l-2-1.9c-0.2-0.2-0.1-0.4,0.1-0.5l2.8-0.4c0.1,0,0.2-0.1,0.2-0.2l1.2-2.5c0.1-0.2,0.4-0.2,0.5,0l1.3,2.5c0,0.1,0.1,0.1,0.2,0.2
			l2.8,0.4c0.2,0,0.3,0.3,0.2,0.5l-2,2c-0.1,0.1-0.1,0.2-0.1,0.2l0.5,2.8C-343.1,212.1-343.3,212.3-343.5,212.2z"/>
	</g>
</g>
<g class="st0">
	<g class="st1">
		<path class="st25" d="M-95.8,315.6L-95.8,315.6c-70.4,0-127.5-57.1-127.5-127.5l0,0c0-70.4,57.1-127.5,127.5-127.5l0,0
			c70.4,0,127.5,57.1,127.5,127.5l0,0C31.7,258.5-25.4,315.6-95.8,315.6z"/>
	</g>
	<g class="st1">
		<path class="st26" d="M-46.8,150.1h-97.9c-5.1,0-9.2,4.1-9.2,9.2v79.1c0,5.1,4.1,9.2,9.2,9.2h97.9c5.1,0,9.2-4.1,9.2-9.2v-79.1
			C-37.7,154.2-41.8,150.1-46.8,150.1z"/>
		<path class="st29" d="M-107.3,151.7L-107.3,151.7c-6.4,0-11.5-5.1-11.5-11.5l0,0c0-6.4,5.1-11.5,11.5-11.5l0,0
			c6.4,0,11.5,5.1,11.5,11.5l0,0C-95.8,146.6-100.9,151.7-107.3,151.7z"/>
		<path class="st29" d="M-84.8,151.7L-84.8,151.7c-6.4,0-11.5-5.1-11.5-11.5l0,0c0-6.4,5.1-11.5,11.5-11.5l0,0
			c6.4,0,11.5,5.1,11.5,11.5l0,0C-73.3,146.6-78.4,151.7-84.8,151.7z"/>
		<g>
			<rect x="-154" y="216.3" class="st25" width="116.5" height="15"/>
		</g>
		<line class="st30" x1="-96.3" y1="149.8" x2="-110.9" y2="175.5"/>
		<line class="st30" x1="-81" y1="175.4" x2="-95.9" y2="149.9"/>
	</g>
</g>
<g>
	<g>
		<path class="st25" d="M181.5,255.4L181.5,255.4c-41.4,0-75-33.6-75-75l0,0c0-41.4,33.6-75,75-75l0,0c41.4,0,75,33.6,75,75l0,0
			C256.5,221.9,222.9,255.4,181.5,255.4z"/>
	</g>
	<polyline class="st31" points="150.3,196.5 172.9,173.9 188,189 212.7,164.4 	"/>
</g>
</svg>
