<?xml version="1.0" encoding="utf-8"?>
<!-- Generator: Adobe Illustrator 22.0.0, SVG Export Plug-In . SVG Version: 6.00 Build 0)  -->
<svg version="1.1" id="Layer_1" xmlns="http://www.w3.org/2000/svg" xmlns:xlink="http://www.w3.org/1999/xlink" x="0px" y="0px"
	 viewBox="0 0 174 171.5" style="enable-background:new 0 0 174 171.5;" xml:space="preserve">
<style type="text/css">
	.st0{display:none;}
	.st1{display:inline;}
	.st2{fill:#081434;}
	
		.st3{display:inline;opacity:0.4;fill:none;stroke:#FCB713;stroke-width:3;stroke-linejoin:round;stroke-miterlimit:10;enable-background:new    ;}
	
		.st4{display:inline;opacity:0.4;fill:none;stroke:#FCB713;stroke-width:3;stroke-linecap:round;stroke-linejoin:round;stroke-miterlimit:10;enable-background:new    ;}
	
		.st5{display:inline;opacity:0.4;fill:none;stroke:#FCB713;stroke-width:2;stroke-linecap:round;stroke-linejoin:round;stroke-miterlimit:10;enable-background:new    ;}
	.st6{display:inline;opacity:0.4;}
	.st7{fill:none;stroke:#FCB713;stroke-width:4;stroke-linecap:round;stroke-linejoin:round;stroke-miterlimit:10;}
	.st8{fill:#FCB713;}
	.st9{fill:none;stroke:#FCB713;stroke-width:2;stroke-linecap:round;stroke-linejoin:round;stroke-miterlimit:10;}
	.st10{fill:none;stroke:#FCB713;stroke-width:3;stroke-linecap:round;stroke-linejoin:round;stroke-miterlimit:10;}
	.st11{fill:#FCB713;stroke:#FCB713;stroke-linecap:round;stroke-linejoin:round;stroke-miterlimit:10;}
	.st12{fill:none;stroke:#FCB713;stroke-linecap:round;stroke-linejoin:round;stroke-miterlimit:10;}
	.st13{fill:none;stroke:#FCB713;stroke-width:2;stroke-miterlimit:10;}
	.st14{fill:#C32126;stroke:#FCB713;stroke-linecap:round;stroke-linejoin:round;stroke-miterlimit:10;}
	.st15{fill:#FCB713;stroke:#FCB713;stroke-width:2;stroke-linecap:round;stroke-linejoin:round;stroke-miterlimit:10;}
	.st16{fill:#FBED21;stroke:#FBED21;stroke-width:2;stroke-linecap:round;stroke-miterlimit:10;}
	.st17{fill:none;stroke:#FBED21;stroke-width:2;stroke-linecap:round;stroke-miterlimit:10;}
	.st18{fill:none;stroke:#FCB713;stroke-width:1.5;stroke-linecap:round;stroke-linejoin:round;stroke-miterlimit:10;}
	.st19{fill:#FCB713;stroke:#FCB713;stroke-width:3;stroke-linecap:round;stroke-linejoin:round;stroke-miterlimit:10;}
	.st20{fill:none;stroke:#FCB713;stroke-linecap:square;stroke-linejoin:round;stroke-miterlimit:10;stroke-dasharray:5;}
	.st21{fill:#001147;}
	.st22{fill:#FFB900;}
	.st23{display:inline;fill:#FFB900;}
	.st24{display:inline;fill:none;stroke:#001147;stroke-width:2;stroke-linecap:round;stroke-miterlimit:10;}
	.st25{fill:none;stroke:#FFB900;stroke-width:12;stroke-miterlimit:10;}
	.st26{fill:none;stroke:#001147;stroke-width:12;stroke-linecap:round;stroke-miterlimit:10;}
	.st27{display:inline;fill:none;stroke:#FFB900;stroke-width:20;stroke-linecap:round;stroke-linejoin:round;stroke-miterlimit:10;}
</style>
<g id="Layer_1_1_" class="st0">
	<g class="st1">
		<rect x="-395.9" y="-94.1" class="st2" width="1000" height="360.9"/>
	</g>
	<polygon class="st3" points="46.3,66.9 86.4,39.2 97.5,55.3 128.3,34 137,46.7 169.9,24 162.6,13.5 192.9,19 187.6,47.9 178,35.8 
		136.3,64.6 126.7,50.7 95.4,72.2 83.8,55.4 52.6,76.9 	"/>
	<polygon class="st3" points="-371.5,72.4 -346.8,55.3 -339.9,65.2 -320.9,52.1 -315.5,59.9 -295.2,45.9 -299.7,39.4 -280.9,42.8 
		-284.2,60.7 -290.1,53.2 -315.9,71 -321.9,62.4 -341.2,75.7 -348.4,65.3 -367.7,78.6 	"/>
	<path class="st4" d="M-56.8,62.6c-3.6,15.3-29,31.1-29,31.1s-29.5-18.2-29.5-34.5c0-1.1,0-3.4,0-3.4c0-11.4,6.8-20.7,15.1-20.7
		c7,0,12.9,6.5,14.6,15.4l0,0c1.6-9,7.6-15.7,14.7-15.7c8.3,0,15.1,9.3,15.1,20.7C-55.7,58-56,60.4-56.8,62.6L-56.8,62.6z"/>
	<path class="st5" d="M61.5-56.5C59.7-48.8,47-41,47-41s-14.7-9.1-14.7-17.3c0-0.6,0-1.7,0-1.7c0-5.7,3.4-10.3,7.5-10.3
		c3.5,0,6.5,3.3,7.3,7.7l0,0c0.8-4.5,3.8-7.9,7.3-7.9c4.2,0,7.5,4.6,7.5,10.3C62-58.9,61.9-57.6,61.5-56.5L61.5-56.5z"/>
	<path class="st5" d="M393.8,239.6c-1.8,7.7-14.5,15.5-14.5,15.5s-14.7-9.1-14.7-17.3c0-0.6,0-1.7,0-1.7c0-5.7,3.4-10.3,7.5-10.3
		c3.5,0,6.5,3.3,7.3,7.7l0,0c0.8-4.5,3.8-7.9,7.3-7.9c4.2,0,7.5,4.6,7.5,10.3C394.3,237.3,394.1,238.5,393.8,239.6L393.8,239.6z"/>
	<path class="st5" d="M-224,237.5c-1.8,7.7-14.5,15.5-14.5,15.5s-14.7-9.1-14.7-17.3c0-0.6,0-1.7,0-1.7c0-5.7,3.4-10.3,7.5-10.3
		c3.5,0,6.5,3.3,7.3,7.7l0,0c0.8-4.5,3.8-7.9,7.3-7.9c4.2,0,7.5,4.6,7.5,10.3C-223.5,235.2-223.7,236.4-224,237.5L-224,237.5z"/>
	<g class="st6">
		<circle class="st7" cx="240.4" cy="38.5" r="27.6"/>
		<g>
			<g>
				<path class="st8" d="M228.8,34.8c3.9,0,3.9-6,0-6C224.9,28.8,224.9,34.8,228.8,34.8L228.8,34.8z"/>
			</g>
		</g>
		<g>
			<g>
				<path class="st8" d="M250.9,34.8c3.9,0,3.9-6,0-6C247,28.8,247,34.8,250.9,34.8L250.9,34.8z"/>
			</g>
		</g>
		<path class="st9" d="M228.2,45.1c0,0,11,14.4,23.2,0"/>
	</g>
	<g class="st6">
		<circle class="st7" cx="-76" cy="231.7" r="27.6"/>
		<g>
			<g>
				<path class="st8" d="M-87.6,228.1c3.9,0,3.9-6,0-6C-91.4,222.1-91.4,228.1-87.6,228.1L-87.6,228.1z"/>
			</g>
		</g>
		<g>
			<g>
				<path class="st8" d="M-65.5,228.1c3.9,0,3.9-6,0-6C-69.3,222.1-69.3,228.1-65.5,228.1L-65.5,228.1z"/>
			</g>
		</g>
		<path class="st9" d="M-88.1,238.3c0,0,11,14.4,23.2,0"/>
	</g>
	<g class="st6">
		<circle class="st7" cx="484.5" cy="10.9" r="17.1"/>
		<g>
			<g>
				<path class="st8" d="M477.4,9.8c3.9,0,3.9-6,0-6C473.5,3.8,473.5,9.8,477.4,9.8L477.4,9.8z"/>
			</g>
		</g>
		<g>
			<g>
				<path class="st8" d="M491,9.8c3.9,0,3.9-6,0-6C487.2,3.8,487.2,9.8,491,9.8L491,9.8z"/>
			</g>
		</g>
		<path class="st9" d="M477,15c0,0,6.8,8.9,14.3,0"/>
	</g>
	<g class="st6">
		<circle class="st7" cx="-336.1" cy="11.9" r="17.1"/>
		<g>
			<g>
				<path class="st8" d="M-343.2,10.8c3.9,0,3.9-6,0-6S-347.1,10.8-343.2,10.8L-343.2,10.8z"/>
			</g>
		</g>
		<g>
			<g>
				<path class="st8" d="M-329.6,10.8c3.9,0,3.9-6,0-6C-333.4,4.8-333.4,10.8-329.6,10.8L-329.6,10.8z"/>
			</g>
		</g>
		<path class="st9" d="M-343.6,16c0,0,6.8,8.9,14.3,0"/>
	</g>
	<g class="st6">
		<path class="st10" d="M-154.5,4.1h-106.2c-4.7,0-8.5-3.8-8.5-8.5v-55.4c0-4.7,3.8-8.5,8.5-8.5h106.1c4.7,0,8.5,3.8,8.5,8.5v55.4
			C-146,0.3-149.8,4.1-154.5,4.1z"/>
		<path class="st11" d="M-248.8-47.8l-1.4-1.2c-0.5-0.5-0.2-1.3,0.5-1.3l2.1,0.2c0.3,0,0.6-0.2,0.7-0.4l0.8-2c0.3-0.6,1.1-0.6,1.3,0
			l1,2.4l0,0l2.3-0.1c0.7,0,1,0.9,0.5,1.3l-1.4,1.1c-0.3,0.2-0.4,0.5-0.2,0.9l1,2.4c0.3,0.6-0.5,1.3-1.1,0.9l-2.6-1.6
			c-0.2-0.1-0.5-0.1-0.7,0l-2.7,1.6c-0.6,0.4-1.3-0.3-1-0.9l1.1-2.4C-248.5-47.3-248.5-47.6-248.8-47.8z"/>
		<path class="st11" d="M-229.2-47.7l-2.1-1.8c-0.3-0.3-0.1-0.9,0.3-0.8l3.1,0.2c0.2,0,0.4-0.1,0.5-0.3l1.2-2.7
			c0.2-0.4,0.7-0.4,0.9,0l1.2,3l0,0l3.2-0.1c0.5,0,0.7,0.6,0.3,0.8l-2.3,1.7c-0.2,0.1-0.2,0.4-0.2,0.6l1.3,3.3
			c0.2,0.4-0.3,0.8-0.7,0.6l-3.4-2.1c-0.1-0.1-0.3-0.1-0.5,0l-3.5,2.1c-0.4,0.2-0.9-0.2-0.7-0.6l1.5-3.3
			C-229-47.4-229-47.6-229.2-47.7z"/>
		<path class="st11" d="M-209.8-47.7l-2.1-1.8c-0.4-0.3-0.1-0.9,0.3-0.8l3.1,0.2c0.2,0,0.4-0.1,0.5-0.3l1.2-2.7
			c0.2-0.4,0.7-0.4,0.9,0l1.2,3l0,0l3.2-0.1c0.5,0,0.7,0.6,0.3,0.9l-2.3,1.7c-0.2,0.1-0.2,0.4-0.2,0.6l1.3,3.3
			c0.2,0.4-0.3,0.8-0.7,0.6l-3.4-2.1c-0.1-0.1-0.3-0.1-0.5,0l-3.5,2.1c-0.4,0.2-0.9-0.2-0.7-0.6l1.5-3.3
			C-209.5-47.4-209.6-47.6-209.8-47.7z"/>
		<path class="st12" d="M-190.3-47.7l-2-1.7c-0.4-0.3-0.1-1,0.4-0.9l2.9,0.2c0.2,0,0.4-0.1,0.5-0.3l1.1-2.6c0.2-0.4,0.8-0.4,1,0
			l1.1,2.9l0,0l3-0.1c0.5,0,0.7,0.6,0.3,0.9l-2.1,1.5c-0.2,0.1-0.3,0.4-0.2,0.6l1.2,3.1c0.2,0.5-0.3,0.9-0.8,0.6l-3.3-2
			c-0.2-0.1-0.4-0.1-0.5,0l-3.3,2c-0.4,0.3-1-0.2-0.7-0.7l1.4-3.1C-190.1-47.3-190.2-47.6-190.3-47.7z"/>
		<path class="st12" d="M-170.9-47.8l-1.9-1.6c-0.4-0.3-0.1-1,0.4-1l2.8,0.2c0.2,0,0.5-0.1,0.5-0.3l1.1-2.5c0.2-0.5,0.8-0.4,1,0
			l1.1,2.8l0,0l2.9-0.1c0.5,0,0.8,0.7,0.4,1l-2,1.5c-0.2,0.1-0.3,0.4-0.2,0.6l1.2,3c0.2,0.5-0.3,1-0.8,0.7l-3.2-1.9
			c-0.2-0.1-0.4-0.1-0.6,0l-3.2,1.9c-0.5,0.3-1-0.2-0.8-0.7l1.3-3C-170.7-47.3-170.7-47.6-170.9-47.8z"/>
		<line class="st9" x1="-251.5" y1="-31" x2="-226" y2="-31"/>
		<line class="st9" x1="-221.2" y1="-31" x2="-160.1" y2="-31"/>
		<line class="st9" x1="-160.1" y1="-23.5" x2="-185.6" y2="-23.5"/>
		<line class="st9" x1="-190.3" y1="-23.5" x2="-251.5" y2="-23.5"/>
		<line class="st9" x1="-251.5" y1="-7.8" x2="-218.4" y2="-7.8"/>
		<line class="st9" x1="-214.1" y1="-7.8" x2="-160.1" y2="-7.8"/>
		<line class="st9" x1="-251.5" y1="-15.6" x2="-159.7" y2="-15.6"/>
	</g>
	<g class="st6">
		<path class="st10" d="M510.9,191.9h-59.1c-4.7,0-8.5-3.8-8.5-8.5v-27.7c0-4.7,3.8-8.5,8.5-8.5h59.1c4.7,0,8.5,3.8,8.5,8.5v27.7
			C519.4,188.1,515.6,191.9,510.9,191.9z"/>
		<path class="st11" d="M455.9,159.9l-0.8-0.7c-0.3-0.3-0.1-0.8,0.3-0.8l1.3,0.1c0.2,0,0.4-0.1,0.4-0.3l0.5-1.2
			c0.2-0.4,0.7-0.4,0.8,0l0.6,1.5l0,0l1.4-0.1c0.4,0,0.6,0.5,0.3,0.8l-0.9,0.7c-0.2,0.1-0.2,0.3-0.2,0.5l0.6,1.5
			c0.2,0.4-0.3,0.8-0.7,0.6l-1.6-1c-0.1-0.1-0.3-0.1-0.5,0l-1.6,1c-0.4,0.2-0.8-0.2-0.6-0.6l0.7-1.5
			C456.1,160.2,456.1,160,455.9,159.9z"/>
		<path class="st11" d="M468,159.9l-1.3-1.1c-0.2-0.2-0.1-0.5,0.2-0.5l1.9,0.1c0.1,0,0.2-0.1,0.3-0.2l0.7-1.7c0.1-0.2,0.4-0.2,0.5,0
			l0.7,1.9l0,0l2-0.1c0.3,0,0.4,0.4,0.2,0.5l-1.4,1c-0.1,0.1-0.1,0.2-0.1,0.3l0.8,2c0.1,0.3-0.2,0.5-0.4,0.4l-2.1-1.3
			c-0.1-0.1-0.2-0.1-0.3,0l-2.2,1.3c-0.2,0.1-0.5-0.1-0.4-0.4l0.9-2.1C468.1,160.2,468.1,160,468,159.9z"/>
		<path class="st11" d="M480,159.9l-1.3-1.1c-0.2-0.2-0.1-0.5,0.2-0.5l1.9,0.1c0.1,0,0.2-0.1,0.3-0.2l0.7-1.7c0.1-0.2,0.4-0.2,0.5,0
			l0.7,1.9l0,0l2-0.1c0.3,0,0.4,0.4,0.2,0.5l-1.4,1c-0.1,0.1-0.1,0.2-0.1,0.3l0.8,2c0.1,0.3-0.2,0.5-0.4,0.4l-2-1.1
			c-0.1-0.1-0.2-0.1-0.3,0l-2.2,1.3c-0.2,0.1-0.5-0.1-0.4-0.4l0.9-2.1C480.2,160.2,480.1,160,480,159.9z"/>
		<path class="st12" d="M492,159.9l-1.2-1c-0.2-0.2-0.1-0.6,0.2-0.6l1.8,0.1c0.1,0,0.3-0.1,0.3-0.2l0.7-1.6c0.1-0.3,0.5-0.3,0.6,0
			l0.7,1.8l0,0l1.8-0.1c0.3,0,0.5,0.4,0.2,0.6l-1.3,1c-0.1,0.1-0.2,0.2-0.1,0.4l0.8,1.9c0.1,0.3-0.2,0.6-0.5,0.4l-2-1.2
			c-0.1-0.1-0.2-0.1-0.3,0l-2,1.2c-0.3,0.2-0.6-0.1-0.5-0.4l0.9-1.9C492.2,160.2,492.1,160,492,159.9z"/>
		<path class="st12" d="M504,159.9l-1.2-1c-0.3-0.2-0.1-0.6,0.2-0.6l1.7,0.1c0.1,0,0.3-0.1,0.3-0.2l0.7-1.5c0.1-0.3,0.5-0.3,0.6,0
			l0.7,1.7l0,0l1.8-0.1c0.3,0,0.5,0.4,0.2,0.6l-1.2,0.9c-0.1,0.1-0.2,0.3-0.1,0.4l0.7,1.9c0.1,0.3-0.2,0.6-0.5,0.4l-2-1.2
			c-0.1-0.1-0.2-0.1-0.4,0l-2,1.2c-0.3,0.2-0.6-0.1-0.5-0.4l0.8-1.9C504.2,160.2,504.1,160,504,159.9z"/>
		<line class="st9" x1="454.2" y1="170.2" x2="470" y2="170.2"/>
		<line class="st9" x1="472.9" y1="170.2" x2="510.7" y2="170.2"/>
		<line class="st9" x1="510.7" y1="174.9" x2="495" y2="174.9"/>
		<line class="st9" x1="492" y1="174.9" x2="454.2" y2="174.9"/>
		<line class="st9" x1="454.2" y1="184.6" x2="474.7" y2="184.6"/>
		<line class="st9" x1="477.4" y1="184.6" x2="510.7" y2="184.6"/>
		<line class="st9" x1="454.2" y1="179.8" x2="511" y2="179.8"/>
	</g>
	<g class="st6">
		<polygon class="st7" points="-109.8,-67.7 -60.2,-67.7 -60.2,10.4 -85,-14.4 -109.8,11.9 		"/>
		<polygon class="st11" points="-89.1,-38.7 -94,-42.9 -87.2,-42.3 -84.7,-48 -82.5,-42.3 -82.5,-42.3 -76,-42.6 -81.2,-38.7 
			-78.5,-31.8 -85.2,-35.9 -92.2,-31.8 		"/>
		<circle class="st13" cx="-85" cy="-39.9" r="16.5"/>
	</g>
	<g class="st6">
		<polygon class="st7" points="422,18.6 452.6,18.6 452.6,66.9 437.3,51.6 422,67.9 		"/>
		<polygon class="st11" points="434.8,36.5 431.7,34 436,34.3 437.5,30.8 438.8,34.3 438.8,34.3 442.9,34.2 439.6,36.6 441.3,40.8 
			437.1,38.3 432.8,40.8 		"/>
		<circle class="st13" cx="437.3" cy="35.8" r="10.2"/>
	</g>
	<g class="st6">
		<polygon class="st7" points="217.1,199.1 247.7,199.1 247.7,247.4 232.4,232.1 217.1,248.3 		"/>
		<polygon class="st11" points="229.9,217 226.8,214.5 231.1,214.8 232.6,211.3 234,214.8 234,214.8 238,214.6 234.7,217 
			236.4,221.3 232.3,218.8 228,221.3 		"/>
		<circle class="st13" cx="232.4" cy="216.3" r="10.2"/>
	</g>
	<g class="st6">
		<polygon class="st7" points="-361.5,215.4 -339.2,215.4 -339.2,250.5 -350.4,239.4 -361.5,251.2 		"/>
		<polygon class="st14" points="-352.2,228.4 -354.4,226.5 -351.4,226.8 -350.3,224.2 -349.3,226.8 -349.3,226.8 -346.3,226.7 
			-348.7,228.4 -347.5,231.5 -350.5,229.7 -353.6,231.5 		"/>
		<circle class="st13" cx="-350.4" cy="227.9" r="7.4"/>
	</g>
	<g class="st6">
		<rect x="370.4" y="-9.8" class="st10" width="34" height="34"/>
		<polyline class="st9" points="376.8,5 387.4,15.6 414.5,-11.4 		"/>
	</g>
	<g class="st6">
		<rect x="-145.6" y="146" class="st10" width="21" height="21"/>
		<polyline class="st9" points="-141.6,155.2 -135.1,161.8 -118.4,145.1 		"/>
	</g>
	<g class="st6">
		<rect x="310.9" y="229.9" class="st10" width="21" height="21"/>
		<polyline class="st9" points="314.8,239.1 321.4,245.6 338.1,228.9 		"/>
	</g>
	<g class="st6">
		<rect x="35.4" y="-7.5" class="st10" width="8.1" height="28.5"/>
		<path class="st10" d="M47.6-7.5V21H53l4.7,4.7h22.4l14.6-14.6V-7.5H67.9c0,0,5.6-18.6-6.8-20.3c-9.5-1.4,4.1,10.9-4.1,20.3
			C57-7.5,47.6-7.5,47.6-7.5z"/>
		<line class="st9" x1="94.8" y1="0.1" x2="73.4" y2="0.1"/>
		<line class="st9" x1="94.8" y1="9.5" x2="73.4" y2="9.5"/>
		<line class="st9" x1="88.2" y1="17.7" x2="73.4" y2="17.7"/>
	</g>
	<g class="st6">
		<rect x="533.3" y="179.3" class="st10" width="8.1" height="28.5"/>
		<path class="st10" d="M545.5,179.3v28.5h5.4l4.7,4.7h22.5l14.6-14.6v-18.7h-26.8c0,0,5.6-18.6-6.8-20.3
			c-9.5-1.4,4.1,10.9-4.1,20.3h-9.5V179.3z"/>
		<line class="st9" x1="592.6" y1="187" x2="571.3" y2="187"/>
		<line class="st9" x1="592.6" y1="196.3" x2="571.3" y2="196.3"/>
		<line class="st9" x1="586.1" y1="204.5" x2="571.3" y2="204.5"/>
	</g>
	<g class="st6">
		<rect x="-115.7" y="170.1" class="st10" width="5" height="17.6"/>
		<path class="st10" d="M-108.1,170.1v17.6h3.4l2.9,2.9H-88l9-9v-11.5h-16.6c0,0,3.5-11.5-4.2-12.6c-5.9-0.8,2.5,6.7-2.5,12.6
			H-108.1z"/>
		<line class="st9" x1="-79" y1="174.8" x2="-92.2" y2="174.8"/>
		<line class="st9" x1="-79" y1="180.6" x2="-92.2" y2="180.6"/>
		<line class="st9" x1="-83" y1="185.7" x2="-92.2" y2="185.7"/>
	</g>
	<g class="st6">
		<rect x="362" y="-74.1" class="st10" width="5" height="17.6"/>
		<path class="st10" d="M369.6-74.1v17.6h3.4l2.9,2.9h13.8l9-9v-11.5h-16.6c0,0,3.5-11.5-4.2-12.6c-5.9-0.8,2.5,6.7-2.5,12.6H369.6z
			"/>
		<line class="st9" x1="398.7" y1="-69.3" x2="385.5" y2="-69.3"/>
		<line class="st9" x1="398.7" y1="-63.6" x2="385.5" y2="-63.6"/>
		<line class="st9" x1="394.7" y1="-58.5" x2="385.5" y2="-58.5"/>
	</g>
	<g class="st6">
		<rect x="348.5" y="129.7" class="st10" width="10.9" height="85"/>
		<rect x="398.1" y="129.7" class="st10" width="10.9" height="85"/>
		<rect x="337.5" y="125.5" class="st15" width="85" height="14.3"/>
		<rect x="337.5" y="150.3" class="st15" width="85" height="14.3"/>
		<rect x="337.5" y="175.2" class="st15" width="85" height="14.3"/>
		<circle class="st16" cx="364.4" cy="132.3" r="3.4"/>
		<circle class="st16" cx="364.4" cy="157.5" r="3.4"/>
		<circle class="st16" cx="364.4" cy="182.7" r="3.4"/>
		<line class="st17" x1="372.8" y1="132.3" x2="396.4" y2="132.3"/>
		<line class="st17" x1="372.8" y1="157.5" x2="396.4" y2="157.5"/>
		<line class="st17" x1="372.8" y1="181.9" x2="396.4" y2="181.9"/>
	</g>
	<g class="st6">
		<rect x="-264.9" y="42.2" class="st10" width="6.8" height="52.5"/>
		<rect x="-234.2" y="42.2" class="st10" width="6.8" height="52.5"/>
		<rect x="-271.5" y="39.6" class="st15" width="52.5" height="8.8"/>
		<rect x="-271.5" y="54.9" class="st15" width="52.5" height="8.8"/>
		<rect x="-271.5" y="70.3" class="st15" width="52.5" height="8.8"/>
		<circle class="st16" cx="-254.9" cy="43.7" r="2.1"/>
		<circle class="st16" cx="-254.9" cy="59.3" r="2.1"/>
		<circle class="st16" cx="-254.9" cy="74.9" r="2.1"/>
		<line class="st17" x1="-249.7" y1="43.7" x2="-235.1" y2="43.7"/>
		<line class="st17" x1="-249.7" y1="59.3" x2="-235.1" y2="59.3"/>
		<line class="st17" x1="-249.7" y1="74.4" x2="-235.1" y2="74.4"/>
	</g>
	<g class="st6">
		<path class="st8" d="M360.8,67c4.3-4.5,6.9-10.8,6.9-17.9c0-13.5-9.7-24.4-21.8-24.4c-12,0-21.8,10.9-21.8,24.4
			c0,7.1,2.7,13.4,6.9,17.9c-17.6,4.8-30.3,17.8-30.3,33.1h90.4C391.1,84.7,378.5,71.7,360.8,67z"/>
		<path class="st9" d="M394.4,63.4c2.5-2.6,4.1-6.4,4.1-10.6c0-8-5.8-14.5-12.9-14.5c-7.1,0-12.9,6.5-12.9,14.5
			c0,4.2,1.6,7.9,4.1,10.6c-10.4,2.8-17.9,10.5-17.9,19.6h53.4C412.4,73.9,404.9,66.2,394.4,63.4z"/>
		<path class="st9" d="M315.7,61.9c2.7-2.8,4.4-6.8,4.4-11.3c0-8.5-6.1-15.4-13.7-15.4c-7.6,0-13.7,6.9-13.7,15.4
			c0,4.4,1.7,8.4,4.4,11.3C286,64.9,278,73.1,278,82.7h56.8C334.8,73.1,326.8,64.9,315.7,61.9z"/>
	</g>
	<g class="st6">
		<path class="st8" d="M-154.7,225.5c2.6-2.8,4.3-6.7,4.3-11c0-8.3-6-15.1-13.5-15.1c-7.4,0-13.5,6.8-13.5,15.1
			c0,4.4,1.7,8.3,4.3,11c-10.9,2.9-18.7,11-18.7,20.4h55.8C-136,236.5-143.8,228.4-154.7,225.5z"/>
		<path class="st9" d="M-133.9,223.3c1.6-1.6,2.5-4,2.5-6.5c0-4.9-3.6-8.9-8-8.9s-8,4-8,8.9c0,2.6,1,4.9,2.5,6.5
			c-6.5,1.7-11.1,6.5-11.1,12.1h33C-122.9,229.8-127.5,225-133.9,223.3z"/>
		<path class="st9" d="M-182.6,222.4c1.7-1.7,2.7-4.2,2.7-7c0-5.2-3.8-9.5-8.5-9.5s-8.5,4.3-8.5,9.5c0,2.7,1,5.2,2.7,7
			c-6.9,1.9-11.8,6.9-11.8,12.9h35.1C-170.8,229.3-175.7,224.2-182.6,222.4z"/>
	</g>
	<g class="st6">
		<path class="st8" d="M-320.3-45.2c2.6-2.8,4.3-6.7,4.3-11c0-8.3-6-15.1-13.5-15.1s-13.4,6.7-13.4,15.1c0,4.4,1.7,8.3,4.3,11
			c-10.9,2.9-18.7,11-18.7,20.4h55.8C-301.6-34.2-309.4-42.3-320.3-45.2z"/>
		<path class="st9" d="M-299.6-47.4c1.6-1.6,2.5-4,2.5-6.5c0-4.9-3.6-8.9-8-8.9c-4.4,0-8,4-8,8.9c0,2.6,1,4.9,2.5,6.5
			c-6.5,1.7-11.1,6.5-11.1,12.1h33C-288.5-40.9-293.1-45.7-299.6-47.4z"/>
		<path class="st9" d="M-348.2-48.3c1.7-1.7,2.7-4.2,2.7-7c0-5.2-3.8-9.5-8.5-9.5c-4.7,0-8.5,4.3-8.5,9.5c0,2.7,1,5.2,2.7,7
			c-6.9,1.9-11.8,6.9-11.8,12.9h35.1C-336.4-41.4-341.3-46.5-348.2-48.3z"/>
	</g>
	<g class="st6">
		<path class="st15" d="M4.5-43.8h-23.7l-9.9,37.1l21.4-9.6L14.4-5.4L4.5-43.8z M-8.1-19.4l-14,6.6l5.7-25H0.7l6.1,26.3L-8.1-19.4z"
			/>
		<path class="st12" d="M-23.9-32.3c-0.6-1-1.7-1.6-3-1.3l0,0c-3.1,0.8-4.8-3.6-1.8-5l0,0c2.3-1.1,1.9-4.4-0.6-5l0,0
			c-3.2-0.7-2.5-5.4,0.7-5.3l0,0c2.5,0.1,3.8-3,1.8-4.7l0,0c-2.5-2.1,0.2-6,3.1-4.3l0,0c2.2,1.3,4.7-0.9,3.8-3.3l0,0
			c-1.2-3,3-5.2,4.7-2.4l0,0c1.3,2.1,4.6,1.4,4.9-1.2l0,0C-10-68-5.3-68-5-64.7l0,0c0.2,2.5,3.5,3.4,4.9,1.3l0,0
			c1.8-2.7,5.9-0.5,4.7,2.5l0,0c-1,2.3,1.5,4.6,3.7,3.4l0,0c2.8-1.6,5.5,2.3,3,4.4l0,0c-2,1.6-0.8,4.8,1.7,4.7l0,0
			c3.2-0.1,3.8,4.6,0.6,5.3l0,0c-2.5,0.5-2.9,3.9-0.7,5l0,0c2.9,1.4,1.2,5.8-1.9,4.9l0,0c-0.7-0.2-1.3-0.1-1.9,0.1"/>
		<circle class="st11" cx="-8.3" cy="-43.8" r="15.8"/>
		<text transform="matrix(1 0 0 1 -14.4294 -36.1842)" style="fill:#FBED21; font-family:'News701BT-BoldA'; font-size:24.3945px;">1</text>
	</g>
	<g class="st6">
		<path class="st15" d="M541.5,72.9h-43.7L479.6,136l39.5-16.3l40.8,18.6L541.5,72.9z M518.3,114.4l-25.8,11.2L503,83.1h31.6
			l11.3,44.7L518.3,114.4z"/>
		<path class="st12" d="M489.1,92.5c-1-1.7-3.1-2.8-5.6-2.2l0,0c-5.8,1.4-8.8-6.1-3.4-8.5l0,0c4.2-1.8,3.5-7.6-1-8.5l0,0
			c-5.8-1.2-4.7-9.2,1.3-8.9l0,0c4.7,0.2,6.9-5.2,3.4-8l0,0c-4.6-3.6,0.5-10.1,5.6-7.4l0,0c4,2.2,8.7-1.6,7-5.6l0,0
			c-2.2-5.1,5.5-8.8,8.7-4.1l0,0c2.5,3.6,8.6,2.3,9-2l0,0c0.6-5.5,9.3-5.4,9.8,0.1l0,0c0.4,4.3,6.4,5.7,9,2.1l0,0
			c3.3-4.6,10.9-0.8,8.6,4.3l0,0c-1.8,4,2.8,7.8,6.9,5.7l0,0c5.2-2.7,10.1,4,5.5,7.5l0,0c-3.6,2.7-1.5,8.1,3.2,8l0,0
			c6-0.1,6.9,7.9,1.1,8.9l0,0c-4.6,0.9-5.4,6.6-1.2,8.5l0,0c5.3,2.5,2.2,9.9-3.6,8.4l0,0c-1.3-0.3-2.5-0.2-3.5,0.2"/>
		<ellipse class="st11" cx="518" cy="72.9" rx="29.1" ry="26.8"/>
		
			<text transform="matrix(1.0844 0 0 1 506.5731 85.9078)" style="fill:#FBED21; font-family:'News701BT-BoldA'; font-size:41.4534px;">1</text>
	</g>
	<g class="st6">
		<ellipse class="st9" cx="290.1" cy="127.3" rx="26.2" ry="6.1"/>
		<path class="st9" d="M263.9,126.8c0,0-1.1,32.3,14.5,35.7c0,0,9.2,3.1,23.6,0.4c1.4-0.3,2.7-0.9,3.7-1.9
			c3.5-3.6,11.5-13.9,10.6-33"/>
		<path class="st9" d="M316.3,133.6c0,0,1.1-5.7,4.5-4.5c0,0,4.5,0,3.3,8.9c-1.1,8.9-6.7,10-6.7,10s-3.4-0.8-5.6,4.1"/>
		<path class="st12" d="M268.9,139.6c0,0,2.2,20.1,14.5,18.9"/>
		<ellipse class="st8" cx="289.5" cy="129" rx="22.8" ry="3.9"/>
		<path class="st18" d="M278.9,109.5c0,0-3,3,0,6.7s0,6.7,0,6.7"/>
		<path class="st18" d="M299,109.5c0,0-3,3,0,6.7s0,6.7,0,6.7"/>
		<path class="st18" d="M287.9,103.9c0,0-3,3,0,6.7s0,6.7,0,6.7"/>
	</g>
	<g class="st6">
		<ellipse class="st9" cx="-127.7" cy="109.7" rx="16.2" ry="3.8"/>
		<path class="st9" d="M-143.9,109.3c0,0-0.7,20,9,22c0,0,5.7,1.9,14.6,0.2c0.9-0.2,1.7-0.6,2.3-1.2c2.2-2.2,7.1-8.6,6.5-20.4"/>
		<path class="st9" d="M-111.5,113.5c0,0,0.7-3.5,2.8-2.8c0,0,2.8,0,2.1,5.5s-4.1,6.2-4.1,6.2s-2.1-0.5-3.5,2.5"/>
		<path class="st12" d="M-140.8,117.3c0,0,1.4,12.4,9,11.7"/>
		<ellipse class="st8" cx="-128.1" cy="110.7" rx="14.1" ry="2.4"/>
		<path class="st18" d="M-134.6,98.7c0,0-1.8,1.8,0,4.1s0,4.1,0,4.1"/>
		<path class="st18" d="M-122.2,98.7c0,0-1.8,1.8,0,4.1s0,4.1,0,4.1"/>
		<path class="st18" d="M-129.1,95.2c0,0-1.8,1.8,0,4.1c1.8,2.3,0,4.1,0,4.1"/>
	</g>
	<g class="st6">
		<g>
			<circle class="st9" cx="-61.2" cy="125.8" r="15.3"/>
			<polygon class="st11" points="-65.1,126.3 -69.7,122.4 -63.3,122.9 -61,117.5 -58.9,122.9 -58.9,122.9 -52.8,122.6 -57.7,126.3 
				-55.1,132.8 -61.5,128.9 -68,132.8 			"/>
		</g>
		<path class="st10" d="M-67.9,161.2c0,0,6.8,13.9,13.3,0l15.7-24.8l0,0c1.7-3.6,2.6-7.8,2.3-12.1c-0.8-12.3-10.9-22.4-23.3-23.1
			c-14.2-0.8-26,10.6-26,24.6c0,4.7,1.3,9.1,3.6,12.9l-0.1,0.1L-67.9,161.2L-67.9,161.2z"/>
	</g>
	<g class="st6">
		<g>
			<circle class="st9" cx="443" cy="105.6" r="9.4"/>
			<polygon class="st11" points="440.6,106 437.8,103.6 441.7,103.9 443.2,100.6 444.5,103.9 444.5,103.9 448.3,103.7 445.2,106 
				446.8,110 442.9,107.6 438.8,110 			"/>
		</g>
		<path class="st10" d="M438.9,127.5c0,0,4.2,8.6,8.2,0l9.7-15.4l0,0c1.1-2.3,1.6-4.8,1.4-7.5c-0.5-7.6-6.7-13.8-14.4-14.3
			c-8.8-0.5-16.1,6.5-16.1,15.2c0,2.9,0.8,5.6,2.2,7.9h-0.1L438.9,127.5L438.9,127.5z"/>
	</g>
	<g class="st6">
		<rect x="-19.5" y="89.6" class="st19" width="25.1" height="83.6"/>
		<path class="st19" d="M234.2,173.2h25.1l-35.8-83.6h-4.8h-20.3h-4.8l-29.9,83.6h25.1l6.8-19.1H226L234.2,173.2z M200.8,139.8
			l8.7-24.3l10.4,24.3H200.8z"/>
		<polygon class="st19" points="159,111.1 159,89.6 115.9,89.6 90.9,89.6 90.9,111.1 90.9,120.7 90.9,142.2 90.9,151.7 90.9,173.2 
			115.9,173.2 159,173.2 159,151.7 115.9,151.7 115.9,141 142.2,141 142.2,123 115.9,123 115.9,111.1 		"/>
		<path class="st19" d="M39.5,89.6H15.6v83.6h23.9c24.4,0,44.2-18.7,44.2-41.8S63.9,89.6,39.5,89.6z M39.5,155.6h-1.2v-48.3h1.2
			c14.1,0,25.6,10.8,25.6,24.2C65,144.8,53.6,155.6,39.5,155.6z"/>
		<g>
			<line class="st9" x1="-17.9" y1="82.6" x2="3.6" y2="82.6"/>
			<line class="st9" x1="-20" y1="78.6" x2="5.7" y2="78.6"/>
			<path class="st9" d="M8.3,57.2c0,0-9,7.7-6.3,17.4h-18.8h-0.7c2.7-9.6-6.1-18.8-6.1-18.8c-1.8-2.9-2.9-6.4-2.9-10.1
				c0-10.7,8.6-19.3,19.3-19.3c10.7,0,19.3,8.6,19.3,19.3C12.2,50,10.7,54,8.3,57.2L8.3,57.2z"/>
			<path class="st9" d="M-10.9,68.2l-4.8-19.8c0,0,2.7-8,8,0c0,0,3.2-9.2,8,0l-4.8,19.8"/>
			<path class="st9" d="M-7.7,32.8c0,0-12.9,0-12.9,16.1"/>
			<line class="st9" x1="-8.1" y1="-0.6" x2="-8.1" y2="13"/>
			<line class="st9" x1="18.3" y1="9.7" x2="9.6" y2="20.2"/>
			<line class="st9" x1="32.5" y1="40" x2="19" y2="40.8"/>
			<line class="st9" x1="-38.3" y1="11.1" x2="-28.6" y2="20.6"/>
			<line class="st9" x1="-51.1" y1="41.3" x2="-37.5" y2="40.9"/>
			<line class="st9" x1="-37.5" y1="51.4" x2="-44.3" y2="53.7"/>
			<line class="st9" x1="-36.8" y1="30.6" x2="-43.5" y2="28.1"/>
			<line class="st9" x1="-19.8" y1="13.5" x2="-22.6" y2="6.9"/>
			<line class="st9" x1="3.3" y1="13.4" x2="5.9" y2="6.7"/>
			<line class="st9" x1="19.7" y1="28.7" x2="26.1" y2="25.5"/>
			<line class="st9" x1="21" y1="52.3" x2="27.7" y2="54.6"/>
		</g>
	</g>
	<g class="st6">
		<polygon class="st10" points="412.3,-80.4 512.2,-80.4 512.2,-18.9 412.3,-18.9 418.9,-26.1 414.3,-28.1 418.9,-34.7 412.3,-43.3 
			417.6,-46.7 412.3,-55.3 417.6,-61.2 412.3,-68.5 416.9,-72.5 		"/>
		<line class="st20" x1="426.8" y1="-76.8" x2="426.8" y2="-21.5"/>
		<line class="st9" x1="433.5" y1="-37.4" x2="502.3" y2="-37.4"/>
		<line class="st9" x1="433.5" y1="-30.1" x2="502.3" y2="-30.1"/>
		<text transform="matrix(1 0 0 1 443.3397 -49.1872)" class="st8" style="font-family:'News701BT-BoldA'; font-size:25.2051px;">20%</text>
	</g>
	<g class="st6">
		<polygon class="st10" points="-381.8,97.9 -281.8,97.9 -281.8,159.5 -381.8,159.5 -375.2,152.2 -379.8,150.2 -375.2,143.6 
			-381.8,135 -376.5,131.7 -381.8,123.1 -376.5,117.1 -381.8,109.8 -377.2,105.9 		"/>
		<line class="st20" x1="-367.2" y1="101.6" x2="-367.2" y2="156.8"/>
		<line class="st9" x1="-360.6" y1="141" x2="-291.8" y2="141"/>
		<line class="st9" x1="-360.6" y1="148.2" x2="-291.8" y2="148.2"/>
		<text transform="matrix(1 0 0 1 -350.7157 129.1576)" class="st8" style="font-family:'News701BT-BoldA'; font-size:25.2051px;">20%</text>
	</g>
	<g class="st6">
		<polygon class="st10" points="38.6,218 100.4,218 100.4,256 38.6,256 42.7,251.5 39.8,250.3 42.7,246.2 38.6,240.9 41.8,238.8 
			38.6,233.5 41.8,229.8 38.6,225.3 41.4,222.9 		"/>
		<line class="st20" x1="47.6" y1="220.2" x2="47.6" y2="254.4"/>
		<line class="st9" x1="51.7" y1="244.6" x2="94.2" y2="244.6"/>
		<line class="st9" x1="51.7" y1="249.1" x2="94.2" y2="249.1"/>
		<text transform="matrix(1 0 0 1 57.7792 237.2777)" class="st8" style="font-family:'News701BT-BoldA'; font-size:15.5779px;">20%</text>
	</g>
	<g class="st6">
		<path class="st10" d="M-181.7,56.9l-8.2-6.9c-2-1.7-0.7-4.9,1.9-4.7l12.2,0.9c1.1,0.1,2.2-0.6,2.7-1.6l4.7-10.9
			c1-2.2,4.1-2.2,5,0.1l5,12.6l0,0l12.7-0.5c2.6-0.1,3.8,3.3,1.7,4.9l-8.6,6.4c-1,0.7-1.4,2-0.9,3.2l5.3,13.3c1,2.4-1.7,4.6-3.9,3.3
			l-14-8.4c-0.8-0.5-1.9-0.5-2.8,0l-14.2,8.4c-2.3,1.3-4.9-1-3.8-3.4l5.9-13.3C-180.5,59-180.8,57.7-181.7,56.9z"/>
		<line class="st12" x1="-146.9" y1="60.4" x2="-134.7" y2="63.1"/>
		<line class="st12" x1="-146.9" y1="60.4" x2="-134.8" y2="63.4"/>
		<line class="st12" x1="-154.2" y1="39.7" x2="-146.5" y2="29.9"/>
		<line class="st12" x1="-137.6" y1="46.2" x2="-130.1" y2="44"/>
		<line class="st12" x1="-164.6" y1="25.2" x2="-163.7" y2="17.5"/>
		<line class="st12" x1="-195.1" y1="44.5" x2="-202.3" y2="41.5"/>
		<line class="st12" x1="-188.9" y1="79.8" x2="-194.2" y2="85.5"/>
		<line class="st12" x1="-144.9" y1="80.6" x2="-139.5" y2="86.3"/>
		<line class="st12" x1="-178.8" y1="39.8" x2="-186.4" y2="29.9"/>
		<line class="st12" x1="-186.1" y1="60.1" x2="-198.2" y2="62.7"/>
		<line class="st12" x1="-166.5" y1="75.8" x2="-166.6" y2="88.2"/>
		<line class="st12" x1="-131" y1="64.9" x2="-128" y2="65.8"/>
		<line class="st12" x1="-144.4" y1="26.9" x2="-141.5" y2="24"/>
		<line class="st12" x1="-189.8" y1="27" x2="-191.4" y2="25.3"/>
		<line class="st12" x1="-203.6" y1="64.4" x2="-207.6" y2="65.8"/>
		<line class="st12" x1="-167.2" y1="93.3" x2="-167.1" y2="96.8"/>
	</g>
	<g class="st6">
		<path class="st10" d="M539.1-9.9l-8.2-6.9c-2-1.7-0.7-4.9,1.9-4.7l12.3,0.9c1.1,0.1,2.2-0.6,2.7-1.6l4.7-10.9c1-2.2,4.1-2.2,5,0.1
			l5,12.6l0,0l12.7-0.5c2.6-0.1,3.8,3.3,1.7,4.9l-8.6,6.4c-1,0.7-1.4,2-0.9,3.2l5.3,13.3c1,2.4-1.7,4.6-3.9,3.3l-14-8.4
			c-0.8-0.5-1.9-0.5-2.8,0l-14.2,8.4c-2.3,1.3-4.9-1-3.8-3.4l5.9-13.3C540.3-7.9,540.1-9.2,539.1-9.9z"/>
		<line class="st12" x1="573.9" y1="-6.5" x2="586.1" y2="-3.8"/>
		<line class="st12" x1="573.9" y1="-6.5" x2="586" y2="-3.5"/>
		<line class="st12" x1="566.7" y1="-27.2" x2="574.3" y2="-37"/>
		<line class="st12" x1="583.2" y1="-20.7" x2="590.7" y2="-22.9"/>
		<line class="st12" x1="556.2" y1="-41.6" x2="557.2" y2="-49.4"/>
		<line class="st12" x1="525.7" y1="-22.3" x2="518.5" y2="-25.4"/>
		<line class="st12" x1="531.9" y1="13" x2="526.6" y2="18.6"/>
		<line class="st12" x1="575.9" y1="13.8" x2="581.3" y2="19.4"/>
		<line class="st12" x1="542" y1="-27.1" x2="534.4" y2="-36.9"/>
		<line class="st12" x1="534.7" y1="-6.8" x2="522.6" y2="-4.2"/>
		<line class="st12" x1="554.3" y1="8.9" x2="554.2" y2="21.4"/>
		<line class="st12" x1="589.8" y1="-2" x2="592.8" y2="-1.1"/>
		<line class="st12" x1="576.4" y1="-40" x2="579.3" y2="-42.9"/>
		<line class="st12" x1="531" y1="-39.9" x2="529.4" y2="-41.6"/>
		<line class="st12" x1="517.3" y1="-2.4" x2="513.2" y2="-1.1"/>
		<line class="st12" x1="553.7" y1="26.4" x2="553.7" y2="29.9"/>
	</g>
	<g class="st6">
		<path class="st10" d="M281.2,196.1l-5-4.3c-1.2-1-0.4-3.1,1.2-2.9l7.6,0.6c0.7,0.1,1.4-0.3,1.7-1l2.9-6.7c0.6-1.4,2.5-1.3,3.1,0
			l3.1,7.8l0,0l7.9-0.3c1.6-0.1,2.4,2,1.1,3l-5.3,3.9c-0.6,0.5-0.8,1.3-0.6,2l3.3,8.2c0.6,1.5-1,2.9-2.4,2l-8.7-5.2
			c-0.5-0.3-1.2-0.3-1.7,0l-8.8,5.2c-1.4,0.8-3-0.6-2.4-2.1l3.7-8.2C281.9,197.4,281.7,196.6,281.2,196.1z"/>
		<line class="st12" x1="302.7" y1="198.2" x2="310.2" y2="199.9"/>
		<line class="st12" x1="302.7" y1="198.2" x2="310.1" y2="200.1"/>
		<line class="st12" x1="298.2" y1="185.5" x2="302.9" y2="179.4"/>
		<line class="st12" x1="308.4" y1="189.5" x2="313" y2="188.1"/>
		<line class="st12" x1="291.7" y1="176.5" x2="292.3" y2="171.7"/>
		<line class="st12" x1="272.9" y1="188.4" x2="268.4" y2="186.6"/>
		<line class="st12" x1="276.7" y1="210.2" x2="273.4" y2="213.7"/>
		<line class="st12" x1="303.9" y1="210.7" x2="307.2" y2="214.2"/>
		<line class="st12" x1="282.9" y1="185.5" x2="278.2" y2="179.4"/>
		<line class="st12" x1="278.4" y1="198" x2="270.9" y2="199.7"/>
		<line class="st12" x1="290.5" y1="207.7" x2="290.5" y2="215.4"/>
		<line class="st12" x1="312.5" y1="201" x2="314.3" y2="201.6"/>
		<line class="st12" x1="304.2" y1="177.5" x2="306" y2="175.7"/>
		<line class="st12" x1="276.2" y1="177.6" x2="275.1" y2="176.5"/>
		<line class="st12" x1="267.6" y1="200.7" x2="265.1" y2="201.6"/>
		<line class="st12" x1="290.1" y1="218.5" x2="290.2" y2="220.7"/>
	</g>
	<g class="st6">
		<path class="st10" d="M344.5-49.3h-45.2c-7,0-12.7,5.7-12.7,12.7v21.5c0,0.6,0.1,1.2,0.1,1.7v5.5V6.4l9.2-9.2
			c1.1,0.3,2.2,0.5,3.3,0.5h45.2c7,0,12.7-5.7,12.7-12.7v-21.6C357.2-43.6,351.5-49.3,344.5-49.3z"/>
		<line class="st9" x1="298.4" y1="-36.9" x2="345.3" y2="-36.9"/>
		<line class="st9" x1="298.4" y1="-28.5" x2="345.3" y2="-28.5"/>
		<line class="st9" x1="298.4" y1="-20" x2="345.3" y2="-20"/>
		<line class="st9" x1="298.4" y1="-11.5" x2="345.3" y2="-11.5"/>
		<path class="st10" d="M232.1-66.9h36.8c5.7,0,10.4,4.9,10.4,10.9v18.5c0,0.5,0,1-0.1,1.5v4.7V-19l-7.5-7.9
			c-0.9,0.2-1.8,0.4-2.7,0.4h-36.9c-5.7,0-10.4-4.9-10.4-10.9V-56C221.7-62,226.3-66.9,232.1-66.9z"/>
		<line class="st9" x1="269.6" y1="-56.3" x2="231.4" y2="-56.3"/>
		<line class="st9" x1="269.6" y1="-49" x2="231.4" y2="-49"/>
		<line class="st9" x1="269.6" y1="-41.7" x2="231.4" y2="-41.7"/>
		<line class="st9" x1="269.6" y1="-34.4" x2="231.4" y2="-34.4"/>
	</g>
	<g class="st6">
		<path class="st10" d="M183.3,201.1h-27.9c-4.3,0-7.8,3.5-7.8,7.8v13.3c0,0.4,0,0.7,0.1,1.1v3.4v8.9l5.7-5.7
			c0.7,0.2,1.3,0.3,2.1,0.3h27.9c4.3,0,7.8-3.5,7.8-7.8v-13.3C191.2,204.6,187.6,201.1,183.3,201.1z"/>
		<line class="st9" x1="154.9" y1="208.7" x2="183.8" y2="208.7"/>
		<line class="st9" x1="154.9" y1="213.9" x2="183.8" y2="213.9"/>
		<line class="st9" x1="154.9" y1="219.2" x2="183.8" y2="219.2"/>
		<line class="st9" x1="154.9" y1="224.4" x2="183.8" y2="224.4"/>
		<path class="st10" d="M113.8,190.2h22.8c3.5,0,6.4,3,6.4,6.7v11.5c0,0.3,0,0.6-0.1,0.9v2.9v7.6l-4.7-4.9c-0.5,0.2-1.1,0.2-1.7,0.2
			h-22.8c-3.5,0-6.4-3-6.4-6.7V197C107.4,193.2,110.3,190.2,113.8,190.2z"/>
		<line class="st9" x1="137" y1="196.8" x2="113.4" y2="196.8"/>
		<line class="st9" x1="137" y1="201.3" x2="113.4" y2="201.3"/>
		<line class="st9" x1="137" y1="205.8" x2="113.4" y2="205.8"/>
		<line class="st9" x1="137" y1="210.3" x2="113.4" y2="210.3"/>
	</g>
	<g class="st6">
		<path class="st10" d="M501.8,220.2h-27.9c-4.3,0-7.8,3.5-7.8,7.8v13.3c0,0.4,0,0.7,0.1,1.1v3.4v8.9l5.7-5.7
			c0.7,0.2,1.3,0.3,2.1,0.3h27.9c4.3,0,7.8-3.5,7.8-7.8v-13.3C509.6,223.7,506.1,220.2,501.8,220.2z"/>
		<line class="st9" x1="473.3" y1="227.8" x2="502.3" y2="227.8"/>
		<line class="st9" x1="473.3" y1="233.1" x2="502.3" y2="233.1"/>
		<line class="st9" x1="473.3" y1="238.3" x2="502.3" y2="238.3"/>
		<line class="st9" x1="473.3" y1="243.5" x2="502.3" y2="243.5"/>
		<path class="st10" d="M432.3,209.3h22.8c3.5,0,6.4,3,6.4,6.7v11.4c0,0.3,0,0.6-0.1,0.9v2.9v7.6l-4.7-4.9c-0.5,0.2-1.1,0.2-1.7,0.2
			h-22.8c-3.5,0-6.4-3-6.4-6.7V216C425.9,212.3,428.8,209.3,432.3,209.3z"/>
		<line class="st9" x1="455.5" y1="215.9" x2="431.9" y2="215.9"/>
		<line class="st9" x1="455.5" y1="220.4" x2="431.9" y2="220.4"/>
		<line class="st9" x1="455.5" y1="224.9" x2="431.9" y2="224.9"/>
		<line class="st9" x1="455.5" y1="229.4" x2="431.9" y2="229.4"/>
	</g>
	<g class="st6">
		<path class="st10" d="M-260.4,186.2h-27.9c-4.3,0-7.8,3.5-7.8,7.8v13.3c0,0.4,0,0.7,0.1,1.1v3.4v8.9l5.7-5.7
			c0.7,0.2,1.3,0.3,2.1,0.3h27.9c4.3,0,7.8-3.5,7.8-7.8v-13.3C-252.6,189.7-256.1,186.2-260.4,186.2z"/>
		<line class="st9" x1="-288.9" y1="193.8" x2="-259.9" y2="193.8"/>
		<line class="st9" x1="-288.9" y1="199.1" x2="-259.9" y2="199.1"/>
		<line class="st9" x1="-288.9" y1="204.3" x2="-259.9" y2="204.3"/>
		<line class="st9" x1="-288.9" y1="209.5" x2="-259.9" y2="209.5"/>
		<path class="st10" d="M-329.9,175.3h22.8c3.5,0,6.4,3,6.4,6.7v11.4c0,0.3,0,0.6-0.1,0.9v2.9v7.6l-4.7-4.9
			c-0.5,0.2-1.1,0.2-1.7,0.2h-22.7c-3.5,0-6.4-3-6.4-6.7V182C-336.3,178.4-333.4,175.3-329.9,175.3z"/>
		<line class="st9" x1="-306.7" y1="181.9" x2="-330.3" y2="181.9"/>
		<line class="st9" x1="-306.7" y1="186.4" x2="-330.3" y2="186.4"/>
		<line class="st9" x1="-306.7" y1="190.9" x2="-330.3" y2="190.9"/>
		<line class="st9" x1="-306.7" y1="195.4" x2="-330.3" y2="195.4"/>
	</g>
	<g class="st6">
		<polygon class="st11" points="106.4,-39.8 102.9,-42.7 107.7,-42.3 109.5,-46.3 111,-42.3 111,-42.3 115.6,-42.5 111.9,-39.8 
			113.9,-34.9 109.1,-37.8 104.2,-34.9 		"/>
		<polygon class="st11" points="123.4,-39.8 119.9,-42.7 124.7,-42.3 126.4,-46.3 128,-42.3 128,-42.3 132.6,-42.5 128.9,-39.8 
			130.9,-34.9 126.1,-37.8 121.2,-34.9 		"/>
		<polygon class="st11" points="140.3,-39.8 136.9,-42.7 141.7,-42.3 143.4,-46.3 145,-42.3 145,-42.3 149.6,-42.5 145.9,-39.8 
			147.8,-34.9 143.1,-37.8 138.2,-34.9 		"/>
		<polygon class="st11" points="157.3,-39.8 153.9,-42.7 158.7,-42.3 160.4,-46.3 162,-42.3 162,-42.3 166.6,-42.5 162.9,-39.8 
			164.8,-34.9 160.1,-37.8 155.1,-34.9 		"/>
		<polygon class="st11" points="174.3,-39.8 170.8,-42.7 175.7,-42.3 177.4,-46.3 179,-42.3 179,-42.3 183.6,-42.5 179.9,-39.8 
			181.8,-34.9 177,-37.8 172.1,-34.9 		"/>
		<path class="st10" d="M174.9-69.2h-63.1c-9.8,0-17.7,6.9-17.7,15.5v26.2c0,0.7,0.1,1.4,0.2,2.1c0,4.1,2.3,7.8,6,9.5l5.9,2.8
			c0.7,0.3,1.3,0.6,2.1,0.7c1.2,0.2,2.3,0.3,3.6,0.3h32.2c1.5,12.5-2.4,18.6-2.4,18.6c14.9-4.2,17.5-9.5,18-19.1l15.2,0.5
			c9.8,0,17.7-6.9,17.7-15.5v-26.1C192.6-62.2,184.7-69.2,174.9-69.2z"/>
	</g>
	<g class="st6">
		<polygon class="st11" points="-249.3,147 -252.7,144.1 -247.9,144.5 -246.2,140.5 -244.6,144.5 -244.6,144.5 -240,144.3 
			-243.7,147.1 -241.7,151.9 -246.5,149 -251.4,152 		"/>
		<polygon class="st11" points="-232.3,147 -235.7,144.1 -230.9,144.5 -229.2,140.5 -227.6,144.5 -227.6,144.5 -223,144.3 
			-226.7,147.1 -224.8,151.9 -229.5,149 -234.5,152 		"/>
		<polygon class="st11" points="-215.3,147 -218.7,144.1 -213.9,144.5 -212.2,140.5 -210.6,144.5 -210.6,144.5 -206,144.3 
			-209.7,147.1 -207.8,151.9 -212.6,149 -217.5,152 		"/>
		<polygon class="st11" points="-198.3,147 -201.8,144.1 -196.9,144.5 -195.2,140.5 -193.6,144.5 -193.6,144.5 -189,144.3 
			-192.7,147.1 -190.8,151.9 -195.6,149 -200.5,152 		"/>
		<polygon class="st11" points="-181.3,147 -184.8,144.1 -180,144.5 -178.2,140.5 -176.6,144.5 -176.6,144.5 -172,144.3 
			-175.7,147.1 -173.8,151.9 -178.6,149 -183.5,152 		"/>
		<path class="st10" d="M-180.8,117.7h-63.1c-9.8,0-17.7,6.9-17.7,15.5v26.2c0,0.7,0.1,1.4,0.2,2.1c0,4.1,2.3,7.8,6,9.5l5.9,2.8
			c0.7,0.3,1.3,0.6,2.1,0.7c1.2,0.2,2.3,0.3,3.6,0.3h32.4c1.5,12.5-2.4,18.6-2.4,18.6c14.9-4.2,17.5-9.5,18-19.1l15.2,0.5
			c9.8,0,17.7-6.9,17.7-15.5v-26.2C-163,124.6-171,117.7-180.8,117.7z"/>
	</g>
	<g class="st6">
		<polygon class="st11" points="-23.9,204.4 -26,202.6 -23.1,202.9 -22,200.4 -21,202.9 -21,202.9 -18.2,202.8 -20.5,204.5 
			-19.3,207.5 -22.2,205.7 -25.3,207.5 		"/>
		<polygon class="st11" points="-13.4,204.4 -15.5,202.6 -12.6,202.9 -11.5,200.4 -10.5,202.9 -10.5,202.9 -7.7,202.8 -10,204.5 
			-8.8,207.5 -11.7,205.7 -14.8,207.5 		"/>
		<polygon class="st11" points="-2.9,204.4 -5,202.6 -2.1,202.9 -1,200.4 0,202.9 0,202.9 2.8,202.8 0.5,204.5 1.7,207.5 
			-1.2,205.7 -4.3,207.5 		"/>
		<polygon class="st11" points="7.6,204.4 5.5,202.6 8.4,202.9 9.5,200.4 10.5,202.9 10.5,202.9 13.3,202.8 11,204.5 12.2,207.5 
			9.3,205.7 6.2,207.5 		"/>
		<polygon class="st11" points="18.1,204.4 16,202.6 18.9,202.9 20,200.4 21,202.9 21,202.9 23.8,202.8 21.5,204.5 22.7,207.5 
			19.8,205.7 16.7,207.5 		"/>
		<path class="st10" d="M18.4,186.3h-39c-6.1,0-11,4.3-11,9.6v16.2c0,0.4,0,0.9,0.1,1.3c0,2.5,1.4,4.8,3.7,5.9l3.7,1.8
			c0.4,0.2,0.8,0.4,1.3,0.4c0.7,0.1,1.4,0.2,2.2,0.2h20c0.9,7.7-1.5,11.5-1.5,11.5c9.2-2.6,10.8-5.9,11.2-11.8l9.4,0.3
			c6.1,0,11-4.3,11-9.6v-16.2C29.4,190.6,24.5,186.3,18.4,186.3z"/>
	</g>
</g>
<g>
	<g>
		<path class="st21" d="M88.5,161.3L88.5,161.3c-41.4,0-75-33.6-75-75l0,0c0-41.4,33.6-75,75-75l0,0c41.4,0,75,33.6,75,75l0,0
			C163.5,127.7,129.9,161.3,88.5,161.3z"/>
	</g>
	<g>
		<path class="st22" d="M88.5,126.3L88.5,126.3c13.5,0,25.7-5.8,34.2-15.1c4.2-4.6,4.2-11.7,0-16.2c-8.5-9.3-20.6-15.1-34.2-15.1
			l0,0C75,79.9,62.8,85.7,54.4,95c-4.2,4.6-4.2,11.7,0,16.2C62.8,120.5,75,126.3,88.5,126.3z"/>
		<path class="st22" d="M88.5,85.5L88.5,85.5c-9.8,0-17.7-7.9-17.7-17.7l0,0c0-9.8,7.9-17.7,17.7-17.7l0,0c9.8,0,17.7,7.9,17.7,17.7
			l0,0C106.2,77.6,98.3,85.5,88.5,85.5z"/>
	</g>
</g>
<g class="st0">
	<g class="st1">
		<path class="st21" d="M46,211.2L46,211.2c-70.4,0-127.5-57.1-127.5-127.5l0,0C-81.5,13.3-24.4-43.8,46-43.8l0,0
			c70.4,0,127.5,57.1,127.5,127.5l0,0C173.5,154.1,116.4,211.2,46,211.2z"/>
	</g>
	<path class="st23" d="M94.9,29.7H-3c-5.1,0-9.2,4.1-9.2,9.2v88.2h0.3l-0.1,10.5l11-10.5l95.8,0.1c5.1,0,9.2-4.1,9.2-9.2V38.9
		C104.1,33.8,100,29.7,94.9,29.7z"/>
	<g class="st1">
		<g>
			<path class="st21" d="M84.8,40.8c-0.4-0.4-1.1-0.4-1.6,0L72.6,51.4l0,0L49.8,74.2l5.8,5.8l22.8-22.8l0,0L89,46.6
				c0.4-0.4,0.4-1.1,0-1.6L84.8,40.8z"/>
		</g>
		<g>
			<path class="st21" d="M49.1,81.3l6.3-1.2l-5.6-5.6l-1.2,6.3C48.5,81,48.8,81.3,49.1,81.3z"/>
		</g>
	</g>
	<line class="st24" x1="1.9" y1="91.1" x2="63.9" y2="91.1"/>
	<line class="st24" x1="68.8" y1="91.1" x2="90.1" y2="91.1"/>
	<line class="st24" x1="1.9" y1="103.9" x2="63.9" y2="103.9"/>
	<line class="st24" x1="68.8" y1="103.9" x2="90.1" y2="103.9"/>
	<line class="st24" x1="90.1" y1="97.5" x2="28" y2="97.5"/>
	<line class="st24" x1="23.1" y1="97.5" x2="1.9" y2="97.5"/>
	<g class="st1">
		<path class="st21" d="M24.1,116.7l-2.5-1.3c-0.1,0-0.2,0-0.3,0l-2.5,1.3c-0.2,0.1-0.4-0.1-0.4-0.3l0.4-2.8c0-0.1,0-0.2-0.1-0.2
			l-2-1.9c-0.2-0.2-0.1-0.4,0.1-0.5l2.8-0.4c0.1,0,0.2-0.1,0.2-0.2l1.2-2.5c0.1-0.2,0.4-0.2,0.5,0l1.3,2.5c0,0.1,0.1,0.1,0.2,0.2
			l2.8,0.4c0.2,0,0.3,0.3,0.2,0.5l-2,2c-0.1,0.1-0.1,0.2-0.1,0.2l0.5,2.8C24.6,116.6,24.3,116.8,24.1,116.7z"/>
	</g>
	<g class="st1">
		<path class="st21" d="M36.5,116.9l-2.5-1.3c-0.1,0-0.2,0-0.3,0l-2.5,1.3c-0.2,0.1-0.4-0.1-0.4-0.3l0.4-2.8c0-0.1,0-0.2-0.1-0.2
			l-2-1.9c-0.2-0.2-0.1-0.4,0.1-0.5l2.8-0.4c0.1,0,0.2-0.1,0.2-0.2l1.2-2.5c0.1-0.2,0.4-0.2,0.5,0l1.3,2.5c0,0.1,0.1,0.1,0.2,0.2
			l2.8,0.4c0.2,0,0.3,0.3,0.2,0.5l-2,2c-0.1,0.1-0.1,0.2-0.1,0.2l0.5,2.8C37,116.8,36.7,117,36.5,116.9z"/>
	</g>
	<g class="st1">
		<path class="st21" d="M48.9,117.1l-2.5-1.3c-0.1,0-0.2,0-0.3,0l-2.5,1.3c-0.2,0.1-0.4-0.1-0.4-0.3l0.4-2.8c0-0.1,0-0.2-0.1-0.2
			l-2-1.9c-0.2-0.2-0.1-0.4,0.1-0.5l2.8-0.4c0.1,0,0.2-0.1,0.2-0.2l1.2-2.5c0.1-0.2,0.4-0.2,0.5,0l1.3,2.5c0,0.1,0.1,0.1,0.2,0.2
			l2.8,0.4c0.2,0,0.3,0.3,0.2,0.5l-2,2c-0.1,0.1-0.1,0.2-0.1,0.2l0.5,2.8C49.3,117.1,49.1,117.2,48.9,117.1z"/>
	</g>
	<g class="st1">
		<path class="st21" d="M61.3,117.4l-2.5-1.3c-0.1,0-0.2,0-0.3,0l-2.4,1.3c-0.2,0.1-0.4-0.1-0.4-0.3l0.4-2.8c0-0.1,0-0.2-0.1-0.2
			l-2-1.9c-0.2-0.2-0.1-0.4,0.1-0.5l2.8-0.4c0.1,0,0.2-0.1,0.2-0.2l1.2-2.5c0.1-0.2,0.4-0.2,0.5,0l1.3,2.5c0,0.1,0.1,0.1,0.2,0.2
			l2.8,0.4c0.2,0,0.3,0.3,0.2,0.5l-2,2c-0.1,0.1-0.1,0.2-0.1,0.2l0.5,2.8C61.7,117.3,61.5,117.5,61.3,117.4z"/>
	</g>
	<g class="st1">
		<path class="st21" d="M73.7,117.6l-2.5-1.3c-0.1,0-0.2,0-0.3,0l-2.5,1.3c-0.2,0.1-0.4-0.1-0.4-0.3l0.4-2.8c0-0.1,0-0.2-0.1-0.2
			l-2-1.9c-0.2-0.2-0.1-0.4,0.1-0.5l2.8-0.4c0.1,0,0.2-0.1,0.2-0.2l1.2-2.5c0.1-0.2,0.4-0.2,0.5,0l1.3,2.5c0,0.1,0.1,0.1,0.2,0.2
			l2.8,0.4c0.2,0,0.3,0.3,0.2,0.5l-2,2c-0.1,0.1-0.1,0.2-0.1,0.2l0.5,2.8C74.1,117.5,73.9,117.7,73.7,117.6z"/>
	</g>
</g>
<g class="st0">
	<g class="st1">
		<path class="st21" d="M321.4,221L321.4,221c-70.4,0-127.5-57.1-127.5-127.5l0,0C193.9,23.1,251-34,321.4-34l0,0
			c70.4,0,127.5,57.1,127.5,127.5l0,0C448.9,163.9,391.8,221,321.4,221z"/>
	</g>
	<g class="st1">
		<path class="st22" d="M370.4,55.5h-97.9c-5.1,0-9.2,4.1-9.2,9.2v79.1c0,5.1,4.1,9.2,9.2,9.2h97.9c5.1,0,9.2-4.1,9.2-9.2V64.7
			C379.5,59.6,375.4,55.5,370.4,55.5z"/>
		<path class="st25" d="M309.9,57.1L309.9,57.1c-6.4,0-11.5-5.1-11.5-11.5l0,0c0-6.4,5.1-11.5,11.5-11.5l0,0
			c6.4,0,11.5,5.1,11.5,11.5l0,0C321.4,52,316.3,57.1,309.9,57.1z"/>
		<path class="st25" d="M332.4,57.1L332.4,57.1c-6.4,0-11.5-5.1-11.5-11.5l0,0c0-6.4,5.1-11.5,11.5-11.5l0,0
			c6.4,0,11.5,5.1,11.5,11.5l0,0C343.9,52,338.8,57.1,332.4,57.1z"/>
		<g>
			<rect x="263.2" y="121.7" class="st21" width="116.5" height="15"/>
		</g>
		<line class="st26" x1="320.9" y1="55.2" x2="306.3" y2="80.9"/>
		<line class="st26" x1="336.2" y1="80.8" x2="321.3" y2="55.3"/>
	</g>
</g>
<g class="st0">
	<g class="st1">
		<path class="st21" d="M586.2,221L586.2,221c-70.4,0-127.5-57.1-127.5-127.5l0,0C458.7,23.1,515.8-34,586.2-34l0,0
			c70.4,0,127.5,57.1,127.5,127.5l0,0C713.7,163.9,656.6,221,586.2,221z"/>
	</g>
	<polyline class="st27" points="533.2,120.8 571.7,82.3 597.4,108.1 639.3,66.2 	"/>
</g>
<image style="display:none;overflow:visible;opacity:0.98;" width="4158" height="1504" xlink:href="../300ppi/Artboard 1@300x-8.png"  transform="matrix(8.417509e-02 0 0 8.417509e-02 -71.9988 22.9377)">
</image>
</svg>
