<?xml version="1.0" encoding="utf-8"?>
<!-- Generator: Adobe Illustrator 22.0.0, SVG Export Plug-In . SVG Version: 6.00 Build 0)  -->
<svg version="1.1" id="Layer_1" xmlns="http://www.w3.org/2000/svg" xmlns:xlink="http://www.w3.org/1999/xlink" x="0px" y="0px"
	 viewBox="0 0 1000 360.9" style="enable-background:new 0 0 1000 360.9;" xml:space="preserve">
<style type="text/css">
	.st0{fill:#FDA801;}
	.st1{fill:#9A0505;}
	.st2{fill:#990303;}
	.st3{fill:#608F11;}
	.st4{fill:#5E8D0E;}
	.st5{fill:#9A0304;}
	.st6{fill:#5D8C0C;}
	.st7{fill:#F8F1EF;}
	.st8{fill:#970000;}
	.st9{fill:#980101;}
	.st10{fill:#FDFDFC;}
	.st11{fill:#608E16;}
	.st12{fill:#FCF9F8;}
	.st13{fill:#6F6F6F;}
	.st14{fill:#FDA907;}
	.st15{fill:#7D7D7D;}
	.st16{fill:#FED28C;}
	.st17{fill:#FEE9C6;}
	.st18{fill:#5C5C5C;}
	.st19{fill:#C3C3C3;}
	.st20{fill:#686868;}
	.st21{fill:#FBF7F7;}
	.st22{fill:#F8FAF5;}
	.st23{fill:#FDA906;}
</style>
<path class="st0" d="M399.3,190.8c-4.4-56.5,32.2-103.2,87.2-111.6c54-8.2,106.4,29.9,115,83.7c0.4,2.7,3.1,6.6-2.9,7.2
	c-4.7,0.5-5.5-1.6-6.3-5.8c-8-44.8-47.6-77.7-92.3-77.2c-45.2,0.6-83.7,33.6-90.7,78.7c-0.9,5.6-6.9,4.7-6.9,9.4
	c1.6,0.8,3.1,1.7,4.3,3.1c2,2.3,1.3,5,1.3,7.6C408,192.9,406.4,193.7,399.3,190.8z"/>
<path class="st0" d="M592.7,222.2c-0.1,6.7-4.3,11.6-7.9,16.5c-24.3,33.3-57.3,48.5-98,42.8c-42.4-5.9-70.1-31.2-83.9-71.7
	c-0.4-1.2-0.3-2.7-0.4-4c2.4-2.4,4.9-2.3,7.5-0.3c1.1,2.1,2.4,4.2,3.3,6.4c14.7,36.8,42,58.4,81.2,61.2
	c39.3,2.8,69.1-15.2,88.8-49.6C586.2,221.2,589.3,220.6,592.7,222.2z"/>
<path class="st1" d="M592.7,222.2c-3,1.5-6.2,1.2-9.4,1.4c-11.3-1.8-18.2-7.8-19.4-19.7c-0.4-3.9-3.8-2.3-5.8-2
	c-4.4,0.6-6.2-0.3-6.2-5.3c0.1-5.6,3.6-3.7,6-3.1c4.6,1,5.7-0.5,6.2-5.1c1.7-13.9,5.4-16.7,19.6-16.7c10.8,0,21.6,0,32.4,0
	c3.8,0,6.9,0.4,4.2,5.4c-11.3-0.2-22.5,2.3-33.8,2c-1.9-0.1-3.8,0.1-5.6,0.7c-3.3,1-6,3-5.9,6.8c0.1,4.3,3.7,5.2,6.9,5.3
	c9.7,0.4,19.3,0.8,29,1.9c2.6,0.3,5.4-0.7,7.9,0.8c0,1.5-0.1,3.1-0.1,4.6c-11.2,1.3-22.3,2.4-33.6,2.6c-3.6,0.1-7.4,0.3-8.4,4.7
	c-0.9,3.9,1.5,6,4.7,7.5c12.8,2.2,25.7,2.9,38.7,2.6c4.2,4,2.1,5.5-2.4,5.6C609.4,222.2,601.1,222.1,592.7,222.2z"/>
<path class="st2" d="M456.3,170.8c5-0.4,7.8,2.5,9.2,6.5c4.4,12.7,8.6,25.5,12.9,38.3c0.7,2.2,2.3,5.1-1.1,6.1
	c-2.6,0.8-3.2-2.2-4.4-3.9c-0.1-0.2-0.2-0.5-0.3-0.7c-2.8-4.6-0.7-12.3-6.9-14.1c-5.2-1.5-11.3,0.1-16.9-0.3
	c-3.8-0.2-4.5,2.1-5.3,4.7c-1.5,4.3-2.1,9-4.9,12.8c-1,1.4-2.4,2.5-4.1,1.5c-1.3-0.7-1.3-2.3-0.9-3.6c1.1-3.3,1.5-7.3,3.7-9.8
	c4.1-4.9-5.7-6.3-2.1-9.7c2.3-2.2,7-1.1,8-6.2c1-5.2,3.4-10.2,5.1-15.3C449.4,173,452,170.7,456.3,170.8z"/>
<path class="st2" d="M504.6,222.1c-7.7,0.3-13.5-1.2-18.9-3.7c-1.8-0.8-4.3-2.1-2.9-4.8c1.1-2.2,3.3-1.3,5-0.6
	c6.1,2.2,12.2,4.4,18.9,3.3c4.5-0.7,8.9-1.9,9.3-7.3c0.3-5-4.2-5.6-7.7-6.7c-4.3-1.4-8.7-2.7-13.2-4c-6.2-1.8-11.1-4.6-10.9-12
	c0.2-7.9,5.1-12.5,12-14.5c6.9-2,13.9-0.1,20.5,2.7c1.7,0.7,3.7,1.9,2.6,4.2c-1,2.2-3,1.7-4.9,1.2c-4.5-1-8.5-3.6-13.3-3.2
	c-5.2,0.4-9.7,2.3-11,7.8c-1.6,6.5,3.9,7.5,8.1,8.9c4.1,1.4,8.3,2.4,12.5,3.5c6.5,1.7,11.6,4.7,10.9,12.7c-0.7,7.9-6.2,10.8-13,12.1
	C506.7,222.2,504.8,222.1,504.6,222.1z"/>
<path class="st3" d="M443,165c-4.1,0.8-4.4-1.8-4.4-4.8c0-10.8,0.1-21.6,0-32.4c-0.1-3.7,1-5.5,5.1-5.3c5.1,0.3,10.3,0,15.4,0.1
	c5.6,0.2,10.3,2.3,11.7,8.1c1.5,6.2-1.8,10.4-6.9,13.2c-3,1.6-6.3,2.7-10,4.2c5.7,4,11.3,7.7,16.7,11.6c1.4,1,3.7,2.2,1.8,4.4
	c-1.5,1.7-3,0.1-4.3-0.7c-7.1-4.4-14.1-8.8-21.2-13.3c-5.5-3.9-1.7-6.2,1.6-8.2c3.5-2.1,7.7-2.5,11.3-4.5c1.7-1,3.3-2.3,2.7-4.5
	c-0.5-1.7-2.1-2.2-3.8-2.7c-8.6-2.4-11.9,0.4-13.4,9.2C443.7,147.9,445.1,156.6,443,165z"/>
<path class="st4" d="M493,164.6c-1.6,0-3.3-0.2-4.9,0c-7.1,1-10.7-1.2-9.5-9.1c0.4-2.6,1.3-6-2.7-7.5c-1.3-0.5-1.8-1.9-0.4-3.2
	c6.1-5.5,3.4-12.1,1.7-18.2c-0.8-2.8-1-4.2,2-4.3c8.4-0.2,16.8-0.1,25.2,0c1.3,0,2.9,0.2,3,2c0,2-1.4,2.7-3.2,2.7
	c-5.4,0-10.8,0.3-16.2,0c-5.2-0.3-5.3,3.1-4.4,6.3c1,3.7-3.9,10,4.2,10.6c4.8,0.4,9.7,0.1,14.6,0.1c1.8,0,3.7,0.6,3.6,2.3
	c0,1.7-1.9,2.4-3.7,2.4c-4.6,0-9.2,0.3-13.8-0.1c-4.7-0.3-5.2,2.2-5.2,6c0,3.7,0.9,5.5,5,5.3c5.4-0.3,10.8-0.1,16.2,0
	c1.6,0,3.6,0.1,3.5,2.3c-0.1,2-2,2.3-3.6,2.4C500.6,164.6,496.8,164.6,493,164.6C493,164.6,493,164.6,493,164.6z"/>
<path class="st5" d="M410.1,205.5c-2.5,0.1-5,0.2-7.5,0.3c-7,0.4-13.9,0.8-20.9,1.4c-5.6,0.5-9.1-1.5-9.3-7.3c-0.2-6,3-8.8,9.1-8.3
	c5.9,0.4,11.8,0.6,17.7,0.8c3.3-0.7,6.6-1.1,9.8,0.2C415.3,195.3,415.7,200.8,410.1,205.5z"/>
<path class="st6" d="M549.2,161.7c-0.4,0.7-0.7,2.1-1.3,2.4c-0.7,0.3-2.1-0.3-2.7-0.9c-0.9-0.9-1.3-2.3-2-3.5
	c-1.8-3.5-0.7-9.5-4.4-10.7c-4.6-1.5-10.1-0.3-15.2-0.3c-5.3,0-4.2,4.6-5.7,7.4c-1.7,3-1.7,9.4-5.9,7.8c-4.2-1.5,0.7-5.8,1.1-9
	c0.3-2.7,3.1-5.4-1-7.6c-0.9-0.5-0.9-2.4,0.2-2.7c8.8-2.2,7.6-10.7,10.3-16.5c1.6-3.4,3-6.4,7-6.8c4.1-0.4,6.8,2,8,5.5
	C541.5,138.3,545.2,149.9,549.2,161.7z"/>
<path class="st7" d="M618.8,194.3c-11.6-0.1-23.3-0.1-34.9-0.3c-5.7-0.1-12.4,0.2-12.1-8.1c0.2-7.3,5.5-9,12-8.9
	c12.2,0.2,24.4-0.1,36.6-0.1c-2.3,2.1-5.1,1.3-7.6,1.2c-5.4-0.3-8.9,0.2-8.8,7.4c0.1,6.6,2.9,7.6,8.2,7.2
	C614.4,192.5,617,191.9,618.8,194.3z"/>
<path class="st8" d="M403.2,178c-0.2-0.9-0.5-1.8-0.7-2.7c1.3-1.9,3.1-2.7,5.5-2.7c10,0.1,20,0,30,0.1c2,0,5-0.5,4.9,2.6
	c-0.1,2.7-2.8,2.6-5,3.1c-3.9,0.8-9.4-2.4-11.4,1.1c-2,3.6-0.9,8.9-0.9,13.4c-0.1,7.8,0.1,15.7-0.1,23.5c-0.1,2.4,1.4,6.5-2.7,6.2
	c-3.8-0.2-2.4-4.2-2.4-6.6c-0.2-12.1-0.3-24.3-0.4-36.4C414.6,177.3,408.6,180.5,403.2,178z"/>
<path class="st9" d="M544.5,200.7c0,5.1,0.1,10.3-0.1,15.4c-0.1,2.4,1.3,6.4-2.6,6.6c-4.1,0.2-2.8-3.9-2.8-6.2
	c-0.1-10.5-0.3-21.1,0.1-31.6c0.2-5.4-1.4-7-6.8-6.6c-3.5,0.3-9.9,2.2-9.7-3.3c0.1-4.4,6.4-2,9.8-2.2c8.1-0.4,16.2-0.2,24.3-0.1
	c2.1,0,4.9-0.4,4.8,2.8c-0.1,2.1-2.3,2.5-4.3,2.9c-4,0.8-9.3-2.1-11.6,0.9c-3.1,4-0.8,9.9-1.1,15
	C544.3,196.3,544.5,198.5,544.5,200.7z"/>
<path class="st10" d="M443,165c0.1-10.8,0.4-21.5,0.2-32.3c-0.1-4.2,1-5.9,5.3-5.5c4,0.4,8.1,0,12.1,0.5c2.7,0.3,5.2,1.9,5.6,5
	c0.3,3-1.1,5.3-3.9,6.4c-4.5,1.7-9.2,3.1-13.6,4.9c-2.8,1.2-5.8,2.8-1.9,6.2C442,154.2,447.5,160.9,443,165z"/>
<path class="st11" d="M550.6,142.5c0-4.6-0.2-9.2,0.1-13.8c0.2-2.6-1.8-7.3,2.5-7.1c3.9,0.2,2.1,4.9,2.1,7.5
	c0.2,7.8,0.4,15.7,0,23.5c-0.3,5.5,1,8,7,7.3c3.7-0.5,7.6-0.1,11.3-0.1c1.7,0,3.6,0.2,3.5,2.3c-0.1,1.9-1.8,2.4-3.6,2.4
	c-6.2,0-12.4,0-18.7,0c-3.4,0-4.7-1.6-4.5-5.1C550.7,153.8,550.5,148.1,550.6,142.5C550.6,142.5,550.6,142.5,550.6,142.5z"/>
<path class="st12" d="M579.8,215.9c-5.5-1.7-6.6-5.9-5.7-10.8c1-5.5,5.2-5.8,9.9-5.8c11.6,0.1,23.1-0.2,34.7-0.3
	c-5.6,3.9-11.9,1-17.8,1.9c-7.5,1.8-9.7,8.2-12.3,14.2C585.8,217,582.8,216.2,579.8,215.9z"/>
<path class="st13" d="M461.9,241.2c4.9-1.9,8.3-6.4,12.8-1.2c2,2.3,3.9-0.6,5.6-1c3.8-0.9,7.2-5.1,10.5,0.6c3.1-2.8,5.9-1.8,9,0.3
	c1.1,0.8,1.8-1.4,1.8-2.8c0-2.9,0-5.8,1.8-8.9c0,4.6,1.2,9.7-0.4,13.7c-1.3,3.4-6.3,0.7-9.5,1.2c-5.1,0.9-10.5,1.2-15.3,1.6
	C474.2,245.2,467.7,245.5,461.9,241.2z"/>
<path class="st14" d="M588,213.7c0.5-1.8,1.3-3.5,1.5-5.3c0.7-7.3,5-9.1,11.5-7.6c-1.1,4.3-2.3,8.6-3.4,12.9
	C594.3,216.1,591.2,216,588,213.7z"/>
<path class="st15" d="M531.1,239.6c5,1.5,9.5-2.9,15.2-0.2c3.9,1.8,1-4.7,3.1-6.5c2.8,10.3,2.8,10.4-7.9,10.2
	c-4.2-0.1-8.6,1.5-12.5-1.4C529.3,240.5,530,239.8,531.1,239.6z"/>
<path class="st16" d="M588,213.7c3.2,0,6.3,0,9.5,0c4.3,3.3,9.3,0.9,14,1.6c2.9,0.5,5.9-0.9,8.6,1c-13.4,0.3-26.9,1.1-40.3-0.5
	C582.4,214.6,585.8,216.4,588,213.7z"/>
<path class="st17" d="M403.2,178c5.6,1.2,11.5-1.6,16.8,1.7c-10.6,0.2-10.6,0.2-11.1,13c-3.3-0.1-6.5-0.2-9.8-0.2c0-0.5,0-1,0.1-1.6
	c2.8-0.7,7,2.4,8.1-2.2C408.5,184.5,408.3,180,403.2,178z"/>
<path class="st18" d="M531.1,239.6c-0.7,0.7-1.4,1.4-2,2c-2.3,0.5-4.7,1-7,1.3c-1.6,0.2-4.4,1.3-4.1-1.7c0.2-2.5,2.7-1.9,4.5-1.5
	c2.7,0.6,5.1,1.5,4.2-3.2c-0.3-1.6,2.1-2.3,3.7-1.6C532.7,236,532.1,237.8,531.1,239.6z"/>
<path class="st19" d="M459.5,243.7c0.2,1.9,0.4,4.1-2.2,4.2c-2.9,0.2-4.3-2.6-4.5-4.6c-0.2-2.2,1.7-4.7,4.3-4.6
	C460.1,238.8,459.3,241.7,459.5,243.7z"/>
<path class="st20" d="M506.9,228.4c2.1,4.7,0.3,9.6,2.4,14.2C504.2,238.4,508.4,232.9,506.9,228.4z"/>
<path class="st21" d="M466.3,197.1c-6.6,0-12.5,0-18.7,0c0.7-6.6,3.9-12.3,6.2-18.3c1.4-3.8,4.8-3.7,6.3,0.2
	C462.4,184.8,464.1,190.7,466.3,197.1z"/>
<path class="st22" d="M537.4,143.3c-1.3,0.3-1.5,0.5-1.8,0.4c-4.2-0.3-10.7,2-12.1-0.9c-2.1-4.3,2.3-9.5,4.1-14.2
	c1.5-3.9,4.3-3.2,5.5,0.1C534.8,133.5,537.2,138,537.4,143.3z"/>
<path class="st23" d="M602.6,186.6c-0.2,2.1,1.2,6.7-5,6.2c-2.5-0.2-5.6-0.2-4.1-3.7c1.5-3.3-2.5-9.3,4.6-10
	C603,178.6,603,181.8,602.6,186.6z"/>
</svg>
